<?xml version="1.0" encoding="utf-8"?>
<!-- Generator: Adobe Illustrator 23.0.6, SVG Export Plug-In . SVG Version: 6.00 Build 0)  -->
<svg version="1.1" id="Layer_1" xmlns="http://www.w3.org/2000/svg" xmlns:xlink="http://www.w3.org/1999/xlink" x="0px" y="0px"
	 viewBox="0 0 128 98" style="enable-background:new 0 0 128 98;" xml:space="preserve">
<style type="text/css">
	.st0{fill:#FFFFFF;}
	.st1{fill:#2B318B;}
	.st2{font-family:'Gilroy-Regular';}
	.st3{font-size:12.0158px;}
</style>
<path id="XMLID_1240_" class="st0" d="M65.6,3.2c29.5,0,53.4,20.5,53.4,45.8c0,25.3-23.9,45.9-53.4,45.9
	c-29.5,0-53.4-20.5-53.4-45.9C12.2,23.7,36.1,3.2,65.6,3.2"/>
<text id="XMLID_251_" transform="matrix(1 0 0 1 25.1851 66.074)"><tspan x="0" y="0" class="st1 st2 st3">Administración </tspan><tspan x="12.5" y="12.4" class="st1 st2 st3">del crédito</tspan></text>
<g id="XMLID_2003_">
	<g id="XMLID_2206_">
		<g id="XMLID_2207_">
			<path id="XMLID_1983_" class="st1" d="M63.1,13.1l0.7,1.1c2.7-1.7,6.1-1.7,8.8,0l0.7-1.1C70.3,11.1,66.3,11.1,63.1,13.1z"/>
		</g>
	</g>
	<g id="XMLID_2203_">
		<g id="XMLID_2204_">
			<path id="XMLID_1981_" class="st1" d="M60.1,21.1l-1.4,0c0,1.3,0.2,2.5,0.7,3.7l1.3-0.5C60.3,23.3,60.1,22.2,60.1,21.1z"/>
		</g>
	</g>
	<g id="XMLID_2200_">
		<g id="XMLID_2201_">
			<path id="XMLID_1973_" class="st1" d="M71.4,28.7c-1,0.4-2.1,0.6-3.1,0.6l0,1.4c1.3,0,2.5-0.2,3.7-0.7L71.4,28.7z"/>
		</g>
	</g>
	<g id="XMLID_2197_">
		<g id="XMLID_2198_">
			<path id="XMLID_1972_" class="st1" d="M76.5,21.1c0,1.1-0.2,2.1-0.6,3.1l1.3,0.5c0.5-1.2,0.7-2.4,0.7-3.7L76.5,21.1z"/>
		</g>
	</g>
	<g id="XMLID_2184_">
		<g id="XMLID_2190_">
			<path id="XMLID_2194_" class="st1" d="M68.3,14.3c-3.8,0-6.8,3.1-6.8,6.8s3.1,6.8,6.8,6.8c3.8,0,6.8-3.1,6.8-6.8
				C75.1,17.4,72,14.3,68.3,14.3z M68.3,26.6c-3,0-5.5-2.4-5.5-5.5c0-3,2.4-5.5,5.5-5.5c3,0,5.5,2.4,5.5,5.5
				C73.7,24.2,71.3,26.6,68.3,26.6z"/>
		</g>
	</g>
	<g id="XMLID_2157_">
		<g id="XMLID_2160_">
			<path id="XMLID_2162_" class="st1" d="M69.8,20.9L69,20.7l0-1.7c0.4,0.1,0.6,0.5,0.7,0.9l1.4,0c-0.1-1.2-0.9-2.1-2-2.3l0-0.4
				l-1.4,0l0,0.4c-1.1,0.2-2,1.2-2,2.3c0,0.7,0.5,1.4,1.2,1.6l0.8,0.3l0,1.7c-0.4-0.1-0.6-0.5-0.7-0.9l-1.4,0c0.1,1.2,0.9,2.1,2,2.3
				l0,0.4l1.4,0l0-0.4c1.1-0.2,2-1.2,2-2.3C71,21.8,70.5,21.1,69.8,20.9z M67.6,20.2l-0.4-0.1c-0.2-0.1-0.3-0.2-0.3-0.3
				c0-0.4,0.3-0.7,0.7-0.9L67.6,20.2z M69,23.4l0-1.3l0.4,0.1c0.2,0.1,0.3,0.2,0.3,0.3C69.6,22.9,69.3,23.3,69,23.4z"/>
		</g>
	</g>
	<g id="XMLID_2013_">
		<g id="XMLID_2014_">
			<path id="XMLID_2065_" class="st1" d="M86.5,39.8l-2.2-2.2l2.2-2.2c0.3-0.3,0.3-0.7,0-1l-8.9-8.9c-0.3-0.3-0.7-0.3-1,0l-8.7,8.7
				l-9.4-9.4c-0.3-0.3-0.7-0.3-1,0l-8.9,8.9c-0.3,0.3-0.3,0.7,0,1l5,5l-7.9,0l0,1.4l8.9,0c0.1,0,0.2,0,0.3-0.1l4.6-2l10.1,0l0,2.7
				l-7.5,0c-0.4,0-0.7,0.3-0.7,0.7c0,0.3,0.2,0.5,0.4,0.6l8.9,4.1c0.2,0.1,0.5,0.1,0.7-0.1l11.8-8.5l1.8,1.8L71.4,51.8l-3.7,0
				l-12.8-4.7c-0.1,0-0.2,0-0.2,0l-8.9,0l0,1.4l8.7,0l12.8,4.7c0.1,0,0.2,0,0.2,0l4.1,0c0.2,0,0.3-0.1,0.4-0.2l14.3-12.3
				C86.7,40.5,86.8,40.1,86.5,39.8C86.5,39.8,86.5,39.8,86.5,39.8z M59.4,37.5c-0.1,0-0.2,0-0.3,0.1L59,37.6
				c0.7-1.7,2.6-2.6,4.4-1.9c0.9,0.3,1.5,1,1.9,1.8L59.4,37.5z M66.7,37.5c-0.6-2-2.5-3.4-4.6-3.4c-2.4,0-4.4,1.8-4.7,4.2l-2.1,0.9
				l-5.1-5.1l7.9-7.9l11.3,11.3L66.7,37.5z M70.9,45.6L65.3,43l5.1,0c0.4,0,0.7-0.3,0.7-0.7l0-3.1l3.7,3.7L70.9,45.6z M71.1,37.3
				c0.3-1.5,1.5-2.5,3-2.5c1.7,0,3.1,1.4,3.1,3.1c0,1.5-1.1,2.7-2.5,3L71.1,37.3z M75.7,42c0.3-0.1,0.5-0.2,0.8-0.4L75.7,42L75.7,42
				z M82.8,37l-6,4.3c1.9-1.5,2.2-4.3,0.7-6.2c-1.5-1.9-4.3-2.2-6.2-0.7c-0.6,0.5-1.1,1.1-1.3,1.8l-1.1-1.1l8.2-8.2l7.9,7.9L82.8,37
				z"/>
		</g>
	</g>
</g>
</svg>
