<?xml version="1.0" encoding="utf-8"?>
<!-- Generator: Adobe Illustrator 23.0.6, SVG Export Plug-In . SVG Version: 6.00 Build 0)  -->
<svg version="1.1" id="Layer_1" xmlns="http://www.w3.org/2000/svg" xmlns:xlink="http://www.w3.org/1999/xlink" x="0px" y="0px"
	 viewBox="0 0 116 100" style="enable-background:new 0 0 116 100;" xml:space="preserve">
<style type="text/css">
	.st0{fill:#FFFFFF;}
	.st1{fill:#2B318B;}
	.st2{font-family:'Gilroy-Regular';}
	.st3{font-size:12.0158px;}
</style>
<path id="XMLID_2864_" class="st0" d="M56.6,4.2c29.5,0,53.4,20.5,53.4,45.8c0,25.3-23.9,45.9-53.4,45.9
	c-29.5,0-53.4-20.5-53.4-45.9C3.2,24.7,27.1,4.2,56.6,4.2"/>
<text id="XMLID_2814_" transform="matrix(1 0 0 1 15.552 71.1488)"><tspan x="0" y="0" class="st1 st2 st3">Administración</tspan><tspan x="3.5" y="10.4" class="st1 st2 st3">de productos</tspan></text>
<path id="XMLID_3127_" class="st1" d="M57.1,59.3h23.5V40.5H57.1V59.3z M66.5,42.1h4.7v1.6h-4.7V42.1z M58.6,42.1h6.3v3.1h7.8v-3.1
	H79v15.7H58.6V42.1z"/>
<path id="XMLID_2956_" class="st1" d="M79,26.4h-1.6V10.7H57.1v15.7h-1.6V10.7H35.1v15.7h-1.6c-0.9,0-1.6,0.7-1.6,1.6v1.6
	c0,0.9,0.7,1.6,1.6,1.6h4.1c-0.1,0.5-0.2,1-0.2,1.6c0,2.2,1.1,4.1,2.8,5.2c-4.8,1.5-8.3,6-8.3,11.2c0,1.6,1,3,2.3,3.6v6.6h21.1V49.1
	c0-5.3-3.5-9.7-8.3-11.2c1.7-1.1,2.8-3,2.8-5.2c0-0.5-0.1-1.1-0.2-1.6H79c0.9,0,1.6-0.7,1.6-1.6V28C80.6,27.1,79.9,26.4,79,26.4z
	 M64.9,12.3h4.7v1.6h-4.7V12.3z M58.6,12.3h4.7v3.1h7.8v-3.1h4.7v14.1h-4.7v-3.1h-7.8v3.1h-4.7V12.3z M69.6,26.4h-4.7v-1.6h4.7V26.4
	z M43,12.3h4.7v1.6H43V12.3z M36.7,12.3h4.7v3.1h7.8v-3.1h4.7v14.1h-4.7v-3.1h-7.8v3.1h-4.7V12.3z M43,26.4v-1.6h4.7v1.6H43z
	 M33.6,29.5V28h6c-0.5,0.4-0.9,1-1.3,1.6H33.6z M35.9,53h3.1v4.7h-3.1V53z M43.4,47.5h-2.7v-3.9h5.5v3.9H50v10.2h-9.4V53h2.7
	c1.5,0,2.7-1.2,2.7-2.7S44.9,47.5,43.4,47.5z M47.7,44.7l1.2,1.2h-1.2V44.7z M53.9,49.1v8.6h-2.3V46.4l-4.4-4.4h-8.2v5.5h-2.3v1.6
	h6.7c0.6,0,1.2,0.5,1.2,1.2s-0.5,1.2-1.2,1.2h-7.4c-1.3,0-2.3-1.1-2.3-2.3c0-5.6,4.6-10.2,10.2-10.2S53.9,43.5,53.9,49.1z
	 M43.8,37.4c-2.6,0-4.7-2.1-4.7-4.7s2.1-4.7,4.7-4.7s4.7,2.1,4.7,4.7S46.4,37.4,43.8,37.4z M79,29.5H49.2c-0.3-0.6-0.8-1.1-1.3-1.6
	H79V29.5z"/>
</svg>
