<?xml version="1.0" encoding="utf-8"?>
<!-- Generator: Adobe Illustrator 23.0.6, SVG Export Plug-In . SVG Version: 6.00 Build 0)  -->
<svg version="1.1" id="Layer_1" xmlns="http://www.w3.org/2000/svg" xmlns:xlink="http://www.w3.org/1999/xlink" x="0px" y="0px"
	 viewBox="0 0 116 100" style="enable-background:new 0 0 116 100;" xml:space="preserve">
<style type="text/css">
	.st0{fill:#FFFFFF;}
	.st1{fill:#2B318B;}
	.st2{font-family:'Gilroy-Regular';}
	.st3{font-size:12.0158px;}
</style>
<path id="XMLID_2850_" class="st0" d="M60.4,4.1c29.5,0,53.4,20.5,53.4,45.8c0,25.3-23.9,45.9-53.4,45.9C30.9,95.7,7,75.2,6.9,49.9
	C6.9,24.6,30.9,4.1,60.4,4.1"/>
<text id="XMLID_2827_" transform="matrix(1 0 0 1 27.7869 78.2338)" class="st1 st2 st3">Almacenaje</text>
<g id="Storage">
	<path id="XMLID_2762_" class="st1" d="M40.5,60h-1.8c-0.5,0-0.9,0.4-0.9,0.9s0.4,0.9,0.9,0.9h1.8c0.5,0,0.9-0.4,0.9-0.9
		S41,60,40.5,60z"/>
	<path id="XMLID_2761_" class="st1" d="M40.5,57.3h-1.8c-0.5,0-0.9,0.4-0.9,0.9c0,0.5,0.4,0.9,0.9,0.9h1.8c0.5,0,0.9-0.4,0.9-0.9
		C41.4,57.7,41,57.3,40.5,57.3z"/>
	<path id="XMLID_2760_" class="st1" d="M56.6,60h-1.8c-0.5,0-0.9,0.4-0.9,0.9s0.4,0.9,0.9,0.9h1.8c0.5,0,0.9-0.4,0.9-0.9
		S57.1,60,56.6,60z"/>
	<path id="XMLID_2757_" class="st1" d="M56.6,57.3h-1.8c-0.5,0-0.9,0.4-0.9,0.9c0,0.5,0.4,0.9,0.9,0.9h1.8c0.5,0,0.9-0.4,0.9-0.9
		C57.5,57.7,57.1,57.3,56.6,57.3z"/>
	<path id="XMLID_2756_" class="st1" d="M72.8,60H71c-0.5,0-0.9,0.4-0.9,0.9s0.4,0.9,0.9,0.9h1.8c0.5,0,0.9-0.4,0.9-0.9
		S73.3,60,72.8,60z"/>
	<path id="XMLID_2755_" class="st1" d="M72.8,57.3H71c-0.5,0-0.9,0.4-0.9,0.9c0,0.5,0.4,0.9,0.9,0.9h1.8c0.5,0,0.9-0.4,0.9-0.9
		C73.7,57.7,73.3,57.3,72.8,57.3z"/>
	<path id="XMLID_2780_" class="st1" d="M84.4,44.8h-7.2v-17c0-0.5-0.4-0.9-0.9-0.9h-7.2V11.6c0-0.5-0.4-0.9-0.9-0.9H52.2
		c-0.5,0-0.9,0.4-0.9,0.9v15.2h-7.2c-0.5,0-0.9,0.4-0.9,0.9v17H36c-0.5,0-0.9,0.4-0.9,0.9v17.9c0,0.5,0.4,0.9,0.9,0.9h48.4
		c0.5,0,0.9-0.4,0.9-0.9V45.7C85.3,45.2,84.9,44.8,84.4,44.8z M75.5,46.6h1.8v3.6h-1.8V46.6z M75.5,44.8H61.1V28.6h4.5v4.5
		c0,0.5,0.4,0.9,0.9,0.9h3.6c0.5,0,0.9-0.4,0.9-0.9v-4.5h4.5V44.8z M59.3,46.6h1.8v3.6h-1.8V46.6z M69.2,28.6v3.6h-1.8v-3.6H69.2z
		 M61.1,12.5v1.8h-1.8v-1.8H61.1z M53.1,12.5h4.5v2.7c0,0.5,0.4,0.9,0.9,0.9H62c0.5,0,0.9-0.4,0.9-0.9v-2.7h4.5v14.3H53.1V12.5z
		 M53.1,28.6v3.6h-1.8v-3.6H53.1z M45,28.6h4.5v4.5c0,0.5,0.4,0.9,0.9,0.9H54c0.5,0,0.9-0.4,0.9-0.9v-4.5h4.5v16.1H45V28.6z
		 M45,46.6v3.6h-1.8v-3.6H45z M36.9,46.6h4.5v4.5c0,0.5,0.4,0.9,0.9,0.9h3.6c0.5,0,0.9-0.4,0.9-0.9v-4.5h4.5v16.1H36.9V46.6z
		 M53.1,46.6h4.5v4.5c0,0.5,0.4,0.9,0.9,0.9H62c0.5,0,0.9-0.4,0.9-0.9v-4.5h4.5v16.1H53.1V46.6z M83.5,62.7H69.2V46.6h4.5v4.5
		c0,0.5,0.4,0.9,0.9,0.9h3.6c0.5,0,0.9-0.4,0.9-0.9v-4.5h4.5V62.7z"/>
	<path id="XMLID_2731_" class="st1" d="M46.8,43.9h1.8c0.5,0,0.9-0.4,0.9-0.9s-0.4-0.9-0.9-0.9h-1.8c-0.5,0-0.9,0.4-0.9,0.9
		S46.3,43.9,46.8,43.9z"/>
	<path id="XMLID_2730_" class="st1" d="M46.8,41.2h1.8c0.5,0,0.9-0.4,0.9-0.9c0-0.5-0.4-0.9-0.9-0.9h-1.8c-0.5,0-0.9,0.4-0.9,0.9
		C45.9,40.8,46.3,41.2,46.8,41.2z"/>
	<path id="XMLID_2729_" class="st1" d="M64.7,42.1h-1.8c-0.5,0-0.9,0.4-0.9,0.9s0.4,0.9,0.9,0.9h1.8c0.5,0,0.9-0.4,0.9-0.9
		S65.2,42.1,64.7,42.1z"/>
	<path id="XMLID_2719_" class="st1" d="M64.7,39.4h-1.8c-0.5,0-0.9,0.4-0.9,0.9c0,0.5,0.4,0.9,0.9,0.9h1.8c0.5,0,0.9-0.4,0.9-0.9
		C65.6,39.8,65.2,39.4,64.7,39.4z"/>
	<path id="XMLID_2709_" class="st1" d="M54.9,23.3h1.8c0.5,0,0.9-0.4,0.9-0.9s-0.4-0.9-0.9-0.9h-1.8c-0.5,0-0.9,0.4-0.9,0.9
		S54.4,23.3,54.9,23.3z"/>
	<path id="XMLID_2705_" class="st1" d="M54.9,26h1.8c0.5,0,0.9-0.4,0.9-0.9c0-0.5-0.4-0.9-0.9-0.9h-1.8c-0.5,0-0.9,0.4-0.9,0.9
		C54,25.6,54.4,26,54.9,26z"/>
</g>
</svg>
