<?xml version="1.0" encoding="utf-8"?>
<!-- Generator: Adobe Illustrator 23.0.6, SVG Export Plug-In . SVG Version: 6.00 Build 0)  -->
<svg version="1.1" id="Layer_1" xmlns="http://www.w3.org/2000/svg" xmlns:xlink="http://www.w3.org/1999/xlink" x="0px" y="0px"
	 viewBox="0 0 200 151" style="enable-background:new 0 0 200 151;" xml:space="preserve">
<style type="text/css">
	.st0{fill:#FFFFFF;}
	.st1{fill:#2B318B;}
	.st2{fill:none;stroke:#FFFFFF;stroke-miterlimit:10;}
</style>
<g>
	<path id="XMLID_193_" class="st0" d="M99.6,3.5c31.7,0,57.4,22.1,57.4,49.2c0,27.2-25.7,49.3-57.4,49.3
		c-31.7,0-57.4-22.1-57.4-49.3C42.2,25.5,67.9,3.5,99.6,3.5"/>
	<g>
		<g>
			<path class="st1" d="M75.4,76l-0.7-1.9h-3.7L70.3,76h-0.8l3-7.7h0.8l3,7.7H75.4z M71.3,73.4h3.1l-1.6-4.1L71.3,73.4z"/>
			<path class="st1" d="M79.7,70.4c0.7,0,1.2,0.2,1.6,0.6c0.4,0.4,0.6,1,0.6,1.6V76h-0.7v-3.4c0-0.5-0.1-0.9-0.4-1.1
				c-0.3-0.3-0.6-0.4-1.1-0.4c-0.5,0-1,0.2-1.3,0.5c-0.3,0.3-0.5,0.8-0.5,1.5V76h-0.7v-5.5h0.7v0.9C78.2,70.7,78.9,70.4,79.7,70.4z"
				/>
			<path class="st1" d="M86.2,71.2h-1.6v3.3c0,0.3,0.1,0.5,0.2,0.6s0.3,0.2,0.5,0.2c0.2,0,0.5,0,0.9,0V76c-0.8,0.1-1.3,0.1-1.7-0.2
				c-0.4-0.2-0.6-0.7-0.6-1.3v-3.3h-1.2v-0.7h1.2v-1.3l0.7-0.2v1.5h1.6V71.2z"/>
			<path class="st1" d="M88.1,69.2c-0.1,0.1-0.2,0.2-0.4,0.2c-0.1,0-0.3-0.1-0.4-0.2c-0.1-0.1-0.2-0.2-0.2-0.4
				c0-0.1,0.1-0.3,0.2-0.4c0.1-0.1,0.2-0.2,0.4-0.2c0.1,0,0.3,0.1,0.4,0.2c0.1,0.1,0.2,0.2,0.2,0.4C88.3,69,88.2,69.1,88.1,69.2z
				 M87.4,76v-5.5h0.7V76H87.4z"/>
			<path class="st1" d="M92.2,76.2c-0.8,0-1.5-0.3-2.1-0.8c-0.6-0.6-0.8-1.2-0.8-2.1s0.3-1.5,0.8-2.1c0.5-0.6,1.2-0.8,2.1-0.8
				c0.5,0,1,0.1,1.5,0.4c0.4,0.3,0.7,0.6,0.9,1L94,72.2c-0.1-0.3-0.4-0.6-0.7-0.8s-0.7-0.3-1.1-0.3c-0.6,0-1.1,0.2-1.5,0.6
				c-0.4,0.4-0.6,0.9-0.6,1.5s0.2,1.1,0.6,1.5c0.4,0.4,0.9,0.6,1.5,0.6c0.4,0,0.8-0.1,1.1-0.3c0.3-0.2,0.6-0.5,0.8-0.8l0.6,0.4
				c-0.2,0.4-0.6,0.8-1,1S92.7,76.2,92.2,76.2z"/>
			<path class="st1" d="M96.4,69.2c-0.1,0.1-0.2,0.2-0.4,0.2c-0.1,0-0.3-0.1-0.4-0.2c-0.1-0.1-0.2-0.2-0.2-0.4
				c0-0.1,0.1-0.3,0.2-0.4c0.1-0.1,0.2-0.2,0.4-0.2c0.1,0,0.3,0.1,0.4,0.2c0.1,0.1,0.2,0.2,0.2,0.4C96.6,69,96.6,69.1,96.4,69.2z
				 M95.7,76v-5.5h0.7V76H95.7z"/>
			<path class="st1" d="M100.9,70.4c0.8,0,1.5,0.3,2,0.8s0.8,1.2,0.8,2s-0.3,1.5-0.8,2c-0.6,0.6-1.2,0.8-2,0.8c-1,0-1.7-0.4-2.2-1.2
				v3.3H98v-7.7h0.7v1.1C99.2,70.8,100,70.4,100.9,70.4z M99.3,74.8c0.4,0.4,0.9,0.6,1.5,0.6c0.6,0,1.1-0.2,1.5-0.6
				c0.4-0.4,0.6-0.9,0.6-1.5s-0.2-1.1-0.6-1.5c-0.4-0.4-0.9-0.6-1.5-0.6c-0.6,0-1.1,0.2-1.5,0.6c-0.4,0.4-0.6,0.9-0.6,1.5
				S98.9,74.4,99.3,74.8z"/>
			<path class="st1" d="M109.6,75.3c-0.6,0.6-1.2,0.8-2.1,0.8s-1.5-0.3-2.1-0.8c-0.6-0.6-0.8-1.2-0.8-2.1s0.3-1.5,0.8-2.1
				c0.6-0.6,1.2-0.8,2.1-0.8s1.5,0.3,2.1,0.8s0.8,1.2,0.8,2.1S110.1,74.8,109.6,75.3z M106,74.8c0.4,0.4,0.9,0.6,1.5,0.6
				s1.1-0.2,1.5-0.6c0.4-0.4,0.6-0.9,0.6-1.5s-0.2-1.1-0.6-1.5c-0.4-0.4-0.9-0.6-1.5-0.6s-1.1,0.2-1.5,0.6c-0.4,0.4-0.6,0.9-0.6,1.5
				S105.6,74.4,106,74.8z"/>
			<path class="st1" d="M112.1,72c0,0.2,0.1,0.4,0.3,0.6s0.5,0.3,0.8,0.4s0.6,0.2,0.9,0.3c0.3,0.1,0.6,0.3,0.8,0.5
				c0.2,0.2,0.3,0.5,0.3,0.9c0,0.5-0.2,0.9-0.6,1.1c-0.4,0.3-0.8,0.4-1.4,0.4c-0.5,0-1-0.1-1.3-0.4c-0.4-0.2-0.6-0.5-0.8-0.9
				l0.6-0.4c0.1,0.3,0.3,0.5,0.6,0.7s0.6,0.2,1,0.2c0.4,0,0.7-0.1,0.9-0.2c0.2-0.1,0.4-0.4,0.4-0.7c0-0.2-0.1-0.4-0.3-0.6
				s-0.5-0.3-0.8-0.4c-0.3-0.1-0.6-0.2-0.9-0.3s-0.6-0.3-0.8-0.5c-0.2-0.2-0.3-0.5-0.3-0.9c0-0.4,0.2-0.8,0.5-1.1s0.8-0.5,1.3-0.5
				c0.4,0,0.8,0.1,1.2,0.3c0.3,0.2,0.6,0.5,0.7,0.8l-0.6,0.4c-0.2-0.5-0.7-0.8-1.3-0.8c-0.3,0-0.6,0.1-0.8,0.2
				C112.2,71.5,112.1,71.7,112.1,72z"/>
			<path class="st1" d="M124,68.3h0.7V76H124V75c-0.5,0.8-1.2,1.2-2.2,1.2c-0.8,0-1.5-0.3-2-0.8c-0.6-0.6-0.8-1.2-0.8-2
				s0.3-1.5,0.8-2s1.2-0.8,2-0.8c1,0,1.7,0.4,2.2,1.2V68.3z M120.3,74.8c0.4,0.4,0.9,0.6,1.5,0.6s1.1-0.2,1.5-0.6
				c0.4-0.4,0.6-0.9,0.6-1.5s-0.2-1.1-0.6-1.5c-0.4-0.4-0.9-0.6-1.5-0.6s-1.1,0.2-1.5,0.6c-0.4,0.4-0.6,0.9-0.6,1.5
				S119.9,74.4,120.3,74.8z"/>
			<path class="st1" d="M128.8,70.4c0.8,0,1.5,0.3,2,0.9c0.5,0.6,0.8,1.3,0.8,2c0,0.1,0,0.2,0,0.3h-4.8c0.1,0.6,0.3,1,0.7,1.3
				s0.9,0.5,1.5,0.5c0.4,0,0.8-0.1,1.1-0.3c0.3-0.2,0.5-0.4,0.7-0.7l0.6,0.4c-0.2,0.4-0.6,0.7-1,0.9s-0.9,0.3-1.4,0.3
				c-0.9,0-1.6-0.3-2.1-0.8c-0.5-0.5-0.8-1.2-0.8-2.1c0-0.8,0.3-1.5,0.8-2.1C127.3,70.7,128,70.4,128.8,70.4z M128.8,71.1
				c-0.6,0-1.1,0.2-1.4,0.5c-0.4,0.3-0.6,0.8-0.7,1.3h4.1c-0.1-0.6-0.3-1-0.7-1.4C129.7,71.3,129.3,71.1,128.8,71.1z"/>
			<path class="st1" d="M74.4,80.7c0.8,0,1.5,0.3,2,0.8s0.8,1.2,0.8,2s-0.3,1.5-0.8,2c-0.6,0.6-1.2,0.8-2,0.8c-1,0-1.7-0.4-2.2-1.2
				v3.3h-0.7v-7.7h0.7v1.1C72.7,81.1,73.4,80.7,74.4,80.7z M72.8,85.1c0.4,0.4,0.9,0.6,1.5,0.6c0.6,0,1.1-0.2,1.5-0.6
				c0.4-0.4,0.6-0.9,0.6-1.5s-0.2-1.1-0.6-1.5c-0.4-0.4-0.9-0.6-1.5-0.6c-0.6,0-1.1,0.2-1.5,0.6c-0.4,0.4-0.6,0.9-0.6,1.5
				S72.4,84.7,72.8,85.1z"/>
			<path class="st1" d="M79.1,81.8c0.3-0.7,0.9-1,1.7-1v0.7c-0.5,0-0.9,0.1-1.2,0.4c-0.3,0.3-0.5,0.8-0.5,1.4v3.1h-0.7v-5.5h0.7
				V81.8z"/>
			<path class="st1" d="M86.2,85.7c-0.6,0.6-1.2,0.8-2.1,0.8s-1.5-0.3-2.1-0.8c-0.6-0.6-0.8-1.2-0.8-2.1s0.3-1.5,0.8-2.1
				c0.6-0.6,1.2-0.8,2.1-0.8s1.5,0.3,2.1,0.8c0.6,0.6,0.8,1.2,0.8,2.1S86.7,85.1,86.2,85.7z M82.6,85.1c0.4,0.4,0.9,0.6,1.5,0.6
				c0.6,0,1.1-0.2,1.5-0.6c0.4-0.4,0.6-0.9,0.6-1.5s-0.2-1.1-0.6-1.5c-0.4-0.4-0.9-0.6-1.5-0.6c-0.6,0-1.1,0.2-1.5,0.6
				c-0.4,0.4-0.6,0.9-0.6,1.5S82.1,84.7,82.6,85.1z"/>
			<path class="st1" d="M91.9,80.8h0.8l-2.3,5.5h-0.9l-2.3-5.5h0.8l1.9,4.7L91.9,80.8z"/>
			<path class="st1" d="M95.9,80.7c0.8,0,1.5,0.3,2,0.9c0.5,0.6,0.8,1.3,0.8,2c0,0.1,0,0.2,0,0.3h-4.8c0.1,0.6,0.3,1,0.7,1.3
				c0.4,0.3,0.9,0.5,1.5,0.5c0.4,0,0.8-0.1,1.1-0.3c0.3-0.2,0.5-0.4,0.7-0.7l0.6,0.4c-0.2,0.4-0.6,0.7-1,0.9s-0.9,0.3-1.4,0.3
				c-0.9,0-1.6-0.3-2.1-0.8c-0.5-0.5-0.8-1.2-0.8-2.1c0-0.8,0.3-1.5,0.8-2.1C94.4,81,95.1,80.7,95.9,80.7z M95.9,81.4
				c-0.6,0-1.1,0.2-1.4,0.5c-0.4,0.3-0.6,0.8-0.7,1.3h4.1c-0.1-0.6-0.3-1-0.7-1.4C96.9,81.6,96.4,81.4,95.9,81.4z"/>
			<path class="st1" d="M102.3,80.7c0.8,0,1.5,0.3,2,0.9c0.5,0.6,0.8,1.3,0.8,2c0,0.1,0,0.2,0,0.3h-4.8c0.1,0.6,0.3,1,0.7,1.3
				c0.4,0.3,0.9,0.5,1.5,0.5c0.4,0,0.8-0.1,1.1-0.3c0.3-0.2,0.5-0.4,0.7-0.7l0.6,0.4c-0.2,0.4-0.6,0.7-1,0.9s-0.9,0.3-1.4,0.3
				c-0.9,0-1.6-0.3-2.1-0.8c-0.5-0.5-0.8-1.2-0.8-2.1c0-0.8,0.3-1.5,0.8-2.1C100.8,81,101.5,80.7,102.3,80.7z M102.3,81.4
				c-0.6,0-1,0.2-1.4,0.5c-0.4,0.3-0.6,0.8-0.7,1.3h4.1c-0.1-0.6-0.3-1-0.7-1.4C103.3,81.6,102.8,81.4,102.3,81.4z"/>
			<path class="st1" d="M111,78.6h0.7v7.7H111v-1.1c-0.5,0.8-1.2,1.2-2.2,1.2c-0.8,0-1.5-0.3-2-0.8c-0.6-0.6-0.8-1.2-0.8-2
				s0.3-1.5,0.8-2s1.2-0.8,2-0.8c1,0,1.7,0.4,2.2,1.2V78.6z M107.2,85.1c0.4,0.4,0.9,0.6,1.5,0.6c0.6,0,1.1-0.2,1.5-0.6
				c0.4-0.4,0.6-0.9,0.6-1.5s-0.2-1.1-0.6-1.5c-0.4-0.4-0.9-0.6-1.5-0.6c-0.6,0-1.1,0.2-1.5,0.6c-0.4,0.4-0.6,0.9-0.6,1.5
				S106.8,84.7,107.2,85.1z"/>
			<path class="st1" d="M117.8,85.7c-0.6,0.6-1.2,0.8-2.1,0.8s-1.5-0.3-2.1-0.8s-0.8-1.2-0.8-2.1s0.3-1.5,0.8-2.1s1.2-0.8,2.1-0.8
				s1.5,0.3,2.1,0.8c0.6,0.6,0.8,1.2,0.8,2.1S118.4,85.1,117.8,85.7z M114.2,85.1c0.4,0.4,0.9,0.6,1.5,0.6c0.6,0,1.1-0.2,1.5-0.6
				c0.4-0.4,0.6-0.9,0.6-1.5s-0.2-1.1-0.6-1.5c-0.4-0.4-0.9-0.6-1.5-0.6c-0.6,0-1.1,0.2-1.5,0.6c-0.4,0.4-0.6,0.9-0.6,1.5
				S113.8,84.7,114.2,85.1z"/>
			<path class="st1" d="M120.6,81.8c0.3-0.7,0.9-1,1.7-1v0.7c-0.5,0-0.9,0.1-1.2,0.4c-0.3,0.3-0.5,0.8-0.5,1.4v3.1h-0.7v-5.5h0.7
				V81.8z"/>
			<path class="st1" d="M125.5,80.7c0.8,0,1.5,0.3,2,0.9c0.5,0.6,0.8,1.3,0.8,2c0,0.1,0,0.2,0,0.3h-4.8c0.1,0.6,0.3,1,0.7,1.3
				s0.9,0.5,1.5,0.5c0.4,0,0.8-0.1,1.1-0.3c0.3-0.2,0.5-0.4,0.7-0.7l0.6,0.4c-0.2,0.4-0.6,0.7-1,0.9s-0.9,0.3-1.4,0.3
				c-0.9,0-1.6-0.3-2.1-0.8c-0.5-0.5-0.8-1.2-0.8-2.1c0-0.8,0.3-1.5,0.8-2.1C124,81,124.7,80.7,125.5,80.7z M125.5,81.4
				c-0.6,0-1.1,0.2-1.4,0.5c-0.4,0.3-0.6,0.8-0.7,1.3h4.1c-0.1-0.6-0.3-1-0.7-1.4C126.5,81.6,126,81.4,125.5,81.4z"/>
			<path class="st1" d="M129.8,82.3c0,0.2,0.1,0.4,0.3,0.6s0.5,0.3,0.8,0.4s0.6,0.2,0.9,0.3c0.3,0.1,0.6,0.3,0.8,0.5
				c0.2,0.2,0.3,0.5,0.3,0.9c0,0.5-0.2,0.9-0.6,1.1c-0.4,0.3-0.8,0.4-1.4,0.4c-0.5,0-1-0.1-1.3-0.4c-0.4-0.2-0.6-0.5-0.8-0.9
				l0.6-0.4c0.1,0.3,0.3,0.5,0.6,0.7s0.6,0.2,1,0.2c0.4,0,0.7-0.1,0.9-0.2c0.2-0.1,0.4-0.4,0.4-0.7c0-0.2-0.1-0.4-0.3-0.6
				s-0.5-0.3-0.8-0.4c-0.3-0.1-0.6-0.2-0.9-0.3s-0.6-0.3-0.8-0.5c-0.2-0.2-0.3-0.5-0.3-0.9c0-0.4,0.2-0.8,0.5-1.1s0.8-0.5,1.3-0.5
				c0.4,0,0.8,0.1,1.2,0.3c0.3,0.2,0.6,0.5,0.7,0.8l-0.6,0.4c-0.2-0.5-0.7-0.8-1.3-0.8c-0.3,0-0.6,0.1-0.8,0.2
				C129.9,81.8,129.8,82,129.8,82.3z"/>
		</g>
	</g>
	<g id="XMLID_239_">
		<g id="XMLID_246_">
			<polygon id="Arrow_16_" class="st0" points="114.6,139.9 120,130.9 114.5,133.1 108.9,131.1 			"/>
			<polygon id="Arrow_15_" class="st0" points="114.7,110.8 109.3,119.7 114.8,117.5 120.4,119.5 			"/>
		</g>
		<line id="XMLID_244_" class="st2" x1="114.3" y1="133" x2="114.8" y2="117"/>
	</g>
	<g id="XMLID_1713_">
		<g id="XMLID_2171_">
			<path id="XMLID_2202_" class="st1" d="M116.1,45.3h-8v-7h8V45.3z M110.1,43.3h4v-3h-4V43.3z"/>
		</g>
		<g id="XMLID_1799_">
			<rect id="XMLID_2066_" x="114.1" y="54.3" class="st1" width="5" height="2"/>
		</g>
		<g id="XMLID_1789_">
			<path id="XMLID_1792_" class="st1" d="M123.1,60.3h-22v-22h22V60.3z M103.1,58.3h18v-18h-18V58.3z"/>
		</g>
		<g id="XMLID_1767_">
			<path id="XMLID_1768_" class="st1" d="M104.1,21.3h-2c0-3.9-3.1-7-7-7v-2C100,12.3,104.1,16.3,104.1,21.3z"/>
		</g>
		<g id="XMLID_1744_">
			<path id="XMLID_1750_" class="st1" d="M88.1,21.3h-2c0-5,4-9,9-9v2C91.2,14.3,88.1,17.5,88.1,21.3z"/>
		</g>
		<g id="XMLID_1741_">
			<rect id="XMLID_1743_" x="86.1" y="21.3" class="st1" width="2" height="3"/>
		</g>
		<g id="XMLID_1738_">
			<path id="XMLID_1739_" class="st1" d="M95.1,33.3c-5,0-9-4-9-9h2c0,3.9,3.1,7,7,7V33.3z"/>
		</g>
		<g id="XMLID_1736_">
			<path id="XMLID_1737_" class="st1" d="M95.1,33.3v-2c3.5,0,6.5-2.6,6.9-6.1l2,0.2C103.4,29.9,99.6,33.3,95.1,33.3z"/>
		</g>
		<g id="XMLID_1734_">
			<rect id="XMLID_1735_" x="83.1" y="50.3" class="st1" width="2" height="10"/>
		</g>
		<g id="XMLID_1731_">
			<rect id="XMLID_1732_" x="87.1" y="21.3" class="st1" width="22" height="2"/>
		</g>
		<g id="XMLID_1718_">
			<path id="XMLID_1730_" class="st1" d="M77.1,60.3h-2V45.5c0-4.2,2.9-7.8,6.9-8.8l0,0l0.2,0c0,0,0,0,0.1,0l0,0
				c5.5-1.2,11.2-1.6,16.9-1.2l-0.1,2c-5.4-0.4-10.9,0-16.2,1.1l-0.1,0.1l-0.2,0c-3.2,0.7-5.4,3.5-5.4,6.8V60.3z"/>
		</g>
	</g>
</g>
</svg>
