<?xml version="1.0" encoding="utf-8"?>
<!-- Generator: Adobe Illustrator 23.0.6, SVG Export Plug-In . SVG Version: 6.00 Build 0)  -->
<svg version="1.1" id="Layer_1" xmlns="http://www.w3.org/2000/svg" xmlns:xlink="http://www.w3.org/1999/xlink" x="0px" y="0px"
	 viewBox="0 0 128 98" style="enable-background:new 0 0 128 98;" xml:space="preserve">
<style type="text/css">
	.st0{fill:#FFFFFF;}
	.st1{fill:#2B318B;}
	.st2{font-family:'Gilroy-Regular';}
	.st3{font-size:12.0158px;}
</style>
<path id="XMLID_324_" class="st0" d="M65.6,3.2c29.5,0,53.4,20.5,53.4,45.8c0,25.3-23.9,45.9-53.4,45.9c-29.5,0-53.4-20.5-53.4-45.9
	C12.2,23.7,36.1,3.2,65.6,3.2"/>
<text id="XMLID_255_" transform="matrix(1 0 0 1 35.8765 66.074)"><tspan x="0" y="0" class="st1 st2 st3">Aplicación </tspan><tspan x="3.6" y="12.4" class="st1 st2 st3">de pagos</tspan></text>
<g id="XMLID_704_">
	<g>
		<path id="XMLID_145_" class="st1" d="M51.4,16.2c0.6,0.3,0.5,0.9,0.5,1.4c0.2,0,0.3,0,0.4,0c3.4,0,6.9,0,10.3,0
			c1.7,0,3.2,0.4,4.7,1.2c3.1,1.7,6.2,3.3,9.3,5c0.3,0.2,0.6,0.2,0.9,0.2c0.6,0,0.9,0.3,0.9,0.9c0,4.2,0,8.5,0,12.7
			c0,0.7-0.3,0.9-0.9,0.9c-8,0-16.1,0-24.1,0c-0.7,0-0.9-0.3-0.9-0.9c0-3.2,0-6.3,0-9.5c0-0.1,0-0.3,0-0.4c-0.2,0-0.5,0-0.7,0
			c0,0.3,0,0.6,0,0.9c0,0.6-0.3,0.9-0.9,0.9c-1.4,0-2.7,0-4.1,0c-0.4,0-0.8-0.1-1-0.5c0-4.3,0-8.5,0-12.8
			C47.8,16.2,49.6,16.2,51.4,16.2z M60.7,29.9c-2.2-0.9-4.3-2-6.7-2.2c0,2.1,0,4.2,0,6.2c1.6,0.4,2.7,1.4,3.1,3.1
			c5.6,0,11.3,0,16.9,0c0.4-1.6,1.4-2.7,3.1-3.1c0-1.8,0-3.7,0-5.5c-1.9-0.7-2.4-1.1-3.1-3.1c-3.6,0-7.1,0-10.7,0c0,0,0,0.1,0,0.1
			c0.4,0.2,0.7,0.4,1.1,0.6c0.2,0.1,0.4,0.1,0.5,0.1c2.9-0.4,5.5,1.8,5.6,4.7c0.1,2.2-1.2,4.1-3.3,4.9c-2,0.7-4.3,0.1-5.6-1.6
			C60.6,33,60.3,31.5,60.7,29.9z M51.9,26.2c0.1,0,0.1,0,0.1,0c0.1,0,0.3,0,0.4,0c1.7,0,3.3,0.2,4.9,0.8c1.1,0.4,2.2,0.9,3.3,1.3
			c1.3,0.5,2.6,1.1,3.9,1.6c0.6,0.2,1,0.1,1.2-0.3c0.2-0.4,0-0.9-0.5-1.2c-0.4-0.3-0.9-0.5-1.3-0.8c-0.5-0.3-1.1-0.6-1.6-1
			c-0.7-0.5-0.8-1.5-0.2-2.1c0.4-0.4,0.8-0.6,1.4-0.6c3.3,0,6.7,0,10,0c0.1,0,0.2,0,0.5,0c-0.1-0.1-0.2-0.1-0.2-0.1
			c-2.4-1.3-4.9-2.6-7.3-3.9C65.3,19.3,64,19,62.7,19c-3.4,0-6.9,0-10.3,0c-0.1,0-0.3,0-0.4,0C51.9,21.4,51.9,23.8,51.9,26.2z
			 M50.5,28c0-3.5,0-7,0-10.4c-1,0-2.1,0-3.1,0c0,3.5,0,6.9,0,10.4C48.4,28,49.4,28,50.5,28z M66.9,30.6c0,0,0.1,0.1,0.1,0.1
			c1,1.1,0.8,2.5-0.6,3.1c-0.1,0.1-0.2,0.2-0.2,0.3c-0.2,0.2-0.4,0.4-0.6,0.4c-0.2,0-0.5-0.1-0.6-0.3c-0.1-0.3-0.4-0.4-0.6-0.6
			c-0.1-0.1-0.3-0.2-0.4-0.3c-0.3-0.3-0.3-0.7-0.1-1c0.3-0.3,0.6-0.3,1-0.1c0.1,0.1,0.3,0.2,0.5,0.3c0.4,0.1,0.8-0.1,0.8-0.4
			c0-0.3-0.2-0.5-0.6-0.6c-0.1,0-0.1,0-0.2,0c-0.5,0.1-1-0.1-1.5-0.3c-0.6-0.2-1.2-0.5-1.8-0.7c-0.5,1.4,0.4,3.6,2.6,4.2
			c1.9,0.5,3.9-0.8,4.3-2.8c0.4-1.9-0.9-3.5-2-3.8C67.5,29,67.5,29.7,66.9,30.6z M77.1,35.5c-0.7,0.1-1.5,0.9-1.5,1.5
			c0.5,0,1,0,1.5,0C77.1,36.5,77.1,36,77.1,35.5z M54.1,35.5c0,0.5,0,1,0,1.6c0.3,0,0.5,0,0.8,0c0.3,0,0.5,0,0.8,0
			C55.5,36.3,54.8,35.6,54.1,35.5z M75.5,25.4c0.2,0.7,0.9,1.4,1.6,1.6c0-0.5,0-1,0-1.6C76.5,25.4,76,25.4,75.5,25.4z"/>
		<path id="XMLID_141_" class="st1" d="M76.4,49.9c-1.1,0.2-2.2,0.4-3.3,0.5c-3.6,0.6-7.3,1.2-10.9,1.8c-1.4,0.2-2.7,0-3.9-0.7
			c-2.3-1.3-4.7-2.7-7-4c-1.5-0.9-1.9-2.5-1-3.9c0.7-1,2.1-1.6,3.6-0.8c1.9,1,3.8,2,5.6,2.9c0.2,0.1,0.5,0.2,0.7,0.3
			c0-0.4-0.1-0.7-0.1-1.1c0.1-1,0.6-1.8,1.5-2.2c1.8-0.8,3.6-1.7,5.4-2.4c2-0.8,4.1-0.8,6.2,0c1.1,0.4,2.1,0.7,3.2,1.1
			c0-0.4,0-0.9,0-1.3c0-0.6,0.3-0.9,0.9-0.9c1.4,0,2.8,0,4.2,0c0.6,0,0.9,0.3,0.9,0.9c0,3.8,0,7.7,0,11.5c0,0.6-0.3,0.9-0.9,0.9
			c-1.4,0-2.8,0-4.2,0c-0.6,0-0.9-0.3-0.9-0.9C76.4,51.1,76.4,50.6,76.4,49.9z M76.3,48.5c0-0.1,0-0.1,0-0.1c0-1.7,0-3.5,0-5.2
			c0-0.2-0.1-0.2-0.3-0.3c-1.2-0.4-2.3-0.8-3.5-1.2c-1.6-0.6-3.3-0.6-5,0c-0.5,0.2-0.9,0.4-1.4,0.6c-1.4,0.6-2.7,1.2-4.1,1.9
			c-0.5,0.2-0.7,0.6-0.7,1.1c0.1,0.5,0.4,0.9,0.9,0.9c0.2,0,0.4,0,0.6-0.1c1.5-0.5,2.9-1,4.4-1.5c0.1,0,0.1,0,0.2-0.1
			c0.5-0.1,0.9,0,1,0.4c0.1,0.4-0.1,0.8-0.5,0.9c-1.5,0.5-3.1,1.1-4.6,1.6c-0.3,0.1-0.7,0.1-1,0.1c-0.6,0-1.2-0.1-1.8-0.1
			c-0.6,0-1.1-0.1-1.7-0.4c-1.9-1-3.7-2-5.6-2.9c-0.3-0.2-0.7-0.2-1-0.2c-0.5,0-0.9,0.5-1,1c-0.1,0.6,0.1,1.1,0.6,1.4
			c2.4,1.4,4.8,2.8,7.2,4.1c1,0.5,2,0.7,3.1,0.5c1.8-0.3,3.6-0.6,5.4-0.9C70.5,49.5,73.4,49,76.3,48.5z M80.9,51.1c0-3.5,0-7,0-10.4
			c-1,0-2.1,0-3.1,0c0,3.5,0,6.9,0,10.4C78.9,51.1,79.9,51.1,80.9,51.1z"/>
		<path id="XMLID_140_" class="st1" d="M72.9,32c-0.2,0-0.5,0-0.7,0c-0.4,0-0.7-0.3-0.7-0.7c0-0.4,0.2-0.7,0.6-0.7
			c0.5,0,1.1,0,1.6,0c0.4,0,0.6,0.3,0.6,0.7c0,0.4-0.3,0.6-0.7,0.7C73.4,32,73.1,32,72.9,32z"/>
		<path id="XMLID_139_" class="st1" d="M58.1,32c-0.2,0-0.5,0-0.7,0c-0.4,0-0.7-0.3-0.7-0.6c0-0.4,0.2-0.7,0.6-0.7
			c0.6,0,1.1,0,1.7,0c0.4,0,0.6,0.4,0.6,0.7c0,0.4-0.3,0.6-0.7,0.7C58.7,32,58.4,32,58.1,32C58.1,32,58.1,32,58.1,32z"/>
		<path id="XMLID_138_" class="st1" d="M59.5,20.4c0.9,0,1.7,0,2.6,0c0.6,0,1,0.5,0.7,1c-0.1,0.3-0.4,0.4-0.7,0.4
			c-1.7,0-3.4,0-5.2,0c-0.5,0-0.8-0.3-0.8-0.7c0-0.4,0.3-0.7,0.8-0.7C57.8,20.4,58.6,20.4,59.5,20.4z"/>
		<path id="XMLID_137_" class="st1" d="M55,21.2c0,0.4-0.3,0.7-0.7,0.7c-0.4,0-0.7-0.3-0.7-0.7c0-0.4,0.3-0.7,0.7-0.7
			C54.7,20.4,55.1,20.8,55,21.2z"/>
		<path id="XMLID_136_" class="st1" d="M48.9,25.5c0.4,0,0.7,0.3,0.7,0.7c0,0.4-0.3,0.7-0.7,0.7c-0.4,0-0.7-0.3-0.7-0.7
			C48.2,25.8,48.5,25.5,48.9,25.5z"/>
		<path id="XMLID_135_" class="st1" d="M79.4,43.2c-0.4,0-0.7-0.3-0.7-0.7c0-0.4,0.3-0.7,0.7-0.7c0.4,0,0.7,0.3,0.7,0.7
			C80.1,42.9,79.7,43.2,79.4,43.2z"/>
	</g>
</g>
</svg>
