<?xml version="1.0" encoding="utf-8"?>
<!-- Generator: Adobe Illustrator 23.0.6, SVG Export Plug-In . SVG Version: 6.00 Build 0)  -->
<svg version="1.1" id="Layer_1" xmlns="http://www.w3.org/2000/svg" xmlns:xlink="http://www.w3.org/1999/xlink" x="0px" y="0px"
	 viewBox="0 0 1058 1164" style="enable-background:new 0 0 1058 1164;" xml:space="preserve">
<style type="text/css">
	.st0{opacity:0.24;}
	.st1{opacity:0.81;clip-path:url(#XMLID_3_);fill:#EC3246;}
	.st2{fill:none;stroke:#EC3246;stroke-miterlimit:10;}
	.st3{fill:#2C308B;}
	.st4{font-family:'Gilroy-Bold';}
	.st5{font-size:24.3403px;}
</style>
<g id="XMLID_3411_" class="st0">
	<defs>
		<rect id="XMLID_3415_" x="21" class="st0" width="1036.5" height="1164"/>
	</defs>
	<clipPath id="XMLID_3_">
		<use xlink:href="#XMLID_3415_"  style="overflow:visible;"/>
	</clipPath>
	<path id="XMLID_3420_" class="st1" d="M634.7,71.9v469.5c-37.2-85.4-119.7-161-203.9-212.1H76.9c115,85.4,295.7,219.1,295.7,326
		c0,52.9-64.5,63.9-101.1,63.9H48.4v255.7h349.8c77.9,0,190.6-28.5,236.5-149.3v342.8h325.4V825.5
		c45.9,120.9,158.6,149.3,236.5,149.3h349.8V719.1h-223.1c-37.2,0-101.7-11-101.7-63.9c0-106.9,181.3-240.6,296.3-326H1164
		c-84.2,51.1-166.8,126.7-203.9,212.1V71.9H634.7z"/>
</g>
<g id="XMLID_5320_">
	<polyline id="XMLID_5323_" class="st2" points="296.8,1118.7 719.9,1118.7 719.9,259.2 296.8,259.2 	"/>
	<g id="XMLID_5318_">
		<text transform="matrix(1 0 0 1 571.7354 635.7847)"><tspan x="0" y="0" class="st3 st4 st5">Banco gana tasa de interés</tspan><tspan x="-75.2" y="31.2" class="st3 st4 st5">K-C gana al recibir mayor plazo de pago</tspan><tspan x="-55" y="62.3" class="st3 st4 st5">Proveedor gana al recibir de manera </tspan><tspan x="-33.3" y="93.5" class="st3 st4 st5">anticipada, el pago de su factura</tspan></text>
	</g>
</g>
</svg>
