<?xml version="1.0" encoding="utf-8"?>
<!-- Generator: Adobe Illustrator 23.0.6, SVG Export Plug-In . SVG Version: 6.00 Build 0)  -->
<svg version="1.1" id="Layer_1" xmlns="http://www.w3.org/2000/svg" xmlns:xlink="http://www.w3.org/1999/xlink" x="0px" y="0px"
	 viewBox="0 0 116 100" style="enable-background:new 0 0 116 100;" xml:space="preserve">
<style type="text/css">
	.st0{fill:#FFFFFF;}
</style>
<g id="XMLID_4348_">
	<g id="XMLID_4548_">
		<g id="XMLID_4550_">
			<path id="XMLID_4551_" class="st0" d="M77,15.4H57.4c-0.8,0-1.4,0.6-1.4,1.4c0,0.8,0.6,1.4,1.4,1.4H77c0.8,0,1.4-0.6,1.4-1.4
				C78.4,16,77.8,15.4,77,15.4z"/>
		</g>
	</g>
	<g id="XMLID_4545_">
		<g id="XMLID_4546_">
			<path id="XMLID_4547_" class="st0" d="M70,15.4c-0.8,0-1.4,0.6-1.4,1.4v7c0,0.8,0.6,1.4,1.4,1.4s1.4-0.6,1.4-1.4v-7
				C71.4,16,70.8,15.4,70,15.4z"/>
		</g>
	</g>
	<g id="XMLID_4542_">
		<g id="XMLID_4543_">
			<path id="XMLID_4544_" class="st0" d="M70,22.4h-5.6c-0.8,0-1.4,0.6-1.4,1.4c0,0.8,0.6,1.4,1.4,1.4H70c0.8,0,1.4-0.6,1.4-1.4
				C71.4,23,70.8,22.4,70,22.4z"/>
		</g>
	</g>
	<g id="XMLID_4538_">
		<g id="XMLID_4540_">
			<path id="XMLID_4541_" class="st0" d="M64.4,15.4c-0.8,0-1.4,0.6-1.4,1.4v7c0,0.8,0.6,1.4,1.4,1.4c0.8,0,1.4-0.6,1.4-1.4v-7
				C65.8,16,65.2,15.4,64.4,15.4z"/>
		</g>
	</g>
	<g id="XMLID_4535_">
		<g id="XMLID_4536_">
			<path id="XMLID_4537_" class="st0" d="M57.4,43.4H40.5c-0.8,0-1.4,0.6-1.4,1.4c0,0.8,0.6,1.4,1.4,1.4h16.8c0.8,0,1.4-0.6,1.4-1.4
				C58.8,44,58.1,43.4,57.4,43.4z"/>
		</g>
	</g>
	<g id="XMLID_4532_">
		<g id="XMLID_4533_">
			<path id="XMLID_4534_" class="st0" d="M77,40.6c-0.8,0-1.4,0.6-1.4,1.4v23.9c0,0.8,0.6,1.4,1.4,1.4c0.8,0,1.4-0.6,1.4-1.4V42
				C78.4,41.2,77.8,40.6,77,40.6z"/>
		</g>
	</g>
	<g id="XMLID_4529_">
		<g id="XMLID_4530_">
			<path id="XMLID_4531_" class="st0" d="M107.9,75.7h-4.2c-0.8,0-1.4,0.6-1.4,1.4c0,0.8,0.6,1.4,1.4,1.4h4.2c0.8,0,1.4-0.6,1.4-1.4
				C109.3,76.3,108.6,75.7,107.9,75.7z"/>
		</g>
	</g>
	<g id="XMLID_4526_">
		<g id="XMLID_4527_">
			<path id="XMLID_4528_" class="st0" d="M107.9,75.7c-0.8,0-1.4,0.6-1.4,1.4v5.6c0,0.8,0.6,1.4,1.4,1.4c0.8,0,1.4-0.6,1.4-1.4v-5.6
				C109.3,76.3,108.6,75.7,107.9,75.7z"/>
		</g>
	</g>
	<g id="XMLID_4523_">
		<g id="XMLID_4524_">
			<path id="XMLID_4525_" class="st0" d="M33.5,81.3L33.5,81.3l-9.8,0c-0.8,0-1.4,0.6-1.4,1.4c0,0.8,0.6,1.4,1.4,1.4h0l9.8,0
				c0.8,0,1.4-0.6,1.4-1.4C34.9,81.9,34.3,81.3,33.5,81.3z"/>
		</g>
	</g>
	<g id="XMLID_4520_">
		<g id="XMLID_4521_">
			<path id="XMLID_4522_" class="st0" d="M106.5,68.7h-1.4c-0.8,0-1.4,0.6-1.4,1.4c0,0.8,0.6,1.4,1.4,1.4h1.4c0.8,0,1.4-0.6,1.4-1.4
				C107.9,69.3,107.2,68.7,106.5,68.7z"/>
		</g>
	</g>
	<g id="XMLID_4517_">
		<g id="XMLID_4518_">
			<path id="XMLID_4519_" class="st0" d="M106.5,58.8c-0.8,0-1.4,0.6-1.4,1.4v16.8c0,0.8,0.6,1.4,1.4,1.4c0.8,0,1.4-0.6,1.4-1.4
				V60.2C107.9,59.5,107.2,58.8,106.5,58.8z"/>
		</g>
	</g>
	<g id="XMLID_4514_">
		<g id="XMLID_4515_">
			<path id="XMLID_4516_" class="st0" d="M98,40.6H77c-0.8,0-1.4,0.6-1.4,1.4c0,0.8,0.6,1.4,1.4,1.4h21c0.8,0,1.4-0.6,1.4-1.4
				C99.5,41.2,98.8,40.6,98,40.6z"/>
		</g>
	</g>
	<g id="XMLID_4509_">
		<g id="XMLID_4512_">
			<path id="XMLID_4513_" class="st0" d="M107.7,59.7l-8.4-18.2c-0.3-0.7-1.2-1-1.9-0.7c-0.7,0.3-1,1.2-0.7,1.9l8.4,18.2
				c0.2,0.5,0.7,0.8,1.3,0.8c0.2,0,0.4,0,0.6-0.1C107.8,61.2,108.1,60.4,107.7,59.7z"/>
		</g>
	</g>
	<g id="XMLID_4496_">
		<g id="XMLID_4497_">
			<path id="XMLID_4508_" class="st0" d="M23.7,75.7c-0.8,0-1.4,0.6-1.4,1.4v5.7c0,0.8,0.6,1.4,1.4,1.4c0.8,0,1.4-0.6,1.4-1.4v-5.7
				C25.1,76.3,24.5,75.7,23.7,75.7z"/>
		</g>
	</g>
	<g id="XMLID_4491_">
		<g id="XMLID_4492_">
			<path id="XMLID_4495_" class="st0" d="M20.9,57.4c-0.8,0-1.4,0.6-1.4,1.4v18.2c0,0.8,0.6,1.4,1.4,1.4c0.8,0,1.4-0.6,1.4-1.4V58.8
				C22.3,58.1,21.7,57.4,20.9,57.4z"/>
		</g>
	</g>
	<g id="XMLID_4486_">
		<g id="XMLID_4487_">
			<path id="XMLID_4490_" class="st0" d="M77,57.4H20.9c-0.8,0-1.4,0.6-1.4,1.4c0,0.8,0.6,1.4,1.4,1.4H77c0.8,0,1.4-0.6,1.4-1.4
				C78.4,58.1,77.8,57.4,77,57.4z"/>
		</g>
	</g>
	<g id="XMLID_4479_">
		<g id="XMLID_4480_">
			<path id="XMLID_4485_" class="st0" d="M27.9,75.7h-7c-0.8,0-1.4,0.6-1.4,1.4c0,0.8,0.6,1.4,1.4,1.4h7c0.8,0,1.4-0.6,1.4-1.4
				C29.3,76.3,28.7,75.7,27.9,75.7z"/>
		</g>
	</g>
	<g id="XMLID_4466_">
		<g id="XMLID_4474_">
			<path id="XMLID_4476_" class="st0" d="M41.9,72.9c-5.4,0-9.8,4.4-9.8,9.8s4.4,9.8,9.8,9.8s9.8-4.4,9.8-9.8S47.3,72.9,41.9,72.9z
				 M41.9,89.7c-3.9,0-7-3.1-7-7s3.1-7,7-7s7,3.1,7,7S45.8,89.7,41.9,89.7z"/>
		</g>
	</g>
	<g id="XMLID_4460_">
		<g id="XMLID_4461_">
			<path id="XMLID_4462_" class="st0" d="M41.9,78.5c-2.3,0-4.2,1.9-4.2,4.2c0,2.3,1.9,4.2,4.2,4.2s4.2-1.9,4.2-4.2
				C46.1,80.4,44.3,78.5,41.9,78.5z M41.9,84.1c-0.8,0-1.4-0.6-1.4-1.4s0.6-1.4,1.4-1.4s1.4,0.6,1.4,1.4S42.7,84.1,41.9,84.1z"/>
		</g>
	</g>
	<g id="XMLID_4455_">
		<g id="XMLID_4456_">
			<path id="XMLID_4457_" class="st0" d="M88.2,78.5c-2.3,0-4.2,1.9-4.2,4.2c0,2.3,1.9,4.2,4.2,4.2s4.2-1.9,4.2-4.2
				C92.4,80.4,90.5,78.5,88.2,78.5z M88.2,84.1c-0.8,0-1.4-0.6-1.4-1.4s0.6-1.4,1.4-1.4s1.4,0.6,1.4,1.4S89,84.1,88.2,84.1z"/>
		</g>
	</g>
	<g id="XMLID_4450_">
		<g id="XMLID_4451_">
			<path id="XMLID_4452_" class="st0" d="M88.2,72.9c-5.4,0-9.8,4.4-9.8,9.8s4.4,9.8,9.8,9.8c5.4,0,9.8-4.4,9.8-9.8
				S93.6,72.9,88.2,72.9z M88.2,89.7c-3.9,0-7-3.1-7-7s3.1-7,7-7c3.9,0,7,3.1,7,7S92.1,89.7,88.2,89.7z"/>
		</g>
	</g>
	<g id="XMLID_4447_">
		<g id="XMLID_4448_">
			<path id="XMLID_4449_" class="st0" d="M79.8,81.3H50.3c-0.8,0-1.4,0.6-1.4,1.4c0,0.8,0.6,1.4,1.4,1.4h29.5c0.8,0,1.4-0.6,1.4-1.4
				C81.2,81.9,80.6,81.3,79.8,81.3z"/>
		</g>
	</g>
	<g id="XMLID_4444_">
		<g id="XMLID_4445_">
			<path id="XMLID_4446_" class="st0" d="M107.9,81.3H96.6c-0.8,0-1.4,0.6-1.4,1.4c0,0.8,0.6,1.4,1.4,1.4h11.2
				c0.8,0,1.4-0.6,1.4-1.4C109.3,81.9,108.6,81.3,107.9,81.3z"/>
		</g>
	</g>
	<g id="XMLID_4441_">
		<g id="XMLID_4442_">
			<path id="XMLID_4443_" class="st0" d="M106.5,58.8H89.6c-0.8,0-1.4,0.6-1.4,1.4c0,0.8,0.6,1.4,1.4,1.4h16.8
				c0.8,0,1.4-0.6,1.4-1.4C107.9,59.5,107.2,58.8,106.5,58.8z"/>
		</g>
	</g>
	<g id="XMLID_4438_">
		<g id="XMLID_4439_">
			<path id="XMLID_4440_" class="st0" d="M89.6,58.8c-2.3,0-4.2-1.9-4.2-4.2c0-0.8-0.6-1.4-1.4-1.4c-0.8,0-1.4,0.6-1.4,1.4
				c0,3.9,3.1,7,7,7c0.8,0,1.4-0.6,1.4-1.4C91,59.5,90.4,58.8,89.6,58.8z"/>
		</g>
	</g>
	<g id="XMLID_4435_">
		<g id="XMLID_4436_">
			<path id="XMLID_4437_" class="st0" d="M84,40.6c-0.8,0-1.4,0.6-1.4,1.4v12.6c0,0.8,0.6,1.4,1.4,1.4c0.8,0,1.4-0.6,1.4-1.4V42
				C85.4,41.2,84.8,40.6,84,40.6z"/>
		</g>
	</g>
	<g id="XMLID_4430_">
		<g id="XMLID_4433_">
			<path id="XMLID_4434_" class="st0" d="M77,15.4c-0.8,0-1.4,0.6-1.4,1.4v42.1c0,0.8,0.6,1.4,1.4,1.4c0.8,0,1.4-0.6,1.4-1.4V16.8
				C78.4,16,77.8,15.4,77,15.4z"/>
		</g>
	</g>
	<g id="XMLID_4427_">
		<g id="XMLID_4428_">
			<path id="XMLID_4429_" class="st0" d="M57.4,15.4c-0.8,0-1.4,0.6-1.4,1.4v42.1c0,0.8,0.6,1.4,1.4,1.4s1.4-0.6,1.4-1.4V16.8
				C58.8,16,58.1,15.4,57.4,15.4z"/>
		</g>
	</g>
	<g id="XMLID_4421_">
		<g id="XMLID_4422_">
			<path id="XMLID_4426_" class="st0" d="M40.5,26.6c-0.8,0-1.4,0.6-1.4,1.4v30.9c0,0.8,0.6,1.4,1.4,1.4c0.8,0,1.4-0.6,1.4-1.4V28
				C41.9,27.2,41.3,26.6,40.5,26.6z"/>
		</g>
	</g>
	<g id="XMLID_4416_">
		<g id="XMLID_4417_">
			<path id="XMLID_4420_" class="st0" d="M48.9,43.4c-0.8,0-1.4,0.6-1.4,1.4V49c0,0.8,0.6,1.4,1.4,1.4c0.8,0,1.4-0.6,1.4-1.4v-4.2
				C50.3,44,49.7,43.4,48.9,43.4z"/>
		</g>
	</g>
	<g id="XMLID_4412_">
		<g id="XMLID_4413_">
			<path id="XMLID_4414_" class="st0" d="M57.4,26.6H40.5c-0.8,0-1.4,0.6-1.4,1.4s0.6,1.4,1.4,1.4h16.8c0.8,0,1.4-0.6,1.4-1.4
				S58.1,26.6,57.4,26.6z"/>
		</g>
	</g>
	<g id="XMLID_4409_">
		<g id="XMLID_4410_">
			<path id="XMLID_4411_" class="st0" d="M48.9,26.6c-0.8,0-1.4,0.6-1.4,1.4v2.8c0,0.8,0.6,1.4,1.4,1.4c0.8,0,1.4-0.6,1.4-1.4V28
				C50.3,27.2,49.7,26.6,48.9,26.6z"/>
		</g>
	</g>
	<g id="XMLID_4406_">
		<g id="XMLID_4407_">
			<path id="XMLID_4408_" class="st0" d="M23.7,36.4c-0.8,0-1.4,0.6-1.4,1.4v21c0,0.8,0.6,1.4,1.4,1.4c0.8,0,1.4-0.6,1.4-1.4v-21
				C25.1,37,24.5,36.4,23.7,36.4z"/>
		</g>
	</g>
	<g id="XMLID_4402_">
		<g id="XMLID_4404_">
			<path id="XMLID_4405_" class="st0" d="M40.5,36.4H23.7c-0.8,0-1.4,0.6-1.4,1.4s0.6,1.4,1.4,1.4h16.8c0.8,0,1.4-0.6,1.4-1.4
				S41.3,36.4,40.5,36.4z"/>
		</g>
	</g>
	<g id="XMLID_4363_">
		<g id="XMLID_4364_">
			<path id="XMLID_4401_" class="st0" d="M29.3,36.4c-0.8,0-1.4,0.6-1.4,1.4V42c0,0.8,0.6,1.4,1.4,1.4c0.8,0,1.4-0.6,1.4-1.4v-4.2
				C30.7,37,30.1,36.4,29.3,36.4z"/>
		</g>
	</g>
	<g id="XMLID_4360_">
		<g id="XMLID_4361_">
			<path id="XMLID_4362_" class="st0" d="M34.9,40.6h-5.6c-0.8,0-1.4,0.6-1.4,1.4c0,0.8,0.6,1.4,1.4,1.4h5.6c0.8,0,1.4-0.6,1.4-1.4
				C36.3,41.2,35.7,40.6,34.9,40.6z"/>
		</g>
	</g>
	<g id="XMLID_4349_">
		<g id="XMLID_4350_">
			<path id="XMLID_4351_" class="st0" d="M34.9,36.4c-0.8,0-1.4,0.6-1.4,1.4V42c0,0.8,0.6,1.4,1.4,1.4c0.8,0,1.4-0.6,1.4-1.4v-4.2
				C36.3,37,35.7,36.4,34.9,36.4z"/>
		</g>
	</g>
</g>
</svg>
