<?xml version="1.0" encoding="utf-8"?>
<!-- Generator: Adobe Illustrator 23.0.6, SVG Export Plug-In . SVG Version: 6.00 Build 0)  -->
<svg version="1.1" id="Layer_1" xmlns="http://www.w3.org/2000/svg" xmlns:xlink="http://www.w3.org/1999/xlink" x="0px" y="0px"
	 viewBox="0 0 200 151" style="enable-background:new 0 0 200 151;" xml:space="preserve">
<style type="text/css">
	.st0{fill:#FFFFFF;}
	.st1{fill:#2B318B;}
	.st2{fill:none;stroke:#FFFFFF;stroke-miterlimit:10;}
</style>
<g>
	<path id="XMLID_192_" class="st0" d="M75.8,13.4c39.1,0,70.9,27.2,70.9,60.8c0,33.6-31.7,60.8-70.9,60.8C36.7,135,5,107.8,5,74.2
		C5,40.6,36.7,13.4,75.8,13.4"/>
	<g>
		<path class="st1" d="M23.6,92.9c-1.4,0-2.6-0.5-3.6-1.4c-0.9-1-1.4-2.1-1.4-3.5c0-1.4,0.5-2.5,1.4-3.5c0.9-1,2.1-1.4,3.6-1.4
			c0.9,0,1.7,0.2,2.4,0.6s1.3,1,1.7,1.7l-0.8,0.5c-0.3-0.6-0.7-1-1.3-1.4S24.3,84,23.6,84c-1.2,0-2.2,0.4-2.9,1.2
			c-0.8,0.8-1.1,1.7-1.1,2.8s0.4,2.1,1.1,2.8c0.8,0.8,1.7,1.2,2.9,1.2c0.7,0,1.4-0.2,1.9-0.5c0.6-0.3,1-0.8,1.3-1.4l0.8,0.5
			c-0.4,0.7-1,1.3-1.7,1.7C25.3,92.7,24.5,92.9,23.6,92.9z"/>
		<path class="st1" d="M34.9,85.9h0.9v6.8h-0.9v-1.3c-0.6,1-1.5,1.5-2.7,1.5c-1,0-1.8-0.3-2.5-1c-0.7-0.7-1-1.5-1-2.5
			c0-1,0.3-1.8,1-2.5c0.7-0.7,1.5-1,2.5-1c1.2,0,2.1,0.5,2.7,1.5V85.9z M30.4,91.2c0.5,0.5,1.1,0.8,1.9,0.8c0.8,0,1.4-0.3,1.9-0.8
			c0.5-0.5,0.8-1.2,0.8-1.9s-0.3-1.4-0.8-1.9c-0.5-0.5-1.1-0.8-1.9-0.8c-0.8,0-1.4,0.3-1.9,0.8c-0.5,0.5-0.8,1.2-0.8,1.9
			S29.9,90.7,30.4,91.2z"/>
		<path class="st1" d="M38.6,87.1c0.4-0.8,1.1-1.2,2.1-1.2v0.9c-0.6,0-1.1,0.2-1.5,0.5c-0.4,0.4-0.6,0.9-0.6,1.7v3.8h-0.9v-6.8h0.9
			V87.1z"/>
		<path class="st1" d="M45.7,86.8h-2v4.1c0,0.4,0.1,0.6,0.2,0.8s0.4,0.2,0.7,0.2c0.3,0,0.7,0,1.1,0v0.8c-0.9,0.1-1.7,0.1-2.1-0.2
			c-0.5-0.3-0.7-0.8-0.7-1.6v-4.1h-1.4v-0.9h1.4v-1.6l0.9-0.3v1.9h2V86.8z"/>
		<path class="st1" d="M50,85.8c1,0,1.8,0.4,2.4,1.1c0.6,0.7,0.9,1.5,0.9,2.5c0,0.1,0,0.2,0,0.4h-6c0.1,0.7,0.4,1.2,0.9,1.6
			S49.3,92,50,92c0.5,0,1-0.1,1.3-0.3c0.4-0.2,0.7-0.5,0.8-0.8l0.8,0.5c-0.3,0.5-0.7,0.9-1.2,1.1s-1.1,0.4-1.8,0.4
			c-1.1,0-1.9-0.3-2.6-1c-0.7-0.7-1-1.5-1-2.6c0-1,0.3-1.9,1-2.5S48.9,85.8,50,85.8z M50,86.6c-0.7,0-1.3,0.2-1.8,0.6
			c-0.5,0.4-0.8,1-0.8,1.6h5.1c-0.1-0.7-0.4-1.3-0.8-1.7S50.6,86.6,50,86.6z"/>
		<path class="st1" d="M55.6,87.1c0.4-0.8,1.1-1.2,2.1-1.2v0.9c-0.6,0-1.1,0.2-1.5,0.5c-0.4,0.4-0.6,0.9-0.6,1.7v3.8h-0.9v-6.8h0.9
			V87.1z"/>
		<path class="st1" d="M64.4,85.9h0.9v6.8h-0.9v-1.3c-0.6,1-1.5,1.5-2.7,1.5c-1,0-1.8-0.3-2.5-1c-0.7-0.7-1-1.5-1-2.5
			c0-1,0.3-1.8,1-2.5c0.7-0.7,1.5-1,2.5-1c1.2,0,2.1,0.5,2.7,1.5V85.9z M59.9,91.2c0.5,0.5,1.1,0.8,1.9,0.8c0.8,0,1.4-0.3,1.9-0.8
			c0.5-0.5,0.8-1.2,0.8-1.9s-0.3-1.4-0.8-1.9c-0.5-0.5-1.1-0.8-1.9-0.8c-0.8,0-1.4,0.3-1.9,0.8c-0.5,0.5-0.8,1.2-0.8,1.9
			S59.4,90.7,59.9,91.2z"/>
		<path class="st1" d="M76.3,91.9c-0.7,0.7-1.5,1-2.5,1c-1,0-1.8-0.3-2.5-1c-0.7-0.7-1-1.5-1-2.5c0-1,0.3-1.8,1-2.5
			c0.7-0.7,1.5-1,2.5-1c1,0,1.8,0.3,2.5,1c0.7,0.7,1,1.5,1,2.5C77.4,90.3,77,91.2,76.3,91.9z M71.9,91.2c0.5,0.5,1.1,0.8,1.9,0.8
			c0.8,0,1.4-0.3,1.9-0.8c0.5-0.5,0.8-1.2,0.8-1.9s-0.3-1.4-0.8-1.9c-0.5-0.5-1.1-0.8-1.9-0.8c-0.8,0-1.4,0.3-1.9,0.8
			c-0.5,0.5-0.8,1.2-0.8,1.9S71.4,90.7,71.9,91.2z"/>
		<path class="st1" d="M82.5,85.8c1,0,1.8,0.3,2.5,1s1,1.5,1,2.5c0,1-0.3,1.8-1,2.5c-0.7,0.7-1.5,1-2.5,1c-1.2,0-2.1-0.5-2.7-1.5v4
			h-0.9v-9.5h0.9v1.3C80.4,86.3,81.3,85.8,82.5,85.8z M80.5,91.2c0.5,0.5,1.1,0.8,1.9,0.8c0.8,0,1.4-0.3,1.9-0.8
			c0.5-0.5,0.8-1.2,0.8-1.9s-0.3-1.4-0.8-1.9c-0.5-0.5-1.1-0.8-1.9-0.8c-0.8,0-1.4,0.3-1.9,0.8c-0.5,0.5-0.8,1.2-0.8,1.9
			S80,90.7,80.5,91.2z"/>
		<path class="st1" d="M90.6,85.8c1,0,1.8,0.4,2.4,1.1c0.6,0.7,0.9,1.5,0.9,2.5c0,0.1,0,0.2,0,0.4h-6c0.1,0.7,0.4,1.2,0.9,1.6
			S90,92,90.7,92c0.5,0,1-0.1,1.3-0.3c0.4-0.2,0.7-0.5,0.8-0.8l0.8,0.5c-0.3,0.5-0.7,0.9-1.2,1.1s-1.1,0.4-1.8,0.4
			c-1.1,0-1.9-0.3-2.6-1c-0.7-0.7-1-1.5-1-2.6c0-1,0.3-1.9,1-2.5S89.6,85.8,90.6,85.8z M90.6,86.6c-0.7,0-1.3,0.2-1.8,0.6
			c-0.5,0.4-0.8,1-0.8,1.6h5.1c-0.1-0.7-0.4-1.3-0.8-1.7S91.2,86.6,90.6,86.6z"/>
		<path class="st1" d="M96.3,87.1c0.4-0.8,1.1-1.2,2.1-1.2v0.9c-0.6,0-1.1,0.2-1.5,0.5c-0.4,0.4-0.6,0.9-0.6,1.7v3.8h-0.9v-6.8h0.9
			V87.1z"/>
		<path class="st1" d="M105.1,85.9h0.9v6.8h-0.9v-1.3c-0.6,1-1.5,1.5-2.7,1.5c-1,0-1.8-0.3-2.5-1c-0.7-0.7-1-1.5-1-2.5
			c0-1,0.3-1.8,1-2.5c0.7-0.7,1.5-1,2.5-1c1.2,0,2.1,0.5,2.7,1.5V85.9z M100.5,91.2c0.5,0.5,1.1,0.8,1.9,0.8s1.4-0.3,1.9-0.8
			s0.8-1.2,0.8-1.9s-0.3-1.4-0.8-1.9c-0.5-0.5-1.1-0.8-1.9-0.8s-1.4,0.3-1.9,0.8c-0.5,0.5-0.8,1.2-0.8,1.9S100,90.7,100.5,91.2z"/>
		<path class="st1" d="M111.5,86.8h-2v4.1c0,0.4,0.1,0.6,0.2,0.8s0.4,0.2,0.7,0.2c0.3,0,0.7,0,1.1,0v0.8c-1,0.1-1.7,0.1-2.1-0.2
			c-0.5-0.3-0.7-0.8-0.7-1.6v-4.1h-1.4v-0.9h1.4v-1.6l0.9-0.3v1.9h2V86.8z"/>
		<path class="st1" d="M113.9,84.3c-0.1,0.1-0.3,0.2-0.5,0.2c-0.2,0-0.3-0.1-0.5-0.2c-0.1-0.1-0.2-0.3-0.2-0.5s0.1-0.3,0.2-0.5
			c0.1-0.1,0.3-0.2,0.5-0.2c0.2,0,0.3,0.1,0.5,0.2c0.1,0.1,0.2,0.3,0.2,0.5S114,84.2,113.9,84.3z M113,92.7v-6.8h0.9v6.8H113z"/>
		<path class="st1" d="M120.7,85.9h1l-2.8,6.8h-1.1l-2.8-6.8h1l2.4,5.8L120.7,85.9z"/>
		<path class="st1" d="M128.3,85.9h0.9v6.8h-0.9v-1.3c-0.6,1-1.5,1.5-2.7,1.5c-1,0-1.8-0.3-2.5-1c-0.7-0.7-1-1.5-1-2.5
			c0-1,0.3-1.8,1-2.5c0.7-0.7,1.5-1,2.5-1c1.2,0,2.1,0.5,2.7,1.5V85.9z M123.7,91.2c0.5,0.5,1.1,0.8,1.9,0.8s1.4-0.3,1.9-0.8
			s0.8-1.2,0.8-1.9s-0.3-1.4-0.8-1.9c-0.5-0.5-1.1-0.8-1.9-0.8s-1.4,0.3-1.9,0.8c-0.5,0.5-0.8,1.2-0.8,1.9S123.2,90.7,123.7,91.2z"
			/>
		<path class="st1" d="M44.2,106.8c-1-2-1.5-4-1.5-6.1c0-2.1,0.5-4.1,1.5-6.1h0.9c-1,2-1.5,4-1.5,6.1c0,2.1,0.5,4.1,1.5,6.1H44.2z"
			/>
		<path class="st1" d="M49.6,105.6c-1,0-1.9-0.3-2.6-1c-0.7-0.7-1-1.5-1-2.5c0-1,0.3-1.8,1-2.5c0.7-0.7,1.5-1,2.6-1
			c0.7,0,1.3,0.2,1.8,0.5c0.5,0.3,0.9,0.8,1.2,1.3l-0.7,0.4c-0.2-0.4-0.5-0.7-0.9-1c-0.4-0.2-0.9-0.4-1.4-0.4
			c-0.8,0-1.4,0.3-1.9,0.8c-0.5,0.5-0.8,1.2-0.8,1.9s0.3,1.4,0.8,1.9s1.1,0.8,1.9,0.8c0.5,0,1-0.1,1.4-0.4c0.4-0.2,0.7-0.6,0.9-1
			l0.7,0.4c-0.3,0.5-0.7,1-1.2,1.3C50.9,105.5,50.3,105.6,49.6,105.6z"/>
		<path class="st1" d="M59.6,104.6c-0.7,0.7-1.5,1-2.5,1c-1,0-1.8-0.3-2.5-1c-0.7-0.7-1-1.5-1-2.5c0-1,0.3-1.8,1-2.5
			c0.7-0.7,1.5-1,2.5-1c1,0,1.8,0.3,2.5,1c0.7,0.7,1,1.5,1,2.5C60.6,103.1,60.2,103.9,59.6,104.6z M55.1,104
			c0.5,0.5,1.1,0.8,1.9,0.8c0.8,0,1.4-0.3,1.9-0.8c0.5-0.5,0.8-1.2,0.8-1.9s-0.3-1.4-0.8-1.9c-0.5-0.5-1.1-0.8-1.9-0.8
			c-0.8,0-1.4,0.3-1.9,0.8c-0.5,0.5-0.8,1.2-0.8,1.9S54.6,103.4,55.1,104z"/>
		<path class="st1" d="M69.3,98.5c0.8,0,1.4,0.2,1.8,0.7c0.5,0.5,0.7,1.1,0.7,2v4.2H71v-4.2c0-0.6-0.2-1-0.5-1.4
			c-0.3-0.3-0.7-0.5-1.2-0.5c-0.6,0-1,0.2-1.4,0.6c-0.3,0.4-0.5,1-0.5,1.8v3.8h-0.9v-4.2c0-0.6-0.1-1.1-0.4-1.4
			c-0.3-0.3-0.7-0.5-1.2-0.5c-0.5,0-1,0.2-1.4,0.6s-0.6,1-0.6,1.8v3.8h-0.9v-6.8H63v1c0.5-0.8,1.2-1.2,2.1-1.2c1,0,1.7,0.4,2.1,1.2
			C67.6,98.9,68.3,98.5,69.3,98.5z"/>
		<path class="st1" d="M76.7,98.5c1,0,1.8,0.4,2.4,1.1c0.6,0.7,0.9,1.5,0.9,2.5c0,0.1,0,0.2,0,0.4h-6c0.1,0.7,0.4,1.2,0.9,1.6
			s1.1,0.6,1.8,0.6c0.5,0,1-0.1,1.3-0.3c0.4-0.2,0.7-0.5,0.8-0.8l0.8,0.5c-0.3,0.5-0.7,0.9-1.2,1.1s-1.1,0.4-1.8,0.4
			c-1.1,0-1.9-0.3-2.6-1c-0.7-0.7-1-1.5-1-2.6c0-1,0.3-1.9,1-2.5S75.7,98.5,76.7,98.5z M76.7,99.4c-0.7,0-1.3,0.2-1.8,0.6
			c-0.5,0.4-0.8,1-0.8,1.6h5.1c-0.1-0.7-0.4-1.3-0.8-1.7S77.3,99.4,76.7,99.4z"/>
		<path class="st1" d="M82.4,99.8c0.4-0.8,1.1-1.2,2.1-1.2v0.9c-0.6,0-1.1,0.2-1.5,0.5c-0.4,0.4-0.6,0.9-0.6,1.7v3.8h-0.9v-6.8h0.9
			V99.8z"/>
		<path class="st1" d="M88.5,105.6c-1,0-1.9-0.3-2.6-1c-0.7-0.7-1-1.5-1-2.5c0-1,0.3-1.8,1-2.5c0.7-0.7,1.5-1,2.6-1
			c0.7,0,1.3,0.2,1.8,0.5c0.5,0.3,0.9,0.8,1.2,1.3l-0.7,0.4c-0.2-0.4-0.5-0.7-0.9-1c-0.4-0.2-0.9-0.4-1.4-0.4
			c-0.8,0-1.4,0.3-1.9,0.8c-0.5,0.5-0.8,1.2-0.8,1.9s0.3,1.4,0.8,1.9s1.1,0.8,1.9,0.8c0.5,0,1-0.1,1.4-0.4c0.4-0.2,0.7-0.6,0.9-1
			l0.7,0.4c-0.3,0.5-0.7,1-1.2,1.3C89.8,105.5,89.2,105.6,88.5,105.6z"/>
		<path class="st1" d="M93.8,97c-0.1,0.1-0.3,0.2-0.5,0.2S93,97.2,92.9,97c-0.1-0.1-0.2-0.3-0.2-0.5s0.1-0.3,0.2-0.5
			c0.1-0.1,0.3-0.2,0.5-0.2s0.3,0.1,0.5,0.2c0.1,0.1,0.2,0.3,0.2,0.5S93.9,96.9,93.8,97z M92.9,105.4v-6.8h0.9v6.8H92.9z"/>
		<path class="st1" d="M101.5,98.7h0.9v6.8h-0.9v-1.3c-0.6,1-1.5,1.5-2.7,1.5c-1,0-1.8-0.3-2.5-1c-0.7-0.7-1-1.5-1-2.5
			c0-1,0.3-1.8,1-2.5c0.7-0.7,1.5-1,2.5-1c1.2,0,2.1,0.5,2.7,1.5V98.7z M96.9,104c0.5,0.5,1.1,0.8,1.9,0.8c0.8,0,1.4-0.3,1.9-0.8
			c0.5-0.5,0.8-1.2,0.8-1.9s-0.3-1.4-0.8-1.9c-0.5-0.5-1.1-0.8-1.9-0.8c-0.8,0-1.4,0.3-1.9,0.8c-0.5,0.5-0.8,1.2-0.8,1.9
			S96.4,103.4,96.9,104z"/>
		<path class="st1" d="M104.3,105.4v-9.9h0.9v9.9H104.3z"/>
		<path class="st1" d="M107.4,106.8h-0.9c1-2,1.5-4,1.5-6.1c0-2.1-0.5-4.1-1.5-6.1h0.9c1,2,1.5,4,1.5,6.1
			C108.9,102.8,108.4,104.8,107.4,106.8z"/>
	</g>
	<g id="XMLID_247_">
		<g id="XMLID_355_">
			<polygon id="Arrow_18_" class="st0" points="195,100.2 186.9,90.1 187.1,97.4 182.4,103.1 			"/>
			<polygon id="Arrow_17_" class="st0" points="161.2,87.8 169.4,97.8 169.2,90.5 173.8,84.9 			"/>
		</g>
		<line id="XMLID_248_" class="st2" x1="186.8" y1="97.6" x2="168.6" y2="90.3"/>
	</g>
	<g id="XMLID_533_">
		<path id="XMLID_1724_" class="st1" d="M98.5,35.2H87v-3.5c0-2.4-2-4.4-4.4-4.4H66.6c-2.4,0-4.4,2-4.4,4.4v3.5H50.7
			c-1.5,0-2.7,1.2-2.7,2.7v19.7c0,1.1,0.7,2.1,1.8,2.5v12.3c0,1.5,1.2,2.7,2.7,2.7h44.2c1.5,0,2.7-1.2,2.7-2.7V60
			c1.1-0.4,1.8-1.4,1.8-2.5V37.8C101.1,36.3,99.9,35.2,98.5,35.2z M64,31.6c0-1.5,1.2-2.7,2.7-2.7h15.9c1.5,0,2.7,1.2,2.7,2.7v3.5
			h-1.8v-3.5c0-0.5-0.4-0.9-0.9-0.9H66.6c-0.5,0-0.9,0.4-0.9,0.9v3.5H64V31.6z M81.7,35.2H67.5v-2.7h14.1V35.2z M97.6,72.3
			c0,0.5-0.4,0.9-0.9,0.9H52.5c-0.5,0-0.9-0.4-0.9-0.9v-12L71,63v2.2c0,1.5,1.2,2.7,2.7,2.7h1.8c1.5,0,2.7-1.2,2.7-2.7V63l19.5-2.7
			V72.3z M76.4,65.2c0,0.5-0.4,0.9-0.9,0.9h-1.8c-0.5,0-0.9-0.4-0.9-0.9v-5.3c0-0.5,0.4-0.9,0.9-0.9h1.8c0.5,0,0.9,0.4,0.9,0.9V65.2
			z M99.3,57.5c0,0.4-0.3,0.8-0.8,0.9l-0.2,0l-20.2,2.8v-1.3c0-1.5-1.2-2.7-2.7-2.7h-1.8c-1.5,0-2.7,1.2-2.7,2.7v1.3l-20.5-2.8
			c-0.4-0.1-0.8-0.4-0.8-0.9V37.8c0-0.5,0.4-0.9,0.9-0.9h47.7c0.5,0,0.9,0.4,0.9,0.9V57.5z"/>
	</g>
</g>
</svg>
