<?xml version="1.0" encoding="utf-8"?>
<!-- Generator: Adobe Illustrator 23.0.6, SVG Export Plug-In . SVG Version: 6.00 Build 0)  -->
<svg version="1.1" id="Layer_1" xmlns="http://www.w3.org/2000/svg" xmlns:xlink="http://www.w3.org/1999/xlink" x="0px" y="0px"
	 viewBox="0 0 200 151" style="enable-background:new 0 0 200 151;" xml:space="preserve">
<style type="text/css">
	.st0{fill:#FFFFFF;}
	.st1{fill:#2B318B;}
	.st2{fill:none;stroke:#FFFFFF;stroke-miterlimit:10;}
</style>
<path id="XMLID_196_" class="st0" d="M116.2,24.8c36.1,0,65.4,25.1,65.4,56.1c0,31-29.3,56.1-65.4,56.1c-36.1,0-65.4-25.1-65.4-56.1
	C50.8,49.9,80.1,24.8,116.2,24.8"/>
<g>
	<path class="st1" d="M97.8,100.1c-1.3,0-2.4-0.4-3.3-1.3s-1.3-2-1.3-3.2s0.4-2.3,1.3-3.2s2-1.3,3.3-1.3c0.8,0,1.6,0.2,2.2,0.6
		c0.7,0.4,1.2,0.9,1.6,1.6l-0.8,0.5c-0.3-0.5-0.7-1-1.2-1.3s-1.1-0.5-1.8-0.5c-1.1,0-2,0.4-2.7,1.1s-1,1.6-1,2.6c0,1,0.3,1.9,1,2.6
		s1.6,1.1,2.7,1.1c0.7,0,1.2-0.2,1.8-0.5s1-0.7,1.2-1.3l0.8,0.4c-0.4,0.7-0.9,1.2-1.6,1.6C99.4,99.9,98.6,100.1,97.8,100.1z"/>
	<path class="st1" d="M108.3,93.7h0.8v6.3h-0.8v-1.2c-0.6,0.9-1.4,1.4-2.5,1.4c-0.9,0-1.7-0.3-2.3-1c-0.6-0.6-0.9-1.4-0.9-2.3
		s0.3-1.7,0.9-2.3c0.6-0.6,1.4-1,2.3-1c1.1,0,2,0.5,2.5,1.4V93.7z M104.1,98.5c0.5,0.5,1.1,0.7,1.8,0.7s1.3-0.2,1.8-0.7
		c0.5-0.5,0.7-1.1,0.7-1.8s-0.2-1.3-0.7-1.8c-0.5-0.5-1.1-0.7-1.8-0.7s-1.3,0.2-1.8,0.7c-0.5,0.5-0.7,1.1-0.7,1.8
		S103.6,98.1,104.1,98.5z"/>
	<path class="st1" d="M111.7,94.7c0.4-0.8,1-1.1,2-1.1v0.8c-0.6,0-1,0.2-1.4,0.5s-0.6,0.9-0.6,1.6v3.5h-0.8v-6.3h0.8V94.7z"/>
	<path class="st1" d="M118.2,94.5h-1.8v3.8c0,0.3,0.1,0.6,0.2,0.7c0.1,0.1,0.3,0.2,0.6,0.2c0.3,0,0.6,0,1,0v0.7
		c-0.9,0.1-1.5,0.1-2-0.2s-0.7-0.8-0.7-1.5v-3.8h-1.3v-0.8h1.3v-1.5l0.8-0.3v1.8h1.8V94.5z"/>
	<path class="st1" d="M122.1,93.5c0.9,0,1.7,0.3,2.2,1c0.6,0.7,0.9,1.4,0.9,2.3c0,0.1,0,0.2,0,0.4h-5.5c0.1,0.6,0.4,1.1,0.8,1.5
		c0.5,0.4,1,0.6,1.7,0.6c0.5,0,0.9-0.1,1.2-0.3c0.3-0.2,0.6-0.5,0.8-0.8l0.7,0.4c-0.3,0.4-0.7,0.8-1.1,1.1c-0.5,0.3-1,0.4-1.6,0.4
		c-1,0-1.8-0.3-2.4-0.9s-0.9-1.4-0.9-2.4c0-0.9,0.3-1.7,0.9-2.3C120.4,93.8,121.2,93.5,122.1,93.5z M122.1,94.3
		c-0.7,0-1.2,0.2-1.6,0.6s-0.7,0.9-0.8,1.5h4.7c-0.1-0.7-0.3-1.2-0.8-1.5C123.2,94.5,122.7,94.3,122.1,94.3z"/>
	<path class="st1" d="M127.4,94.7c0.4-0.8,1-1.1,2-1.1v0.8c-0.6,0-1,0.2-1.4,0.5s-0.6,0.9-0.6,1.6v3.5h-0.8v-6.3h0.8V94.7z"/>
	<path class="st1" d="M135.5,93.7h0.8v6.3h-0.8v-1.2c-0.6,0.9-1.4,1.4-2.5,1.4c-0.9,0-1.7-0.3-2.3-1c-0.6-0.6-0.9-1.4-0.9-2.3
		s0.3-1.7,0.9-2.3c0.6-0.6,1.4-1,2.3-1c1.1,0,2,0.5,2.5,1.4V93.7z M131.3,98.5c0.5,0.5,1.1,0.7,1.8,0.7s1.3-0.2,1.8-0.7
		c0.5-0.5,0.7-1.1,0.7-1.8s-0.2-1.3-0.7-1.8c-0.5-0.5-1.1-0.7-1.8-0.7s-1.3,0.2-1.8,0.7c-0.5,0.5-0.7,1.1-0.7,1.8
		S130.8,98.1,131.3,98.5z"/>
	<path class="st1" d="M77.9,105.4h0.9l-2.7,6.8c-0.2,0.6-0.6,1.1-1,1.5c-0.4,0.4-0.9,0.5-1.5,0.5v-0.8c0.8,0.1,1.3-0.4,1.7-1.3
		l0.2-0.4l-2.8-6.3h0.9l2.3,5.2L77.9,105.4z"/>
	<path class="st1" d="M86.3,105.3c0.9,0,1.7,0.3,2.3,1c0.6,0.6,0.9,1.4,0.9,2.3s-0.3,1.7-0.9,2.3c-0.6,0.6-1.4,1-2.3,1
		c-1.1,0-2-0.5-2.5-1.4v3.7h-0.8v-8.8h0.8v1.2C84.3,105.7,85.2,105.3,86.3,105.3z M84.5,110.3c0.5,0.5,1.1,0.7,1.8,0.7
		s1.3-0.2,1.8-0.7c0.5-0.5,0.7-1.1,0.7-1.8s-0.2-1.3-0.7-1.8c-0.5-0.5-1.1-0.7-1.8-0.7s-1.3,0.2-1.8,0.7c-0.5,0.5-0.7,1.1-0.7,1.8
		S84,109.8,84.5,110.3z"/>
	<path class="st1" d="M91.7,106.4c0.4-0.8,1-1.1,2-1.1v0.8c-0.6,0-1,0.2-1.4,0.5s-0.6,0.9-0.6,1.6v3.5h-0.8v-6.3h0.8V106.4z"/>
	<path class="st1" d="M97.3,105.3c0.9,0,1.7,0.3,2.2,1c0.6,0.7,0.9,1.4,0.9,2.3c0,0.1,0,0.2,0,0.4h-5.5c0.1,0.6,0.4,1.1,0.8,1.5
		c0.5,0.4,1,0.6,1.7,0.6c0.5,0,0.9-0.1,1.2-0.3c0.3-0.2,0.6-0.5,0.8-0.8l0.7,0.4c-0.3,0.4-0.7,0.8-1.1,1.1s-1,0.4-1.6,0.4
		c-1,0-1.8-0.3-2.4-0.9s-0.9-1.4-0.9-2.4c0-0.9,0.3-1.7,0.9-2.3C95.6,105.6,96.4,105.3,97.3,105.3z M97.3,106.1
		c-0.7,0-1.2,0.2-1.6,0.6s-0.7,0.9-0.8,1.5h4.7c-0.1-0.7-0.3-1.2-0.8-1.5C98.4,106.2,97.9,106.1,97.3,106.1z M98.6,102.9l-1.2,1.6
		h-0.8l1-1.6H98.6z"/>
	<path class="st1" d="M102.2,107c0,0.3,0.1,0.5,0.4,0.7c0.3,0.2,0.6,0.3,0.9,0.4s0.7,0.2,1.1,0.3s0.7,0.3,0.9,0.6
		c0.2,0.3,0.4,0.6,0.4,1.1c0,0.5-0.2,1-0.6,1.3s-1,0.5-1.6,0.5c-0.6,0-1.1-0.1-1.5-0.4c-0.4-0.3-0.7-0.6-0.9-1l0.7-0.4
		c0.1,0.3,0.3,0.6,0.6,0.8c0.3,0.2,0.7,0.3,1.1,0.3c0.4,0,0.8-0.1,1-0.2s0.4-0.4,0.4-0.8c0-0.3-0.1-0.5-0.4-0.7s-0.6-0.3-0.9-0.4
		c-0.4-0.1-0.7-0.2-1.1-0.3s-0.7-0.3-0.9-0.5c-0.3-0.3-0.4-0.6-0.4-1c0-0.5,0.2-0.9,0.6-1.3c0.4-0.3,0.9-0.5,1.5-0.5
		c0.5,0,1,0.1,1.3,0.3c0.4,0.2,0.7,0.5,0.9,0.9l-0.7,0.4c-0.2-0.6-0.7-0.9-1.5-0.9c-0.4,0-0.7,0.1-0.9,0.3
		C102.3,106.5,102.2,106.7,102.2,107z"/>
	<path class="st1" d="M110.3,106.2h-1.8v3.8c0,0.3,0.1,0.6,0.2,0.7c0.1,0.1,0.3,0.2,0.6,0.2c0.3,0,0.6,0,1,0v0.7
		c-0.9,0.1-1.5,0.1-2-0.2s-0.7-0.8-0.7-1.5v-3.8h-1.3v-0.8h1.3v-1.5l0.8-0.3v1.8h1.8V106.2z"/>
	<path class="st1" d="M116.7,105.4h0.8v6.3h-0.8v-1.2c-0.6,0.9-1.4,1.4-2.5,1.4c-0.9,0-1.7-0.3-2.3-1c-0.6-0.6-0.9-1.4-0.9-2.3
		s0.3-1.7,0.9-2.3c0.6-0.6,1.4-1,2.3-1c1.1,0,2,0.5,2.5,1.4V105.4z M112.4,110.3c0.5,0.5,1.1,0.7,1.8,0.7s1.3-0.2,1.8-0.7
		c0.5-0.5,0.7-1.1,0.7-1.8s-0.2-1.3-0.7-1.8c-0.5-0.5-1.1-0.7-1.8-0.7s-1.3,0.2-1.8,0.7c-0.5,0.5-0.7,1.1-0.7,1.8
		S112,109.8,112.4,110.3z"/>
	<path class="st1" d="M125.9,105.3c0.7,0,1.3,0.2,1.7,0.7c0.4,0.5,0.6,1.1,0.6,1.8v3.9h-0.8v-3.9c0-0.5-0.1-1-0.4-1.3
		c-0.3-0.3-0.6-0.4-1.1-0.4c-0.5,0-0.9,0.2-1.3,0.5c-0.3,0.3-0.5,0.9-0.5,1.6v3.5h-0.8v-3.9c0-0.6-0.1-1-0.4-1.3
		c-0.3-0.3-0.6-0.4-1.1-0.4c-0.5,0-0.9,0.2-1.3,0.5c-0.4,0.4-0.5,0.9-0.5,1.6v3.5h-0.8v-6.3h0.8v0.9c0.5-0.7,1.1-1.1,1.9-1.1
		c0.9,0,1.5,0.4,1.9,1.1C124.3,105.6,125,105.3,125.9,105.3z"/>
	<path class="st1" d="M135.1,110.9c-0.6,0.6-1.4,0.9-2.3,0.9s-1.7-0.3-2.3-0.9c-0.6-0.6-1-1.4-1-2.3c0-0.9,0.3-1.7,1-2.3
		c0.6-0.6,1.4-0.9,2.3-0.9s1.7,0.3,2.3,0.9c0.6,0.6,1,1.4,1,2.3C136.1,109.5,135.8,110.2,135.1,110.9z M131,110.3
		c0.5,0.5,1.1,0.7,1.8,0.7s1.3-0.2,1.8-0.7c0.5-0.5,0.7-1.1,0.7-1.8s-0.2-1.3-0.7-1.8c-0.5-0.5-1.1-0.7-1.8-0.7s-1.3,0.2-1.8,0.7
		c-0.5,0.5-0.7,1.1-0.7,1.8S130.6,109.8,131,110.3z"/>
	<path class="st1" d="M138,107c0,0.3,0.1,0.5,0.4,0.7c0.3,0.2,0.6,0.3,0.9,0.4s0.7,0.2,1.1,0.3s0.7,0.3,0.9,0.6s0.4,0.6,0.4,1.1
		c0,0.5-0.2,1-0.6,1.3s-1,0.5-1.6,0.5c-0.6,0-1.1-0.1-1.5-0.4c-0.4-0.3-0.7-0.6-0.9-1l0.7-0.4c0.1,0.3,0.3,0.6,0.6,0.8
		c0.3,0.2,0.7,0.3,1.1,0.3c0.4,0,0.8-0.1,1-0.2s0.4-0.4,0.4-0.8c0-0.3-0.1-0.5-0.4-0.7c-0.2-0.2-0.6-0.3-0.9-0.4
		c-0.4-0.1-0.7-0.2-1.1-0.3c-0.4-0.1-0.7-0.3-0.9-0.5c-0.2-0.3-0.4-0.6-0.4-1c0-0.5,0.2-0.9,0.6-1.3c0.4-0.3,0.9-0.5,1.5-0.5
		c0.5,0,1,0.1,1.3,0.3c0.4,0.2,0.7,0.5,0.9,0.9l-0.7,0.4c-0.2-0.6-0.7-0.9-1.5-0.9c-0.4,0-0.7,0.1-0.9,0.3
		C138.1,106.5,138,106.7,138,107z"/>
	<path class="st1" d="M151.5,102.9h0.8v8.8h-0.8v-1.2c-0.6,0.9-1.4,1.4-2.5,1.4c-0.9,0-1.7-0.3-2.3-1c-0.6-0.6-0.9-1.4-0.9-2.3
		s0.3-1.7,0.9-2.3c0.6-0.6,1.4-1,2.3-1c1.1,0,2,0.5,2.5,1.4V102.9z M147.3,110.3c0.5,0.5,1.1,0.7,1.8,0.7s1.3-0.2,1.8-0.7
		c0.5-0.5,0.7-1.1,0.7-1.8s-0.2-1.3-0.7-1.8c-0.5-0.5-1.1-0.7-1.8-0.7s-1.3,0.2-1.8,0.7c-0.5,0.5-0.7,1.1-0.7,1.8
		S146.8,109.8,147.3,110.3z"/>
	<path class="st1" d="M157,105.3c0.9,0,1.7,0.3,2.2,1c0.6,0.7,0.9,1.4,0.9,2.3c0,0.1,0,0.2,0,0.4h-5.5c0.1,0.6,0.4,1.1,0.8,1.5
		c0.5,0.4,1,0.6,1.7,0.6c0.5,0,0.9-0.1,1.2-0.3c0.3-0.2,0.6-0.5,0.8-0.8l0.7,0.4c-0.3,0.4-0.7,0.8-1.1,1.1c-0.5,0.3-1,0.4-1.6,0.4
		c-1,0-1.8-0.3-2.4-0.9s-0.9-1.4-0.9-2.4c0-0.9,0.3-1.7,0.9-2.3C155.3,105.6,156,105.3,157,105.3z M157,106.1
		c-0.7,0-1.2,0.2-1.6,0.6s-0.7,0.9-0.8,1.5h4.7c-0.1-0.7-0.3-1.2-0.8-1.5C158.1,106.2,157.6,106.1,157,106.1z"/>
	<path class="st1" d="M86.3,117c0.9,0,1.7,0.3,2.2,1c0.6,0.7,0.9,1.4,0.9,2.3c0,0.1,0,0.2,0,0.4h-5.5c0.1,0.6,0.4,1.1,0.8,1.5
		c0.5,0.4,1,0.6,1.7,0.6c0.5,0,0.9-0.1,1.2-0.3c0.3-0.2,0.6-0.5,0.8-0.8l0.7,0.4c-0.3,0.4-0.7,0.8-1.1,1.1s-1,0.4-1.6,0.4
		c-1,0-1.8-0.3-2.4-0.9s-0.9-1.4-0.9-2.4c0-0.9,0.3-1.7,0.9-2.3C84.5,117.3,85.3,117,86.3,117z M86.3,117.8c-0.7,0-1.2,0.2-1.6,0.6
		s-0.7,0.9-0.8,1.5h4.7c-0.1-0.7-0.3-1.2-0.8-1.5C87.4,118,86.9,117.8,86.3,117.8z"/>
	<path class="st1" d="M97.4,117c0.7,0,1.3,0.2,1.7,0.7c0.4,0.5,0.6,1.1,0.6,1.8v3.9h-0.8v-3.9c0-0.5-0.1-1-0.4-1.3
		c-0.3-0.3-0.6-0.4-1.1-0.4c-0.5,0-0.9,0.2-1.3,0.5c-0.3,0.3-0.5,0.9-0.5,1.6v3.5h-0.8v-3.9c0-0.6-0.1-1-0.4-1.3
		c-0.3-0.3-0.6-0.4-1.1-0.4c-0.5,0-0.9,0.2-1.3,0.5c-0.4,0.4-0.5,0.9-0.5,1.6v3.5h-0.8v-6.3h0.8v0.9c0.5-0.7,1.1-1.1,1.9-1.1
		c0.9,0,1.5,0.4,1.9,1.1C95.8,117.4,96.5,117,97.4,117z"/>
	<path class="st1" d="M104.7,117c0.9,0,1.7,0.3,2.3,1c0.6,0.6,0.9,1.4,0.9,2.3s-0.3,1.7-0.9,2.3c-0.6,0.6-1.4,1-2.3,1
		c-1.1,0-2-0.5-2.5-1.4v3.7h-0.8v-8.8h0.8v1.2C102.7,117.5,103.6,117,104.7,117z M102.9,122c0.5,0.5,1.1,0.7,1.8,0.7
		s1.3-0.2,1.8-0.7c0.5-0.5,0.7-1.1,0.7-1.8s-0.2-1.3-0.7-1.8c-0.5-0.5-1.1-0.7-1.8-0.7s-1.3,0.2-1.8,0.7c-0.5,0.5-0.7,1.1-0.7,1.8
		S102.4,121.6,102.9,122z"/>
	<path class="st1" d="M109.3,123.4v-9.1h0.8v9.1H109.3z"/>
	<path class="st1" d="M114.8,117c0.9,0,1.7,0.3,2.2,1c0.6,0.7,0.9,1.4,0.9,2.3c0,0.1,0,0.2,0,0.4h-5.5c0.1,0.6,0.4,1.1,0.8,1.5
		c0.5,0.4,1,0.6,1.7,0.6c0.5,0,0.9-0.1,1.2-0.3c0.3-0.2,0.6-0.5,0.8-0.8l0.7,0.4c-0.3,0.4-0.7,0.8-1.1,1.1c-0.5,0.3-1,0.4-1.6,0.4
		c-1,0-1.8-0.3-2.4-0.9s-0.9-1.4-0.9-2.4c0-0.9,0.3-1.7,0.9-2.3C113,117.3,113.8,117,114.8,117z M114.8,117.8
		c-0.7,0-1.2,0.2-1.6,0.6s-0.7,0.9-0.8,1.5h4.7c-0.1-0.7-0.3-1.2-0.8-1.5C115.8,118,115.4,117.8,114.8,117.8z"/>
	<path class="st1" d="M124.6,117.2h0.8v6.3h-0.8v-1.2c-0.6,0.9-1.4,1.4-2.5,1.4c-0.9,0-1.7-0.3-2.3-1c-0.6-0.6-0.9-1.4-0.9-2.3
		s0.3-1.7,0.9-2.3c0.6-0.6,1.4-1,2.3-1c1.1,0,2,0.5,2.5,1.4V117.2z M120.4,122c0.5,0.5,1.1,0.7,1.8,0.7s1.3-0.2,1.8-0.7
		c0.5-0.5,0.7-1.1,0.7-1.8s-0.2-1.3-0.7-1.8c-0.5-0.5-1.1-0.7-1.8-0.7s-1.3,0.2-1.8,0.7c-0.5,0.5-0.7,1.1-0.7,1.8
		S119.9,121.6,120.4,122z"/>
	<path class="st1" d="M132.6,114.6h0.8v8.8h-0.8v-1.2c-0.6,0.9-1.4,1.4-2.5,1.4c-0.9,0-1.7-0.3-2.3-1c-0.6-0.6-0.9-1.4-0.9-2.3
		s0.3-1.7,0.9-2.3c0.6-0.6,1.4-1,2.3-1c1.1,0,2,0.5,2.5,1.4V114.6z M128.3,122c0.5,0.5,1.1,0.7,1.8,0.7s1.3-0.2,1.8-0.7
		c0.5-0.5,0.7-1.1,0.7-1.8s-0.2-1.3-0.7-1.8c-0.5-0.5-1.1-0.7-1.8-0.7s-1.3,0.2-1.8,0.7c-0.5,0.5-0.7,1.1-0.7,1.8
		S127.9,121.6,128.3,122z"/>
	<path class="st1" d="M140.4,122.6c-0.6,0.6-1.4,0.9-2.3,0.9s-1.7-0.3-2.3-0.9c-0.6-0.6-1-1.4-1-2.3c0-0.9,0.3-1.7,1-2.3
		c0.6-0.6,1.4-0.9,2.3-0.9s1.7,0.3,2.3,0.9c0.6,0.6,1,1.4,1,2.3C141.4,121.2,141,122,140.4,122.6z M136.3,122
		c0.5,0.5,1.1,0.7,1.8,0.7s1.3-0.2,1.8-0.7c0.5-0.5,0.7-1.1,0.7-1.8s-0.2-1.3-0.7-1.8c-0.5-0.5-1.1-0.7-1.8-0.7s-1.3,0.2-1.8,0.7
		c-0.5,0.5-0.7,1.1-0.7,1.8S135.8,121.6,136.3,122z"/>
	<path class="st1" d="M143.3,118.8c0,0.3,0.1,0.5,0.4,0.7c0.3,0.2,0.6,0.3,0.9,0.4s0.7,0.2,1.1,0.3s0.7,0.3,0.9,0.6s0.4,0.6,0.4,1.1
		c0,0.5-0.2,1-0.6,1.3s-1,0.5-1.6,0.5c-0.6,0-1.1-0.1-1.5-0.4c-0.4-0.3-0.7-0.6-0.9-1l0.7-0.4c0.1,0.3,0.3,0.6,0.6,0.8
		c0.3,0.2,0.7,0.3,1.1,0.3c0.4,0,0.8-0.1,1-0.2s0.4-0.4,0.4-0.8c0-0.3-0.1-0.5-0.4-0.7c-0.2-0.2-0.6-0.3-0.9-0.4
		c-0.4-0.1-0.7-0.2-1.1-0.3c-0.4-0.1-0.7-0.3-0.9-0.5c-0.2-0.3-0.4-0.6-0.4-1c0-0.5,0.2-0.9,0.6-1.3c0.4-0.3,0.9-0.5,1.5-0.5
		c0.5,0,1,0.1,1.3,0.3c0.4,0.2,0.7,0.5,0.9,0.9l-0.7,0.4c-0.2-0.6-0.7-0.9-1.5-0.9c-0.4,0-0.7,0.1-0.9,0.3
		C143.4,118.2,143.3,118.5,143.3,118.8z"/>
</g>
<g id="XMLID_390_">
	<g id="XMLID_412_">
		<polygon id="Arrow_28_" class="st0" points="7.5,92.3 17.8,98.5 15.3,92.2 17.5,85.8 		"/>
		<polygon id="Arrow_27_" class="st0" points="40.7,92.4 30.5,86.2 33,92.5 30.7,98.9 		"/>
	</g>
	<line id="XMLID_391_" class="st2" x1="15.4" y1="92" x2="33.6" y2="92.6"/>
</g>
<g id="XMLID_3725_">
	<path id="XMLID_3724_" class="st1" d="M128.2,52.4c0,0.5-0.4,0.9-0.9,0.9c-0.5,0-0.9-0.4-0.9-0.9c0-0.5,0.4-0.9,0.9-0.9
		S128.2,52,128.2,52.4z"/>
	<path id="XMLID_3685_" class="st1" d="M119.3,52.4c0,0.5-0.4,0.9-0.9,0.9s-0.9-0.4-0.9-0.9c0-0.5,0.4-0.9,0.9-0.9
		S119.3,52,119.3,52.4z"/>
	<path id="XMLID_3684_" class="st1" d="M137.1,81.8c-0.5,0-0.9,0.4-0.9,0.9v4.4c0,0.5,0.4,0.9,0.9,0.9c0.5,0,0.9-0.4,0.9-0.9l0-4.4
		C137.9,82.2,137.5,81.8,137.1,81.8z"/>
	<path id="XMLID_3727_" class="st1" d="M137.1,64.9l-8.9,0v-1.6c2.5-1.6,4.2-4.3,4.4-7.3l0.9,0c1.5,0,2.7-1.2,2.7-2.7v-1.8
		c0-0.9-0.5-1.8-1.3-2.3c0.8-0.8,1.3-1.9,1.3-3.1v-1.8c0-5.4-4.4-9.8-9.8-9.8l-15.1,0c-1,0-1.8,0.8-1.8,1.8l0,9.8
		c0,1.2,0.5,2.3,1.3,3.1c-0.8,0.5-1.3,1.3-1.3,2.3v1.8c0,1.5,1.2,2.7,2.7,2.7l0.9,0c0.3,3,1.9,5.7,4.4,7.3v1.6l-8.9,0
		c-0.5,0-0.9,0.4-0.9,0.9s0.4,0.9,0.9,0.9l6.4,0l-1,8.8c0,0.3,0.1,0.6,0.4,0.8c0.2,0.1,0.3,0.2,0.5,0.2c0.1,0,0.3,0,0.4-0.1l3.2-1.4
		c0.1,1,0.8,1.9,1.7,2.2l-0.8,9.9c0,0.5,0.3,0.9,0.8,1c0.5,0,0.9-0.3,1-0.8l0.8-9.9l1.9,0l0.8,9.9c0,0.5,0.4,0.8,0.9,0.8l0.1,0
		c0.2,0,0.5-0.1,0.6-0.3c0.2-0.2,0.2-0.4,0.2-0.7l-0.8-9.9c0.9-0.4,1.6-1.2,1.7-2.2l3.2,1.4c0.1,0,0.2,0.1,0.3,0.1
		c0.2,0,0.4-0.1,0.5-0.2c0.3-0.2,0.4-0.5,0.4-0.8l-0.7-6.2c-0.1-0.5-0.5-0.8-1-0.8c-0.2,0-0.4,0.1-0.6,0.3c-0.1,0.2-0.2,0.4-0.2,0.7
		l0.5,4.7l-5.6-2.5l3.6-5l9.3,0c3.4,0,6.2,2.8,6.2,6.2l0,14.2c0,0.5,0.4,0.9,0.9,0.9s0.9-0.4,0.9-0.9V72.9
		C145.1,68.5,141.5,64.9,137.1,64.9z M134.4,53.3c0,0.5-0.4,0.9-0.9,0.9l-0.9,0v-3.6l0.9,0c0.5,0,0.9,0.4,0.9,0.9V53.3z M111.3,53.3
		v-1.8c0-0.5,0.4-0.9,0.9-0.9l0.9,0v3.6l-0.9,0C111.7,54.2,111.3,53.8,111.3,53.3z M114.8,55.1l0-9.7l2.6,0.3c0.5,0,0.9-0.3,1-0.8
		c0-0.5-0.3-0.9-0.8-1l-3.6-0.4c-0.3,0-0.5,0.1-0.7,0.2c-0.2,0.2-0.3,0.4-0.3,0.7v4.3c-1.1-0.4-1.8-1.4-1.8-2.5l0-9.8l15.1,0
		c4.4,0,8,3.6,8,8v1.8c0,1.1-0.7,2.1-1.8,2.5v-2.5c0-0.5-0.3-0.8-0.8-0.9l-10.7-1.1c-0.2,0-0.5,0-0.7,0.2c-0.2,0.2-0.3,0.4-0.3,0.6
		c0,0.5,0.3,0.9,0.8,1l9.9,1l0,8.1c0,4.4-3.6,8-8,8C118.4,63.1,114.8,59.5,114.8,55.1z M122.8,64.9c1.2,0,2.4-0.2,3.6-0.7v1.3
		l-3.6,5l-3.6-5v-1.3C120.4,64.7,121.6,64.9,122.8,64.9z M116.8,66.7l1.2,0l3.6,5l-5.6,2.5L116.8,66.7z M125.5,74.7
		c0,0.5-0.4,0.9-0.9,0.9l-3.6,0c-0.5,0-0.9-0.4-0.9-0.9l0-0.5l2.7-1.2l2.7,1.2V74.7z"/>
	<path id="XMLID_3726_" class="st1" d="M110.4,73.8l-3.6,0v-2.7c0-1.5-1.2-2.7-2.7-2.7l-5.3,0c-1.5,0-2.7,1.2-2.7,2.7v2.7l-3.6,0
		c-0.5,0-0.9,0.4-0.9,0.9l0,7.1c0,0.5,0.4,0.9,0.9,0.9s0.9-0.4,0.9-0.9v-0.9l5.3,0v0.9c0,0.5,0.4,0.9,0.9,0.9l3.6,0
		c0.5,0,0.9-0.4,0.9-0.9l0-3.6c0-0.5-0.4-0.9-0.9-0.9l-3.6,0c-0.5,0-0.9,0.4-0.9,0.9v0.9l-5.3,0v-3.6l16,0v3.6l-2.7,0
		c-0.5,0-0.9,0.4-0.9,0.9s0.4,0.9,0.9,0.9l2.7,0l0,5.3l-16,0l0-0.9c0-0.5-0.4-0.9-0.9-0.9s-0.9,0.4-0.9,0.9v1.8
		c0,0.5,0.4,0.9,0.9,0.9l17.8,0c0.5,0,0.9-0.4,0.9-0.9l0-12.5C111.3,74.2,110.9,73.8,110.4,73.8z M100.6,79.1l1.8,0v1.8l-1.8,0V79.1
		z M97.9,73.8l0-2.7c0-0.5,0.4-0.9,0.9-0.9l5.3,0c0.5,0,0.9,0.4,0.9,0.9l0,2.7L97.9,73.8z"/>
	<path id="XMLID_3624_" class="st1" d="M92.6,63.1c0.5,0,0.9-0.4,0.9-0.9l0-10.7l1.8,0l0,10.7c0,0.5,0.4,0.9,0.9,0.9
		s0.9-0.4,0.9-0.9l0-11.6c0-0.5-0.4-0.9-0.9-0.9l-3.6,0c-0.5,0-0.9,0.4-0.9,0.9l0,11.6C91.7,62.7,92.1,63.1,92.6,63.1z"/>
	<path id="XMLID_3623_" class="st1" d="M99.7,63.1c0.5,0,0.9-0.4,0.9-0.9V56l1.8,0l0,6.2c0,0.5,0.4,0.9,0.9,0.9s0.9-0.4,0.9-0.9
		l0-7.1c0-0.5-0.4-0.9-0.9-0.9l-3.6,0c-0.5,0-0.9,0.4-0.9,0.9l0,7.1C98.8,62.7,99.2,63.1,99.7,63.1z"/>
	<path id="XMLID_2475_" class="st1" d="M106.8,63.1c0.5,0,0.9-0.4,0.9-0.9v-2.7l1.8,0l0,2.7c0,0.5,0.4,0.9,0.9,0.9s0.9-0.4,0.9-0.9
		v-3.6c0-0.5-0.4-0.9-0.9-0.9l-3.6,0c-0.5,0-0.9,0.4-0.9,0.9v3.6C105.9,62.7,106.3,63.1,106.8,63.1z"/>
	<path id="XMLID_2452_" class="st1" d="M101.5,47.1c-0.5,0-0.9-0.4-0.9-0.9c0-0.5-0.4-0.9-0.9-0.9s-0.9,0.4-0.9,0.9
		c0,1.1,0.7,2.1,1.8,2.5v1c0,0.5,0.4,0.9,0.9,0.9s0.9-0.4,0.9-0.9v-1c1.2-0.4,1.9-1.7,1.7-3c-0.2-1.3-1.3-2.2-2.6-2.2
		c-0.5,0-0.9-0.4-0.9-0.9c0-0.5,0.4-0.9,0.9-0.9s0.9,0.4,0.9,0.9s0.4,0.9,0.9,0.9c0.5,0,0.9-0.4,0.9-0.9c0-1.1-0.7-2.1-1.8-2.5l0-1
		c0-0.5-0.4-0.9-0.9-0.9s-0.9,0.4-0.9,0.9v1c-1.2,0.4-1.9,1.7-1.7,3c0.2,1.3,1.3,2.2,2.6,2.2c0.5,0,0.9,0.4,0.9,0.9
		S102,47.1,101.5,47.1z"/>
</g>
</svg>
