<?xml version="1.0" encoding="utf-8"?>
<!-- Generator: Adobe Illustrator 23.0.6, SVG Export Plug-In . SVG Version: 6.00 Build 0)  -->
<svg version="1.1" id="Layer_1" xmlns="http://www.w3.org/2000/svg" xmlns:xlink="http://www.w3.org/1999/xlink" x="0px" y="0px"
	 viewBox="0 0 2500 1500" style="enable-background:new 0 0 2500 1500;" xml:space="preserve">
<style type="text/css">
	.st0{clip-path:url(#XMLID_7_);}
	.st1{fill:none;}
	.st2{fill:#FFFFFF;}
	.st3{font-family:'Gilroy-Bold';}
	.st4{font-size:63.7887px;}
	.st5{font-size:151.4938px;}
	.st6{font-size:56.3487px;}
	.st7{fill:#FBD7DA;}
	.st8{fill:#EC3246;}
	.st9{font-size:61.3776px;}
	.st10{fill:#231F20;}
	.st11{font-size:52.171px;}
	.st12{fill:#252525;}
	.st13{font-family:'Gilroy-Regular';}
	.st14{font-size:49.1021px;}
	.st15{font-size:36.8266px;}
	.st16{fill:none;stroke:#2B318B;stroke-miterlimit:10;}
</style>
<g>
	<g id="XMLID_1842_">
		<g id="XMLID_2646_">
			<defs>
				<rect id="XMLID_2645_" x="16.7" y="42" width="1169.2" height="1397.2"/>
			</defs>
			<clipPath id="XMLID_7_">
				<use xlink:href="#XMLID_2645_"  style="overflow:visible;"/>
			</clipPath>
			<g id="Hombrekc1.psd" class="st0">
				<defs>
					<rect id="SVGID_1_" x="64.8" y="-8.6" width="1204.5" height="1558.7"/>
				</defs>
				<clipPath id="SVGID_2_">
					<use xlink:href="#SVGID_1_"  style="overflow:visible;"/>
				</clipPath>
				<g style="clip-path:url(#SVGID_2_);">
					
						<image style="overflow:visible;" width="1560" height="3103" id="Layer_3_1_" xlink:href="479F2FCAB2FF0164.png"  transform="matrix(0.4723 0 0 0.4723 332.6255 84.4571)">
					</image>
				</g>
				<g style="clip-path:url(#SVGID_2_);">
					
						<image style="overflow:visible;" width="1377" height="897" id="Layer_9_1_" xlink:href="479F2FCAB2FF016F.png"  transform="matrix(0.4723 0 0 0.4723 364.7449 1126.4482)">
					</image>
				</g>
				<g style="clip-path:url(#SVGID_2_);">
					
						<image style="overflow:visible;" width="447" height="1061" id="Layer_5_1_" xlink:href="479F2FCAB2FF0161.png"  transform="matrix(0.4723 0 0 0.4723 180.0583 600.2569)">
					</image>
				</g>
				<g style="clip-path:url(#SVGID_2_);">
					
						<image style="overflow:visible;" width="219" height="446" id="Layer_10_copy_1_" xlink:href="479F2FCAB2FF0162.png"  transform="matrix(0.4723 0 0 0.4723 1063.8142 758.4922)">
					</image>
				</g>
				<g style="clip-path:url(#SVGID_2_);">
					
						<image style="overflow:visible;" width="1965" height="1782" id="Layer_8_1_" xlink:href="479F2FCAB2FF0163.png"  transform="matrix(0.4723 0 0 0.4723 181.9477 416.0427)">
					</image>
				</g>
				<g style="clip-path:url(#SVGID_2_);">
					
						<image style="overflow:visible;" width="219" height="436" id="Layer_10_1_" xlink:href="479F2FCAB2FF0167.png"  transform="matrix(0.4723 0 0 0.4723 1063.8142 758.4922)">
					</image>
				</g>
				<g style="clip-path:url(#SVGID_2_);">
					
						<image style="overflow:visible;" width="213" height="363" id="Layer_6_1_" xlink:href="479F2FCAB2FF0160.png"  transform="matrix(0.4723 0 0 0.4723 178.6413 769.3561)">
					</image>
				</g>
			</g>
		</g>
		<g id="XMLID_1683_">
			<g id="XMLID_341_">
				<rect id="XMLID_18_" x="388.6" y="748.3" class="st1" width="539" height="215.8"/>
				<text transform="matrix(1 0 0 1 457.2295 792.9648)"><tspan x="0" y="0" class="st2 st3 st4">Ciclo de Caja</tspan><tspan x="-50.9" y="70.2" class="st2 st3 st4">Cash Conversion </tspan><tspan x="117.5" y="140.3" class="st2 st3 st4">Cycle</tspan></text>
			</g>
			<text id="XMLID_44_" transform="matrix(1 0 0 1 480.394 734.7432)" class="st2 st3 st5">CCC</text>
			<rect id="XMLID_344_" x="357.3" y="988.8" class="st2" width="601.7" height="5.6"/>
			<text id="XMLID_69_" transform="matrix(1 0 0 1 378.2012 1054.2959)" class="st2 st3 st6">CCC=DSO+DIO-DPO</text>
		</g>
	</g>
	<g id="XMLID_136_">
		<rect id="XMLID_42_" x="1852.9" y="594.1" class="st7" width="631.1" height="282.9"/>
		<rect id="XMLID_80_" x="1852.9" y="991" class="st7" width="631.1" height="282.9"/>
		<rect id="XMLID_137_" x="1852.9" y="242.3" class="st7" width="631.1" height="213.4"/>
		<g id="XMLID_262_">
			<rect id="XMLID_17_" x="1174.9" y="249.7" class="st1" width="518.6" height="251.6"/>
			<text transform="matrix(1 0 0 1 1174.9434 292.6509)"><tspan x="0" y="0" class="st8 st3 st9">DSO</tspan><tspan x="0" y="62.6" class="st10 st3 st11">Rotación de cartera</tspan><tspan x="0" y="121.5" class="st12 st13 st14">Days sales </tspan><tspan x="0" y="180.5" class="st12 st13 st14">outstanding</tspan></text>
		</g>
		<g id="XMLID_352_">
			<rect id="XMLID_16_" x="1174.9" y="996.9" class="st1" width="629.8" height="360.6"/>
			<text transform="matrix(1 0 0 1 1174.9434 1039.8848)"><tspan x="0" y="0" class="st8 st3 st9">DPO</tspan><tspan x="0" y="62.6" class="st10 st3 st11">Rotación de cuentas</tspan><tspan x="0" y="125.2" class="st10 st3 st11">por pagar </tspan><tspan x="0" y="184.1" class="st12 st13 st14">Days payable outstanding</tspan><tspan x="0" y="243.1" class="st12 st13 st14"> </tspan></text>
		</g>
		<g id="XMLID_3325_">
			<g id="XMLID_3329_">
				<text transform="matrix(1 0 0 1 2361.0791 327.4326)" class="st12 st13 st15">30</text>
			</g>
			<text id="XMLID_3327_" transform="matrix(1 0 0 1 1895.0742 349.0273)" class="st8 st3 st9">=</text>
			<text id="XMLID_3328_" transform="matrix(1 0 0 1 2324.5352 349.0273)" class="st8 st3 st9">*</text>
		</g>
		<g id="XMLID_3339_">
			<text id="XMLID_3342_" transform="matrix(1 0 0 1 1866.4307 1127.1787)" class="st8 st3 st9">=</text>
		</g>
		<g id="XMLID_342_">
			<rect id="XMLID_15_" x="1174.9" y="616.4" class="st1" width="600" height="251.6"/>
			<text transform="matrix(1 0 0 1 1174.9434 659.3442)"><tspan x="0" y="0" class="st8 st3 st9">DIO</tspan><tspan x="0" y="62.6" class="st10 st3 st11">Rotación de inventarios</tspan><tspan x="0" y="121.5" class="st12 st13 st14">Days inventory </tspan><tspan x="0" y="180.4" class="st12 st13 st14">outstanding</tspan></text>
		</g>
		<text id="XMLID_3335_" transform="matrix(1 0 0 1 1802.2725 736.4189)" class="st8 st3 st9">=</text>
		<text id="XMLID_3324_" transform="matrix(1 0 0 1 2010.3105 287.5371)"><tspan x="0" y="0" class="st12 st13 st15">Total cartera</tspan><tspan x="25.4" y="31.9" class="st12 st13 st15">en un mes</tspan></text>
		<g id="XMLID_3330_">
			<text transform="matrix(1 0 0 1 1982.1562 378.5811)"><tspan x="0" y="0" class="st12 st13 st15">Promedio venta </tspan><tspan x="-0.4" y="31.9" class="st12 st13 st15">neta de 3 meses</tspan></text>
		</g>
		<line id="XMLID_3326_" class="st16" x1="1959.6" y1="335.1" x2="2282.8" y2="335.1"/>
		<text id="XMLID_3345_" transform="matrix(1 0 0 1 1971.4219 1050.3438)"><tspan x="0" y="0" class="st12 st13 st15">Total cuentas por</tspan><tspan x="2.5" y="31.9" class="st12 st13 st15"> pagar en un mes</tspan></text>
		<g id="XMLID_3344_">
			<text transform="matrix(1 0 0 1 1983.4434 1156.7305)"><tspan x="0" y="0" class="st12 st13 st15">Promedio costo </tspan><tspan x="-51.2" y="31.9" class="st12 st13 st15">de ventas de 3 meses </tspan><tspan x="30.6" y="63.8" class="st12 st13 st15">o costo neto</tspan></text>
		</g>
		<line id="XMLID_3340_" class="st16" x1="1931.3" y1="1113.3" x2="2311.1" y2="1113.3"/>
		<text id="XMLID_3338_" transform="matrix(1 0 0 1 1980.9209 668.791)"><tspan x="0" y="0" class="st12 st13 st15">Total inventarios</tspan><tspan x="54.8" y="31.9" class="st12 st13 st15">en un mes</tspan></text>
		<g id="XMLID_3337_">
			<text transform="matrix(1 0 0 1 1983.4434 765.9707)"><tspan x="0" y="0" class="st12 st13 st15">Promedio costo </tspan><tspan x="-46.5" y="31.9" class="st12 st13 st15">de ventas de 3 meses</tspan><tspan x="30.6" y="63.8" class="st12 st13 st15">o costo neto</tspan></text>
		</g>
		<line id="XMLID_3333_" class="st16" x1="1931.3" y1="722.5" x2="2311.1" y2="722.5"/>
		<g id="XMLID_134_">
			<g id="XMLID_133_">
				<text transform="matrix(1 0 0 1 2361.0791 731.4072)" class="st12 st13 st15">30</text>
			</g>
			<text id="XMLID_97_" transform="matrix(1 0 0 1 2324.5352 753.002)" class="st8 st3 st9">*</text>
		</g>
		<g id="XMLID_315_">
			<text id="XMLID_336_" transform="matrix(1 0 0 1 2361.0791 1106.29)" class="st12 st13 st15">30</text>
			<text id="XMLID_334_" transform="matrix(1 0 0 1 2324.5352 1143.2285)" class="st8 st3 st9">*</text>
		</g>
	</g>
</g>
</svg>
