<?xml version="1.0" encoding="utf-8"?>
<!-- Generator: Adobe Illustrator 23.0.6, SVG Export Plug-In . SVG Version: 6.00 Build 0)  -->
<svg version="1.1" id="Layer_1" xmlns="http://www.w3.org/2000/svg" xmlns:xlink="http://www.w3.org/1999/xlink" x="0px" y="0px"
	 viewBox="0 0 116 100" style="enable-background:new 0 0 116 100;" xml:space="preserve">
<style type="text/css">
	.st0{fill:#FFFFFF;}
</style>
<g id="XMLID_3098_">
	<path id="XMLID_3173_" class="st0" d="M96.4,46.3c0-0.6-0.4-1.1-0.9-1.3l-12-4c-0.3-0.1-0.6-0.1-0.8,0l-12,4
		c-0.5,0.2-0.9,0.7-0.9,1.3V61c0,0.7,0.6,1.3,1.3,1.3h24c0.7,0,1.3-0.6,1.3-1.3V46.3z M77.7,59.6v-8h10.7v8H77.7z M93.7,59.6h-2.7
		v-9.3c0-0.7-0.6-1.3-1.3-1.3H76.4c-0.7,0-1.3,0.6-1.3,1.3v9.3h-2.7V47.2l10.7-3.6l10.7,3.6V59.6z"/>
	<path id="XMLID_3169_" class="st0" d="M96.4,77c0-0.6-0.4-1.1-0.9-1.3l-12-4c-0.3-0.1-0.6-0.1-0.8,0l-12,4
		c-0.5,0.2-0.9,0.7-0.9,1.3v14.7c0,0.7,0.6,1.3,1.3,1.3h24c0.7,0,1.3-0.6,1.3-1.3V77z M77.7,90.3v-8h10.7v8H77.7z M93.7,90.3h-2.7
		V81c0-0.7-0.6-1.3-1.3-1.3H76.4c-0.7,0-1.3,0.6-1.3,1.3v9.3h-2.7V77.9l10.7-3.6l10.7,3.6V90.3z"/>
	<path id="XMLID_3163_" class="st0" d="M96.4,18.3c0-0.6-0.4-1.1-0.9-1.3l-12-4c-0.3-0.1-0.6-0.1-0.8,0l-12,4
		c-0.5,0.2-0.9,0.7-0.9,1.3v14.7c0,0.7,0.6,1.3,1.3,1.3h24c0.7,0,1.3-0.6,1.3-1.3V18.3z M77.7,31.6v-8h10.7v8H77.7z M93.7,31.6h-2.7
		v-9.3c0-0.7-0.6-1.3-1.3-1.3H76.4c-0.7,0-1.3,0.6-1.3,1.3v9.3h-2.7V19.2l10.7-3.6l10.7,3.6V31.6z"/>
	<path id="XMLID_3048_" class="st0" d="M67.1,26.3v-2.7h-9.3c-0.7,0-1.3,0.6-1.3,1.3v60c0,0.7,0.6,1.3,1.3,1.3h9.3v-2.7h-8V54.3h8
		v-2.7h-8V26.3H67.1z"/>
	<path id="XMLID_3113_" class="st0" d="M17.7,54.3h4v4c0,0.7,0.6,1.3,1.3,1.3h1.6c0.4,1.3,1.5,2.2,2.8,2.5c1.3,0.3,2.7,0,3.7-0.9
		c1,0.9,2.4,1.2,3.7,0.9c1.3-0.3,2.3-1.3,2.8-2.5h5.8c0.6,1.6,2.1,2.7,3.8,2.7c1.7,0,3.2-1.1,3.8-2.7h1.6c0.7,0,1.3-0.6,1.3-1.3
		v-6.7c0-0.4-0.1-0.7-0.4-0.9L51,48.4V34.3c0-0.5-0.2-0.9-0.6-1.1c-0.4-0.2-0.9-0.3-1.3-0.1l-3.4,1.7v-8.5c0-0.7-0.6-1.3-1.3-1.3H39
		c-0.7,0-1.3,0.6-1.3,1.3v7.2L35,34.8v-8.5c0-0.7-0.6-1.3-1.3-1.3h-5.3c-0.7,0-1.3,0.6-1.3,1.3v7.2l-2.7,1.3v-8.5
		c0-0.7-0.6-1.3-1.3-1.3h-5.3c-0.7,0-1.3,0.6-1.3,1.3v26.7C16.3,53.7,16.9,54.3,17.7,54.3z M24.4,56.9V46.3h16v10.7h-2.9
		c-0.4-1.3-1.5-2.2-2.8-2.5c-1.3-0.3-2.7,0-3.7,0.9c-1-0.9-2.4-1.2-3.7-0.9c-1.3,0.3-2.3,1.3-2.8,2.5H24.4z M28.4,59.6
		c-0.7,0-1.3-0.6-1.3-1.3c0-0.7,0.6-1.3,1.3-1.3c0.7,0,1.3,0.6,1.3,1.3C29.7,59,29.1,59.6,28.4,59.6z M33.7,59.6
		c-0.7,0-1.3-0.6-1.3-1.3c0-0.7,0.6-1.3,1.3-1.3s1.3,0.6,1.3,1.3C35,59,34.4,59.6,33.7,59.6z M47,59.6c-0.7,0-1.3-0.6-1.3-1.3
		c0-0.7,0.6-1.3,1.3-1.3s1.3,0.6,1.3,1.3C48.4,59,47.8,59.6,47,59.6z M51,56.9h-0.2c-0.6-1.6-2.1-2.7-3.8-2.7
		c-1.7,0-3.2,1.1-3.8,2.7H43v-8h4.8l3.2,3.2V56.9z M40.4,27.6H43v8.5l-2.7,1.3V27.6z M29.7,27.6h2.7v8.5l-2.7,1.3V27.6z M27,38.3
		v1.3c0,0.5,0.2,0.9,0.6,1.1C28,41,28.5,41,29,40.8l8.7-4.4v3.2c0,0.5,0.2,0.9,0.6,1.1c0.4,0.2,0.9,0.3,1.3,0.1l8.7-4.4v9.8H43v-1.3
		c0-0.7-0.6-1.3-1.3-1.3H23c-0.7,0-1.3,0.6-1.3,1.3v6.7H19V40.4l8-4V38.3z M21.7,27.6v8.5L19,37.4v-9.9H21.7z"/>
</g>
</svg>
