<?xml version="1.0" encoding="utf-8"?>
<!-- Generator: Adobe Illustrator 23.0.6, SVG Export Plug-In . SVG Version: 6.00 Build 0)  -->
<svg version="1.1" id="Layer_1" xmlns="http://www.w3.org/2000/svg" xmlns:xlink="http://www.w3.org/1999/xlink" x="0px" y="0px"
	 viewBox="0 0 200 200" style="enable-background:new 0 0 200 200;" xml:space="preserve">
<style type="text/css">
	.st0{fill:#FFFFFF;}
</style>
<g id="XMLID_569_">
	<g id="XMLID_4003_">
		<path id="XMLID_4004_" class="st0" d="M186.1,184.5h-64c-1.6,0-2.9-1.3-2.9-2.9v-69.8c0-1.6,1.3-2.9,2.9-2.9h64
			c1.6,0,2.9,1.3,2.9,2.9v69.8C189,183.2,187.7,184.5,186.1,184.5z M125,178.7h58.2v-64H125V178.7z"/>
	</g>
	<g id="XMLID_3999_">
		<path id="XMLID_4000_" class="st0" d="M171.5,137.9h-34.9c-1.6,0-2.9-1.3-2.9-2.9v-11.6c0-1.6,1.3-2.9,2.9-2.9h34.9
			c1.6,0,2.9,1.3,2.9,2.9V135C174.5,136.6,173.2,137.9,171.5,137.9z M139.5,132.1h29.1v-5.8h-29.1V132.1z"/>
	</g>
	<g id="XMLID_3997_">
		<rect id="XMLID_1153_" x="133.7" y="143.7" class="st0" width="5.8" height="5.8"/>
	</g>
	<g id="XMLID_3995_">
		<rect id="XMLID_1152_" x="145.4" y="143.7" class="st0" width="5.8" height="5.8"/>
	</g>
	<g id="XMLID_3993_">
		<rect id="XMLID_1146_" x="157" y="143.7" class="st0" width="5.8" height="5.8"/>
	</g>
	<g id="XMLID_3990_">
		<rect id="XMLID_1140_" x="168.6" y="143.7" class="st0" width="5.8" height="5.8"/>
	</g>
	<g id="XMLID_3986_">
		<rect id="XMLID_1139_" x="133.7" y="155.4" class="st0" width="5.8" height="5.8"/>
	</g>
	<g id="XMLID_3984_">
		<rect id="XMLID_866_" x="145.4" y="155.4" class="st0" width="5.8" height="5.8"/>
	</g>
	<g id="XMLID_3981_">
		<rect id="XMLID_862_" x="157" y="155.4" class="st0" width="5.8" height="5.8"/>
	</g>
	<g id="XMLID_3979_">
		<rect id="XMLID_861_" x="168.6" y="155.4" class="st0" width="5.8" height="5.8"/>
	</g>
	<g id="XMLID_3977_">
		<rect id="XMLID_859_" x="133.7" y="167" class="st0" width="5.8" height="5.8"/>
	</g>
	<g id="XMLID_3353_">
		<rect id="XMLID_857_" x="145.4" y="167" class="st0" width="5.8" height="5.8"/>
	</g>
	<g id="XMLID_3351_">
		<rect id="XMLID_841_" x="157" y="167" class="st0" width="5.8" height="5.8"/>
	</g>
	<g id="XMLID_3347_">
		<rect id="XMLID_830_" x="168.6" y="167" class="st0" width="5.8" height="5.8"/>
	</g>
	<g id="XMLID_2478_">
		<path id="XMLID_3310_" class="st0" d="M122.1,184.5H17.4c-1.6,0-2.9-1.3-2.9-2.9V27.4c0-1.6,1.3-2.9,2.9-2.9H125
			c1.6,0,2.9,1.3,2.9,2.9v84.4c0,1.6-1.3,2.9-2.9,2.9v66.9C125,183.2,123.7,184.5,122.1,184.5z M20.3,178.7h98.9v-66.9
			c0-1.6,1.3-2.9,2.9-2.9V30.3H20.3V178.7z"/>
	</g>
	<g id="XMLID_2386_">
		<path id="XMLID_2439_" class="st0" d="M40.6,172.8H29c-1.6,0-2.9-1.3-2.9-2.9v-32c0-1.6,1.3-2.9,2.9-2.9h11.6
			c1.6,0,2.9,1.3,2.9,2.9v32C43.5,171.5,42.2,172.8,40.6,172.8z M31.9,167h5.8v-26.2h-5.8V167z"/>
	</g>
	<g id="XMLID_1974_">
		<path id="XMLID_1975_" class="st0" d="M52.3,172.8H40.6c-1.6,0-2.9-1.3-2.9-2.9v-49.5c0-1.6,1.3-2.9,2.9-2.9h11.6
			c1.6,0,2.9,1.3,2.9,2.9v49.5C55.2,171.5,53.9,172.8,52.3,172.8z M43.5,167h5.8v-43.6h-5.8V167z"/>
	</g>
	<g id="XMLID_1939_">
		<path id="XMLID_1942_" class="st0" d="M63.9,172.8H52.3c-1.6,0-2.9-1.3-2.9-2.9v-26.2c0-1.6,1.3-2.9,2.9-2.9h11.6
			c1.6,0,2.9,1.3,2.9,2.9v26.2C66.8,171.5,65.5,172.8,63.9,172.8z M55.2,167H61v-20.4h-5.8V167z"/>
	</g>
	<g id="XMLID_1925_">
		<path id="XMLID_1928_" class="st0" d="M75.5,172.8H63.9c-1.6,0-2.9-1.3-2.9-2.9v-11.6c0-1.6,1.3-2.9,2.9-2.9h11.6
			c1.6,0,2.9,1.3,2.9,2.9v11.6C78.4,171.5,77.1,172.8,75.5,172.8z M66.8,167h5.8v-5.8h-5.8V167z"/>
	</g>
	<g id="XMLID_1836_">
		<path id="XMLID_1837_" class="st0" d="M46.4,111.7c-11.2,0-20.4-9.1-20.4-20.4S35.2,71,46.4,71c11.2,0,20.4,9.1,20.4,20.4
			S57.7,111.7,46.4,111.7z M46.4,76.8c-8,0-14.5,6.5-14.5,14.5s6.5,14.5,14.5,14.5c8,0,14.5-6.5,14.5-14.5S54.5,76.8,46.4,76.8z"/>
	</g>
	<g id="XMLID_1514_">
		<path id="XMLID_1679_" class="st0" d="M34.1,106.6c-0.7,0-1.5-0.3-2.1-0.9c-3.8-3.8-6-9-6-14.4c0-11.2,9.1-20.4,20.4-20.4
			c1.6,0,2.9,1.3,2.9,2.9v11.6c0,1.6-1.3,2.9-2.9,2.9c-1.6,0-2.9,1.3-2.9,2.9c0,0.8,0.3,1.5,0.9,2.1c0.5,0.5,0.9,1.3,0.9,2.1
			c0,0.8-0.3,1.5-0.9,2.1l-8.2,8.2C35.6,106.3,34.8,106.6,34.1,106.6z M43.5,77.1c-6.6,1.4-11.6,7.2-11.6,14.3c0,2.9,0.8,5.7,2.4,8
			l4.3-4.3c-0.6-1.2-0.8-2.4-0.8-3.8c0-3.8,2.4-7,5.8-8.2V77.1z"/>
	</g>
	<g id="XMLID_1410_">
		<path id="XMLID_1415_" class="st0" d="M58.8,106.6c-0.7,0-1.5-0.3-2.1-0.9l-8.2-8.2c-1.1-1.1-1.1-3,0-4.1c0.5-0.5,0.9-1.3,0.9-2.1
			c0-1.6-1.3-2.9-2.9-2.9c-1.6,0-2.9-1.3-2.9-2.9V73.9c0-1.6,1.3-2.9,2.9-2.9c11.2,0,20.4,9.1,20.4,20.4c0,5.4-2.1,10.6-6,14.4
			C60.3,106.3,59.5,106.6,58.8,106.6z M54.3,95.1l4.3,4.3c1.6-2.4,2.4-5.1,2.4-8c0-7-5-12.9-11.6-14.3v6c3.4,1.2,5.8,4.4,5.8,8.2
			C55.2,92.7,54.9,94,54.3,95.1z"/>
	</g>
	<g id="XMLID_1320_">
		<path id="XMLID_1389_" class="st0" d="M46.4,100.1c-4.8,0-8.7-3.9-8.7-8.7s3.9-8.7,8.7-8.7c4.8,0,8.7,3.9,8.7,8.7
			S51.3,100.1,46.4,100.1z M46.4,88.5c-1.6,0-2.9,1.3-2.9,2.9s1.3,2.9,2.9,2.9c1.6,0,2.9-1.3,2.9-2.9S48.1,88.5,46.4,88.5z"/>
	</g>
	<g id="XMLID_1316_">
		<rect id="XMLID_707_" x="26.1" y="36.1" class="st0" width="49.5" height="5.8"/>
	</g>
	<g id="XMLID_1244_">
		<rect id="XMLID_705_" x="26.1" y="47.7" class="st0" width="87.3" height="5.8"/>
	</g>
	<g id="XMLID_927_">
		<path id="XMLID_931_" class="st0" d="M101.7,172.8c-0.9,0-1.8-0.4-2.3-1.2L90.7,160c-0.4-0.5-0.6-1.1-0.6-1.7V76.8
			c0-1.6,1.3-2.9,2.9-2.9h17.5c1.6,0,2.9,1.3,2.9,2.9v81.5c0,0.6-0.2,1.2-0.6,1.7l-8.7,11.6C103.5,172.4,102.6,172.8,101.7,172.8z
			 M95.9,157.3l5.8,7.8l5.8-7.8V79.7H95.9V157.3z"/>
	</g>
	<g id="XMLID_901_">
		<rect id="XMLID_405_" x="93" y="88.5" class="st0" width="17.5" height="5.8"/>
	</g>
	<g id="XMLID_887_">
		<rect id="XMLID_394_" x="93" y="152.5" class="st0" width="17.5" height="5.8"/>
	</g>
	<g id="XMLID_700_">
		<path id="XMLID_701_" class="st0" d="M145.4,114.7H125c-1.6,0-2.9-1.3-2.9-2.9V30.3H37.7c-1.6,0-2.9-1.3-2.9-2.9V12.8
			c0-1.6,1.3-2.9,2.9-2.9h107.6c1.6,0,2.9,1.3,2.9,2.9v98.9C148.3,113.3,147,114.7,145.4,114.7z M127.9,108.8h14.5V15.7H40.6v8.7
			H125c1.6,0,2.9,1.3,2.9,2.9V108.8z"/>
	</g>
</g>
</svg>
