<?xml version="1.0" encoding="utf-8"?>
<!-- Generator: Adobe Illustrator 23.0.6, SVG Export Plug-In . SVG Version: 6.00 Build 0)  -->
<svg version="1.1" id="Layer_1" xmlns="http://www.w3.org/2000/svg" xmlns:xlink="http://www.w3.org/1999/xlink" x="0px" y="0px"
	 viewBox="0 0 116 100" style="enable-background:new 0 0 116 100;" xml:space="preserve">
<style type="text/css">
	.st0{fill:#FFFFFF;}
</style>
<g id="XMLID_3202_">
	<path id="XMLID_3204_" class="st0" d="M56.8,45.6c0-0.8-0.6-1.4-1.4-1.4h-0.4c-7,0-13.6-2.1-19.3-6.2l-1.1-0.8
		c-0.5-0.4-1.2-0.4-1.7,0L31.8,38c-1.2,0.9-2.4,1.6-3.7,2.3c0-0.1,0-0.2,0-0.2l-2.9-0.4c-0.1,0.7-0.1,1.4-0.2,2
		c-4,1.6-8.2,2.5-12.6,2.5h-0.4c-0.8,0-1.4,0.6-1.4,1.4l0,21.5c0,6.9,3.3,13.4,8.8,17.5l13.4,9.8c0.3,0.2,0.6,0.3,0.9,0.3
		s0.6-0.1,0.9-0.3L48,84.6c5.5-4.1,8.8-10.6,8.8-17.5L56.8,45.6z M33.7,91.5l-5.8-4.2l0-9.9h-2.9l0,7.7L22.2,83l0-4.2
		c0-3.5,2.5-6.4,5.8-7.1c0.1,3.1,2.6,5.6,5.8,5.6c3.1,0,5.7-2.5,5.8-5.6c3.3,0.7,5.8,3.6,5.8,7.1l0,4.2l-2.9,2.1l0-7.7h-2.9l0,9.9
		L33.7,91.5z M25.1,62.9h-1.4c-0.8,0-1.4-0.6-1.4-1.4c0-0.8,0.6-1.4,1.4-1.4l1.4,0L25.1,62.9z M42.4,60h1.4c0.8,0,1.4,0.6,1.4,1.4
		c0,0.8-0.6,1.4-1.4,1.4l-1.4,0L42.4,60z M42.4,56.9c-1.7-0.6-2.9-2.2-2.9-4.1c0-0.8-0.6-1.4-1.4-1.4s-1.4,0.6-1.4,1.4
		c0,2-4.4,4.3-7.2,4.3l-4.3,0l0-4.3c0-2.4,1.9-4.3,4.3-4.3l8.7,0c2.4,0,4.3,1.9,4.3,4.3L42.4,56.9z M27.9,60h1.4
		c2.3,0,6.1-1.3,8.3-3.4c0.5,0.8,1.1,1.4,1.8,2l0,4.3c0,3.2-2.6,5.8-5.8,5.8s-5.8-2.6-5.8-5.8L27.9,60z M36.6,71.6
		c0,1.6-1.3,2.9-2.9,2.9s-2.9-1.3-2.9-2.9L36.6,71.6z M53.9,67.1c0,5.1-2.1,10-5.8,13.5l0-1.8c0-4.9-3.5-9-8.2-9.9
		c0.8-0.9,1.5-1.9,1.9-3.1h1.9c2.4,0,4.3-1.9,4.3-4.3c0-1.9-1.2-3.5-2.9-4.1l0-4.6c0-4-3.2-7.2-7.2-7.2l-8.7,0c-4,0-7.2,3.2-7.2,7.2
		l0,4.6c-1.7,0.6-2.9,2.2-2.9,4.1c0,2.4,1.9,4.3,4.3,4.3l1.9,0c0.4,1.2,1.1,2.2,1.9,3.1c-4.6,0.9-8.2,5-8.2,9.9l0,1.8
		c-3.6-3.5-5.8-8.4-5.8-13.5l0-20.1c7.2-0.2,14.1-2.5,20-6.7l0.2-0.2l0.2,0.2c5.9,4.2,12.8,6.5,20,6.7L53.9,67.1z"/>
	<path id="XMLID_3203_" class="st0" d="M100.1,23.9c0-2.4-1.9-4.3-4.3-4.3l-6,0L87.1,6.3c-0.1-0.7-0.7-1.2-1.4-1.2l-5.8,0
		c-0.4,0-0.8,0.2-1.1,0.5c-0.3,0.3-0.4,0.8-0.3,1.2L81,19.6l-8,0l2.5-12.7c0.1-0.4,0-0.9-0.3-1.2c-0.3-0.3-0.7-0.5-1.1-0.5l-5.8,0
		c-0.7,0-1.3,0.5-1.4,1.2l-2.7,13.3l-6,0c-2.4,0-4.3,1.9-4.3,4.3c0,1.9,1.3,3.6,3,4.1l2.1,17c0.5,3.6,3.5,6.3,7.2,6.3l16.6,0l0,1.4
		l2.9,0l0-1.4h2.1c3.6,0,6.7-2.7,7.2-6.3l2.1-17C98.9,27.5,100.1,25.9,100.1,23.9z M81.7,8.1l2.8,0l2.3,11.6l-2.8,0L81.7,8.1z
		 M69.6,8.1l2.8,0l-2.3,11.6l-2.8,0L69.6,8.1z M92.1,44.7c-0.3,2.2-2.1,3.8-4.3,3.8l-21.6,0c-2.2,0-4-1.6-4.3-3.8l-2.1-16.4l34.3,0
		L92.1,44.7z M95.8,25.4l-37.5,0c-0.8,0-1.4-0.6-1.4-1.4c0-0.8,0.6-1.4,1.4-1.4l37.5,0c0.8,0,1.4,0.6,1.4,1.4
		C97.2,24.7,96.6,25.4,95.8,25.4z"/>
	<path id="XMLID_3188_" class="st0" d="M66.9,31.2l2.9,0l0,14.4h-2.9L66.9,31.2z"/>
	<path id="XMLID_3187_" class="st0" d="M72.7,31.2h2.9l0,14.4h-2.9L72.7,31.2z"/>
	<path id="XMLID_3186_" class="st0" d="M78.5,31.2l2.9,0l0,14.4l-2.9,0L78.5,31.2z"/>
	<path id="XMLID_3185_" class="st0" d="M84.3,31.2l2.9,0l0,14.4l-2.9,0L84.3,31.2z"/>
	<path id="XMLID_3184_" class="st0" d="M82.8,57.2c0,0.5,0,0.9,0,1.3l2.9,0.2c0-0.5,0.1-1,0.1-1.5l0-1.4l-2.9,0L82.8,57.2z"/>
	<path id="XMLID_3183_" class="st0" d="M71.2,75.5l1.2,2.6c0.9-0.4,1.8-0.9,2.7-1.5l-1.6-2.4C72.8,74.6,72,75.1,71.2,75.5z"/>
	<path id="XMLID_3182_" class="st0" d="M81.7,63.8l2.7,0.9c0.3-1,0.6-2,0.8-3l-2.8-0.6C82.2,62,82,62.9,81.7,63.8z"/>
	<path id="XMLID_3181_" class="st0" d="M79.3,68.6l2.4,1.6c0.6-0.8,1.1-1.7,1.6-2.6l-2.6-1.3C80.2,67,79.8,67.8,79.3,68.6z"/>
	<path id="XMLID_3180_" class="st0" d="M75.7,72.6l1.9,2.2c0.8-0.7,1.5-1.4,2.2-2.1l-2.1-1.9C77,71.3,76.4,72,75.7,72.6z"/>
	<path id="XMLID_3179_" class="st0" d="M66,77.1l0.5,2.8c1-0.2,2-0.4,3-0.7l-0.9-2.8C67.8,76.7,66.9,76.9,66,77.1z"/>
	<path id="XMLID_3177_" class="st0" d="M55.4,77.4h2.3l0,2.9h-2.3L55.4,77.4z"/>
	<path id="XMLID_3174_" class="st0" d="M62.6,77.4h-2.1l0,2.9h2.1c0.3,0,0.6,0,0.9,0l-0.1-2.9C63.1,77.4,62.9,77.4,62.6,77.4z"/>
	<path id="XMLID_3172_" class="st0" d="M48.8,19.6l2.3,0l0,2.9h-2.3L48.8,19.6z"/>
	<path id="XMLID_3171_" class="st0" d="M40.8,23.9l-1-2.7c-1,0.4-1.9,0.8-2.8,1.3l1.4,2.5C39.2,24.6,40,24.2,40.8,23.9z"/>
	<path id="XMLID_3166_" class="st0" d="M46,22.6l-0.3-2.9c-1,0.1-2,0.3-3,0.5l0.7,2.8C44.3,22.9,45.2,22.7,46,22.6z"/>
	<path id="XMLID_3165_" class="st0" d="M29.5,34.8l-2.7-1.1c-0.4,0.9-0.7,1.9-1,2.9l2.8,0.8C28.9,36.5,29.2,35.7,29.5,34.8z"/>
	<path id="XMLID_3164_" class="st0" d="M36.1,26.5l-1.7-2.3c-0.8,0.6-1.6,1.3-2.3,2l2,2.1C34.7,27.6,35.4,27,36.1,26.5z"/>
	<path id="XMLID_3122_" class="st0" d="M32.3,30.2L30,28.4c-0.6,0.8-1.2,1.7-1.7,2.5l2.5,1.5C31.2,31.7,31.7,30.9,32.3,30.2z"/>
</g>
</svg>
