<?xml version="1.0" encoding="utf-8"?>
<!-- Generator: Adobe Illustrator 23.0.6, SVG Export Plug-In . SVG Version: 6.00 Build 0)  -->
<svg version="1.1" id="Layer_1" xmlns="http://www.w3.org/2000/svg" xmlns:xlink="http://www.w3.org/1999/xlink" x="0px" y="0px"
	 viewBox="0 0 200 200" style="enable-background:new 0 0 200 200;" xml:space="preserve">
<style type="text/css">
	.st0{fill:#FFFFFF;}
	.st1{font-family:'Gilroy-Regular';}
	.st2{font-size:15.5226px;}
	.st3{fill:none;stroke:#FFFFFF;stroke-miterlimit:10;}
</style>
<text id="XMLID_2984_" transform="matrix(1 0 0 1 56.2637 103.8887)"><tspan x="0" y="0" class="st0 st1 st2">Cuentas por pagar</tspan><tspan x="14.4" y="13.4" class="st0 st1 st2"> a proveedores</tspan></text>
<g id="XMLID_2929_">
	<g id="XMLID_2931_">
		<polygon id="Arrow_74_" class="st0" points="2,92.6 13.7,99.6 10.8,92.5 13.5,85.2 		"/>
		<polygon id="Arrow_73_" class="st0" points="39.9,92.7 28.3,85.7 31.1,92.8 28.5,100.1 		"/>
	</g>
	<line id="XMLID_2930_" class="st3" x1="11" y1="92.2" x2="31.8" y2="92.9"/>
</g>
<g id="XMLID_4923_">
	<g id="XMLID_5053_">
		<g id="XMLID_5054_">
			<path id="XMLID_4920_" class="st0" d="M144.8,46.6C144.8,46.6,144.8,46.6,144.8,46.6l-50,0c-0.5,0-0.9,0.4-0.9,0.9v0l0,24
				c0,0.5,0.4,0.9,0.9,0.9c0,0,0,0,0,0l34,0c0.5,0,0.9-0.4,0.9-0.9s-0.4-0.9-0.9-0.9l-33.1,0l0-22.3l48.3,0l0,2.1
				c0,0.5,0.4,0.9,0.9,0.9h0c0.5,0,0.9-0.4,0.9-0.9v0l0-3C145.7,47,145.3,46.6,144.8,46.6z"/>
		</g>
	</g>
	<g id="XMLID_5049_">
		<g id="XMLID_5050_">
			<path id="XMLID_4918_" class="st0" d="M139,42.6l-40-9c-0.2,0-0.5,0-0.6,0.1c-0.2,0.1-0.3,0.3-0.4,0.5l-2,9
				c-0.1,0.5,0.2,0.9,0.7,1s0.9-0.2,1-0.7l1.8-8.2l39.1,8.8c0.1,0,0.1,0,0.2,0c0.5,0,0.9-0.4,0.9-0.9
				C139.7,43.1,139.4,42.7,139,42.6z"/>
		</g>
	</g>
	<g id="XMLID_5044_">
		<g id="XMLID_5045_">
			<path id="XMLID_4917_" class="st0" d="M134.1,37.7l-24-10c-0.4-0.2-0.9,0-1.1,0.4l-2,4c-0.2,0.4-0.1,0.9,0.3,1.2
				c0.4,0.2,0.9,0.1,1.2-0.3c0,0,0,0,0-0.1v0l1.6-3.3l23.2,9.7c0.4,0.2,0.9,0,1.1-0.5C134.8,38.3,134.6,37.8,134.1,37.7z"/>
		</g>
	</g>
	<g id="XMLID_5040_">
		<g id="XMLID_5041_">
			<path id="XMLID_4871_" class="st0" d="M134.7,50.6l-7.9,0c-0.5,0-0.9,0.4-0.9,0.9c0,0.5,0.4,0.9,0.9,0.9l7.9,0
				c0.5,0,0.9-0.4,0.9-0.9S135.2,50.6,134.7,50.6z"/>
		</g>
	</g>
	<g id="XMLID_5035_">
		<g id="XMLID_5036_">
			<path id="XMLID_5037_" class="st0" d="M118.8,50.7c-4.9,0-8.8,3.9-8.8,8.8c0,4.9,3.9,8.8,8.8,8.8c4.9,0,8.8-3.9,8.8-8.8
				S123.7,50.7,118.8,50.7z M118.8,66.6c-4,0-7.2-3.2-7.2-7.2c0-4,3.2-7.2,7.2-7.2c4,0,7.2,3.2,7.2,7.2
				C126,63.4,122.8,66.6,118.8,66.6z"/>
		</g>
	</g>
	<g id="XMLID_4952_">
		<g id="XMLID_4960_">
			<path id="XMLID_4964_" class="st0" d="M142.8,53.4c-5.3,0-11,1.3-11,4l0,24c0,2.7,5.7,4,11,4c5.3,0,11-1.3,11-4l0-24
				C153.8,54.7,148.1,53.4,142.8,53.4z M151.8,81.4c-0.2,0.6-3.1,2-9,2c-5.8,0-8.8-1.5-9-2l0-1.6c2.1,1.1,5.6,1.6,9,1.6
				c3.4,0,6.9-0.5,9-1.6L151.8,81.4z M151.8,77.4c-0.2,0.6-3.1,2-9,2c-5.8,0-8.8-1.5-9-2l0-1.6c2.1,1.1,5.6,1.6,9,1.6
				c3.4,0,6.9-0.5,9-1.6L151.8,77.4z M151.8,73.4c-0.2,0.6-3.1,2-9,2s-8.8-1.5-9-2l0-1.6c2.1,1.1,5.6,1.6,9,1.6c3.4,0,6.9-0.5,9-1.6
				L151.8,73.4z M151.8,69.4c-0.2,0.6-3.1,2-9,2c-5.8,0-8.8-1.5-9-2l0-1.6c2.1,1.1,5.6,1.6,9,1.6c3.4,0,6.9-0.5,9-1.6L151.8,69.4z
				 M151.8,65.4c-0.2,0.6-3.1,2-9,2c-5.8,0-8.8-1.5-9-2l0-1.6c2.1,1.1,5.6,1.6,9,1.6c3.4,0,6.9-0.5,9-1.6L151.8,65.4z M151.8,61.4
				c-0.2,0.6-3.1,2-9,2c-5.8,0-8.8-1.5-9-2l0-1.6c2.1,1.1,5.6,1.6,9,1.6c3.4,0,6.9-0.5,9-1.6L151.8,61.4z M142.8,59.4
				c-5.8,0-8.8-1.5-9-2v0c0.2-0.6,3.2-2,9-2c5.8,0,8.8,1.4,9,2C151.6,58,148.6,59.4,142.8,59.4z"/>
		</g>
	</g>
	<g id="XMLID_4940_">
		<g id="XMLID_4943_">
			<path id="XMLID_4695_" class="st0" d="M110.8,66.6l-7.6,0l-3.6-3.9l0-6.5l4-3.9l7.2,0c0.5,0,0.9-0.4,0.9-0.9
				c0-0.5-0.4-0.9-0.9-0.9l-7.5,0c-0.2,0-0.4,0.1-0.6,0.2l-4.5,4.4c-0.2,0.2-0.3,0.4-0.3,0.7l0,7.1c0,0.2,0.1,0.4,0.2,0.6l4.1,4.4
				c0.2,0.2,0.4,0.3,0.6,0.3l7.9,0c0.5,0,0.9-0.4,0.9-0.9C111.7,67,111.3,66.6,110.8,66.6z"/>
		</g>
	</g>
	<g id="XMLID_4926_">
		<g id="XMLID_4929_">
			<path id="XMLID_4694_" class="st0" d="M119.3,58.4l-1,0c-0.3,0-0.5-0.2-0.5-0.2c0-0.1,0.2-0.2,0.5-0.2l2.5,0c0.6,0,1-0.4,1-1
				c0-0.6-0.4-1-1-1l-1,0c0-0.6-0.4-1-1-1c-0.6,0-1,0.4-1,1v0c-1.1,0.2-1.9,1.1-2,2.2c0.1,1.3,1.2,2.3,2.5,2.3l1,0
				c0.3,0,0.5,0.2,0.5,0.2c0,0.1-0.2,0.2-0.5,0.2l-2.5,0c-0.6,0-1,0.4-1,1s0.4,1,1,1l1,0c0,0.6,0.4,1,1,1c0.6,0,1-0.4,1-1v0
				c1.1-0.2,1.9-1.1,2-2.2C121.7,59.4,120.6,58.4,119.3,58.4z"/>
		</g>
	</g>
</g>
</svg>
