<?xml version="1.0" encoding="utf-8"?>
<!-- Generator: Adobe Illustrator 23.0.6, SVG Export Plug-In . SVG Version: 6.00 Build 0)  -->
<svg version="1.1" id="Layer_1" xmlns="http://www.w3.org/2000/svg" xmlns:xlink="http://www.w3.org/1999/xlink" x="0px" y="0px"
	 viewBox="0 0 139 140" style="enable-background:new 0 0 139 140;" xml:space="preserve">
<style type="text/css">
	.st0{opacity:0.72;fill:#2C308B;}
	.st1{fill:#FFFFFF;}
	.st2{font-family:'Gilroy-Regular';}
	.st3{font-size:11.5712px;}
	.st4{fill:#56BE92;}
	.st5{fill:#2C308B;}
	.st6{font-family:'Gilroy-Bold';}
	.st7{font-size:10.9329px;}
</style>
<path id="XMLID_603_" class="st0" d="M79.5,30.6c30.7,0,55.7,21.4,55.7,47.8c0,26.4-24.9,47.8-55.7,47.8
	c-30.7,0-55.7-21.4-55.7-47.8C23.8,52,48.7,30.6,79.5,30.6"/>
<g id="XMLID_591_">
	<text transform="matrix(1 0 0 1 59.9912 52.1954)"><tspan x="0" y="0" class="st1 st2 st3">Envía la</tspan><tspan x="-23.1" y="11.9" class="st1 st2 st3"> documentación</tspan><tspan x="-17.4" y="23.9" class="st1 st2 st3"> o transmite la</tspan><tspan x="-10.9" y="35.8" class="st1 st2 st3">información</tspan><tspan x="-23.6" y="47.8" class="st1 st2 st3">solicitada por el </tspan><tspan x="3.1" y="59.7" class="st1 st2 st3">banco</tspan></text>
</g>
<g id="XMLID_162_">
	<polygon id="Arrow_57_" class="st4" points="3.6,125.7 10.9,111.8 12.4,120.6 19.3,126.2 	"/>
</g>
<text id="XMLID_103_" transform="matrix(1 0 0 1 57.9952 21.6486)" class="st5 st6 st7">Día 8-10</text>
</svg>
