<?xml version="1.0" encoding="utf-8"?>
<!-- Generator: Adobe Illustrator 23.0.6, SVG Export Plug-In . SVG Version: 6.00 Build 0)  -->
<svg version="1.1" id="Layer_1" xmlns="http://www.w3.org/2000/svg" xmlns:xlink="http://www.w3.org/1999/xlink" x="0px" y="0px"
	 viewBox="0 0 116 100" style="enable-background:new 0 0 116 100;" xml:space="preserve">
<style type="text/css">
	.st0{fill:#FFFFFF;}
	.st1{fill:#2B318B;}
	.st2{font-family:'Gilroy-Regular';}
	.st3{font-size:12.0158px;}
</style>
<path id="XMLID_2857_" class="st0" d="M59.4,4.1c29.5,0,53.4,20.5,53.4,45.8c0,25.3-23.9,45.9-53.4,45.9C29.9,95.7,6,75.2,5.9,49.9
	C5.9,24.6,29.9,4.1,59.4,4.1"/>
<text id="XMLID_2847_" transform="matrix(1 0 0 1 27.4841 66.9329)" class="st1 st2 st3">Distribución</text>
<g id="XMLID_1742_">
	<g id="XMLID_2726_">
		<g id="XMLID_2727_">
			<path id="XMLID_1740_" class="st1" d="M66.4,11.7H55.5c-0.4,0-0.8,0.3-0.8,0.8s0.3,0.8,0.8,0.8h10.9c0.4,0,0.8-0.3,0.8-0.8
				S66.8,11.7,66.4,11.7z"/>
		</g>
	</g>
	<g id="XMLID_2723_">
		<g id="XMLID_2724_">
			<path id="XMLID_1733_" class="st1" d="M62.5,11.7c-0.4,0-0.8,0.3-0.8,0.8v3.9c0,0.4,0.3,0.8,0.8,0.8s0.8-0.3,0.8-0.8v-3.9
				C63.3,12.1,62.9,11.7,62.5,11.7z"/>
		</g>
	</g>
	<g id="XMLID_2720_">
		<g id="XMLID_2721_">
			<path id="XMLID_1728_" class="st1" d="M62.5,15.6h-3.1c-0.4,0-0.8,0.3-0.8,0.8c0,0.4,0.3,0.8,0.8,0.8h3.1c0.4,0,0.8-0.3,0.8-0.8
				C63.3,16,62.9,15.6,62.5,15.6z"/>
		</g>
	</g>
	<g id="XMLID_2717_">
		<g id="XMLID_2718_">
			<path id="XMLID_1723_" class="st1" d="M59.4,11.7c-0.4,0-0.8,0.3-0.8,0.8v3.9c0,0.4,0.3,0.8,0.8,0.8c0.4,0,0.8-0.3,0.8-0.8v-3.9
				C60.2,12.1,59.8,11.7,59.4,11.7z"/>
		</g>
	</g>
	<g id="XMLID_2714_">
		<g id="XMLID_2715_">
			<path id="XMLID_1720_" class="st1" d="M55.5,27.3h-9.4c-0.4,0-0.8,0.3-0.8,0.8s0.3,0.8,0.8,0.8h9.4c0.4,0,0.8-0.3,0.8-0.8
				S55.9,27.3,55.5,27.3z"/>
		</g>
	</g>
	<g id="XMLID_2711_">
		<g id="XMLID_2712_">
			<path id="XMLID_1719_" class="st1" d="M66.4,25.8c-0.4,0-0.8,0.3-0.8,0.8v13.3c0,0.4,0.3,0.8,0.8,0.8s0.8-0.3,0.8-0.8V26.6
				C67.2,26.1,66.8,25.8,66.4,25.8z"/>
		</g>
	</g>
	<g id="XMLID_2707_">
		<g id="XMLID_2708_">
			<path id="XMLID_1704_" class="st1" d="M83.6,45.3h-2.3c-0.4,0-0.8,0.3-0.8,0.8c0,0.4,0.3,0.8,0.8,0.8h2.3c0.4,0,0.8-0.3,0.8-0.8
				C84.3,45.6,84,45.3,83.6,45.3z"/>
		</g>
	</g>
	<g id="XMLID_2703_">
		<g id="XMLID_2704_">
			<path id="XMLID_1693_" class="st1" d="M83.6,45.3c-0.4,0-0.8,0.3-0.8,0.8v3.1c0,0.4,0.3,0.8,0.8,0.8c0.4,0,0.8-0.3,0.8-0.8v-3.1
				C84.3,45.6,84,45.3,83.6,45.3z"/>
		</g>
	</g>
	<g id="XMLID_2700_">
		<g id="XMLID_2701_">
			<path id="XMLID_1686_" class="st1" d="M42.2,48.4C42.2,48.4,42.2,48.4,42.2,48.4l-5.5,0c-0.4,0-0.8,0.4-0.8,0.8
				c0,0.4,0.4,0.8,0.8,0.8c0,0,0,0,0,0l5.5,0c0.4,0,0.8-0.4,0.8-0.8C43,48.8,42.6,48.4,42.2,48.4z"/>
		</g>
	</g>
	<g id="XMLID_2697_">
		<g id="XMLID_2698_">
			<path id="XMLID_1685_" class="st1" d="M82.8,41.4H82c-0.4,0-0.8,0.3-0.8,0.8S81.6,43,82,43h0.8c0.4,0,0.8-0.3,0.8-0.8
				S83.2,41.4,82.8,41.4z"/>
		</g>
	</g>
	<g id="XMLID_2694_">
		<g id="XMLID_2695_">
			<path id="XMLID_1682_" class="st1" d="M82.8,35.9c-0.4,0-0.8,0.3-0.8,0.8v9.4c0,0.4,0.3,0.8,0.8,0.8c0.4,0,0.8-0.3,0.8-0.8v-9.4
				C83.6,36.3,83.2,35.9,82.8,35.9z"/>
		</g>
	</g>
	<g id="XMLID_2691_">
		<g id="XMLID_2692_">
			<path id="XMLID_1681_" class="st1" d="M78.1,25.8H66.4c-0.4,0-0.8,0.3-0.8,0.8s0.3,0.8,0.8,0.8h11.7c0.4,0,0.8-0.3,0.8-0.8
				S78.5,25.8,78.1,25.8z"/>
		</g>
	</g>
	<g id="XMLID_2688_">
		<g id="XMLID_2689_">
			<path id="XMLID_1680_" class="st1" d="M83.5,36.4l-4.7-10.1c-0.2-0.4-0.6-0.6-1-0.4c-0.4,0.2-0.6,0.6-0.4,1L82.1,37
				c0.1,0.3,0.4,0.5,0.7,0.5c0.1,0,0.2,0,0.3-0.1C83.5,37.2,83.7,36.8,83.5,36.4z"/>
		</g>
	</g>
	<g id="XMLID_2685_">
		<g id="XMLID_2686_">
			<path id="XMLID_1678_" class="st1" d="M36.8,45.3c-0.4,0-0.8,0.3-0.8,0.8v3.2c0,0.4,0.3,0.8,0.8,0.8c0.4,0,0.8-0.3,0.8-0.8v-3.2
				C37.5,45.6,37.2,45.3,36.8,45.3z"/>
		</g>
	</g>
	<g id="XMLID_2682_">
		<g id="XMLID_2683_">
			<path id="XMLID_1677_" class="st1" d="M35.2,35.2c-0.4,0-0.8,0.3-0.8,0.8v10.1c0,0.4,0.3,0.8,0.8,0.8c0.4,0,0.8-0.3,0.8-0.8V35.9
				C36,35.5,35.6,35.2,35.2,35.2z"/>
		</g>
	</g>
	<g id="XMLID_2665_">
		<g id="XMLID_2680_">
			<path id="XMLID_1674_" class="st1" d="M66.4,35.2H35.2c-0.4,0-0.8,0.3-0.8,0.8s0.3,0.8,0.8,0.8h31.2c0.4,0,0.8-0.3,0.8-0.8
				S66.8,35.2,66.4,35.2z"/>
		</g>
	</g>
	<g id="XMLID_2662_">
		<g id="XMLID_2663_">
			<path id="XMLID_1648_" class="st1" d="M39.1,45.3h-3.9c-0.4,0-0.8,0.3-0.8,0.8c0,0.4,0.3,0.8,0.8,0.8h3.9c0.4,0,0.8-0.3,0.8-0.8
				C39.9,45.6,39.5,45.3,39.1,45.3z"/>
		</g>
	</g>
	<g id="XMLID_2657_">
		<g id="XMLID_2658_">
			<path id="XMLID_2659_" class="st1" d="M46.9,43.7c-3,0-5.5,2.5-5.5,5.5s2.5,5.5,5.5,5.5c3,0,5.5-2.5,5.5-5.5S49.9,43.7,46.9,43.7
				z M46.9,53.1c-2.2,0-3.9-1.7-3.9-3.9s1.7-3.9,3.9-3.9c2.2,0,3.9,1.7,3.9,3.9S49,53.1,46.9,53.1z"/>
		</g>
	</g>
	<g id="XMLID_2650_">
		<g id="XMLID_2653_">
			<path id="XMLID_2654_" class="st1" d="M46.9,46.9c-1.3,0-2.3,1.1-2.3,2.3s1.1,2.3,2.3,2.3c1.3,0,2.3-1.1,2.3-2.3
				S48.2,46.9,46.9,46.9z M46.9,50c-0.4,0-0.8-0.3-0.8-0.8s0.3-0.8,0.8-0.8c0.4,0,0.8,0.3,0.8,0.8S47.3,50,46.9,50z"/>
		</g>
	</g>
	<g id="XMLID_2642_">
		<g id="XMLID_2643_">
			<path id="XMLID_2644_" class="st1" d="M72.6,46.9c-1.3,0-2.3,1.1-2.3,2.3s1.1,2.3,2.3,2.3c1.3,0,2.3-1.1,2.3-2.3
				S73.9,46.9,72.6,46.9z M72.6,50c-0.4,0-0.8-0.3-0.8-0.8s0.3-0.8,0.8-0.8s0.8,0.3,0.8,0.8S73.1,50,72.6,50z"/>
		</g>
	</g>
	<g id="XMLID_2637_">
		<g id="XMLID_2638_">
			<path id="XMLID_2639_" class="st1" d="M72.6,43.7c-3,0-5.5,2.5-5.5,5.5s2.5,5.5,5.5,5.5s5.5-2.5,5.5-5.5S75.7,43.7,72.6,43.7z
				 M72.6,53.1c-2.2,0-3.9-1.7-3.9-3.9s1.7-3.9,3.9-3.9c2.2,0,3.9,1.7,3.9,3.9S74.8,53.1,72.6,53.1z"/>
		</g>
	</g>
	<g id="XMLID_2634_">
		<g id="XMLID_2635_">
			<path id="XMLID_1537_" class="st1" d="M68,48.4H51.6c-0.4,0-0.8,0.3-0.8,0.8s0.3,0.8,0.8,0.8H68c0.4,0,0.8-0.3,0.8-0.8
				S68.4,48.4,68,48.4z"/>
		</g>
	</g>
	<g id="XMLID_2615_">
		<g id="XMLID_2628_">
			<path id="XMLID_1451_" class="st1" d="M83.6,48.4h-6.2c-0.4,0-0.8,0.3-0.8,0.8s0.3,0.8,0.8,0.8h6.2c0.4,0,0.8-0.3,0.8-0.8
				S84,48.4,83.6,48.4z"/>
		</g>
	</g>
	<g id="XMLID_2609_">
		<g id="XMLID_2610_">
			<path id="XMLID_1422_" class="st1" d="M82.8,35.9h-9.4c-0.4,0-0.8,0.3-0.8,0.8s0.3,0.8,0.8,0.8h9.4c0.4,0,0.8-0.3,0.8-0.8
				S83.2,35.9,82.8,35.9z"/>
		</g>
	</g>
	<g id="XMLID_2600_">
		<g id="XMLID_2602_">
			<path id="XMLID_1417_" class="st1" d="M73.4,35.9c-1.3,0-2.3-1.1-2.3-2.3c0-0.4-0.3-0.8-0.8-0.8c-0.4,0-0.8,0.3-0.8,0.8
				c0,2.2,1.7,3.9,3.9,3.9c0.4,0,0.8-0.3,0.8-0.8S73.9,35.9,73.4,35.9z"/>
		</g>
	</g>
	<g id="XMLID_2596_">
		<g id="XMLID_2597_">
			<path id="XMLID_1409_" class="st1" d="M70.3,25.8c-0.4,0-0.8,0.3-0.8,0.8v7c0,0.4,0.3,0.8,0.8,0.8c0.4,0,0.8-0.3,0.8-0.8v-7
				C71.1,26.1,70.7,25.8,70.3,25.8z"/>
		</g>
	</g>
	<g id="XMLID_2593_">
		<g id="XMLID_2594_">
			<path id="XMLID_1405_" class="st1" d="M66.4,11.7c-0.4,0-0.8,0.3-0.8,0.8v23.4c0,0.4,0.3,0.8,0.8,0.8s0.8-0.3,0.8-0.8V12.5
				C67.2,12.1,66.8,11.7,66.4,11.7z"/>
		</g>
	</g>
	<g id="XMLID_2584_">
		<g id="XMLID_2585_">
			<path id="XMLID_1391_" class="st1" d="M55.5,11.7c-0.4,0-0.8,0.3-0.8,0.8v23.4c0,0.4,0.3,0.8,0.8,0.8c0.4,0,0.8-0.3,0.8-0.8V12.5
				C56.3,12.1,55.9,11.7,55.5,11.7z"/>
		</g>
	</g>
	<g id="XMLID_2446_">
		<g id="XMLID_2490_">
			<path id="XMLID_1390_" class="st1" d="M46.1,18c-0.4,0-0.8,0.3-0.8,0.8v17.2c0,0.4,0.3,0.8,0.8,0.8c0.4,0,0.8-0.3,0.8-0.8V18.8
				C46.9,18.3,46.5,18,46.1,18z"/>
		</g>
	</g>
	<g id="XMLID_2438_">
		<g id="XMLID_2441_">
			<path id="XMLID_505_" class="st1" d="M50.8,27.3c-0.4,0-0.8,0.3-0.8,0.8v2.3c0,0.4,0.3,0.8,0.8,0.8c0.4,0,0.8-0.3,0.8-0.8v-2.3
				C51.6,27.7,51.2,27.3,50.8,27.3z"/>
		</g>
	</g>
	<g id="XMLID_2340_">
		<g id="XMLID_2387_">
			<path id="XMLID_504_" class="st1" d="M55.5,18h-9.4c-0.4,0-0.8,0.3-0.8,0.8s0.3,0.8,0.8,0.8h9.4c0.4,0,0.8-0.3,0.8-0.8
				S55.9,18,55.5,18z"/>
		</g>
	</g>
	<g id="XMLID_2316_">
		<g id="XMLID_2326_">
			<path id="XMLID_498_" class="st1" d="M50.8,18c-0.4,0-0.8,0.3-0.8,0.8v1.6c0,0.4,0.3,0.8,0.8,0.8c0.4,0,0.8-0.3,0.8-0.8v-1.6
				C51.6,18.3,51.2,18,50.8,18z"/>
		</g>
	</g>
	<g id="XMLID_1797_">
		<g id="XMLID_1803_">
			<path id="XMLID_493_" class="st1" d="M36.8,23.4c-0.4,0-0.8,0.3-0.8,0.8v11.7c0,0.4,0.3,0.8,0.8,0.8c0.4,0,0.8-0.3,0.8-0.8V24.2
				C37.5,23.8,37.2,23.4,36.8,23.4z"/>
		</g>
	</g>
	<g id="XMLID_1787_">
		<g id="XMLID_1790_">
			<path id="XMLID_453_" class="st1" d="M46.1,23.4h-9.4c-0.4,0-0.8,0.3-0.8,0.8s0.3,0.8,0.8,0.8h9.4c0.4,0,0.8-0.3,0.8-0.8
				S46.5,23.4,46.1,23.4z"/>
		</g>
	</g>
	<g id="XMLID_1780_">
		<g id="XMLID_1781_">
			<path id="XMLID_447_" class="st1" d="M39.9,23.4c-0.4,0-0.8,0.3-0.8,0.8v2.3c0,0.4,0.3,0.8,0.8,0.8c0.4,0,0.8-0.3,0.8-0.8v-2.3
				C40.7,23.8,40.3,23.4,39.9,23.4z"/>
		</g>
	</g>
	<g id="XMLID_1774_">
		<g id="XMLID_1776_">
			<path id="XMLID_446_" class="st1" d="M43,25.8h-3.1c-0.4,0-0.8,0.3-0.8,0.8s0.3,0.8,0.8,0.8H43c0.4,0,0.8-0.3,0.8-0.8
				S43.4,25.8,43,25.8z"/>
		</g>
	</g>
	<g id="XMLID_1771_">
		<g id="XMLID_1772_">
			<path id="XMLID_364_" class="st1" d="M43,23.4c-0.4,0-0.8,0.3-0.8,0.8v2.3c0,0.4,0.3,0.8,0.8,0.8c0.4,0,0.8-0.3,0.8-0.8v-2.3
				C43.8,23.8,43.4,23.4,43,23.4z"/>
		</g>
	</g>
</g>
</svg>
