<?xml version="1.0" encoding="utf-8"?>
<!-- Generator: Adobe Illustrator 23.0.6, SVG Export Plug-In . SVG Version: 6.00 Build 0)  -->
<svg version="1.1" id="Layer_1" xmlns="http://www.w3.org/2000/svg" xmlns:xlink="http://www.w3.org/1999/xlink" x="0px" y="0px"
	 viewBox="0 0 200 151" style="enable-background:new 0 0 200 151;" xml:space="preserve">
<style type="text/css">
	.st0{fill:#FFFFFF;}
	.st1{fill:#2B318B;}
	.st2{fill:none;stroke:#FFFFFF;stroke-miterlimit:10;}
</style>
<path id="XMLID_238_" class="st0" d="M79.7,9.3c41,0,74.3,28.6,74.3,63.7c0,35.2-33.2,63.8-74.3,63.8c-41,0-74.3-28.6-74.3-63.8
	C5.3,37.8,38.6,9.3,79.7,9.3"/>
<g>
	<path class="st1" d="M45.3,80.6c1.4,0,2.5,0.5,3.4,1.4c0.9,1,1.3,2.1,1.3,3.5s-0.4,2.6-1.3,3.5c-0.9,1-2,1.4-3.4,1.4h-3.8v-10H45.3
		z M45.3,89.6c1.1,0,2-0.4,2.7-1.2s1-1.7,1-2.9c0-1.1-0.3-2.1-1-2.9s-1.6-1.2-2.7-1.2h-2.8v8.1H45.3z"/>
	<path class="st1" d="M52.6,81.7c-0.1,0.1-0.3,0.2-0.5,0.2s-0.4-0.1-0.5-0.2s-0.2-0.3-0.2-0.5c0-0.2,0.1-0.4,0.2-0.5
		c0.1-0.1,0.3-0.2,0.5-0.2s0.4,0.1,0.5,0.2c0.1,0.1,0.2,0.3,0.2,0.5C52.8,81.4,52.7,81.6,52.6,81.7z M51.6,90.6v-7.1h0.9v7.1H51.6z"
		/>
	<path class="st1" d="M59.7,83.4h1l-2.9,7.1h-1.1l-2.9-7.1h1l2.5,6.1L59.7,83.4z"/>
	<path class="st1" d="M62.8,81.7c-0.1,0.1-0.3,0.2-0.5,0.2s-0.4-0.1-0.5-0.2s-0.2-0.3-0.2-0.5c0-0.2,0.1-0.4,0.2-0.5
		c0.1-0.1,0.3-0.2,0.5-0.2s0.4,0.1,0.5,0.2c0.1,0.1,0.2,0.3,0.2,0.5C63,81.4,62.9,81.6,62.8,81.7z M61.8,90.6v-7.1h0.9v7.1H61.8z"/>
	<path class="st1" d="M70.9,80.6h0.9v10h-0.9v-1.4c-0.7,1-1.6,1.6-2.9,1.6c-1,0-1.9-0.4-2.6-1.1c-0.7-0.7-1.1-1.6-1.1-2.6
		s0.4-1.9,1.1-2.6c0.7-0.7,1.6-1.1,2.6-1.1c1.3,0,2.2,0.5,2.9,1.6V80.6z M66.1,89c0.5,0.5,1.2,0.8,2,0.8s1.5-0.3,2-0.8
		s0.8-1.2,0.8-2s-0.3-1.5-0.8-2s-1.2-0.8-2-0.8s-1.5,0.3-2,0.8s-0.8,1.2-0.8,2S65.5,88.5,66.1,89z"/>
	<path class="st1" d="M77.1,83.3c1.1,0,1.9,0.4,2.6,1.1c0.6,0.7,1,1.6,1,2.6c0,0.1,0,0.3,0,0.4h-6.3c0.1,0.7,0.4,1.3,0.9,1.7
		c0.5,0.4,1.2,0.6,1.9,0.6c0.5,0,1-0.1,1.4-0.3c0.4-0.2,0.7-0.5,0.9-0.9l0.8,0.5C80,89.6,79.5,90,79,90.3s-1.2,0.4-1.9,0.4
		c-1.1,0-2-0.4-2.7-1.1c-0.7-0.7-1.1-1.6-1.1-2.7c0-1.1,0.3-2,1-2.7S76,83.3,77.1,83.3z M77.1,84.2c-0.7,0-1.4,0.2-1.9,0.7
		c-0.5,0.4-0.8,1-0.9,1.7h5.3c-0.1-0.8-0.4-1.3-0.9-1.8C78.3,84.4,77.7,84.2,77.1,84.2z"/>
	<path class="st1" d="M85.4,83.3c0.9,0,1.5,0.3,2,0.8c0.5,0.5,0.7,1.2,0.7,2.1v4.4h-0.9v-4.4c0-0.6-0.2-1.1-0.5-1.5
		s-0.8-0.5-1.4-0.5c-0.7,0-1.2,0.2-1.7,0.6s-0.6,1.1-0.6,2v3.7h-0.9v-7.1H83v1.1C83.6,83.7,84.4,83.3,85.4,83.3z"/>
	<path class="st1" d="M96.2,80.6h0.9v10h-0.9v-1.4c-0.7,1-1.6,1.6-2.9,1.6c-1,0-1.9-0.4-2.6-1.1C90,88.9,89.6,88,89.6,87
		s0.4-1.9,1.1-2.6c0.7-0.7,1.6-1.1,2.6-1.1c1.3,0,2.2,0.5,2.9,1.6V80.6z M91.4,89c0.5,0.5,1.2,0.8,2,0.8s1.5-0.3,2-0.8
		s0.8-1.2,0.8-2s-0.3-1.5-0.8-2s-1.2-0.8-2-0.8s-1.5,0.3-2,0.8s-0.8,1.2-0.8,2S90.8,88.5,91.4,89z"/>
	<path class="st1" d="M105.1,89.7c-0.7,0.7-1.6,1.1-2.7,1.1c-1,0-1.9-0.4-2.7-1.1s-1.1-1.6-1.1-2.7s0.4-1.9,1.1-2.7s1.6-1.1,2.7-1.1
		c1,0,1.9,0.4,2.7,1.1c0.7,0.7,1.1,1.6,1.1,2.7S105.8,88.9,105.1,89.7z M100.4,89c0.5,0.5,1.2,0.8,2,0.8c0.8,0,1.5-0.3,2-0.8
		s0.8-1.2,0.8-2s-0.3-1.5-0.8-2s-1.2-0.8-2-0.8c-0.8,0-1.5,0.3-2,0.8s-0.8,1.2-0.8,2S99.9,88.5,100.4,89z"/>
	<path class="st1" d="M108.3,85.3c0,0.3,0.1,0.6,0.4,0.8c0.3,0.2,0.6,0.3,1,0.5s0.8,0.2,1.2,0.3s0.8,0.3,1,0.6
		c0.3,0.3,0.4,0.7,0.4,1.2c0,0.6-0.2,1.1-0.7,1.5c-0.5,0.4-1.1,0.6-1.9,0.6c-0.7,0-1.3-0.2-1.7-0.5s-0.8-0.7-1-1.2l0.8-0.5
		c0.1,0.4,0.4,0.7,0.7,0.9s0.8,0.3,1.2,0.3c0.5,0,0.9-0.1,1.2-0.3c0.3-0.2,0.5-0.5,0.5-0.9c0-0.3-0.1-0.6-0.4-0.8s-0.6-0.3-1-0.5
		c-0.4-0.1-0.8-0.2-1.2-0.3c-0.4-0.1-0.8-0.3-1-0.6c-0.3-0.3-0.4-0.7-0.4-1.2c0-0.6,0.2-1.1,0.7-1.5c0.5-0.4,1-0.6,1.7-0.6
		c0.6,0,1.1,0.1,1.5,0.4c0.4,0.3,0.8,0.6,1,1.1l-0.8,0.5c-0.3-0.7-0.8-1-1.7-1c-0.4,0-0.8,0.1-1.1,0.3
		C108.5,84.7,108.3,84.9,108.3,85.3z"/>
	<path class="st1" d="M35.5,96.6c1.1,0,1.9,0.4,2.6,1.1c0.6,0.7,1,1.6,1,2.6c0,0.1,0,0.3,0,0.4h-6.3c0.1,0.7,0.4,1.3,0.9,1.7
		c0.5,0.4,1.2,0.6,1.9,0.6c0.5,0,1-0.1,1.4-0.3c0.4-0.2,0.7-0.5,0.9-0.9l0.8,0.5c-0.3,0.5-0.7,0.9-1.3,1.2s-1.2,0.4-1.9,0.4
		c-1.1,0-2-0.4-2.7-1.1c-0.7-0.7-1.1-1.6-1.1-2.7c0-1.1,0.3-2,1-2.7S34.4,96.6,35.5,96.6z M35.5,97.5c-0.7,0-1.4,0.2-1.9,0.7
		c-0.5,0.4-0.8,1-0.9,1.7h5.3c-0.1-0.8-0.4-1.3-0.9-1.8C36.7,97.7,36.2,97.5,35.5,97.5z"/>
	<path class="st1" d="M45.1,95.1c-0.1,0.1-0.3,0.2-0.5,0.2s-0.4-0.1-0.5-0.2s-0.2-0.3-0.2-0.5c0-0.2,0.1-0.4,0.2-0.5
		c0.1-0.1,0.3-0.2,0.5-0.2s0.4,0.1,0.5,0.2c0.1,0.1,0.2,0.3,0.2,0.5C45.3,94.8,45.2,95,45.1,95.1z M44.1,103.9v-7.1H45v7.1H44.1z"/>
	<path class="st1" d="M50.4,96.6c0.9,0,1.5,0.3,2,0.8c0.5,0.5,0.7,1.2,0.7,2.1v4.4h-0.9v-4.4c0-0.6-0.2-1.1-0.5-1.5
		s-0.8-0.5-1.4-0.5c-0.7,0-1.2,0.2-1.7,0.6s-0.6,1.1-0.6,2v3.7H47v-7.1H48v1.1C48.5,97.1,49.3,96.6,50.4,96.6z"/>
	<path class="st1" d="M58.8,97.7h-2.1v4.3c0,0.4,0.1,0.7,0.2,0.8s0.4,0.3,0.7,0.3c0.3,0,0.7,0,1.1,0v0.8c-1,0.2-1.7,0.1-2.2-0.2
		c-0.5-0.3-0.7-0.9-0.7-1.7v-4.3h-1.5v-0.9h1.5v-1.7l0.9-0.3v2h2.1V97.7z"/>
	<path class="st1" d="M63.2,96.6c1.1,0,1.9,0.4,2.6,1.1c0.6,0.7,1,1.6,1,2.6c0,0.1,0,0.3,0,0.4h-6.3c0.1,0.7,0.4,1.3,0.9,1.7
		c0.5,0.4,1.2,0.6,1.9,0.6c0.5,0,1-0.1,1.4-0.3c0.4-0.2,0.7-0.5,0.9-0.9l0.8,0.5c-0.3,0.5-0.7,0.9-1.3,1.2s-1.2,0.4-1.9,0.4
		c-1.1,0-2-0.4-2.7-1.1c-0.7-0.7-1.1-1.6-1.1-2.7c0-1.1,0.3-2,1-2.7S62.1,96.6,63.2,96.6z M63.2,97.5c-0.7,0-1.4,0.2-1.9,0.7
		c-0.5,0.4-0.8,1-0.9,1.7h5.3c-0.1-0.8-0.4-1.3-0.9-1.8C64.4,97.7,63.8,97.5,63.2,97.5z"/>
	<path class="st1" d="M69.1,98c0.4-0.9,1.2-1.3,2.2-1.3v0.9c-0.6,0-1.2,0.2-1.6,0.6s-0.6,1-0.6,1.8v4h-0.9v-7.1h0.9V98z"/>
	<path class="st1" d="M75.5,96.6c1.1,0,1.9,0.4,2.6,1.1c0.6,0.7,1,1.6,1,2.6c0,0.1,0,0.3,0,0.4h-6.3c0.1,0.7,0.4,1.3,0.9,1.7
		c0.5,0.4,1.2,0.6,1.9,0.6c0.5,0,1-0.1,1.4-0.3c0.4-0.2,0.7-0.5,0.9-0.9l0.8,0.5c-0.3,0.5-0.7,0.9-1.3,1.2s-1.2,0.4-1.9,0.4
		c-1.1,0-2-0.4-2.7-1.1c-0.7-0.7-1.1-1.6-1.1-2.7c0-1.1,0.3-2,1-2.7S74.4,96.6,75.5,96.6z M75.5,97.5c-0.7,0-1.4,0.2-1.9,0.7
		c-0.5,0.4-0.8,1-0.9,1.7h5.3c-0.1-0.8-0.4-1.3-0.9-1.8C76.7,97.7,76.2,97.5,75.5,97.5z"/>
	<path class="st1" d="M81,98.6c0,0.3,0.1,0.6,0.4,0.8s0.6,0.3,1,0.5s0.8,0.2,1.2,0.3c0.4,0.1,0.8,0.3,1,0.6c0.3,0.3,0.4,0.7,0.4,1.2
		c0,0.6-0.2,1.1-0.7,1.5s-1.1,0.6-1.9,0.6c-0.7,0-1.3-0.2-1.7-0.5c-0.5-0.3-0.8-0.7-1-1.2l0.8-0.5c0.1,0.4,0.4,0.7,0.7,0.9
		c0.3,0.2,0.8,0.3,1.2,0.3c0.5,0,0.9-0.1,1.2-0.3c0.3-0.2,0.5-0.5,0.5-0.9c0-0.3-0.1-0.6-0.4-0.8c-0.3-0.2-0.6-0.3-1-0.5
		c-0.4-0.1-0.8-0.2-1.2-0.3c-0.4-0.1-0.8-0.3-1-0.6c-0.3-0.3-0.4-0.7-0.4-1.2c0-0.6,0.2-1.1,0.7-1.5c0.5-0.4,1-0.6,1.7-0.6
		c0.6,0,1.1,0.1,1.5,0.4c0.4,0.3,0.8,0.6,1,1.1l-0.8,0.5c-0.3-0.7-0.8-1-1.7-1c-0.4,0-0.8,0.1-1.1,0.3C81.2,98,81,98.3,81,98.6z"/>
	<path class="st1" d="M89.8,96.6c1.1,0,1.9,0.4,2.6,1.1c0.6,0.7,1,1.6,1,2.6c0,0.1,0,0.3,0,0.4h-6.3c0.1,0.7,0.4,1.3,0.9,1.7
		c0.5,0.4,1.2,0.6,1.9,0.6c0.5,0,1-0.1,1.4-0.3c0.4-0.2,0.7-0.5,0.9-0.9l0.8,0.5c-0.3,0.5-0.7,0.9-1.3,1.2s-1.2,0.4-1.9,0.4
		c-1.1,0-2-0.4-2.7-1.1c-0.7-0.7-1.1-1.6-1.1-2.7c0-1.1,0.3-2,1-2.7S88.7,96.6,89.8,96.6z M89.8,97.5c-0.7,0-1.4,0.2-1.9,0.7
		c-0.5,0.4-0.8,1-0.9,1.7h5.3c-0.1-0.8-0.4-1.3-0.9-1.8C91,97.7,90.5,97.5,89.8,97.5z"/>
	<path class="st1" d="M95.3,98.6c0,0.3,0.1,0.6,0.4,0.8s0.6,0.3,1,0.5s0.8,0.2,1.2,0.3c0.4,0.1,0.8,0.3,1,0.6
		c0.3,0.3,0.4,0.7,0.4,1.2c0,0.6-0.2,1.1-0.7,1.5s-1.1,0.6-1.9,0.6c-0.7,0-1.3-0.2-1.7-0.5c-0.5-0.3-0.8-0.7-1-1.2l0.8-0.5
		c0.1,0.4,0.4,0.7,0.7,0.9c0.3,0.2,0.8,0.3,1.2,0.3c0.5,0,0.9-0.1,1.2-0.3c0.3-0.2,0.5-0.5,0.5-0.9c0-0.3-0.1-0.6-0.4-0.8
		c-0.3-0.2-0.6-0.3-1-0.5c-0.4-0.1-0.8-0.2-1.2-0.3c-0.4-0.1-0.8-0.3-1-0.6c-0.3-0.3-0.4-0.7-0.4-1.2c0-0.6,0.2-1.1,0.7-1.5
		c0.5-0.4,1-0.6,1.7-0.6c0.6,0,1.1,0.1,1.5,0.4c0.4,0.3,0.8,0.6,1,1.1l-0.8,0.5c-0.3-0.7-0.8-1-1.7-1c-0.4,0-0.8,0.1-1.1,0.3
		C95.4,98,95.3,98.3,95.3,98.6z"/>
	<path class="st1" d="M108.4,96.6c1,0,1.9,0.4,2.6,1.1c0.7,0.7,1.1,1.6,1.1,2.6s-0.4,1.9-1.1,2.6c-0.7,0.7-1.6,1.1-2.6,1.1
		c-1.3,0-2.2-0.5-2.9-1.6v4.2h-0.9v-10h0.9v1.4C106.2,97.1,107.1,96.6,108.4,96.6z M106.3,102.4c0.5,0.5,1.2,0.8,2,0.8
		s1.5-0.3,2-0.8s0.8-1.2,0.8-2s-0.3-1.5-0.8-2s-1.2-0.8-2-0.8s-1.5,0.3-2,0.8s-0.8,1.2-0.8,2S105.8,101.8,106.3,102.4z"/>
	<path class="st1" d="M119.6,103c-0.7,0.7-1.6,1.1-2.7,1.1c-1,0-1.9-0.4-2.7-1.1c-0.7-0.7-1.1-1.6-1.1-2.7s0.4-1.9,1.1-2.7
		c0.7-0.7,1.6-1.1,2.7-1.1c1,0,1.9,0.4,2.7,1.1c0.7,0.7,1.1,1.6,1.1,2.7S120.3,102.3,119.6,103z M115,102.4c0.5,0.5,1.2,0.8,2,0.8
		c0.8,0,1.5-0.3,2-0.8s0.8-1.2,0.8-2s-0.3-1.5-0.8-2s-1.2-0.8-2-0.8c-0.8,0-1.5,0.3-2,0.8s-0.8,1.2-0.8,2S114.4,101.8,115,102.4z"/>
	<path class="st1" d="M123.2,98c0.4-0.9,1.2-1.3,2.2-1.3v0.9c-0.6,0-1.2,0.2-1.6,0.6s-0.6,1-0.6,1.8v4h-0.9v-7.1h0.9V98z"/>
	<path class="st1" d="M61.3,117.4c-1.1,0-2-0.4-2.7-1.1s-1.1-1.6-1.1-2.7s0.4-1.9,1.1-2.7s1.6-1.1,2.7-1.1c0.7,0,1.3,0.2,1.9,0.5
		s1,0.8,1.2,1.4l-0.8,0.4c-0.2-0.4-0.5-0.8-0.9-1c-0.4-0.3-0.9-0.4-1.4-0.4c-0.8,0-1.5,0.3-2,0.8s-0.8,1.2-0.8,2s0.3,1.5,0.8,2
		s1.2,0.8,2,0.8c0.5,0,1-0.1,1.4-0.4c0.4-0.3,0.7-0.6,1-1l0.8,0.5c-0.3,0.6-0.7,1-1.3,1.4C62.6,117.3,62,117.4,61.3,117.4z"/>
	<path class="st1" d="M71.7,116.4c-0.7,0.7-1.6,1.1-2.7,1.1s-1.9-0.4-2.7-1.1s-1.1-1.6-1.1-2.7s0.4-1.9,1.1-2.7s1.6-1.1,2.7-1.1
		s1.9,0.4,2.7,1.1s1.1,1.6,1.1,2.7S72.4,115.7,71.7,116.4z M67.1,115.7c0.5,0.5,1.2,0.8,2,0.8s1.5-0.3,2-0.8s0.8-1.2,0.8-2
		s-0.3-1.5-0.8-2s-1.2-0.8-2-0.8s-1.5,0.3-2,0.8s-0.8,1.2-0.8,2S66.5,115.2,67.1,115.7z"/>
	<path class="st1" d="M78.2,110c1,0,1.9,0.4,2.6,1.1c0.7,0.7,1.1,1.6,1.1,2.6s-0.4,1.9-1.1,2.6s-1.6,1.1-2.6,1.1
		c-1.3,0-2.2-0.5-2.9-1.6v1.4h-0.9v-10h0.9v4.2C76,110.5,76.9,110,78.2,110z M76.1,115.7c0.5,0.5,1.2,0.8,2,0.8c0.8,0,1.5-0.3,2-0.8
		s0.8-1.2,0.8-2s-0.3-1.5-0.8-2s-1.2-0.8-2-0.8c-0.8,0-1.5,0.3-2,0.8s-0.8,1.2-0.8,2S75.6,115.2,76.1,115.7z"/>
	<path class="st1" d="M84.4,111.3c0.4-0.9,1.2-1.3,2.2-1.3v0.9c-0.6,0-1.2,0.2-1.6,0.6s-0.6,1-0.6,1.8v4h-0.9v-7.1h0.9V111.3z"/>
	<path class="st1" d="M93.6,110.2h0.9v7.1h-0.9v-1.4c-0.7,1-1.6,1.6-2.9,1.6c-1,0-1.9-0.4-2.6-1.1c-0.7-0.7-1.1-1.6-1.1-2.6
		s0.4-1.9,1.1-2.6c0.7-0.7,1.6-1.1,2.6-1.1c1.3,0,2.2,0.5,2.9,1.6V110.2z M88.8,115.7c0.5,0.5,1.2,0.8,2,0.8s1.5-0.3,2-0.8
		s0.8-1.2,0.8-2s-0.3-1.5-0.8-2s-1.2-0.8-2-0.8s-1.5,0.3-2,0.8s-0.8,1.2-0.8,2S88.3,115.2,88.8,115.7z"/>
	<path class="st1" d="M97.5,111.3c0.4-0.9,1.2-1.3,2.2-1.3v0.9c-0.6,0-1.2,0.2-1.6,0.6s-0.6,1-0.6,1.8v4h-0.9v-7.1h0.9V111.3z"/>
</g>
<g id="XMLID_373_">
	<g id="XMLID_375_">
		<polygon id="Arrow_24_" class="st0" points="158.6,21.3 167.1,10.7 166.9,18.4 171.8,24.3 		"/>
		<polygon id="Arrow_23_" class="st0" points="194,8.3 185.5,18.8 185.7,11.1 180.8,5.2 		"/>
	</g>
	<line id="XMLID_374_" class="st2" x1="167.2" y1="18.5" x2="186.3" y2="10.9"/>
</g>
<g id="XMLID_2234_">
	<g id="XMLID_3029_">
		<g id="XMLID_3059_">
			<path id="XMLID_2232_" class="st1" d="M70.4,51.2l-2-0.7c-0.7-0.2-1.1-0.8-1.1-1.6c0-1,0.8-1.8,1.8-1.8S71,48,71,49l1.8,0
				c0-1.7-1.1-3.1-2.8-3.6v-2l-1.8,0v2c-1.6,0.4-2.8,1.9-2.8,3.6c0,1.5,1,2.8,2.4,3.3l2,0.7c0.7,0.2,1.1,0.8,1.1,1.6
				c0,1-0.8,1.8-1.8,1.8s-1.8-0.8-1.8-1.8l-1.8,0c0,1.7,1.1,3.1,2.8,3.6v2l1.8,0v-2c1.6-0.4,2.8-1.9,2.8-3.6
				C72.8,53,71.8,51.7,70.4,51.2z"/>
		</g>
	</g>
	<g id="XMLID_3010_">
		<g id="XMLID_3012_">
			<path id="XMLID_3020_" class="st1" d="M102.3,37l-18.6,0c-1.9-2.4-4.4-4.3-7.2-5.7v-4l3.3-2.5c0.2-0.2,0.4-0.4,0.4-0.7v-6.5
				c0-0.5-0.4-0.9-0.9-0.9l-3.7,0c-0.2,0-0.5,0.1-0.7,0.3l-1.2,1.2L72.5,17c-0.2-0.2-0.4-0.3-0.7-0.3l-5.5,0c-0.2,0-0.5,0.1-0.7,0.3
				l-1.2,1.2L63.3,17c-0.2-0.2-0.4-0.3-0.7-0.3l-3.7,0c-0.5,0-0.9,0.4-0.9,0.9v6.5c0,0.3,0.1,0.6,0.4,0.7l3.3,2.5v4
				c-7,3.4-13.8,12.4-13.8,24.1C47.9,66,55.6,72,69.1,72c2.2,0,4.4-0.2,6.5-0.6c0.1,0.3,0.5,0.6,0.9,0.6l25.8,0
				c0.5,0,0.9-0.4,0.9-0.9l0-33.2C103.2,37.4,102.8,37,102.3,37z M59.9,23.7v-5.1l2.4,0l1.6,1.6c0.4,0.4,0.9,0.4,1.3,0l1.6-1.6
				l4.8,0l1.6,1.6c0.4,0.4,0.9,0.4,1.3,0l1.6-1.6l2.4,0v5.1L75.3,26L63,26L59.9,23.7z M74.6,27.8v2.8l-11.1,0v-2.8L74.6,27.8z
				 M75.6,59.6c-4.3,3.6-10.7,3-14.3-1.3c-3.6-4.3-3-10.7,1.3-14.3c3.8-3.1,9.2-3.1,12.9,0L75.6,59.6L75.6,59.6z M75.6,37.9v3.7
				c-5.6-3.6-13-2-16.6,3.6s-2,13,3.6,16.6c3.9,2.5,9,2.5,12.9,0v7.8c-2.1,0.4-4.3,0.6-6.5,0.6c-5.8,0-19.4-1.4-19.4-14.8
				c0-8.8,5.3-19.8,14.1-23l10.5,0c2.6,1,5,2.6,6.9,4.6l-4.7,0C76,37,75.6,37.4,75.6,37.9z M101.4,70.2l-24,0v-24l24,0V70.2z
				 M101.4,44.4l-24,0v-5.5l24,0V44.4z"/>
		</g>
	</g>
	<g id="XMLID_2885_">
		<g id="XMLID_2887_">
			<path id="XMLID_2905_" class="st1" d="M83.9,48.1l-3.7,0c-0.5,0-0.9,0.4-0.9,0.9v3.7c0,0.5,0.4,0.9,0.9,0.9h3.7
				c0.5,0,0.9-0.4,0.9-0.9V49C84.8,48.5,84.4,48.1,83.9,48.1z M82.9,51.8h-1.8v-1.8h1.8V51.8z"/>
		</g>
	</g>
	<g id="XMLID_2676_">
		<g id="XMLID_2677_">
			<path id="XMLID_2829_" class="st1" d="M91.2,48.1h-3.7c-0.5,0-0.9,0.4-0.9,0.9v3.7c0,0.5,0.4,0.9,0.9,0.9l3.7,0
				c0.5,0,0.9-0.4,0.9-0.9V49C92.2,48.5,91.7,48.1,91.2,48.1z M90.3,51.8h-1.8v-1.8h1.8V51.8z"/>
		</g>
	</g>
	<g id="XMLID_2565_">
		<g id="XMLID_2566_">
			<path id="XMLID_2577_" class="st1" d="M98.6,48.1l-3.7,0c-0.5,0-0.9,0.4-0.9,0.9v3.7c0,0.5,0.4,0.9,0.9,0.9l3.7,0
				c0.5,0,0.9-0.4,0.9-0.9V49C99.5,48.5,99.1,48.1,98.6,48.1z M97.7,51.8l-1.8,0v-1.8l1.8,0V51.8z"/>
		</g>
	</g>
	<g id="XMLID_2501_">
		<g id="XMLID_2508_">
			<path id="XMLID_2509_" class="st1" d="M83.9,55.5h-3.7c-0.5,0-0.9,0.4-0.9,0.9v3.7c0,0.5,0.4,0.9,0.9,0.9l3.7,0
				c0.5,0,0.9-0.4,0.9-0.9v-3.7C84.8,55.9,84.4,55.5,83.9,55.5z M82.9,59.1h-1.8v-1.8h1.8V59.1z"/>
		</g>
	</g>
	<g id="XMLID_2494_">
		<g id="XMLID_2497_">
			<path id="XMLID_2498_" class="st1" d="M91.2,55.5l-3.7,0c-0.5,0-0.9,0.4-0.9,0.9v3.7c0,0.5,0.4,0.9,0.9,0.9l3.7,0
				c0.5,0,0.9-0.4,0.9-0.9v-3.7C92.2,55.9,91.7,55.5,91.2,55.5z M90.3,59.1l-1.8,0v-1.8l1.8,0V59.1z"/>
		</g>
	</g>
	<g id="XMLID_2466_">
		<g id="XMLID_2471_">
			<path id="XMLID_2476_" class="st1" d="M83.9,62.8l-3.7,0c-0.5,0-0.9,0.4-0.9,0.9v3.7c0,0.5,0.4,0.9,0.9,0.9l3.7,0
				c0.5,0,0.9-0.4,0.9-0.9v-3.7C84.8,63.2,84.4,62.8,83.9,62.8z M82.9,66.5h-1.8v-1.8h1.8V66.5z"/>
		</g>
	</g>
	<g id="XMLID_2447_">
		<g id="XMLID_2449_">
			<path id="XMLID_2455_" class="st1" d="M91.2,62.8h-3.7c-0.5,0-0.9,0.4-0.9,0.9v3.7c0,0.5,0.4,0.9,0.9,0.9h3.7
				c0.5,0,0.9-0.4,0.9-0.9v-3.7C92.2,63.2,91.7,62.8,91.2,62.8z M90.3,66.5l-1.8,0v-1.8h1.8V66.5z"/>
		</g>
	</g>
	<g id="XMLID_2336_">
		<g id="XMLID_2337_">
			<path id="XMLID_2339_" class="st1" d="M98.6,55.5l-3.7,0c-0.5,0-0.9,0.4-0.9,0.9v11.1c0,0.5,0.4,0.9,0.9,0.9h3.7
				c0.5,0,0.9-0.4,0.9-0.9V56.4C99.5,55.9,99.1,55.5,98.6,55.5z M97.7,66.5h-1.8v-9.2h1.8V66.5z"/>
		</g>
	</g>
	<g id="XMLID_2266_">
		<g id="XMLID_2267_">
			<rect id="XMLID_1801_" x="97.7" y="40.7" class="st1" width="1.8" height="1.8"/>
		</g>
	</g>
	<g id="XMLID_2263_">
		<g id="XMLID_2264_">
			<rect id="XMLID_1798_" x="94" y="40.7" class="st1" width="1.8" height="1.8"/>
		</g>
	</g>
	<g id="XMLID_2235_">
		<g id="XMLID_2236_">
			<rect id="XMLID_1796_" x="90.3" y="40.7" class="st1" width="1.8" height="1.8"/>
		</g>
	</g>
</g>
</svg>
