<?xml version="1.0" encoding="utf-8"?>
<!-- Generator: Adobe Illustrator 23.0.6, SVG Export Plug-In . SVG Version: 6.00 Build 0)  -->
<svg version="1.1" id="Layer_1" xmlns="http://www.w3.org/2000/svg" xmlns:xlink="http://www.w3.org/1999/xlink" x="0px" y="0px"
	 viewBox="0 0 684 600" style="enable-background:new 0 0 684 600;" xml:space="preserve">
<style type="text/css">
	.st0{opacity:0.36;}
	.st1{fill:none;stroke:#FFFFFF;stroke-miterlimit:10;}
	.st2{fill:none;stroke:#FFFFFF;stroke-miterlimit:10;stroke-dasharray:4.987,4.987;}
	.st3{fill:#FFFFFF;}
	.st4{fill:#714D9B;}
	.st5{font-family:'Gilroy-Bold';}
	.st6{font-size:26.5746px;}
	.st7{fill:#2B318B;}
	.st8{font-size:31.3276px;}
</style>
<g id="XMLID_3295_" class="st0">
	<g>
		<path class="st1" d="M342.1,53.7c0.8,0,1.7,0,2.5,0"/>
		<path class="st2" d="M349.6,53.8C516.7,57.2,651,174.6,651,318.6c0,146.4-138.2,265.1-308.9,265.1
			C171.6,583.5,33.5,465,33.3,318.6c0-144.9,135.7-262.5,303.9-264.8"/>
		<path class="st1" d="M339.6,53.7c0.8,0,1.7,0,2.5,0"/>
	</g>
</g>
<g id="XMLID_3287_">
	<path id="XMLID_3294_" class="st3" d="M539.6,414.5c50.7,0,91.9,35.3,91.9,78.8c0,43.5-41.1,78.8-91.9,78.8
		c-50.7-0.1-91.8-35.3-91.9-78.8C447.7,449.8,488.9,414.5,539.6,414.5"/>
	<path id="XMLID_3292_" class="st3" d="M144.7,414.5c50.7,0,91.9,35.3,91.9,78.8c0,43.5-41.1,78.8-91.9,78.8
		c-50.7-0.1-91.8-35.3-91.9-78.8C52.8,449.8,94,414.5,144.7,414.5"/>
	<text id="XMLID_3291_" transform="matrix(1 0 0 1 73.9341 492.2412)"><tspan x="0" y="0" class="st4 st5 st6"> Evaluación </tspan><tspan x="10.5" y="31.9" class="st4 st5 st6">y rediseño</tspan></text>
	<text id="XMLID_3290_" transform="matrix(1 0 0 1 484.8438 508.0635)" class="st4 st5 st6">Ejecución</text>
</g>
<line id="XMLID_3239_" class="st1" x1="425.5" y1="232.6" x2="481.4" y2="175.6"/>
<line id="XMLID_3176_" class="st1" x1="202.9" y1="459.6" x2="256.7" y2="404.8"/>
<line id="XMLID_3170_" class="st1" x1="431" y1="404.8" x2="484.1" y2="456.9"/>
<line id="XMLID_3124_" class="st1" x1="200.1" y1="178.4" x2="255.4" y2="232.6"/>
<path id="XMLID_3108_" class="st7" d="M346.4,222.5c61,0,110.5,43.7,110.5,97.5c0,53.9-49.4,97.6-110.5,97.6
	c-61-0.1-110.4-43.7-110.5-97.6C235.9,266.1,285.4,222.5,346.4,222.5"/>
<text id="XMLID_3096_" transform="matrix(1 0 0 1 279.0762 301.0107)"><tspan x="0" y="0" class="st3 st5 st8">Enfoques </tspan><tspan x="-39.5" y="32.5" class="st3 st5 st8">fundamentales</tspan></text>
<g id="XMLID_3088_">
	<path id="XMLID_3094_" class="st3" d="M153.4,51.8c50.7,0,91.9,35.3,91.9,78.8c0,43.5-41.1,78.8-91.9,78.8
		c-50.7-0.1-91.8-35.3-91.9-78.8C61.5,87,102.7,51.8,153.4,51.8"/>
	<path id="XMLID_3092_" class="st3" d="M530.9,51.8c50.7,0,91.9,35.3,91.9,78.8c0,43.5-41.1,78.8-91.9,78.8
		c-50.7-0.1-91.8-35.3-91.9-78.8C439,87,480.2,51.8,530.9,51.8"/>
	<text id="XMLID_3091_" transform="matrix(1 0 0 1 81.3086 132.6914)" class="st4 st5 st6">Diagnóstico</text>
	<text id="XMLID_3089_" transform="matrix(1 0 0 1 469.0615 123.5645)"><tspan x="0" y="0" class="st4 st5 st6"> Diseño de</tspan><tspan x="-14.8" y="31.9" class="st4 st5 st6">la estrategia</tspan></text>
</g>
<g id="XMLID_2063_">
	<g id="XMLID_3086_">
		<path id="XMLID_3087_" class="st3" d="M248.3,225.5c25.4-20.5,58.2-31.8,92.9-31.8c37,0,71.7,12.7,97.7,35.9l-12.4,11
			c-22.8-20.2-53.1-31.3-85.3-31.3c-32.3,0-62.6,11.1-85.3,31.3c-47.1,41.8-47.1,109.7,0,151.5l-12.4,11
			c-53.9-47.8-53.9-125.6,0-173.4C245.1,228.2,246.7,226.8,248.3,225.5"/>
	</g>
	<g id="XMLID_2758_">
		<path id="XMLID_2759_" class="st3" d="M471.9,316.3c0,29.7-12.7,59.4-38.2,82c-51,45.2-133.9,45.2-184.9,0l1.9-1.6
			c50,44.3,131.2,44.3,181.2,0c50-44.3,49.9-116.5,0-160.8l1.9-1.6C459.1,256.9,471.9,286.6,471.9,316.3z"/>
	</g>
</g>
</svg>
