<?xml version="1.0" encoding="utf-8"?>
<!-- Generator: Adobe Illustrator 23.0.6, SVG Export Plug-In . SVG Version: 6.00 Build 0)  -->
<svg version="1.1" id="Layer_1" xmlns="http://www.w3.org/2000/svg" xmlns:xlink="http://www.w3.org/1999/xlink" x="0px" y="0px"
	 viewBox="0 0 200 200" style="enable-background:new 0 0 200 200;" xml:space="preserve">
<style type="text/css">
	.st0{fill:#FFFFFF;}
</style>
<g id="XMLID_478_">
	<path id="XMLID_607_" class="st0" d="M161.6,13.5H59c-5.9,0-10.6,4.8-10.6,10.6v23.8c-19.5,5.6-33.7,23.5-33.7,44.7
		s14.3,39.2,33.7,44.7v41c0,5.9,4.8,10.6,10.6,10.6h83.8c1,0,1.9-0.4,2.7-1.1l25.6-25.6c0.7-0.7,1.1-1.7,1.1-2.7V24.1
		C172.2,18.3,167.4,13.5,161.6,13.5z M59,21h102.5c1.7,0,3.1,1.4,3.1,3.1v11.3H55.9V24.1C55.9,22.4,57.3,21,59,21z M22.2,92.7
		c0-21.5,17.5-39,39-39s39,17.5,39,39s-17.5,39-39,39S22.2,114.2,22.2,92.7z M55.9,178.4v-39.5c1.7,0.2,3.5,0.3,5.3,0.3
		c14,0,26.5-6.2,35.1-16h23c2.1,0,3.7-1.7,3.7-3.7s-1.7-3.7-3.7-3.7h-17.6c3.3-5.7,5.3-12.1,5.9-19h11.7c2.1,0,3.7-1.7,3.7-3.7
		s-1.7-3.7-3.7-3.7h-11.6c-0.5-6.9-2.5-13.3-5.7-19h17.3c2.1,0,3.7-1.7,3.7-3.7c0-2.1-1.7-3.7-3.7-3.7H96.7
		c-8.5-10.1-21.3-16.5-35.5-16.5c-1.8,0-3.5,0.1-5.3,0.3v-3.5h108.8v112.9h-15c-5.9,0-10.6,4.8-10.6,10.6v15H59
		C57.3,181.5,55.9,180.1,55.9,178.4z M146.6,176.2v-9.7c0-1.7,1.4-3.1,3.1-3.1h9.7L146.6,176.2z"/>
	<path id="XMLID_268_" class="st0" d="M133.9,70.2h12.4c2.1,0,3.7-1.7,3.7-3.7s-1.7-3.7-3.7-3.7h-12.4c-2.1,0-3.7,1.7-3.7,3.7
		S131.8,70.2,133.9,70.2z"/>
	<path id="XMLID_243_" class="st0" d="M133.9,96.7h12.4c2.1,0,3.7-1.7,3.7-3.7c0-2.1-1.7-3.7-3.7-3.7h-12.4c-2.1,0-3.7,1.7-3.7,3.7
		C130.2,95,131.8,96.7,133.9,96.7z"/>
	<path id="XMLID_227_" class="st0" d="M133.9,123.2h12.4c2.1,0,3.7-1.7,3.7-3.7s-1.7-3.7-3.7-3.7h-12.4c-2.1,0-3.7,1.7-3.7,3.7
		S131.8,123.2,133.9,123.2z"/>
	<path id="XMLID_155_" class="st0" d="M146.4,149.7c2.1,0,3.7-1.7,3.7-3.7s-1.7-3.7-3.7-3.7h-35.1c-2.1,0-3.7,1.7-3.7,3.7
		s1.7,3.7,3.7,3.7H146.4z"/>
	<path id="XMLID_497_" class="st0" d="M90.3,73.8l-4.6-4.6c-1.2-1.2-2.9-1.9-4.6-1.9c-1.7,0-3.4,0.7-4.6,1.9l-24,24l-6.6-6.6
		c-1.2-1.2-2.9-1.9-4.6-1.9c-1.7,0-3.4,0.7-4.6,1.9l-4.6,4.6c-2.5,2.5-2.5,6.7,0,9.2l15.8,15.8c1.2,1.2,2.9,1.9,4.6,1.9h0
		c1.7,0,3.4-0.7,4.6-1.9L90.3,83C92.8,80.4,92.8,76.3,90.3,73.8z M52.5,110.1L38.1,95.7l3.2-3.2l8.6,8.6c1.5,1.5,3.8,1.5,5.3,0
		l25.9-25.9l3.2,3.2L52.5,110.1z"/>
</g>
</svg>
