<?xml version="1.0" encoding="utf-8"?>
<!-- Generator: Adobe Illustrator 23.0.6, SVG Export Plug-In . SVG Version: 6.00 Build 0)  -->
<svg version="1.1" id="Layer_1" xmlns="http://www.w3.org/2000/svg" xmlns:xlink="http://www.w3.org/1999/xlink" x="0px" y="0px"
	 viewBox="0 0 128 98" style="enable-background:new 0 0 128 98;" xml:space="preserve">
<style type="text/css">
	.st0{fill:#FFFFFF;}
	.st1{fill:#2B318B;}
	.st2{font-family:'Gilroy-Regular';}
	.st3{font-size:12.0158px;}
</style>
<g>
	<path id="XMLID_356_" class="st0" d="M65.6,3.2c29.5,0,53.4,20.5,53.4,45.8c0,25.3-23.9,45.9-53.4,45.9
		c-29.5,0-53.4-20.5-53.4-45.9C12.2,23.7,36.1,3.2,65.6,3.2"/>
	<text id="XMLID_292_" transform="matrix(1 0 0 1 34.7087 78.2224)" class="st1 st2 st3">Facturación</text>
	<g id="XMLID_1178_">
		<g id="XMLID_1866_">
			<g id="XMLID_1869_">
				<path id="XMLID_1870_" class="st1" d="M80.3,39.6h-4.8V24.2c0-0.3-0.2-0.5-0.4-0.6c-0.2-0.1-0.5,0-0.7,0.1l-1.9,1.9l-1.9-1.9
					c-0.3-0.3-0.7-0.3-0.9,0l-1.9,1.9L66,23.7c-0.3-0.3-0.7-0.3-0.9,0l-1.9,1.9l-1.9-1.9c-0.3-0.3-0.7-0.3-0.9,0l-1.9,1.9l-1.9-1.9
					c-0.3-0.3-0.7-0.3-0.9,0l-1.9,1.9l-1.9-1.9c-0.3-0.3-0.7-0.3-0.9,0C51,23.8,51,24,51,24.2v29.4c0,1.9,1.5,3.4,3.4,3.4h23.1h0h0
					c1.9,0,3.4-1.5,3.4-3.4V40.2C80.9,39.9,80.6,39.6,80.3,39.6z M54.4,55.7c-1.2,0-2.1-0.9-2.1-2.1V25.7l1.2,1.2
					c0.3,0.3,0.7,0.3,0.9,0l1.9-1.9l1.9,1.9c0.3,0.3,0.7,0.3,0.9,0l1.9-1.9l1.9,1.9c0.3,0.3,0.7,0.3,0.9,0l1.9-1.9l1.9,1.9
					c0.3,0.3,0.7,0.3,0.9,0l1.9-1.9l1.9,1.9c0.3,0.3,0.7,0.3,0.9,0l1.2-1.2v14.5c0,0,0,0,0,0v13.3c0,0.8,0.3,1.5,0.7,2.1H54.4
					L54.4,55.7z M79.6,53.6c0,1.2-0.9,2.1-2.1,2.1s-2.1-0.9-2.1-2.1V40.9h4.2V53.6L79.6,53.6z"/>
			</g>
		</g>
		<g id="XMLID_1863_">
			<g id="XMLID_1864_">
				<path id="XMLID_165_" class="st1" d="M63.2,33.9c-0.6,0-1.2-0.5-1.2-1c0-0.6,0.5-1,1.2-1c0.6,0,1.2,0.5,1.2,1
					c0,0.4,0.3,0.7,0.7,0.7s0.7-0.3,0.7-0.7c0-1.1-0.8-2-1.8-2.2v-0.4c0-0.4-0.3-0.7-0.7-0.7c-0.4,0-0.7,0.3-0.7,0.7v0.4
					c-1.1,0.3-1.8,1.2-1.8,2.2c0,1.3,1.1,2.3,2.5,2.3c0.6,0,1.2,0.5,1.2,1c0,0.6-0.5,1-1.2,1s-1.2-0.5-1.2-1c0-0.4-0.3-0.7-0.7-0.7
					s-0.7,0.3-0.7,0.7c0,1.1,0.8,2,1.8,2.2V39c0,0.4,0.3,0.7,0.7,0.7c0.4,0,0.7-0.3,0.7-0.7v-0.5c1.1-0.3,1.8-1.2,1.8-2.2
					C65.7,34.9,64.6,33.9,63.2,33.9z"/>
			</g>
		</g>
		<g id="XMLID_1860_">
			<g id="XMLID_1861_">
				<path id="XMLID_157_" class="st1" d="M69.8,33.9h-1.3c-0.4,0-0.7,0.3-0.7,0.7s0.3,0.7,0.7,0.7h1.3c0.4,0,0.7-0.3,0.7-0.7
					S70.1,33.9,69.8,33.9z"/>
			</g>
		</g>
		<g id="XMLID_1856_">
			<g id="XMLID_1858_">
				<path id="XMLID_153_" class="st1" d="M57.9,33.9h-1.3c-0.4,0-0.7,0.3-0.7,0.7s0.3,0.7,0.7,0.7h1.3c0.4,0,0.7-0.3,0.7-0.7
					S58.3,33.9,57.9,33.9z"/>
			</g>
		</g>
		<g id="XMLID_1764_">
			<g id="XMLID_1852_">
				<path id="XMLID_139_" class="st1" d="M70.1,41.2H59.7c-0.4,0-0.7,0.3-0.7,0.7s0.3,0.7,0.7,0.7h10.4c0.4,0,0.7-0.3,0.7-0.7
					C70.8,41.4,70.5,41.2,70.1,41.2z"/>
			</g>
		</g>
		<g id="XMLID_1761_">
			<g id="XMLID_1762_">
				<path id="XMLID_135_" class="st1" d="M56.8,41.3c-0.1-0.1-0.3-0.2-0.5-0.2c-0.2,0-0.3,0.1-0.5,0.2c-0.1,0.1-0.2,0.3-0.2,0.5
					c0,0.2,0.1,0.3,0.2,0.5c0.1,0.1,0.3,0.2,0.5,0.2c0.2,0,0.3-0.1,0.5-0.2S57,42,57,41.8C57,41.6,56.9,41.5,56.8,41.3z"/>
			</g>
		</g>
		<g id="XMLID_1756_">
			<g id="XMLID_1759_">
				<path id="XMLID_89_" class="st1" d="M70.1,45.5H59.7c-0.4,0-0.7,0.3-0.7,0.7c0,0.4,0.3,0.7,0.7,0.7h10.4c0.4,0,0.7-0.3,0.7-0.7
					C70.8,45.8,70.5,45.5,70.1,45.5z"/>
			</g>
		</g>
		<g id="XMLID_1369_">
			<g id="XMLID_1751_">
				<path id="XMLID_273_" class="st1" d="M56.8,45.7c-0.1-0.1-0.3-0.2-0.5-0.2c-0.2,0-0.3,0.1-0.5,0.2c-0.1,0.1-0.2,0.3-0.2,0.5
					c0,0.2,0.1,0.3,0.2,0.5c0.1,0.1,0.3,0.2,0.5,0.2c0.2,0,0.3-0.1,0.5-0.2s0.2-0.3,0.2-0.5C57,46,56.9,45.8,56.8,45.7z"/>
			</g>
		</g>
		<g id="XMLID_1241_">
			<g id="XMLID_1367_">
				<path id="XMLID_325_" class="st1" d="M70.1,49.8H59.7c-0.4,0-0.7,0.3-0.7,0.7s0.3,0.7,0.7,0.7h10.4c0.4,0,0.7-0.3,0.7-0.7
					S70.5,49.8,70.1,49.8z"/>
			</g>
		</g>
		<g id="XMLID_1219_">
			<g id="XMLID_1229_">
				<path id="XMLID_451_" class="st1" d="M56.8,50c-0.1-0.1-0.3-0.2-0.5-0.2c-0.2,0-0.3,0.1-0.5,0.2c-0.1,0.1-0.2,0.3-0.2,0.5
					c0,0.2,0.1,0.3,0.2,0.5c0.1,0.1,0.3,0.2,0.5,0.2c0.2,0,0.3-0.1,0.5-0.2s0.2-0.3,0.2-0.5C57,50.3,56.9,50.1,56.8,50z"/>
			</g>
		</g>
	</g>
</g>
</svg>
