<?xml version="1.0" encoding="utf-8"?>
<!-- Generator: Adobe Illustrator 23.0.6, SVG Export Plug-In . SVG Version: 6.00 Build 0)  -->
<svg version="1.1" id="Layer_1" xmlns="http://www.w3.org/2000/svg" xmlns:xlink="http://www.w3.org/1999/xlink" x="0px" y="0px"
	 viewBox="0 0 100 100" style="enable-background:new 0 0 100 100;" xml:space="preserve">
<style type="text/css">
	.st0{fill:#FFFFFF;}
</style>
<g id="XMLID_4109_">
	<g id="XMLID_4146_">
		<path id="XMLID_4147_" class="st0" d="M27.2,63.5H13.9v-3h11c-1.4-3.3-2.1-6.8-2.1-10.4c0-0.5,0-1,0.1-1.5h-9
			c-3.3,0-5.9,2.7-5.9,5.9v3h-3v-3c0-4.9,4-8.9,8.9-8.9h10.6c0.4,0,0.8,0.2,1.1,0.5c0.3,0.3,0.4,0.7,0.4,1.2c-0.1,1.1-0.2,2-0.2,2.8
			c0,3.9,1,7.8,2.8,11.2c0.2,0.5,0.2,1,0,1.5C28.2,63.2,27.8,63.5,27.2,63.5z"/>
	</g>
	<g id="XMLID_4142_">
		<path id="XMLID_4143_" class="st0" d="M39.1,90.3c-0.2,0-0.4,0-0.6-0.1c-0.5-0.2-0.9-0.8-0.9-1.4v-4.5H15.3
			c-5.7,0-10.4-4.7-10.4-10.4V57.6c0-0.8,0.7-1.5,1.5-1.5s1.5,0.7,1.5,1.5c0,2.7,1.2,5.3,3.4,7c0.3,0.2,0.6,0.4,0.9,0.6
			c0.2,0.1,0.5,0.3,0.8,0.4c1.2,0.6,2.5,0.9,3.8,0.9h20.8V62c0-0.6,0.3-1.1,0.9-1.4c0.5-0.2,1.2-0.1,1.6,0.3L55,74.3
			c0.3,0.3,0.5,0.7,0.5,1.1c0,0.4-0.2,0.8-0.5,1.1L40.1,89.9C39.8,90.1,39.5,90.3,39.1,90.3z M7.9,65.4v8.5c0,4.1,3.3,7.4,7.4,7.4
			h23.8c0.8,0,1.5,0.7,1.5,1.5v2.6l11.2-10l-11.2-10V68c0,0.8-0.7,1.5-1.5,1.5H16.8c-1.7,0-3.5-0.4-5.1-1.2c-0.3-0.2-0.7-0.3-1-0.5
			c-0.4-0.3-0.9-0.5-1.2-0.8C8.9,66.4,8.4,65.9,7.9,65.4z"/>
	</g>
	<g id="XMLID_4140_">
		
			<rect id="XMLID_4141_" x="39" y="48.6" transform="matrix(0.7071 -0.7071 0.7071 0.7071 -20.9361 49.7058)" class="st0" width="21" height="3"/>
	</g>
	<g id="XMLID_4136_">
		<path id="XMLID_4137_" class="st0" d="M57,62c-2.5,0-4.5-2-4.5-4.5c0-2.5,2-4.5,4.5-4.5c2.5,0,4.5,2,4.5,4.5
			C61.4,60,59.4,62,57,62z M57,56.1c-0.8,0-1.5,0.7-1.5,1.5c0,0.8,0.7,1.5,1.5,1.5c0.8,0,1.5-0.7,1.5-1.5
			C58.5,56.7,57.8,56.1,57,56.1z"/>
	</g>
	<g id="XMLID_4132_">
		<path id="XMLID_4133_" class="st0" d="M42.1,47.2c-2.5,0-4.5-2-4.5-4.5s2-4.5,4.5-4.5c2.5,0,4.5,2,4.5,4.5S44.6,47.2,42.1,47.2z
			 M42.1,41.2c-0.8,0-1.5,0.7-1.5,1.5s0.7,1.5,1.5,1.5c0.8,0,1.5-0.7,1.5-1.5S42.9,41.2,42.1,41.2z"/>
	</g>
	<g id="XMLID_4128_">
		<path id="XMLID_4129_" class="st0" d="M53.6,76.5c-0.4,0-0.7-0.1-1-0.4l-12-10.8V68c0,0.8-0.7,1.5-1.5,1.5h-7.5
			c-0.4,0-0.8-0.2-1.1-0.4c-5-5.1-7.8-11.8-7.8-18.9c0-13.2,9.4-24.3,22.5-26.4c0.4-0.1,0.9,0.1,1.2,0.4l12,10.8v-2.6
			c0-0.8,0.7-1.5,1.5-1.5h7.5c0.4,0,0.8,0.2,1.1,0.4c5,5.1,7.8,11.8,7.8,18.9c0,13.2-9.4,24.3-22.5,26.4
			C53.8,76.5,53.7,76.5,53.6,76.5z M39.1,60.5c0.4,0,0.7,0.1,1,0.4l13.9,12.5c11.2-2.1,19.3-11.8,19.3-23.3c0-6.1-2.3-11.9-6.5-16.3
			h-5.4v4.5c0,0.6-0.3,1.1-0.9,1.4c-0.5,0.2-1.2,0.1-1.6-0.3L45,26.8C33.8,29,25.8,38.6,25.8,50.1c0,6.1,2.3,11.9,6.5,16.3h5.4V62
			c0-0.6,0.3-1.1,0.9-1.4C38.7,60.6,38.9,60.5,39.1,60.5z"/>
	</g>
	<g id="XMLID_4124_">
		<path id="XMLID_4125_" class="st0" d="M31.6,69.4H16.8c-1.7,0-3.5-0.4-5.1-1.2c-0.3-0.2-0.7-0.3-1-0.5c-0.4-0.3-0.9-0.5-1.2-0.8
			c-0.7-0.5-1.3-1.2-1.9-1.9c-0.5-0.6-0.4-1.5,0.1-2c1.7-1.6,3.9-2.5,6.1-2.5h13.4c0.5,0,1.1,0.3,1.3,0.8c1.1,2.1,2.5,4,4.1,5.6
			c0.4,0.4,0.6,1.1,0.3,1.6C32.8,69.1,32.2,69.4,31.6,69.4z M11,64.3c0.1,0.1,0.2,0.2,0.4,0.3c0.3,0.2,0.6,0.4,0.9,0.6
			c0.2,0.1,0.5,0.3,0.8,0.4c1.2,0.6,2.5,0.9,3.8,0.9h11.5c-0.7-0.9-1.4-1.9-2-3H13.9C12.8,63.5,11.8,63.8,11,64.3z"/>
	</g>
	<g id="XMLID_4122_">
		<path id="XMLID_4123_" class="st0" d="M85.2,54.6H74.6c-0.4,0-0.8-0.2-1.1-0.5c-0.3-0.3-0.4-0.7-0.4-1.2c0.1-1.1,0.2-2,0.2-2.8
			c0-3.9-1-7.8-2.8-11.2c-0.2-0.5-0.2-1,0-1.5c0.3-0.4,0.8-0.7,1.3-0.7h13.4v3h-11c1.4,3.3,2.1,6.8,2.1,10.4c0,0.5,0,1-0.1,1.5h9
			c3.3,0,5.9-2.7,5.9-5.9v-3h3v3C94.1,50.6,90.1,54.6,85.2,54.6z"/>
	</g>
	<g id="XMLID_4114_">
		<path id="XMLID_4117_" class="st0" d="M92.6,44.2c-0.8,0-1.5-0.7-1.5-1.5c0-2.7-1.2-5.3-3.4-7c-0.3-0.2-0.6-0.4-0.9-0.6
			c-0.2-0.1-0.5-0.3-0.8-0.4c-1.2-0.6-2.5-0.9-3.8-0.9H61.4v4.5c0,0.6-0.3,1.1-0.9,1.4c-0.5,0.2-1.2,0.1-1.6-0.3L44.1,26
			c-0.3-0.3-0.5-0.7-0.5-1.1c0-0.4,0.2-0.8,0.5-1.1l14.9-13.4c0.4-0.4,1.1-0.5,1.6-0.3c0.5,0.2,0.9,0.8,0.9,1.4v4.5h22.3
			c5.7,0,10.4,4.7,10.4,10.4v16.3C94.1,43.5,93.5,44.2,92.6,44.2z M47.3,24.9l11.2,10v-2.6c0-0.8,0.7-1.5,1.5-1.5h22.3
			c1.7,0,3.5,0.4,5.1,1.2c0.3,0.2,0.7,0.3,1,0.5c0.4,0.3,0.9,0.5,1.2,0.8c0.6,0.5,1.1,1,1.6,1.5v-8.5c0-4.1-3.3-7.4-7.4-7.4H59.9
			c-0.8,0-1.5-0.7-1.5-1.5v-2.6L47.3,24.9z"/>
	</g>
	<g id="XMLID_4110_">
		<path id="XMLID_4111_" class="st0" d="M85.2,39.7H71.8c-0.5,0-1.1-0.3-1.3-0.8c-1.1-2.1-2.5-4-4.1-5.6c-0.4-0.4-0.6-1.1-0.3-1.6
			c0.2-0.6,0.8-0.9,1.4-0.9h14.8c1.7,0,3.5,0.4,5.1,1.2c0.3,0.2,0.7,0.3,1,0.5c0.4,0.3,0.9,0.5,1.2,0.8c0.7,0.5,1.3,1.2,1.9,1.9
			c0.5,0.6,0.4,1.5-0.1,2C89.7,38.8,87.5,39.7,85.2,39.7z M72.7,36.7h12.5c1,0,2-0.3,2.9-0.8c-0.1-0.1-0.2-0.2-0.4-0.3
			c-0.3-0.2-0.6-0.4-0.9-0.6c-0.2-0.1-0.5-0.3-0.8-0.4c-1.2-0.6-2.5-0.9-3.8-0.9H70.7C71.4,34.7,72.1,35.7,72.7,36.7z"/>
	</g>
</g>
</svg>
