<?xml version="1.0" encoding="utf-8"?>
<!-- Generator: Adobe Illustrator 23.0.6, SVG Export Plug-In . SVG Version: 6.00 Build 0)  -->
<svg version="1.1" id="Layer_1" xmlns="http://www.w3.org/2000/svg" xmlns:xlink="http://www.w3.org/1999/xlink" x="0px" y="0px"
	 viewBox="0 0 100 100" style="enable-background:new 0 0 100 100;" xml:space="preserve">
<style type="text/css">
	.st0{fill:#FFFFFF;}
</style>
<g id="XMLID_2396_">
	<g id="XMLID_2544_">
		<g id="XMLID_2547_">
			<path id="XMLID_2557_" class="st0" d="M83.8,52.9H3.6c-0.9,0-1.6-0.7-1.6-1.6V9.6C2,8.7,2.7,8,3.6,8h80.2c0.9,0,1.6,0.7,1.6,1.6
				v41.7C85.4,52.2,84.7,52.9,83.8,52.9z M5.2,49.7h77V11.2h-77V49.7z"/>
		</g>
	</g>
	<g id="XMLID_2512_">
		<path id="XMLID_2524_" class="st0" d="M3.6,22.4c-0.9,0-1.6-0.7-1.6-1.6V9.6C2,8.7,2.7,8,3.6,8h11.2c0.9,0,1.6,0.7,1.6,1.6
			C16.5,16.7,10.7,22.4,3.6,22.4z M5.2,11.2v7.9c4-0.7,7.2-3.9,7.9-7.9H5.2z"/>
	</g>
	<g id="XMLID_2505_">
		<path id="XMLID_2507_" class="st0" d="M14.8,52.9H3.6c-0.9,0-1.6-0.7-1.6-1.6V40.1c0-0.9,0.7-1.6,1.6-1.6
			c7.1,0,12.8,5.8,12.8,12.8C16.5,52.2,15.7,52.9,14.8,52.9z M5.2,49.7h7.9c-0.7-4-3.9-7.2-7.9-7.9V49.7z"/>
	</g>
	<g id="XMLID_2485_">
		<path id="XMLID_2487_" class="st0" d="M43.7,44.9c-8,0-14.4-6.5-14.4-14.4S35.8,16,43.7,16s14.4,6.5,14.4,14.4
			S51.7,44.9,43.7,44.9z M43.7,19.2c-6.2,0-11.2,5-11.2,11.2s5,11.2,11.2,11.2s11.2-5,11.2-11.2S49.9,19.2,43.7,19.2z"/>
	</g>
	<g id="XMLID_2472_">
		<path id="XMLID_2473_" class="st0" d="M83.8,22.4C76.7,22.4,71,16.7,71,9.6C71,8.7,71.7,8,72.6,8h11.2c0.9,0,1.6,0.7,1.6,1.6v11.2
			C85.4,21.7,84.7,22.4,83.8,22.4z M74.3,11.2c0.7,4,3.9,7.2,7.9,7.9v-7.9H74.3z"/>
	</g>
	<g id="XMLID_2464_">
		<path id="XMLID_2467_" class="st0" d="M83.8,52.9H72.6c-0.9,0-1.6-0.7-1.6-1.6c0-7.1,5.8-12.8,12.8-12.8c0.9,0,1.6,0.7,1.6,1.6
			v11.2C85.4,52.2,84.7,52.9,83.8,52.9z M74.3,49.7h7.9v-7.9C78.2,42.5,75,45.7,74.3,49.7z"/>
	</g>
	<g id="XMLID_2458_">
		<path id="XMLID_2459_" class="st0" d="M82.2,93c-8.8,0-16-7.2-16-16s7.2-16,16-16s16,7.2,16,16S91,93,82.2,93z M82.2,64.1
			c-7.1,0-12.8,5.8-12.8,12.8c0,7.1,5.8,12.8,12.8,12.8C89.3,89.8,95,84,95,77C95,69.9,89.3,64.1,82.2,64.1z"/>
	</g>
	<g id="XMLID_2454_">
		<rect id="XMLID_2457_" x="95" y="35.3" class="st0" width="3.2" height="3.2"/>
	</g>
	<g id="XMLID_2443_">
		<rect id="XMLID_2453_" x="95" y="28.8" class="st0" width="3.2" height="3.2"/>
	</g>
	<g id="XMLID_2435_">
		<rect id="XMLID_2436_" x="95" y="41.7" class="st0" width="3.2" height="3.2"/>
	</g>
	<g id="XMLID_2430_">
		<rect id="XMLID_2434_" x="95" y="54.5" class="st0" width="3.2" height="3.2"/>
	</g>
	<g id="XMLID_2428_">
		<rect id="XMLID_2429_" x="95" y="48.1" class="st0" width="3.2" height="3.2"/>
	</g>
	<g id="XMLID_2426_">
		<rect id="XMLID_2427_" x="95" y="60.9" class="st0" width="3.2" height="3.2"/>
	</g>
	<g id="XMLID_2423_">
		<rect id="XMLID_2424_" x="53.3" y="75.4" class="st0" width="3.2" height="3.2"/>
	</g>
	<g id="XMLID_2421_">
		<rect id="XMLID_2422_" x="59.8" y="75.4" class="st0" width="3.2" height="3.2"/>
	</g>
	<g id="XMLID_2419_">
		<rect id="XMLID_2420_" x="46.9" y="75.4" class="st0" width="3.2" height="3.2"/>
	</g>
	<g id="XMLID_2417_">
		<rect id="XMLID_2418_" x="34.1" y="75.4" class="st0" width="3.2" height="3.2"/>
	</g>
	<g id="XMLID_2415_">
		<rect id="XMLID_2416_" x="40.5" y="75.4" class="st0" width="3.2" height="3.2"/>
	</g>
	<g id="XMLID_2413_">
		<rect id="XMLID_2414_" x="27.7" y="75.4" class="st0" width="3.2" height="3.2"/>
	</g>
	<g id="XMLID_2411_">
		<rect id="XMLID_2412_" x="27.7" y="68.9" class="st0" width="3.2" height="3.2"/>
	</g>
	<g id="XMLID_2409_">
		<rect id="XMLID_2410_" x="27.7" y="62.5" class="st0" width="3.2" height="3.2"/>
	</g>
	<g id="XMLID_2407_">
		<rect id="XMLID_2408_" x="27.7" y="56.1" class="st0" width="3.2" height="3.2"/>
	</g>
	<g id="XMLID_2405_">
		<rect id="XMLID_2406_" x="88.6" y="28.8" class="st0" width="3.2" height="3.2"/>
	</g>
	<g id="XMLID_2403_">
		<rect id="XMLID_2404_" x="74.2" y="72.2" class="st0" width="3.2" height="3.2"/>
	</g>
	<g id="XMLID_2399_">
		<rect id="XMLID_2400_" x="87" y="72.2" class="st0" width="3.2" height="3.2"/>
	</g>
	<g id="XMLID_2397_">
		<path id="XMLID_2398_" class="st0" d="M88.6,83.4h-3.2c0-1.8-1.4-3.2-3.2-3.2c-1.8,0-3.2,1.4-3.2,3.2h-3.2c0-3.5,2.9-6.4,6.4-6.4
			C85.7,77,88.6,79.8,88.6,83.4z"/>
	</g>
</g>
</svg>
