<?xml version="1.0" encoding="utf-8"?>
<!-- Generator: Adobe Illustrator 23.0.6, SVG Export Plug-In . SVG Version: 6.00 Build 0)  -->
<svg version="1.1" id="Layer_1" xmlns="http://www.w3.org/2000/svg" xmlns:xlink="http://www.w3.org/1999/xlink" x="0px" y="0px"
	 viewBox="0 0 100 100" style="enable-background:new 0 0 100 100;" xml:space="preserve">
<style type="text/css">
	.st0{fill:#FFFFFF;}
</style>
<g id="XMLID_4994_">
	<g id="XMLID_5010_">
		<g id="XMLID_5011_">
			<path id="XMLID_5012_" class="st0" d="M88.6,45.7l-2.3-9.4c0.6-0.1,1.1-0.7,1.1-1.4v-1.5c0-3.3-2.7-6-6-6H70.7v-3.1
				c0-1.6-1.3-2.9-2.9-2.9H13.3c-1.6,0-2.9,1.3-2.9,2.9v25.7c0,0.8,0.6,1.4,1.4,1.4c0.8,0,1.4-0.6,1.4-1.4V24.3c0-0.1,0-0.1,0.1-0.1
				h54.5c0.1,0,0.1,0,0.1,0.1v25.7c0,0.8,0.6,1.4,1.4,1.4c0.8,0,1.4-0.6,1.4-1.4v-1.6h16.7c0,0,0,0,0,0c0,0,0,0,0,0
				c2.1,0,3.8,1.4,4.4,3.2h-4.4c-0.8,0-1.4,0.6-1.4,1.4v3c0,2.5,2,4.4,4.4,4.4h1.6v6.2h-3.7c-1.2-3.5-4.6-6.1-8.5-6.1
				c-3.9,0-7.3,2.5-8.5,6.1h-0.7V56.1c0-0.8-0.6-1.4-1.4-1.4c-0.8,0-1.4,0.6-1.4,1.4v10.7H38.5c-1.2-3.5-4.6-6.1-8.5-6.1
				s-7.3,2.5-8.5,6.1h-8.2c-0.1,0-0.1,0-0.1-0.1v-3.1h6.1c0.8,0,1.4-0.6,1.4-1.4s-0.6-1.4-1.4-1.4H5.8c-0.8,0-1.4,0.6-1.4,1.4
				s0.6,1.4,1.4,1.4h4.6v3.1c0,1.6,1.3,2.9,2.9,2.9H21c0,0,0,0.1,0,0.1c0,5,4,9,9,9s9-4,9-9c0,0,0-0.1,0-0.1h32c0,0,0,0.1,0,0.1
				c0,5,4,9,9,9s9-4,9-9c0,0,0-0.1,0-0.1h4.6c0.8,0,1.4-0.6,1.4-1.4V53.1C95,49.4,92.2,46.3,88.6,45.7z M70.7,30.3h10.7
				c1.7,0,3.1,1.4,3.1,3.1v0.1H70.7V30.3z M70.7,45.6v-9.3h12.6l2.3,9.3L70.7,45.6L70.7,45.6z M30,75.9c-3.4,0-6.1-2.8-6.1-6.1
				c0-3.4,2.8-6.1,6.1-6.1s6.1,2.8,6.1,6.1C36.1,73.1,33.4,75.9,30,75.9z M79.9,75.9c-3.4,0-6.1-2.8-6.1-6.1c0-3.4,2.8-6.1,6.1-6.1
				s6.1,2.8,6.1,6.1C86.1,73.1,83.3,75.9,79.9,75.9z M92.1,57.7h-1.6c-0.9,0-1.6-0.7-1.6-1.6v-1.6h3.2L92.1,57.7L92.1,57.7z"/>
		</g>
	</g>
	<g id="XMLID_5007_">
		<g id="XMLID_5008_">
			<path id="XMLID_5009_" class="st0" d="M30,66.8c-1.6,0-2.9,1.3-2.9,2.9c0,1.6,1.3,2.9,2.9,2.9s2.9-1.3,2.9-2.9
				C32.9,68.1,31.6,66.8,30,66.8z"/>
		</g>
	</g>
	<g id="XMLID_5004_">
		<g id="XMLID_5005_">
			<path id="XMLID_5006_" class="st0" d="M79.9,66.8c-1.6,0-2.9,1.3-2.9,2.9c0,1.6,1.3,2.9,2.9,2.9s2.9-1.3,2.9-2.9
				C82.8,68.1,81.5,66.8,79.9,66.8z"/>
		</g>
	</g>
	<g id="XMLID_5001_">
		<g id="XMLID_5002_">
			<path id="XMLID_5003_" class="st0" d="M63.3,60.8H42.1c-0.8,0-1.4,0.6-1.4,1.4s0.6,1.4,1.4,1.4h21.2c0.8,0,1.4-0.6,1.4-1.4
				S64.1,60.8,63.3,60.8z"/>
		</g>
	</g>
	<g id="XMLID_4998_">
		<g id="XMLID_4999_">
			<path id="XMLID_5000_" class="st0" d="M26.9,54.7H8.8c-0.8,0-1.4,0.6-1.4,1.4s0.6,1.4,1.4,1.4h18.2c0.8,0,1.4-0.6,1.4-1.4
				S27.7,54.7,26.9,54.7z"/>
		</g>
	</g>
	<g id="XMLID_4995_">
		<g id="XMLID_4996_">
			<path id="XMLID_4997_" class="st0" d="M53.7,35.5c-0.6-0.6-1.5-0.6-2,0L39.1,48.1l-6.6-6.6c-0.6-0.6-1.5-0.6-2,0
				c-0.6,0.6-0.6,1.5,0,2l7.6,7.6c0.3,0.3,0.6,0.4,1,0.4s0.7-0.1,1-0.4l13.6-13.6C54.2,36.9,54.2,36,53.7,35.5z"/>
		</g>
	</g>
</g>
</svg>
