<?xml version="1.0" encoding="utf-8"?>
<!-- Generator: Adobe Illustrator 23.0.6, SVG Export Plug-In . SVG Version: 6.00 Build 0)  -->
<svg version="1.1" id="Layer_1" xmlns="http://www.w3.org/2000/svg" xmlns:xlink="http://www.w3.org/1999/xlink" x="0px" y="0px"
	 viewBox="0 0 100 100" style="enable-background:new 0 0 100 100;" xml:space="preserve">
<style type="text/css">
	.st0{fill:#FFFFFF;}
</style>
<g id="XMLID_4987_">
	<path id="XMLID_4991_" class="st0" d="M90,43.1c0,4.1,0,8.2,0,12.2c-0.4,0.8-1,1.1-1.8,1.2c-2.8,0.4-5.6,0.9-8.3,1.4
		c-0.5,0.1-0.8,0.3-1,0.8c-0.6,1.7-1.3,3.4-2.1,5c-0.2,0.5-0.2,0.7,0.1,1.1c1.7,2.3,3.3,4.7,5,7c0.8,1.2,0.8,1.8-0.3,2.8
		c-2.4,2.4-4.9,4.9-7.3,7.3c-1.1,1.1-1.6,1.1-2.9,0.2c-2.3-1.7-4.6-3.3-6.9-5c-0.4-0.3-0.7-0.3-1.1-0.1c-1.7,0.7-3.3,1.5-5,2.1
		c-0.5,0.2-0.7,0.5-0.8,1c-0.4,2.8-0.9,5.5-1.4,8.3c-0.1,0.8-0.5,1.5-1.2,1.8c-4.1,0-8.2,0-12.2,0c-0.8-0.4-1.1-1-1.2-1.8
		c-0.4-2.8-0.9-5.5-1.3-8.3c-0.1-0.6-0.3-0.9-0.9-1.1c-1.7-0.6-3.3-1.3-5-2.1c-0.5-0.2-0.7-0.2-1.1,0.1c-2.3,1.7-4.7,3.4-7,5
		c-1.2,0.8-1.8,0.8-2.8-0.3c-2.4-2.4-4.9-4.9-7.3-7.3c-1-1-1.1-1.6-0.3-2.8c1.7-2.3,3.3-4.7,5-7c0.3-0.4,0.3-0.7,0.1-1.1
		c-0.7-1.7-1.5-3.3-2.1-5c-0.2-0.5-0.5-0.7-1-0.8c-2.8-0.4-5.6-1-8.4-1.4C8.5,56.4,8,56,7.6,55.3c0-4.1,0-8.2,0-12.2
		C8,42.4,8.5,42,9.3,41.9c2.8-0.4,5.6-0.9,8.4-1.4c0.5-0.1,0.8-0.3,1-0.8c0.6-1.7,1.3-3.4,2.1-5c0.2-0.5,0.2-0.7-0.1-1.1
		c-1.7-2.3-3.3-4.7-5-7c-0.8-1.2-0.8-1.8,0.2-2.7c2.5-2.5,4.9-4.9,7.4-7.4c1-1,1.6-1,2.7-0.2c2.4,1.7,4.7,3.4,7.1,5.1
		c0.4,0.3,0.7,0.3,1.1,0.1c1.7-0.7,3.3-1.4,5-2.1c0.5-0.2,0.7-0.5,0.8-1c0.4-2.8,0.9-5.5,1.4-8.3C41.6,9,41.9,8.4,42.7,8
		c4.1,0,8.2,0,12.2,0c0.8,0.4,1.1,1,1.2,1.8c0.4,2.8,0.9,5.6,1.4,8.3c0.1,0.5,0.3,0.8,0.8,1c1.7,0.6,3.4,1.4,5,2.1
		c0.5,0.2,0.7,0.2,1.1-0.1c2.3-1.7,4.6-3.3,6.9-4.9c1.3-1,1.9-0.9,3,0.2c2.4,2.4,4.8,4.8,7.2,7.2c1.1,1.1,1.2,1.7,0.3,2.9
		c-1.7,2.3-3.3,4.6-5,6.9c-0.3,0.4-0.3,0.7-0.1,1.1c0.7,1.7,1.5,3.3,2.1,5c0.2,0.5,0.5,0.7,1,0.8c2.8,0.4,5.5,0.9,8.3,1.4
		C89,42,89.6,42.3,90,43.1z M72.6,19.4c-0.2,0.1-0.4,0.2-0.5,0.4c-2.3,1.6-4.5,3.2-6.8,4.9c-0.7,0.5-1.4,0.6-2.2,0.2
		c-2.3-1.3-4.6-2.3-7.2-3c-0.7-0.2-1.2-0.7-1.3-1.5c-0.2-1-0.3-2-0.5-2.9c-0.3-2.1-0.7-4.1-1-6.1c-2.9,0-5.7,0-8.6,0
		c-0.5,3-1,5.9-1.5,8.9c-0.1,0.9-0.6,1.5-1.5,1.7c-2.4,0.6-4.7,1.6-6.9,2.9c-0.8,0.5-1.5,0.4-2.3-0.1c-1.2-0.9-2.4-1.7-3.6-2.6
		c-1.2-0.9-2.5-1.8-3.6-2.6c-2.1,2.1-4.1,4.1-6.1,6.1c1.7,2.3,3.4,4.8,5.2,7.2c0.5,0.7,0.6,1.4,0.1,2.2c-1.3,2.2-2.3,4.6-2.9,7.1
		c-0.2,0.8-0.7,1.2-1.5,1.4c-0.3,0-0.7,0.1-1,0.2c-2.7,0.4-5.3,0.9-8,1.3c0,2.9,0,5.7,0,8.6c3,0.5,5.9,1,8.8,1.5
		c1,0.2,1.4,0.7,1.8,1.6c0.8,2.3,1.7,4.5,2.8,6.7c0.5,1,0.5,1.8-0.2,2.7c-1.6,2.1-3.1,4.3-4.6,6.5c-0.2,0.2-0.3,0.5-0.5,0.7
		c1.9,1.9,3.7,3.7,5.5,5.5c0.4,0.5,0.7,0.4,1.2,0.1c2.3-1.6,4.5-3.2,6.8-4.9c0.7-0.5,1.3-0.6,2-0.2c2.3,1.3,4.7,2.3,7.3,3
		c0.8,0.2,1.2,0.7,1.3,1.5c0.2,1.3,0.4,2.6,0.7,4c0.3,1.7,0.6,3.4,0.8,5c2.9,0,5.7,0,8.6,0c0.5-3,1-6,1.5-8.9
		c0.1-0.9,0.6-1.4,1.4-1.6c2.5-0.6,4.8-1.6,7-2.9c0.8-0.5,1.6-0.4,2.3,0.1c0.8,0.6,1.7,1.2,2.5,1.8c1.6,1.1,3.2,2.3,4.7,3.4
		c2.1-2.1,4.1-4.1,6.1-6.1c-0.1-0.1-0.2-0.4-0.4-0.6c-1.6-2.2-3.2-4.5-4.8-6.7c-0.5-0.6-0.6-1.3-0.2-2c1.3-2.3,2.4-4.7,3-7.3
		c0.2-0.7,0.7-1.1,1.4-1.3c0.4-0.1,0.7-0.1,1.1-0.2c2.7-0.4,5.3-0.9,8-1.3c0-2.9,0-5.7,0-8.6c-3-0.5-5.9-1-8.9-1.5
		c-0.9-0.1-1.4-0.6-1.7-1.5c-0.6-2.4-1.6-4.7-2.9-6.9c-0.5-0.8-0.4-1.6,0.1-2.4c1.6-2.2,3.2-4.4,4.8-6.7c0.2-0.2,0.3-0.4,0.4-0.6
		C76.6,23.4,74.6,21.4,72.6,19.4z"/>
	<path id="XMLID_4990_" class="st0" d="M26.9,50.3c0-13.6,10.5-23.6,23-23c10.7,0.5,19.6,9,20.6,19.7c0.9,9.6-4.4,18.6-13.3,22.4
		c-0.2,0.1-0.4,0.2-0.6,0.2c-1,0.4-1.9,0-2.2-0.8c-0.4-0.9,0.1-1.7,1.1-2.2c1.1-0.5,2.3-1,3.4-1.7c6.5-4.2,9.7-11.8,8.3-19.4
		C65.6,38,59.6,32.2,52,30.8C41.5,29,31.4,36.5,30.2,47.1c-0.9,8.4,3.7,16.2,11.5,19.4c0.2,0.1,0.4,0.2,0.6,0.3
		c0.8,0.4,1.1,1.3,0.8,2.1c-0.3,0.8-1.2,1.2-2,0.9c-2.2-0.8-4.2-1.9-6-3.4C29.8,61.9,27.1,56.2,26.9,50.3z"/>
	<path id="XMLID_4989_" class="st0" d="M47.2,44.4c0-1.5,0-3.1,0-4.6c0-1.1,0.6-1.8,1.6-1.8c1,0,1.6,0.7,1.6,1.9c0,2.7,0,5.3,0,8
		c0,0.5,0.1,0.9,0.5,1.3c1.9,1.9,3.8,3.8,5.8,5.7c0.3,0.3,0.5,0.5,0.7,0.8c0.4,0.6,0.3,1.5-0.3,2c-0.5,0.5-1.3,0.6-1.9,0.2
		c-0.2-0.2-0.5-0.4-0.7-0.6c-2.2-2.2-4.4-4.4-6.5-6.5c-0.6-0.6-0.9-1.2-0.8-2C47.2,47.3,47.2,45.8,47.2,44.4z"/>
	<path id="XMLID_4988_" class="st0" d="M48.8,71.1c-0.9,0-1.6-0.7-1.6-1.6c0-0.9,0.7-1.6,1.6-1.6c0.9,0,1.6,0.7,1.6,1.6
		C50.4,70.4,49.7,71.1,48.8,71.1z"/>
</g>
</svg>
