<?xml version="1.0" encoding="utf-8"?>
<!-- Generator: Adobe Illustrator 23.0.6, SVG Export Plug-In . SVG Version: 6.00 Build 0)  -->
<svg version="1.1" id="Layer_1" xmlns="http://www.w3.org/2000/svg" xmlns:xlink="http://www.w3.org/1999/xlink" x="0px" y="0px"
	 viewBox="0 0 200 200" style="enable-background:new 0 0 200 200;" xml:space="preserve">
<style type="text/css">
	.st0{fill:#FFFFFF;}
	.st1{fill:#2B318B;}
	.st2{font-family:'Gilroy-Regular';}
	.st3{font-size:21.4553px;}
</style>
<path id="XMLID_4713_" class="st0" d="M101.6,21.3c52.7,0,95.4,36.7,95.4,81.8c0,45.2-42.7,81.9-95.4,81.9
	c-52.7-0.1-95.4-36.7-95.4-81.9C6.2,57.9,48.9,21.3,101.6,21.3"/>
<text id="XMLID_4709_" transform="matrix(1 0 0 1 25.418 128.3838)"><tspan x="0" y="0" class="st1 st2 st3">Ordenamiento </tspan><tspan x="-0.1" y="18.6" class="st1 st2 st3">de productos y</tspan><tspan x="33" y="37.2" class="st1 st2 st3">servicios</tspan></text>
<g id="XMLID_4554_">
	<path id="XMLID_287_" class="st1" d="M143.6,95.9l0-10l-3.8-1c0-0.1-0.1-0.1-0.1-0.2l2-3.4l-7.1-7.1l-3.4,2c-0.1,0-0.1-0.1-0.2-0.1
		l-1-3.8l-10,0l-1,3.8c-0.1,0-0.1,0.1-0.2,0.1l-3.4-2l-7.1,7.1l2,3.4c0,0.1-0.1,0.1-0.1,0.2l-3.8,1l0,10l3.8,1
		c0,0.1,0.1,0.1,0.1,0.2l-2,3.4l7.1,7.1l3.4-2c0.1,0,0.1,0.1,0.2,0.1l1,3.8l10,0l1-3.8c0.1,0,0.1-0.1,0.2-0.1l3.4,2l7.1-7.1l-2-3.4
		c0-0.1,0.1-0.1,0.1-0.2L143.6,95.9z M138.4,100.1l-4.2,4.2l-2.8-1.7l-0.6,0.3c-0.4,0.2-0.8,0.4-1.3,0.5l-0.7,0.2l-0.8,3.2l-5.9,0
		l-0.8-3.2l-0.7-0.2c-0.4-0.2-0.9-0.3-1.3-0.5l-0.6-0.3l-2.8,1.7l-4.2-4.2l1.7-2.8l-0.3-0.6c-0.2-0.4-0.4-0.8-0.5-1.3l-0.2-0.7
		l-3.2-0.8l0-5.9l3.2-0.8l0.2-0.7c0.2-0.4,0.3-0.9,0.5-1.3l0.3-0.6l-1.7-2.8l4.2-4.2l2.8,1.7l0.6-0.3c0.4-0.2,0.8-0.4,1.3-0.5
		l0.7-0.2l0.8-3.2l5.9,0l0.8,3.2l0.7,0.2c0.4,0.2,0.9,0.3,1.3,0.5l0.6,0.3l2.8-1.7l4.2,4.2l-1.7,2.8l0.3,0.6
		c0.2,0.4,0.4,0.8,0.5,1.3l0.2,0.7l3.2,0.8l0,5.9l-3.2,0.8l-0.2,0.7c-0.2,0.4-0.3,0.9-0.5,1.3l-0.3,0.6L138.4,100.1z"/>
	<path id="XMLID_282_" class="st1" d="M125.1,80.3c-5.9,0-10.6,4.8-10.6,10.6c0,5.9,4.8,10.6,10.6,10.6c5.9,0,10.6-4.8,10.6-10.6
		C135.7,85,130.9,80.3,125.1,80.3z M125.1,98.9c-4.4,0-8-3.6-8-8c0-4.4,3.6-8,8-8c4.4,0,8,3.6,8,8C133,95.3,129.4,98.9,125.1,98.9z"
		/>
	<path id="XMLID_147_" class="st1" d="M125.1,85.6c-2.9,0-5.3,2.4-5.3,5.3c0,2.9,2.4,5.3,5.3,5.3s5.3-2.4,5.3-5.3
		C130.4,88,128,85.6,125.1,85.6z M125.1,93.5c-1.5,0-2.7-1.2-2.7-2.7c0-1.5,1.2-2.7,2.7-2.7c1.5,0,2.7,1.2,2.7,2.7
		C127.7,92.4,126.5,93.5,125.1,93.5z"/>
	<path id="XMLID_144_" class="st1" d="M95,49.7c0.4,1.3,1.2,2.5,2.2,3.4l0,1.1l-6.3,2.4c-2.6,1-4.3,3.5-4.3,6.2l0,6.9l31.8,0l0-6.9
		c0-2.8-1.7-5.2-4.3-6.2l-6.3-2.4l0-1.1c1-0.9,1.8-2,2.2-3.4c2.5-0.4,4.4-2.6,4.4-5.2l0-5.3c0-6.6-5.4-11.9-11.9-11.9
		c-6.6,0-11.9,5.4-11.9,11.9l0,5.3C90.6,47.1,92.5,49.2,95,49.7z M105.2,54.7l-2.7,4.4l-2.7-4.4v-0.1c0.8,0.3,1.7,0.5,2.7,0.5
		C103.4,55.1,104.3,54.9,105.2,54.7L105.2,54.7z M97.9,56.7l2.7,4.5L98,62.5l-1.7-5.1L97.9,56.7z M115.8,62.7l0,4.3l-26.5,0l0-4.3
		c0-1.7,1-3.1,2.6-3.7l2-0.7l2.7,8l6.1-3l6.1,3l2.7-8l2,0.7C114.7,59.6,115.8,61.1,115.8,62.7z M108.7,57.3l-1.7,5.1l-2.7-1.3
		l2.7-4.5L108.7,57.3z M102.5,52.4c-2.9,0-5.3-2.4-5.3-5.3l0-5.4c1.9-0.2,3.8-0.9,5.3-2.1c1.5,1.2,3.4,1.9,5.3,2.1l0,5.4
		C107.8,50,105.4,52.4,102.5,52.4z M110.5,46.7l0-4.6c0.8,0.5,1.3,1.3,1.3,2.3C111.8,45.4,111.2,46.3,110.5,46.7z M102.5,29.9
		c5.1,0,9.3,4.2,9.3,9.3l0,0.7c-0.8-0.5-1.7-0.7-2.7-0.7l-0.2,0c-2.1,0-4-0.8-5.5-2.3l-0.9-0.9l-0.9,0.9c-1.5,1.5-3.4,2.3-5.5,2.3
		l-0.2,0c-1,0-1.9,0.3-2.7,0.7l0-0.7C93.2,34,97.4,29.9,102.5,29.9z M94.5,42.2l0,4.6c-0.8-0.5-1.3-1.3-1.3-2.3
		C93.2,43.5,93.7,42.6,94.5,42.2z"/>
	<path id="XMLID_102_" class="st1" d="M61.4,109.5l26.5,0l0-34.5l-26.5,0L61.4,109.5z M64,77.6l21.2,0l0,29.2l-21.2,0L64,77.6z"/>
	<path id="XMLID_4569_" class="st1" d="M66.7,80.3l15.9,0l0,2.7l-15.9,0L66.7,80.3z"/>
	<path id="XMLID_4568_" class="st1" d="M66.7,85.6l2.7,0l0,2.7l-2.7,0L66.7,85.6z"/>
	<path id="XMLID_4566_" class="st1" d="M72,85.6l10.6,0l0,2.7l-10.6,0L72,85.6z"/>
	<path id="XMLID_4565_" class="st1" d="M66.7,90.9l15.9,0l0,2.7l-15.9,0L66.7,90.9z"/>
	<path id="XMLID_4564_" class="st1" d="M66.7,96.2l15.9,0l0,2.7l-15.9,0L66.7,96.2z"/>
	<path id="XMLID_4563_" class="st1" d="M79.9,101.5l2.7,0l0,2.7l-2.7,0L79.9,101.5z"/>
	<path id="XMLID_4562_" class="st1" d="M66.7,101.5l10.6,0l0,2.7l-10.6,0L66.7,101.5z"/>
	<path id="XMLID_4561_" class="st1" d="M96.8,86.5l-1.9-1.9l-6.2,6.2l6.2,6.2l1.9-1.9l-3-3l10.1,0l0-2.7l-10.1,0L96.8,86.5z"/>
	<path id="XMLID_4560_" class="st1" d="M76,48.4c0-0.7,0.6-1.3,1.3-1.3l6.1,0l-3,3l1.9,1.9l6.2-6.2l-6.2-6.2l-1.9,1.9l3,3l-6.1,0
		c-2.2,0-4,1.8-4,4l0,23.9l2.7,0L76,48.4z"/>
	<path id="XMLID_4559_" class="st1" d="M125.1,48.4l0,16.7l-3-3l-1.9,1.9l6.2,6.2l6.2-6.2l-1.9-1.9l-3,3l0-16.7c0-2.2-1.8-4-4-4
		l-6.6,0l0,2.7l6.6,0C124.5,47.1,125.1,47.7,125.1,48.4z"/>
</g>
</svg>
