<?xml version="1.0" encoding="utf-8"?>
<!-- Generator: Adobe Illustrator 23.0.6, SVG Export Plug-In . SVG Version: 6.00 Build 0)  -->
<svg version="1.1" id="Layer_1" xmlns="http://www.w3.org/2000/svg" xmlns:xlink="http://www.w3.org/1999/xlink" x="0px" y="0px"
	 viewBox="0 0 200 200" style="enable-background:new 0 0 200 200;" xml:space="preserve">
<style type="text/css">
	.st0{fill:#FFFFFF;}
	.st1{font-family:'Gilroy-Regular';}
	.st2{font-size:17.8137px;}
	.st3{fill:none;stroke:#FFFFFF;stroke-miterlimit:10;}
</style>
<g id="XMLID_2985_">
	<text transform="matrix(1 0 0 1 69.0283 97.1465)"><tspan x="0" y="0" class="st0 st1 st2">Gastos</tspan><tspan x="-35.2" y="15.4" class="st0 st1 st2"> administrativos</tspan></text>
</g>
<g id="XMLID_2932_">
	<g id="XMLID_2938_">
		<polygon id="Arrow_76_" class="st0" points="124.8,194 132.8,180.6 124.6,183.9 116.2,180.9 		"/>
		<polygon id="Arrow_75_" class="st0" points="124.8,150.5 116.8,163.9 125,160.6 133.4,163.6 		"/>
	</g>
	<line id="XMLID_2937_" class="st3" x1="124.3" y1="183.6" x2="125.1" y2="159.9"/>
</g>
<g id="XMLID_3517_">
	<path id="XMLID_4627_" class="st0" d="M82.4,41.4c9.1,0,16.4-7.4,16.4-16.4S91.5,8.6,82.4,8.6S66,15.9,66,25
		C66,34.1,73.4,41.4,82.4,41.4z M82.4,11.1c7.7,0,13.9,6.2,13.9,13.9s-6.2,13.9-13.9,13.9S68.5,32.7,68.5,25
		C68.5,17.3,74.8,11.1,82.4,11.1z"/>
	<path id="XMLID_3942_" class="st0" d="M82.4,32.1c-1.5,0-2.7-1.2-2.7-2.7c0-0.7-0.6-1.3-1.3-1.3c-0.7,0-1.3,0.6-1.3,1.3
		c0,2.4,1.7,4.5,4,5v1.1c0,0.7,0.6,1.3,1.3,1.3s1.3-0.6,1.3-1.3v-1.2c2.5-0.7,4.1-3.1,3.8-5.7c-0.3-2.6-2.5-4.5-5.1-4.5
		c-1.5,0-2.7-1.2-2.7-2.7s1.2-2.7,2.7-2.7c1.5,0,2.7,1.2,2.7,2.7c0,0.7,0.6,1.3,1.3,1.3c0.7,0,1.3-0.6,1.3-1.3c0-2.3-1.6-4.4-3.8-5
		v-1.2c0-0.7-0.6-1.3-1.3-1.3s-1.3,0.6-1.3,1.3v1.2c-2.6,0.6-4.3,3-4,5.6c0.3,2.6,2.5,4.6,5.1,4.6c1.5,0,2.6,1.2,2.6,2.7
		C85.1,30.9,83.9,32.1,82.4,32.1z"/>
	<path id="XMLID_4616_" class="st0" d="M118.2,40.8c-0.5-0.4-1.2-0.4-1.6,0L98,56.8c-0.4,0.3-0.5,0.9-0.4,1.4
		c0.2,0.5,0.7,0.8,1.2,0.8h3v19.1c0,0.3,0.1,0.6,0.3,0.9c0.2,0.2,0.5,0.4,0.9,0.4l28.2,0.3h0c0.3,0,0.6-0.1,0.9-0.4
		c0.2-0.2,0.4-0.6,0.3-0.9V59h3.3c0.5,0,1-0.3,1.2-0.8c0.2-0.5,0-1-0.4-1.4L118.2,40.8z M117.4,43.4l15.1,13.1h-30.2L117.4,43.4z
		 M120.9,77l-6.9-0.1v-7.7h6.9V77z M130,77.1l-6.6-0.1v-9.1c0-0.7-0.6-1.2-1.3-1.2h-9.3c-0.7,0-1.3,0.5-1.3,1.2v9l-7.1-0.1V59H130
		V77.1z"/>
	<path id="XMLID_4611_" class="st0" d="M115.2,7.1c-0.5-0.2-1-0.1-1.4,0.3l-10.5,10.4c-0.5,0.5-0.5,1.3,0,1.8l10.5,10.5
		c0.4,0.4,0.9,0.5,1.4,0.3c0.5-0.2,0.8-0.7,0.8-1.2V24c2.4-0.1,7,0.7,10.7,6.8l0.6,1.1c0.3,0.5,0.8,0.7,1.3,0.6c0.5-0.1,0.9-0.5,1-1
		l0.2-1.2c0,0,0,0,0-0.1c0.2-1.4,0.9-8.7-5.5-14c-0.2-0.2-1-0.9-2.5-1.5c-1.7-0.8-3.7-1.2-5.9-1.3v-5C116,7.8,115.7,7.3,115.2,7.1z
		 M122.7,18C122.7,18,122.7,18.1,122.7,18c3.7,3.1,4.6,7,4.8,9.4c-2-2.6-4.3-4.3-7-5.3c-1.4-0.5-2.8-0.7-4.2-0.7
		c-0.6,0-1.1,0-1.7,0.1c-0.6,0.1-1.1,0.6-1.1,1.2v3.3l-7.4-7.5l7.4-7.4v3.2c0,0.7,0.6,1.3,1.3,1.3h0.2
		C120.2,15.8,122.6,17.9,122.7,18z"/>
	<path id="XMLID_4570_" class="st0" d="M86.1,54.9c-0.4-0.4-0.9-0.5-1.4-0.3c-0.5,0.2-0.8,0.7-0.8,1.2V61c-2.4,0.1-7-0.7-10.7-6.8
		l-0.6-1.1c-0.3-0.4-0.8-0.7-1.3-0.6c-0.5,0.1-0.9,0.5-1,1l-0.2,1.2c0,0,0,0,0,0.1c-0.2,1.4-0.9,8.7,5.5,14c0.2,0.2,1,0.9,2.5,1.5
		c1.7,0.8,3.7,1.2,5.9,1.3v5c0,0.5,0.3,1,0.8,1.2C84.8,78,85,78,85.2,78c0.3,0,0.6-0.1,0.9-0.4l10.5-10.4c0.5-0.5,0.5-1.3,0-1.8
		L86.1,54.9z M86.4,73.7v-3.2c0-0.7-0.6-1.3-1.3-1.3H85c-5.2,0-7.7-2.1-7.8-2.2c0,0,0,0-0.1-0.1c-3.7-3-4.5-6.9-4.7-9.4
		c2,2.6,4.3,4.3,7,5.3c1.9,0.7,3.9,0.9,5.9,0.6c0.6-0.1,1.1-0.6,1.1-1.2v-3.3l7.4,7.5L86.4,73.7z"/>
</g>
</svg>
