<?xml version="1.0" encoding="utf-8"?>
<!-- Generator: Adobe Illustrator 23.0.6, SVG Export Plug-In . SVG Version: 6.00 Build 0)  -->
<svg version="1.1" id="Layer_1" xmlns="http://www.w3.org/2000/svg" xmlns:xlink="http://www.w3.org/1999/xlink" x="0px" y="0px"
	 viewBox="0 0 200 200" style="enable-background:new 0 0 200 200;" xml:space="preserve">
<style type="text/css">
	.st0{fill:#FFFFFF;}
	.st1{fill:#2B318B;}
</style>
<g>
	<path id="XMLID_4815_" class="st0" d="M100.6,17c52.7,0,95.4,36.7,95.4,81.8c0,45.2-42.7,81.9-95.4,81.9
		C47.9,180.6,5.2,144,5.2,98.8C5.2,53.6,47.9,17,100.6,17"/>
	<g>
		<path class="st1" d="M44.7,134.8c-1.4,0-2.5-0.3-3.5-1c-1-0.7-1.7-1.5-2-2.7l1.3-0.8c0.3,0.9,0.8,1.7,1.5,2.2s1.7,0.8,2.8,0.8
			c1.1,0,2-0.2,2.6-0.7c0.6-0.5,0.9-1.1,0.9-2c0-0.8-0.3-1.4-0.9-1.8c-0.6-0.4-1.5-0.8-2.8-1.2c-1.6-0.5-2.6-0.9-3.1-1.2
			c-1.1-0.7-1.7-1.7-1.7-3c0-1.3,0.4-2.3,1.3-3c0.9-0.7,2-1.1,3.3-1.1c1.2,0,2.2,0.3,3,0.9c0.9,0.6,1.5,1.4,1.9,2.3l-1.3,0.7
			c-0.7-1.7-1.9-2.5-3.7-2.5c-0.9,0-1.7,0.2-2.3,0.7c-0.6,0.5-0.9,1.1-0.9,1.9c0,0.7,0.3,1.3,0.8,1.7c0.5,0.4,1.4,0.8,2.6,1.1
			c0.5,0.2,0.9,0.3,1.2,0.4c0.2,0.1,0.6,0.2,1,0.4c0.5,0.2,0.8,0.3,1,0.5c0.2,0.1,0.5,0.3,0.8,0.6s0.5,0.5,0.7,0.7
			c0.1,0.2,0.3,0.5,0.4,0.9c0.1,0.3,0.2,0.7,0.2,1.1c0,1.3-0.5,2.3-1.4,3.1C47.5,134.4,46.3,134.8,44.7,134.8z"/>
		<path class="st1" d="M57.3,123.6c1.6,0,2.9,0.6,3.9,1.7c1,1.1,1.5,2.4,1.5,4c0,0.2,0,0.4,0,0.7h-9.4c0.1,1.1,0.6,1.9,1.4,2.6
			c0.8,0.6,1.7,1,2.9,1c0.8,0,1.5-0.2,2.1-0.5c0.6-0.3,1-0.8,1.3-1.3l1.2,0.7c-0.5,0.8-1.1,1.4-1.9,1.8c-0.8,0.4-1.7,0.7-2.8,0.7
			c-1.7,0-3.1-0.5-4.1-1.6s-1.6-2.4-1.6-4c0-1.6,0.5-2.9,1.6-4S55.7,123.6,57.3,123.6z M57.3,124.9c-1.1,0-2,0.3-2.8,1
			s-1.2,1.5-1.3,2.6h8c-0.1-1.1-0.6-2-1.3-2.6C59.2,125.3,58.3,124.9,57.3,124.9z"/>
		<path class="st1" d="M64.9,134.6v-15.7h1.4v15.7H64.9z"/>
		<path class="st1" d="M74.3,123.6c1.6,0,2.9,0.6,3.9,1.7c1,1.1,1.5,2.4,1.5,4c0,0.2,0,0.4,0,0.7h-9.4c0.1,1.1,0.6,1.9,1.4,2.6
			c0.8,0.6,1.7,1,2.9,1c0.8,0,1.5-0.2,2.1-0.5c0.6-0.3,1-0.8,1.3-1.3l1.2,0.7c-0.5,0.8-1.1,1.4-1.9,1.8c-0.8,0.4-1.7,0.7-2.8,0.7
			c-1.7,0-3.1-0.5-4.1-1.6s-1.6-2.4-1.6-4c0-1.6,0.5-2.9,1.6-4S72.6,123.6,74.3,123.6z M74.3,124.9c-1.1,0-2,0.3-2.8,1
			s-1.2,1.5-1.3,2.6h8c-0.1-1.1-0.6-2-1.3-2.6C76.1,125.3,75.3,124.9,74.3,124.9z"/>
		<path class="st1" d="M86.9,134.8c-1.6,0-3-0.5-4-1.6s-1.6-2.4-1.6-4c0-1.6,0.5-2.9,1.6-4s2.4-1.6,4-1.6c1.1,0,2,0.3,2.9,0.8
			c0.8,0.5,1.5,1.2,1.8,2l-1.2,0.7c-0.3-0.6-0.7-1.2-1.4-1.5c-0.6-0.4-1.4-0.6-2.2-0.6c-1.2,0-2.2,0.4-3,1.2c-0.8,0.8-1.2,1.8-1.2,3
			c0,1.2,0.4,2.2,1.2,3c0.8,0.8,1.8,1.2,3,1.2c0.8,0,1.5-0.2,2.1-0.6c0.6-0.4,1.1-0.9,1.5-1.5l1.2,0.7c-0.4,0.9-1.1,1.5-2,2
			C88.9,134.6,87.9,134.8,86.9,134.8z"/>
		<path class="st1" d="M98.6,134.8c-1.6,0-3-0.5-4-1.6s-1.6-2.4-1.6-4c0-1.6,0.5-2.9,1.6-4s2.4-1.6,4-1.6c1.1,0,2,0.3,2.9,0.8
			c0.8,0.5,1.5,1.2,1.8,2l-1.2,0.7c-0.3-0.6-0.7-1.2-1.4-1.5c-0.6-0.4-1.4-0.6-2.2-0.6c-1.2,0-2.2,0.4-3,1.2c-0.8,0.8-1.2,1.8-1.2,3
			c0,1.2,0.4,2.2,1.2,3c0.8,0.8,1.8,1.2,3,1.2c0.8,0,1.5-0.2,2.1-0.6c0.6-0.4,1.1-0.9,1.5-1.5l1.2,0.7c-0.4,0.9-1.1,1.5-2,2
			C100.6,134.6,99.6,134.8,98.6,134.8z"/>
		<path class="st1" d="M106.9,121.3c-0.2,0.2-0.4,0.3-0.7,0.3s-0.5-0.1-0.7-0.3c-0.2-0.2-0.3-0.4-0.3-0.7c0-0.3,0.1-0.5,0.3-0.7
			c0.2-0.2,0.4-0.3,0.7-0.3s0.5,0.1,0.7,0.3c0.2,0.2,0.3,0.4,0.3,0.7C107.2,120.8,107.1,121.1,106.9,121.3z M105.4,134.6v-10.7h1.4
			v10.7H105.4z"/>
		<path class="st1" d="M118.9,133.2c-1.1,1.1-2.4,1.6-4,1.6s-2.9-0.5-4-1.6c-1.1-1.1-1.6-2.4-1.6-4c0-1.6,0.5-2.9,1.6-4
			c1.1-1.1,2.4-1.6,4-1.6s2.9,0.5,4,1.6c1.1,1.1,1.6,2.4,1.6,4C120.5,130.8,120,132.1,118.9,133.2z M111.9,132.2
			c0.8,0.8,1.8,1.2,3,1.2s2.2-0.4,3-1.2c0.8-0.8,1.2-1.8,1.2-3c0-1.2-0.4-2.2-1.2-3s-1.8-1.2-3-1.2s-2.2,0.4-3,1.2s-1.2,1.8-1.2,3
			C110.6,130.4,111,131.4,111.9,132.2z M113.8,122.3h1.4l2.1-2.8h-1.7L113.8,122.3z"/>
		<path class="st1" d="M127.9,123.6c1.3,0,2.3,0.4,3.1,1.2c0.8,0.8,1.1,1.9,1.1,3.2v6.6h-1.4V128c0-1-0.3-1.7-0.8-2.2
			c-0.5-0.5-1.2-0.8-2.2-0.8c-1,0-1.9,0.3-2.5,1c-0.6,0.7-1,1.7-1,3v5.6h-1.4v-10.7h1.4v1.7C125.1,124.2,126.3,123.6,127.9,123.6z"
			/>
		<path class="st1" d="M149.4,119.5h1.4v15h-1.4v-2.1c-1,1.6-2.4,2.4-4.3,2.4c-1.5,0-2.8-0.5-3.9-1.6c-1.1-1.1-1.6-2.4-1.6-4
			c0-1.6,0.5-2.9,1.6-4c1.1-1.1,2.4-1.6,3.9-1.6c1.9,0,3.3,0.8,4.3,2.4V119.5z M142.2,132.2c0.8,0.8,1.8,1.2,3,1.2s2.2-0.4,3-1.2
			c0.8-0.8,1.2-1.8,1.2-3c0-1.2-0.4-2.2-1.2-3s-1.8-1.2-3-1.2s-2.2,0.4-3,1.2s-1.2,1.8-1.2,3C141,130.4,141.4,131.4,142.2,132.2z"/>
		<path class="st1" d="M158.8,123.6c1.6,0,2.9,0.6,3.9,1.7c1,1.1,1.5,2.4,1.5,4c0,0.2,0,0.4,0,0.7h-9.4c0.1,1.1,0.6,1.9,1.4,2.6
			c0.8,0.6,1.7,1,2.9,1c0.8,0,1.5-0.2,2.1-0.5c0.6-0.3,1-0.8,1.3-1.3l1.2,0.7c-0.5,0.8-1.1,1.4-1.9,1.8c-0.8,0.4-1.7,0.7-2.8,0.7
			c-1.7,0-3.1-0.5-4.1-1.6c-1.1-1.1-1.6-2.4-1.6-4c0-1.6,0.5-2.9,1.6-4C155.8,124.1,157.2,123.6,158.8,123.6z M158.8,124.9
			c-1.1,0-2,0.3-2.8,1s-1.2,1.5-1.3,2.6h8c-0.1-1.1-0.6-2-1.3-2.6C160.6,125.3,159.8,124.9,158.8,124.9z"/>
		<path class="st1" d="M166.4,134.6v-15.7h1.4v15.7H166.4z"/>
		<path class="st1" d="M60.4,145.7c1.5,0,2.8,0.5,3.9,1.6c1.1,1.1,1.6,2.4,1.6,4c0,1.6-0.5,2.9-1.6,4c-1.1,1.1-2.4,1.6-3.9,1.6
			c-1.9,0-3.3-0.8-4.3-2.4v6.4h-1.4v-15h1.4v2.1C57.1,146.5,58.5,145.7,60.4,145.7z M57.3,154.4c0.8,0.8,1.8,1.2,3,1.2
			c1.2,0,2.2-0.4,3-1.2c0.8-0.8,1.2-1.8,1.2-3c0-1.2-0.4-2.2-1.2-3s-1.8-1.2-3-1.2c-1.2,0-2.2,0.4-3,1.2c-0.8,0.8-1.2,1.8-1.2,3
			C56.1,152.6,56.5,153.6,57.3,154.4z"/>
		<path class="st1" d="M69.7,147.8c0.7-1.3,1.8-2,3.4-2v1.4c-1,0-1.8,0.3-2.4,0.9s-1,1.5-1,2.7v6h-1.4V146h1.4V147.8z"/>
		<path class="st1" d="M83.4,155.4c-1.1,1.1-2.4,1.6-4,1.6c-1.6,0-2.9-0.5-4-1.6s-1.6-2.4-1.6-4c0-1.6,0.5-2.9,1.6-4s2.4-1.6,4-1.6
			c1.6,0,2.9,0.5,4,1.6s1.6,2.4,1.6,4C85.1,153,84.5,154.3,83.4,155.4z M76.4,154.4c0.8,0.8,1.8,1.2,3,1.2c1.2,0,2.2-0.4,3-1.2
			c0.8-0.8,1.2-1.8,1.2-3c0-1.2-0.4-2.2-1.2-3c-0.8-0.8-1.8-1.2-3-1.2c-1.2,0-2.2,0.4-3,1.2c-0.8,0.8-1.2,1.8-1.2,3
			C75.2,152.6,75.6,153.6,76.4,154.4z"/>
		<path class="st1" d="M94.7,146h1.5l-4.4,10.7h-1.7L85.7,146h1.5l3.8,9.2L94.7,146z"/>
		<path class="st1" d="M102.5,145.7c1.6,0,2.9,0.6,3.9,1.7c1,1.1,1.5,2.4,1.5,4c0,0.2,0,0.4,0,0.7h-9.4c0.1,1.1,0.6,1.9,1.4,2.6
			c0.8,0.6,1.7,1,2.9,1c0.8,0,1.5-0.2,2.1-0.5c0.6-0.3,1-0.8,1.3-1.3l1.2,0.7c-0.5,0.8-1.1,1.4-1.9,1.8c-0.8,0.4-1.7,0.7-2.8,0.7
			c-1.7,0-3.1-0.5-4.1-1.6s-1.6-2.4-1.6-4c0-1.6,0.5-2.9,1.6-4S100.8,145.7,102.5,145.7z M102.5,147.1c-1.1,0-2,0.3-2.8,1
			s-1.2,1.5-1.3,2.6h8c-0.1-1.1-0.6-2-1.3-2.6C104.3,147.4,103.4,147.1,102.5,147.1z"/>
		<path class="st1" d="M115,145.7c1.6,0,2.9,0.6,3.9,1.7c1,1.1,1.5,2.4,1.5,4c0,0.2,0,0.4,0,0.7h-9.4c0.1,1.1,0.6,1.9,1.4,2.6
			c0.8,0.6,1.7,1,2.9,1c0.8,0,1.5-0.2,2.1-0.5c0.6-0.3,1-0.8,1.3-1.3l1.2,0.7c-0.5,0.8-1.1,1.4-1.9,1.8c-0.8,0.4-1.7,0.7-2.8,0.7
			c-1.7,0-3.1-0.5-4.1-1.6c-1.1-1.1-1.6-2.4-1.6-4c0-1.6,0.5-2.9,1.6-4C112,146.3,113.3,145.7,115,145.7z M115,147.1
			c-1.1,0-2,0.3-2.8,1s-1.2,1.5-1.3,2.6h8c-0.1-1.1-0.6-2-1.3-2.6C116.8,147.4,116,147.1,115,147.1z"/>
		<path class="st1" d="M131.8,141.7h1.4v15h-1.4v-2.1c-1,1.6-2.4,2.4-4.3,2.4c-1.5,0-2.8-0.5-3.9-1.6c-1.1-1.1-1.6-2.4-1.6-4
			c0-1.6,0.5-2.9,1.6-4c1.1-1.1,2.4-1.6,3.9-1.6c1.9,0,3.3,0.8,4.3,2.4V141.7z M124.6,154.4c0.8,0.8,1.8,1.2,3,1.2s2.2-0.4,3-1.2
			c0.8-0.8,1.2-1.8,1.2-3c0-1.2-0.4-2.2-1.2-3s-1.8-1.2-3-1.2s-2.2,0.4-3,1.2s-1.2,1.8-1.2,3C123.3,152.6,123.7,153.6,124.6,154.4z"
			/>
		<path class="st1" d="M145.2,155.4c-1.1,1.1-2.4,1.6-4,1.6s-2.9-0.5-4-1.6c-1.1-1.1-1.6-2.4-1.6-4c0-1.6,0.5-2.9,1.6-4
			c1.1-1.1,2.4-1.6,4-1.6s2.9,0.5,4,1.6c1.1,1.1,1.6,2.4,1.6,4C146.8,153,146.3,154.3,145.2,155.4z M138.2,154.4
			c0.8,0.8,1.8,1.2,3,1.2s2.2-0.4,3-1.2c0.8-0.8,1.2-1.8,1.2-3c0-1.2-0.4-2.2-1.2-3s-1.8-1.2-3-1.2s-2.2,0.4-3,1.2s-1.2,1.8-1.2,3
			C137,152.6,137.4,153.6,138.2,154.4z"/>
		<path class="st1" d="M150.6,147.8c0.7-1.3,1.8-2,3.4-2v1.4c-1,0-1.8,0.3-2.4,0.9s-1,1.5-1,2.7v6h-1.4V146h1.4V147.8z"/>
	</g>
	<g id="XMLID_4556_">
		<g id="XMLID_4557_">
			<path id="XMLID_4558_" class="st1" d="M124.3,75.8L115,63.9c3.3-3.4,5.3-7.9,5.6-12.6h14.4v1.6c-3.3,0.7-5.7,3.6-5.7,7
				c0,4,3.2,7.2,7.2,7.2s7.2-3.2,7.2-7.2c0-3.4-2.4-6.4-5.7-7v-3c0-0.8-0.6-1.4-1.4-1.4h-15.9c-0.3-4-1.7-7.8-4.2-10.9l2-2h16.9
				c0.8,2.2,3.3,3.4,5.5,2.6c2.2-0.8,3.4-3.3,2.6-5.5c-0.8-2.2-3.3-3.4-5.5-2.6c-1.2,0.4-2.2,1.4-2.6,2.6h-17.5
				c-0.4,0-0.7,0.2-1,0.4l-2.3,2.3c-8-7.7-20.7-7.5-28.4,0.5c-3.3,3.4-5.2,7.8-5.6,12.5H68.5l-4.7-10.6c2.1-1.1,2.9-3.7,1.8-5.8
				c-1.1-2.1-3.7-2.9-5.8-1.8c-2.1,1.1-2.9,3.7-1.8,5.8c0.6,1.1,1.6,1.9,2.8,2.2l5.4,12.2c0.2,0.5,0.7,0.9,1.3,0.9h13
				c0.3,4.7,2.3,9.1,5.5,12.5L73.9,75.9c-7.8-1.2-15.2,4.2-16.3,12.1s4.2,15.2,12.1,16.3c0.2,0,0.5,0.1,0.7,0.1v7.3
				c0,0.8,0.6,1.4,1.4,1.4H85c0.8,2.2,3.3,3.4,5.5,2.6c2.2-0.8,3.4-3.3,2.6-5.5c-0.8-2.2-3.3-3.4-5.5-2.6c-1.2,0.4-2.2,1.4-2.6,2.6
				H73.3v-5.8c7.9-0.8,13.7-7.8,12.9-15.7c-0.5-5.3-4-9.9-9-11.9l11.1-11.1c7.2,5.7,17.3,5.7,24.6,0.1l8,10.1
				c-11,1.5-18.7,11.7-17.2,22.7c1.5,11,11.7,18.7,22.7,17.2c11-1.5,18.7-11.7,17.2-22.7C142.2,83.5,134.1,76.2,124.3,75.8z
				 M140.8,60c0,2.4-1.9,4.3-4.3,4.3c-2.4,0-4.3-1.9-4.3-4.3c0-2.4,1.9-4.3,4.3-4.3C138.9,55.7,140.8,57.6,140.8,60z M139.4,32.7
				c0.8,0,1.4,0.6,1.4,1.4c0,0.8-0.6,1.4-1.4,1.4s-1.4-0.6-1.4-1.4C137.9,33.3,138.6,32.7,139.4,32.7z M61.8,35.5
				c-0.8,0-1.4-0.6-1.4-1.4c0-0.8,0.6-1.4,1.4-1.4c0.8,0,1.4,0.6,1.4,1.4C63.2,34.9,62.6,35.5,61.8,35.5z M89.1,110.3
				c0.8,0,1.4,0.6,1.4,1.4c0,0.8-0.6,1.4-1.4,1.4c-0.8,0-1.4-0.6-1.4-1.4C87.6,110.9,88.3,110.3,89.1,110.3z M77.6,100.1
				c-3.6,2.1-7.9,2.1-11.5,0v-2.8c0-3.2,2.6-5.7,5.7-5.7s5.7,2.6,5.7,5.7V100.1z M69,85.8c0-1.6,1.3-2.9,2.9-2.9s2.9,1.3,2.9,2.9
				s-1.3,2.9-2.9,2.9S69,87.4,69,85.8z M80.5,82.5c1.9,2.1,2.9,4.8,2.9,7.6c0,2.8-1,5.5-2.9,7.6v-0.4c0-3.1-1.7-6-4.5-7.5
				c2.2-2.3,2.1-5.9-0.2-8.1c-2.3-2.2-5.9-2.1-8.1,0.2c-2.1,2.2-2.1,5.7,0,7.9c-2.8,1.5-4.5,4.4-4.5,7.5v0.4c-4.2-4.8-3.7-12,1-16.2
				C69,77.3,76.3,77.7,80.5,82.5z M110.6,63.9c-6,4.4-14.1,4.4-20.1,0v-3.5c0-2.6,2.1-4.7,4.7-4.7h3.2l-2.1,5.2
				c-0.2,0.5-0.1,1.1,0.3,1.6l2.9,2.9c0.6,0.6,1.5,0.6,2,0l2.9-2.9c0.4-0.4,0.5-1,0.3-1.6l-2.1-5.2h3.2c2.6,0,4.7,2.1,4.7,4.7
				L110.6,63.9L110.6,63.9z M100.8,40.5c-0.1,0.1-0.1,0.2-0.1,0.3c-0.7,2.2-4.7,3-7.2,3.2c0.4-4.8,2.7-7.1,7.1-7.1
				c4.1,0,6.3,1.9,7,6l-4.8-2.9C102.1,39.6,101.2,39.9,100.8,40.5z M102.6,43.3l5.1,3.1c-0.6,3.5-4.9,6.4-7.1,6.4
				c-3.2-0.5-5.9-2.8-7-5.8C96.1,46.8,100.5,46,102.6,43.3z M101.8,61.1l-1.2,1.2l-1.2-1.2l1.2-3L101.8,61.1z M106.8,52.8
				c2.2-1.8,3.6-4.4,3.8-7.3c0-9.5-5.5-11.5-10.1-11.5c-4.6,0-10.1,2-10.1,11.5c0.2,2.8,1.5,5.5,3.8,7.3c-3.8,0.5-6.7,3.7-6.7,7.5
				v0.9c-6.3-7.1-5.6-18,1.5-24.3s18-5.6,24.3,1.5c5.7,6.5,5.7,16.3,0,22.8v-0.9C113.5,56.6,110.7,53.3,106.8,52.8z M133.6,109.9
				c-6,4.4-14.1,4.4-20.1,0v-3.5c0-2.6,2.1-4.7,4.7-4.7h3.2l-2.1,5.2c-0.2,0.5-0.1,1.1,0.3,1.6l2.9,2.9c0.6,0.6,1.5,0.6,2,0l2.9-2.9
				c0.4-0.4,0.5-1,0.3-1.6l-2.1-5.2h3.2c2.6,0,4.7,2.1,4.7,4.7V109.9z M125.6,89.3L125.6,89.3l5.1,3.1c-0.6,3.5-4.9,6.4-7.1,6.4
				c-3.2-0.5-5.9-2.8-7-5.8C119,92.7,123.5,92,125.6,89.3z M116.5,90.1L116.5,90.1c0.4-4.8,2.7-7.1,7.1-7.1c4.1,0,6.3,1.9,7,6
				l-4.8-2.9c-0.7-0.4-1.6-0.2-2,0.5c-0.1,0.1-0.1,0.2-0.1,0.3C122.9,89,119,89.8,116.5,90.1z M124.8,107l-1.2,1.2l-1.2-1.2l1.2-3
				L124.8,107z M136.5,107.3v-0.9c0-3.8-2.9-7.1-6.7-7.6c2.2-1.8,3.6-4.4,3.8-7.3c0-9.5-5.5-11.5-10.1-11.5c-4.6,0-10.1,2-10.1,11.5
				c0.2,2.8,1.5,5.5,3.8,7.3c-3.8,0.5-6.7,3.7-6.7,7.5v0.9c-6.3-7.1-5.6-18,1.6-24.3c7.1-6.3,18-5.6,24.3,1.6
				c2.8,3.1,4.3,7.2,4.3,11.4C140.8,100.1,139.3,104.1,136.5,107.3z"/>
		</g>
	</g>
</g>
</svg>
