<?xml version="1.0" encoding="utf-8"?>
<!-- Generator: Adobe Illustrator 23.0.6, SVG Export Plug-In . SVG Version: 6.00 Build 0)  -->
<svg version="1.1" id="Layer_1" xmlns="http://www.w3.org/2000/svg" xmlns:xlink="http://www.w3.org/1999/xlink" x="0px" y="0px"
	 viewBox="0 0 100 100" style="enable-background:new 0 0 100 100;" xml:space="preserve">
<style type="text/css">
	.st0{fill:#FFFFFF;}
</style>
<g id="XMLID_879_">
	<path id="XMLID_1195_" class="st0" d="M90.4,78.3h-3.1V50.5c0-2.7-2.2-4.9-4.9-4.9H68l0-10.1c0-0.7-0.6-1.3-1.3-1.3
		c-0.7,0-1.3,0.6-1.3,1.3l0,10.2h-12c-1.4,0-2.7,0.6-3.6,1.6c-0.9-1-2.2-1.6-3.6-1.6H31.8V17.7c0-1.2,1-2.2,2.2-2.2h6.1v4.9
		c0,1.7,1.4,3,3,3h10.4c1.7,0,3-1.4,3-3v-4.9h6.5c1.2,0,2.2,1,2.2,2.2v11.4c0,0.7,0.6,1.3,1.3,1.3c0.7,0,1.3-0.6,1.3-1.3V17.7
		c0-2.7-2.2-4.9-4.9-4.9h-29c-2.7,0-4.9,2.2-4.9,4.9v27.9h-12c-2.7,0-4.9,2.2-4.9,4.9v27.8H8.9c-2.5,0-4.5,2-4.5,4.5
		c0,2.5,2,4.5,4.5,4.5h81.4c2.5,0,4.5-2,4.5-4.5C94.9,80.4,92.9,78.3,90.4,78.3z M53.9,20.4c0,0.2-0.2,0.4-0.4,0.4H43.2
		c-0.2,0-0.4-0.2-0.4-0.4v-4.9h11.1V20.4z M62,48.3h11.1v4.9c0,0.2-0.2,0.4-0.4,0.4H62.4c-0.2,0-0.4-0.2-0.4-0.4V48.3z M53.3,48.3
		h6.1v4.9c0,1.7,1.4,3,3,3h10.4c1.7,0,3-1.4,3-3v-4.9h6.5c1.2,0,2.2,1,2.2,2.2v27.8H51.1V50.5C51.1,49.3,52.1,48.3,53.3,48.3z
		 M25.8,48.3H37v4.9c0,0.2-0.2,0.4-0.4,0.4H26.2c-0.2,0-0.4-0.2-0.4-0.4V48.3z M90.4,84.7H8.9c-1,0-1.8-0.8-1.8-1.8
		c0-1,0.8-1.8,1.8-1.8h18.8c0.7,0,1.3-0.6,1.3-1.3s-0.6-1.3-1.3-1.3H14.9V50.5c0-1.2,1-2.2,2.2-2.2h6.1v4.9c0,1.7,1.4,3,3,3h10.4
		c1.7,0,3-1.4,3-3v-4.9h6.5c1.2,0,2.2,1,2.2,2.2v27.8H33.8c-0.7,0-1.3,0.6-1.3,1.3s0.6,1.3,1.3,1.3h56.5c1,0,1.8,0.8,1.8,1.8
		C92.2,83.9,91.4,84.7,90.4,84.7z"/>
</g>
</svg>
