<?xml version="1.0" encoding="utf-8"?>
<!-- Generator: Adobe Illustrator 23.0.6, SVG Export Plug-In . SVG Version: 6.00 Build 0)  -->
<svg version="1.1" id="Layer_1" xmlns="http://www.w3.org/2000/svg" xmlns:xlink="http://www.w3.org/1999/xlink" x="0px" y="0px"
	 viewBox="0 0 200 200" style="enable-background:new 0 0 200 200;" xml:space="preserve">
<style type="text/css">
	.st0{fill:#FFFFFF;}
</style>
<g id="XMLID_301_">
	<g id="XMLID_3350_">
		<path id="XMLID_3975_" class="st0" d="M38.7,115.7H21.2c-5.8,0-10.5-4.7-10.5-10.5V35.5c0-5.8,4.7-10.5,10.5-10.5h115.1
			c5.8,0,10.5,4.7,10.5,10.5v45.3h-7V35.5c0-1.9-1.6-3.5-3.5-3.5H21.2c-1.9,0-3.5,1.6-3.5,3.5v69.8c0,1.9,1.6,3.5,3.5,3.5h17.4
			V115.7z"/>
	</g>
	<g id="XMLID_3348_">
		<rect id="XMLID_3974_" x="14.2" y="42.4" class="st0" width="129.1" height="7"/>
	</g>
	<g id="XMLID_3346_">
		<rect id="XMLID_3973_" x="14.2" y="63.4" class="st0" width="129.1" height="7"/>
	</g>
	<g id="XMLID_3321_">
		<path id="XMLID_3331_" class="st0" d="M167.7,175H52.6c-5.8,0-10.5-4.7-10.5-10.5V94.8c0-5.8,4.7-10.5,10.5-10.5h115.1
			c5.8,0,10.5,4.7,10.5,10.5v69.8C178.2,170.3,173.5,175,167.7,175z M52.6,91.3c-1.9,0-3.5,1.6-3.5,3.5v69.8c0,1.9,1.6,3.5,3.5,3.5
			h115.1c1.9,0,3.5-1.6,3.5-3.5V94.8c0-1.9-1.6-3.5-3.5-3.5H52.6z"/>
	</g>
	<g id="XMLID_871_">
		<rect id="XMLID_3970_" x="59.6" y="143.6" class="st0" width="17.4" height="7"/>
	</g>
	<g id="XMLID_808_">
		<rect id="XMLID_3969_" x="87.5" y="143.6" class="st0" width="17.4" height="7"/>
	</g>
	<g id="XMLID_781_">
		<rect id="XMLID_3964_" x="115.4" y="143.6" class="st0" width="17.4" height="7"/>
	</g>
	<g id="XMLID_524_">
		<rect id="XMLID_1749_" x="143.3" y="143.6" class="st0" width="17.4" height="7"/>
	</g>
	<g id="XMLID_330_">
		<path id="XMLID_387_" class="st0" d="M145.1,133.1h-3.5c-8.7,0-15.7-7-15.7-15.7s7-15.7,15.7-15.7h3.5c8.7,0,15.7,7,15.7,15.7
			S153.7,133.1,145.1,133.1z M141.6,108.7c-4.8,0-8.7,3.9-8.7,8.7c0,4.8,3.9,8.7,8.7,8.7h3.5c4.8,0,8.7-3.9,8.7-8.7
			c0-4.8-3.9-8.7-8.7-8.7H141.6z"/>
	</g>
</g>
</svg>
