<?xml version="1.0" encoding="utf-8"?>
<!-- Generator: Adobe Illustrator 23.0.6, SVG Export Plug-In . SVG Version: 6.00 Build 0)  -->
<svg version="1.1" id="Layer_1" xmlns="http://www.w3.org/2000/svg" xmlns:xlink="http://www.w3.org/1999/xlink" x="0px" y="0px"
	 viewBox="0 0 100 100" style="enable-background:new 0 0 100 100;" xml:space="preserve">
<style type="text/css">
	.st0{fill:#FFFFFF;}
</style>
<g id="XMLID_4174_">
	<g id="XMLID_4199_">
		<path id="XMLID_4200_" class="st0" d="M52.5,85.1c-1.5,0-2.9-0.6-4.1-1.7L41,75.9l2.1-2.1l7.5,7.5c1.1,1.1,2.8,1.1,3.9,0
			c1.1-1.1,1.1-2.8,0-3.9L42.9,65.8H27v-3h16.5c0.4,0,0.8,0.2,1.1,0.4l12,12c2.2,2.2,2.2,5.9,0,8.1C55.5,84.5,54,85.1,52.5,85.1z"/>
	</g>
	<g id="XMLID_4197_">
		<path id="XMLID_4198_" class="st0" d="M54,94.3h-4.5c-0.3,0-0.5-0.1-0.7-0.2l-16.2-8.8H27v-3h6c0.3,0,0.5,0.1,0.7,0.2l16.2,8.8
			h3.7l37.1-22.2c0.7-0.4,0.8-1.3,0.8-1.7c0-0.1,0-0.5-0.5-1c-0.6-0.5-1.5-0.7-2.2-0.6l-37.5,7.5l-0.6-2.9l37.5-7.5
			c1.7-0.3,3.5,0.2,4.7,1.2c1,0.8,1.6,2,1.6,3.3c0,1.9-0.8,3.5-2.2,4.3L54.8,94.1C54.6,94.2,54.3,94.3,54,94.3z"/>
	</g>
	<g id="XMLID_4193_">
		<path id="XMLID_4194_" class="st0" d="M21,88.3H6c-0.8,0-1.5-0.7-1.5-1.5V64.3c0-0.8,0.7-1.5,1.5-1.5h15c0.8,0,1.5,0.7,1.5,1.5
			v22.5C22.5,87.6,21.9,88.3,21,88.3z M7.5,85.3h12V65.8h-12V85.3z"/>
	</g>
	<g id="XMLID_4189_">
		<path id="XMLID_4190_" class="st0" d="M27,88.3h-6c-0.8,0-1.5-0.7-1.5-1.5V64.3c0-0.8,0.7-1.5,1.5-1.5h6c0.8,0,1.5,0.7,1.5,1.5
			v22.5C28.5,87.6,27.9,88.3,27,88.3z M22.5,85.3h3V65.8h-3V85.3z"/>
	</g>
	<g id="XMLID_4187_">
		<path id="XMLID_4188_" class="st0" d="M6.7,59.7L5.4,57l33-16.5c0.4-0.2,0.8-0.2,1.2-0.1l27.6,10.2l23.3-23.3l2.1,2.1l-24,24
			c-0.4,0.4-1,0.5-1.6,0.3L39.1,43.5L6.7,59.7z"/>
	</g>
	<g id="XMLID_4185_">
		<path id="XMLID_4186_" class="st0" d="M91.5,39l-1.3-9.4l-9.4-1.3l0.4-3l10.5,1.5c0.7,0.1,1.2,0.6,1.3,1.3l1.5,10.5L91.5,39z"/>
	</g>
	<g id="XMLID_4181_">
		<path id="XMLID_4182_" class="st0" d="M49.5,38.8c-9.1,0-16.5-7.4-16.5-16.5S40.4,5.8,49.5,5.8c9.1,0,16.5,7.4,16.5,16.5
			S58.6,38.8,49.5,38.8z M49.5,8.8C42.1,8.8,36,14.9,36,22.3s6.1,13.5,13.5,13.5C57,35.8,63,29.8,63,22.3S57,8.8,49.5,8.8z"/>
	</g>
	<g id="XMLID_4179_">
		
			<rect id="XMLID_4180_" x="38.9" y="20.8" transform="matrix(0.7071 -0.7071 0.7071 0.7071 -1.2783 41.5633)" class="st0" width="21.2" height="3"/>
	</g>
	<g id="XMLID_4177_">
		<rect id="XMLID_4178_" x="43.5" y="16.3" class="st0" width="3" height="3"/>
	</g>
	<g id="XMLID_4175_">
		<rect id="XMLID_4176_" x="52.5" y="25.3" class="st0" width="3" height="3"/>
	</g>
</g>
</svg>
