<?xml version="1.0" encoding="utf-8"?>
<!-- Generator: Adobe Illustrator 23.0.6, SVG Export Plug-In . SVG Version: 6.00 Build 0)  -->
<svg version="1.1" id="Layer_1" xmlns="http://www.w3.org/2000/svg" xmlns:xlink="http://www.w3.org/1999/xlink" x="0px" y="0px"
	 viewBox="0 0 200 200" style="enable-background:new 0 0 200 200;" xml:space="preserve">
<style type="text/css">
	.st0{fill:#FFFFFF;}
</style>
<g id="XMLID_442_">
	<g id="XMLID_1136_">
		<path id="XMLID_1137_" class="st0" d="M169.2,150.2l-145.2,0c-8,0-14.5-6.5-14.5-14.5l0-110.4c0-8,6.5-14.5,14.5-14.5l145.2,0
			c8,0,14.5,6.5,14.5,14.5l0,110.4C183.7,143.6,177.2,150.2,169.2,150.2z M24,16.6c-4.8,0-8.7,3.9-8.7,8.7l0,110.4
			c0,4.8,3.9,8.7,8.7,8.7l145.2,0c4.8,0,8.7-3.9,8.7-8.7l0-110.4c0-4.8-3.9-8.7-8.7-8.7L24,16.6z"/>
	</g>
	<g id="XMLID_1135_">
		<rect id="XMLID_404_" x="12.4" y="124" class="st0" width="168.4" height="5.8"/>
	</g>
	<g id="XMLID_1132_">
		<path id="XMLID_1133_" class="st0" d="M131.4,173.4l-69.7,0c-1,0-1.9-0.5-2.5-1.4c-0.5-0.9-0.6-1.9-0.1-2.8l11.6-23.2
			c0.5-1,1.5-1.6,2.6-1.6l46.5,0c1.1,0,2.1,0.6,2.6,1.6l11.6,23.2c0.4,0.9,0.4,2-0.1,2.8C133.4,172.9,132.4,173.4,131.4,173.4z
			 M66.4,167.6l60.3,0l-8.7-17.4l-42.9,0L66.4,167.6z"/>
	</g>
	<g id="XMLID_1130_">
		<path id="XMLID_1131_" class="st0" d="M154.7,185l-116.2,0c-1.1,0-2.1-0.6-2.6-1.6l-5.8-11.6c-0.4-0.9-0.4-2,0.1-2.8
			c0.5-0.9,1.5-1.4,2.5-1.4l127.8,0c1,0,1.9,0.5,2.5,1.4c0.5,0.9,0.6,1.9,0.1,2.8l-5.8,11.6C156.8,184.4,155.8,185,154.7,185z
			 M40.3,179.2l112.6,0l2.9-5.8l-118.4,0L40.3,179.2z"/>
	</g>
	<g id="XMLID_1100_">
		<path id="XMLID_1127_" class="st0" d="M169.2,129.8l-145.2,0c-1.6,0-2.9-1.3-2.9-2.9l0-17.4c0-1.6,1.3-2.9,2.9-2.9l145.2,0
			c1.6,0,2.9,1.3,2.9,2.9l0,17.4C172.1,128.5,170.8,129.8,169.2,129.8z M26.9,124l139.4,0v-11.6l-139.4,0L26.9,124z"/>
	</g>
	<g id="XMLID_1092_">
		<path id="XMLID_320_" class="st0" d="M28.9,88.3l-4.1-4.1l29-29c1.1-1.1,3-1.1,4.1,0l9.2,9.2l18.3-26.2c0.5-0.6,1.1-1.1,1.9-1.2
			c0.8-0.1,1.6,0.1,2.2,0.5l9.3,7l15.7-20.9c0.6-0.8,1.5-1.2,2.4-1.2c0.9,0,1.8,0.5,2.3,1.3l14.6,22l3.6-7.1
			c0.5-0.9,1.4-1.5,2.4-1.6c1-0.1,2,0.4,2.6,1.2L155,55.7l9.2-9.2l4.1,4.1l-11.6,11.6c-0.6,0.6-1.4,0.9-2.3,0.8
			c-0.9-0.1-1.6-0.5-2.1-1.2l-11.7-16.4l-3.7,7.3c-0.5,0.9-1.4,1.5-2.4,1.6c-1,0.1-2-0.4-2.6-1.3l-15.1-22.7l-15,19.9
			c-1,1.3-2.8,1.5-4.1,0.6l-9.2-6.9L69.9,70.5c-0.5,0.7-1.3,1.2-2.1,1.2c-0.9,0.1-1.7-0.2-2.3-0.8l-9.6-9.6L28.9,88.3z"/>
	</g>
	<g id="XMLID_1089_">
		<rect id="XMLID_319_" x="38.5" y="89.2" class="st0" width="5.8" height="20.3"/>
	</g>
	<g id="XMLID_1034_">
		<rect id="XMLID_312_" x="50.1" y="77.6" class="st0" width="5.8" height="31.9"/>
	</g>
	<g id="XMLID_957_">
		<rect id="XMLID_311_" x="61.7" y="89.2" class="st0" width="5.8" height="20.3"/>
	</g>
	<g id="XMLID_930_">
		<rect id="XMLID_310_" x="73.3" y="92.1" class="st0" width="5.8" height="17.4"/>
	</g>
	<g id="XMLID_904_">
		<rect id="XMLID_308_" x="85" y="83.4" class="st0" width="5.8" height="26.1"/>
	</g>
	<g id="XMLID_898_">
		<rect id="XMLID_307_" x="96.6" y="68.8" class="st0" width="5.8" height="40.7"/>
	</g>
	<g id="XMLID_878_">
		<rect id="XMLID_306_" x="108.2" y="51.4" class="st0" width="5.8" height="58.1"/>
	</g>
	<g id="XMLID_840_">
		<rect id="XMLID_305_" x="119.8" y="65.9" class="st0" width="5.8" height="43.6"/>
	</g>
	<g id="XMLID_825_">
		<rect id="XMLID_304_" x="131.4" y="80.5" class="st0" width="5.8" height="29"/>
	</g>
	<g id="XMLID_807_">
		<rect id="XMLID_303_" x="143" y="89.2" class="st0" width="5.8" height="20.3"/>
	</g>
	<g id="XMLID_595_">
		<rect id="XMLID_83_" x="154.7" y="92.1" class="st0" width="5.8" height="17.4"/>
	</g>
</g>
</svg>
