<?xml version="1.0" encoding="utf-8"?>
<!-- Generator: Adobe Illustrator 23.0.6, SVG Export Plug-In . SVG Version: 6.00 Build 0)  -->
<svg version="1.1" id="Layer_1" xmlns="http://www.w3.org/2000/svg" xmlns:xlink="http://www.w3.org/1999/xlink" x="0px" y="0px"
	 viewBox="0 0 200 200" style="enable-background:new 0 0 200 200;" xml:space="preserve">
<style type="text/css">
	.st0{fill:#FFFFFF;}
	.st1{font-family:'Gilroy-Regular';}
	.st2{font-size:16.7417px;}
	.st3{fill:none;stroke:#FFFFFF;stroke-miterlimit:10;}
</style>
<text id="XMLID_2981_" transform="matrix(1 0 0 1 -0.5435 118.3848)" class="st0 st1 st2">Proveedores</text>
<g id="XMLID_2917_">
	<g id="XMLID_2928_">
		<polygon id="Arrow_72_" class="st0" points="183.4,105.8 174.1,94.4 174.4,102.7 169.1,109.1 		"/>
		<polygon id="Arrow_71_" class="st0" points="145,91.7 154.2,103.2 154,94.8 159.3,88.4 		"/>
	</g>
	<line id="XMLID_2918_" class="st3" x1="174.1" y1="102.9" x2="153.3" y2="94.5"/>
</g>
<g id="XMLID_1442_">
	<g id="XMLID_5375_">
		<path id="XMLID_2237_" class="st0" d="M74.4,69.3H63.2v-9.8h11.2V69.3z M66,66.5h5.6v-4.2H66V66.5z"/>
	</g>
	<g id="XMLID_5373_">
		<rect id="XMLID_2082_" x="71.6" y="81.9" class="st0" width="7" height="2.8"/>
	</g>
	<g id="XMLID_4800_">
		<path id="XMLID_2052_" class="st0" d="M84.3,90.4H53.4V59.5h30.9V90.4z M56.2,87.5h25.3V62.3H56.2V87.5z"/>
	</g>
	<g id="XMLID_4796_">
		<path id="XMLID_1982_" class="st0" d="M57.6,35.6h-2.8c0-5.4-4.4-9.8-9.8-9.8V23C51.9,23,57.6,28.7,57.6,35.6z"/>
	</g>
	<g id="XMLID_4786_">
		<path id="XMLID_1944_" class="st0" d="M35.1,35.6h-2.8C32.3,28.7,38,23,45,23v2.8C39.6,25.8,35.1,30.2,35.1,35.6z"/>
	</g>
	<g id="XMLID_4784_">
		<rect id="XMLID_1943_" x="32.3" y="35.6" class="st0" width="2.8" height="4.2"/>
	</g>
	<g id="XMLID_4782_">
		<path id="XMLID_1938_" class="st0" d="M45,52.5c-7,0-12.6-5.7-12.6-12.6h2.8c0,5.4,4.4,9.8,9.8,9.8V52.5z"/>
	</g>
	<g id="XMLID_4736_">
		<path id="XMLID_1935_" class="st0" d="M45,52.5v-2.8c5,0,9.1-3.7,9.7-8.6l2.8,0.3C56.7,47.7,51.3,52.5,45,52.5z"/>
	</g>
	<g id="XMLID_4729_">
		<rect id="XMLID_1931_" x="28.1" y="76.3" class="st0" width="2.8" height="14"/>
	</g>
	<g id="XMLID_2625_">
		<rect id="XMLID_1460_" x="33.7" y="35.6" class="st0" width="30.9" height="2.8"/>
	</g>
	<g id="XMLID_2243_">
		<path id="XMLID_1453_" class="st0" d="M19.7,90.4h-2.8V69.5c0-5.8,4.1-11,9.7-12.3l0,0l0.3-0.1c0,0,0.1,0,0.1,0l0,0
			c7.8-1.6,15.7-2.2,23.6-1.7l-0.2,2.8c-7.6-0.5-15.3,0-22.8,1.6L27.6,60l-0.3,0c-4.5,1-7.6,4.9-7.6,9.6V90.4z"/>
	</g>
</g>
</svg>
