<?xml version="1.0" encoding="utf-8"?>
<!-- Generator: Adobe Illustrator 23.0.6, SVG Export Plug-In . SVG Version: 6.00 Build 0)  -->
<svg version="1.1" id="Layer_1" xmlns="http://www.w3.org/2000/svg" xmlns:xlink="http://www.w3.org/1999/xlink" x="0px" y="0px"
	 viewBox="0 0 200 200" style="enable-background:new 0 0 200 200;" xml:space="preserve">
<style type="text/css">
	.st0{fill:#FFFFFF;}
	.st1{fill:#2B318B;}
</style>
<path id="XMLID_4717_" class="st0" d="M101.6,20c51.6,0,93.4,35.9,93.4,80.1c0,44.3-41.8,80.2-93.4,80.2
	C50,180.2,8.2,144.4,8.2,100.1C8.2,55.8,50,20,101.6,20"/>
<g>
	<path class="st1" d="M48.6,115.1c1.3,0,2.4,0.4,3.3,1.3c0.9,0.9,1.3,2,1.3,3.3c0,1.3-0.4,2.4-1.3,3.3c-0.9,0.9-2,1.3-3.3,1.3h-3.8
		v5.5h-1.5v-14.7H48.6z M48.6,123c0.9,0,1.7-0.3,2.3-0.9s0.9-1.4,0.9-2.3c0-0.9-0.3-1.7-0.9-2.3c-0.6-0.6-1.3-0.9-2.3-0.9h-3.8v6.5
		H48.6z"/>
	<path class="st1" d="M56.7,121.1c0.6-1.3,1.8-1.9,3.3-1.9v1.3c-1,0-1.7,0.3-2.4,0.8c-0.6,0.6-0.9,1.4-0.9,2.6v5.8h-1.4v-10.5h1.4
		V121.1z"/>
	<path class="st1" d="M70.1,128.5c-1.1,1.1-2.4,1.6-3.9,1.6c-1.5,0-2.8-0.5-3.9-1.6c-1.1-1.1-1.6-2.4-1.6-3.9c0-1.6,0.5-2.9,1.6-3.9
		s2.4-1.6,3.9-1.6c1.5,0,2.8,0.5,3.9,1.6s1.6,2.4,1.6,3.9C71.7,126.1,71.1,127.5,70.1,128.5z M63.2,127.5c0.8,0.8,1.8,1.2,2.9,1.2
		c1.2,0,2.1-0.4,2.9-1.2c0.8-0.8,1.2-1.8,1.2-3c0-1.2-0.4-2.1-1.2-3c-0.8-0.8-1.8-1.2-2.9-1.2c-1.2,0-2.1,0.4-2.9,1.2
		c-0.8,0.8-1.2,1.8-1.2,3C62,125.8,62.4,126.7,63.2,127.5z"/>
	<path class="st1" d="M78.9,130.1c-1.6,0-2.9-0.5-3.9-1.6c-1.1-1.1-1.6-2.4-1.6-3.9c0-1.6,0.5-2.9,1.6-3.9s2.4-1.6,3.9-1.6
		c1,0,2,0.2,2.8,0.7c0.8,0.5,1.4,1.2,1.8,2l-1.1,0.7c-0.3-0.6-0.7-1.1-1.4-1.5s-1.3-0.6-2.1-0.6c-1.2,0-2.1,0.4-2.9,1.2
		c-0.8,0.8-1.2,1.8-1.2,3c0,1.2,0.4,2.1,1.2,3c0.8,0.8,1.8,1.2,2.9,1.2c0.8,0,1.5-0.2,2.1-0.6c0.6-0.4,1.1-0.9,1.4-1.5l1.2,0.7
		c-0.4,0.8-1.1,1.5-1.9,2C80.8,129.9,79.9,130.1,78.9,130.1z"/>
	<path class="st1" d="M90.3,119.1c1.6,0,2.8,0.5,3.8,1.6c1,1.1,1.4,2.4,1.4,3.9c0,0.2,0,0.4,0,0.7h-9.2c0.1,1.1,0.6,1.9,1.4,2.5
		c0.8,0.6,1.7,0.9,2.8,0.9c0.8,0,1.5-0.2,2.1-0.5s1-0.8,1.3-1.3l1.2,0.7c-0.5,0.7-1.1,1.3-1.9,1.8c-0.8,0.4-1.7,0.7-2.7,0.7
		c-1.7,0-3-0.5-4-1.6c-1-1-1.6-2.4-1.6-3.9c0-1.6,0.5-2.9,1.5-3.9C87.4,119.6,88.7,119.1,90.3,119.1z M90.3,120.4
		c-1.1,0-2,0.3-2.7,1s-1.2,1.5-1.3,2.5h7.8c-0.1-1.1-0.6-2-1.3-2.6C92.1,120.7,91.3,120.4,90.3,120.4z"/>
	<path class="st1" d="M98.4,122.1c0,0.5,0.2,0.8,0.6,1.1s0.9,0.5,1.5,0.7c0.6,0.2,1.2,0.3,1.8,0.5c0.6,0.2,1.1,0.5,1.5,0.9
		c0.4,0.5,0.6,1,0.6,1.8c0,0.9-0.4,1.6-1.1,2.2c-0.7,0.6-1.6,0.8-2.7,0.8c-1,0-1.9-0.2-2.6-0.7c-0.7-0.4-1.2-1-1.5-1.7l1.2-0.7
		c0.2,0.5,0.5,1,1.1,1.3c0.5,0.3,1.1,0.5,1.8,0.5c0.7,0,1.3-0.1,1.7-0.4c0.5-0.3,0.7-0.7,0.7-1.3c0-0.5-0.2-0.9-0.6-1.1
		c-0.4-0.3-0.9-0.5-1.5-0.7c-0.6-0.2-1.2-0.3-1.8-0.5c-0.6-0.2-1.1-0.5-1.5-0.9c-0.4-0.4-0.6-1-0.6-1.7c0-0.9,0.3-1.6,1-2.1
		c0.7-0.6,1.5-0.9,2.6-0.9c0.9,0,1.6,0.2,2.2,0.6c0.6,0.4,1.1,0.9,1.4,1.6l-1.2,0.7c-0.4-1-1.2-1.5-2.5-1.5c-0.6,0-1.1,0.1-1.6,0.4
		S98.4,121.5,98.4,122.1z"/>
	<path class="st1" d="M115.4,128.5c-1.1,1.1-2.4,1.6-3.9,1.6c-1.5,0-2.8-0.5-3.9-1.6c-1.1-1.1-1.6-2.4-1.6-3.9
		c0-1.6,0.5-2.9,1.6-3.9s2.4-1.6,3.9-1.6c1.5,0,2.8,0.5,3.9,1.6s1.6,2.4,1.6,3.9C117,126.1,116.4,127.5,115.4,128.5z M108.5,127.5
		c0.8,0.8,1.8,1.2,2.9,1.2c1.2,0,2.1-0.4,2.9-1.2c0.8-0.8,1.2-1.8,1.2-3c0-1.2-0.4-2.1-1.2-3c-0.8-0.8-1.8-1.2-2.9-1.2
		c-1.2,0-2.1,0.4-2.9,1.2c-0.8,0.8-1.2,1.8-1.2,3C107.3,125.8,107.7,126.7,108.5,127.5z"/>
	<path class="st1" d="M120.2,122.1c0,0.5,0.2,0.8,0.6,1.1s0.9,0.5,1.5,0.7s1.2,0.3,1.8,0.5c0.6,0.2,1.1,0.5,1.5,0.9
		c0.4,0.5,0.6,1,0.6,1.8c0,0.9-0.4,1.6-1.1,2.2c-0.7,0.6-1.6,0.8-2.7,0.8c-1,0-1.9-0.2-2.6-0.7s-1.2-1-1.5-1.7l1.2-0.7
		c0.2,0.5,0.5,1,1.1,1.3c0.5,0.3,1.1,0.5,1.8,0.5c0.7,0,1.3-0.1,1.7-0.4c0.5-0.3,0.7-0.7,0.7-1.3c0-0.5-0.2-0.9-0.6-1.1
		c-0.4-0.3-0.9-0.5-1.5-0.7c-0.6-0.2-1.2-0.3-1.8-0.5c-0.6-0.2-1.1-0.5-1.5-0.9c-0.4-0.4-0.6-1-0.6-1.7c0-0.9,0.3-1.6,1-2.1
		c0.7-0.6,1.5-0.9,2.6-0.9c0.9,0,1.6,0.2,2.2,0.6c0.6,0.4,1.1,0.9,1.4,1.6l-1.2,0.7c-0.4-1-1.2-1.5-2.5-1.5c-0.6,0-1.1,0.1-1.6,0.4
		C120.4,121.1,120.2,121.5,120.2,122.1z"/>
	<path class="st1" d="M142.9,115.1h1.4v14.7h-1.4v-2.1c-1,1.5-2.4,2.3-4.2,2.3c-1.5,0-2.8-0.5-3.8-1.6c-1.1-1.1-1.6-2.4-1.6-3.9
		c0-1.5,0.5-2.8,1.6-3.9s2.3-1.6,3.8-1.6c1.9,0,3.3,0.8,4.2,2.3V115.1z M135.8,127.5c0.8,0.8,1.8,1.2,2.9,1.2c1.2,0,2.1-0.4,2.9-1.2
		c0.8-0.8,1.2-1.8,1.2-3c0-1.2-0.4-2.1-1.2-3c-0.8-0.8-1.8-1.2-2.9-1.2c-1.2,0-2.1,0.4-2.9,1.2c-0.8,0.8-1.2,1.8-1.2,3
		C134.6,125.8,135,126.7,135.8,127.5z"/>
	<path class="st1" d="M152.1,119.1c1.6,0,2.8,0.5,3.8,1.6c1,1.1,1.4,2.4,1.4,3.9c0,0.2,0,0.4,0,0.7H148c0.1,1.1,0.6,1.9,1.4,2.5
		c0.8,0.6,1.7,0.9,2.8,0.9c0.8,0,1.5-0.2,2.1-0.5s1-0.8,1.3-1.3l1.2,0.7c-0.5,0.7-1.1,1.3-1.9,1.8c-0.8,0.4-1.7,0.7-2.7,0.7
		c-1.7,0-3-0.5-4-1.6c-1-1-1.6-2.4-1.6-3.9c0-1.6,0.5-2.9,1.5-3.9C149.1,119.6,150.5,119.1,152.1,119.1z M152.1,120.4
		c-1.1,0-2,0.3-2.7,1c-0.7,0.7-1.2,1.5-1.3,2.5h7.8c-0.1-1.1-0.6-2-1.3-2.6S153,120.4,152.1,120.4z"/>
	<path class="st1" d="M54.5,136.9h1.4v14.7h-1.4v-2.1c-1,1.5-2.4,2.3-4.2,2.3c-1.5,0-2.8-0.5-3.8-1.6c-1.1-1.1-1.6-2.4-1.6-3.9
		c0-1.5,0.5-2.8,1.6-3.9c1.1-1.1,2.3-1.6,3.8-1.6c1.9,0,3.3,0.8,4.2,2.3V136.9z M47.4,149.3c0.8,0.8,1.8,1.2,2.9,1.2
		c1.2,0,2.1-0.4,2.9-1.2c0.8-0.8,1.2-1.8,1.2-3c0-1.2-0.4-2.1-1.2-3c-0.8-0.8-1.8-1.2-2.9-1.2c-1.2,0-2.1,0.4-2.9,1.2
		c-0.8,0.8-1.2,1.8-1.2,3C46.2,147.5,46.6,148.5,47.4,149.3z"/>
	<path class="st1" d="M63.7,140.8c1.6,0,2.8,0.5,3.8,1.6c1,1.1,1.4,2.4,1.4,3.9c0,0.2,0,0.4,0,0.7h-9.2c0.1,1.1,0.6,1.9,1.4,2.5
		c0.8,0.6,1.7,0.9,2.8,0.9c0.8,0,1.5-0.2,2.1-0.5s1-0.8,1.3-1.3l1.2,0.7c-0.5,0.7-1.1,1.3-1.9,1.8c-0.8,0.4-1.7,0.7-2.7,0.7
		c-1.7,0-3-0.5-4-1.6c-1-1-1.6-2.4-1.6-3.9c0-1.6,0.5-2.9,1.5-3.9C60.8,141.3,62.1,140.8,63.7,140.8z M63.7,142.1
		c-1.1,0-2,0.3-2.7,1s-1.2,1.5-1.3,2.5h7.8c-0.1-1.1-0.6-2-1.3-2.6C65.5,142.5,64.6,142.1,63.7,142.1z"/>
	<path class="st1" d="M71.8,143.8c0,0.5,0.2,0.8,0.6,1.1s0.9,0.5,1.5,0.7s1.2,0.3,1.8,0.5c0.6,0.2,1.1,0.5,1.5,0.9
		c0.4,0.5,0.6,1,0.6,1.8c0,0.9-0.4,1.6-1.1,2.2c-0.7,0.6-1.6,0.8-2.7,0.8c-1,0-1.9-0.2-2.6-0.7c-0.7-0.4-1.2-1-1.5-1.7l1.2-0.7
		c0.2,0.5,0.5,1,1.1,1.3c0.5,0.3,1.1,0.5,1.8,0.5c0.7,0,1.3-0.1,1.7-0.4c0.5-0.3,0.7-0.7,0.7-1.3c0-0.5-0.2-0.9-0.6-1.1
		c-0.4-0.3-0.9-0.5-1.5-0.7c-0.6-0.2-1.2-0.3-1.8-0.5c-0.6-0.2-1.1-0.5-1.5-0.9c-0.4-0.4-0.6-1-0.6-1.7c0-0.9,0.3-1.6,1-2.1
		c0.7-0.6,1.5-0.9,2.6-0.9c0.9,0,1.6,0.2,2.2,0.6c0.6,0.4,1.1,0.9,1.4,1.6l-1.2,0.7c-0.4-1-1.2-1.5-2.5-1.5c-0.6,0-1.1,0.1-1.6,0.4
		S71.8,143.3,71.8,143.8z"/>
	<path class="st1" d="M84.8,140.8c1.6,0,2.8,0.5,3.8,1.6c1,1.1,1.4,2.4,1.4,3.9c0,0.2,0,0.4,0,0.7h-9.2c0.1,1.1,0.6,1.9,1.4,2.5
		c0.8,0.6,1.7,0.9,2.8,0.9c0.8,0,1.5-0.2,2.1-0.5s1-0.8,1.3-1.3l1.2,0.7c-0.5,0.7-1.1,1.3-1.9,1.8c-0.8,0.4-1.7,0.7-2.7,0.7
		c-1.7,0-3-0.5-4-1.6c-1-1-1.6-2.4-1.6-3.9c0-1.6,0.5-2.9,1.5-3.9C81.8,141.3,83.2,140.8,84.8,140.8z M84.8,142.1
		c-1.1,0-2,0.3-2.7,1s-1.2,1.5-1.3,2.5h7.8c-0.1-1.1-0.6-2-1.3-2.6C86.6,142.5,85.7,142.1,84.8,142.1z"/>
	<path class="st1" d="M103.4,140.8c1.2,0,2.1,0.4,2.8,1.1c0.7,0.8,1.1,1.8,1.1,3.1v6.6h-1.4V145c0-0.9-0.2-1.6-0.7-2.1
		c-0.5-0.5-1.1-0.7-1.9-0.7c-0.9,0-1.6,0.3-2.1,0.9c-0.5,0.6-0.8,1.5-0.8,2.7v5.8H99V145c0-0.9-0.2-1.6-0.7-2.1
		c-0.4-0.5-1-0.7-1.8-0.7c-0.8,0-1.6,0.3-2.1,0.9c-0.6,0.6-0.9,1.5-0.9,2.7v5.8h-1.4v-10.5h1.4v1.5c0.8-1.2,1.8-1.8,3.2-1.8
		c1.5,0,2.6,0.6,3.2,1.9C100.7,141.4,101.9,140.8,103.4,140.8z"/>
	<path class="st1" d="M115.6,140.8c1.5,0,2.8,0.5,3.8,1.6c1.1,1.1,1.6,2.4,1.6,3.9c0,1.5-0.5,2.8-1.6,3.9c-1.1,1.1-2.3,1.6-3.8,1.6
		c-1.9,0-3.3-0.8-4.2-2.3v2.1H110v-14.7h1.4v6.3C112.3,141.6,113.8,140.8,115.6,140.8z M112.6,149.3c0.8,0.8,1.8,1.2,2.9,1.2
		c1.2,0,2.1-0.4,2.9-1.2c0.8-0.8,1.2-1.8,1.2-3c0-1.2-0.4-2.1-1.2-3c-0.8-0.8-1.8-1.2-2.9-1.2c-1.2,0-2.1,0.4-2.9,1.2
		c-0.8,0.8-1.2,1.8-1.2,3C111.4,147.5,111.8,148.5,112.6,149.3z"/>
	<path class="st1" d="M132.2,150.2c-1.1,1.1-2.4,1.6-3.9,1.6c-1.5,0-2.8-0.5-3.9-1.6c-1.1-1.1-1.6-2.4-1.6-3.9
		c0-1.6,0.5-2.9,1.6-3.9s2.4-1.6,3.9-1.6c1.5,0,2.8,0.5,3.9,1.6s1.6,2.4,1.6,3.9C133.8,147.9,133.2,149.2,132.2,150.2z M125.3,149.3
		c0.8,0.8,1.8,1.2,2.9,1.2c1.2,0,2.1-0.4,2.9-1.2c0.8-0.8,1.2-1.8,1.2-3c0-1.2-0.4-2.1-1.2-3c-0.8-0.8-1.8-1.2-2.9-1.2
		c-1.2,0-2.1,0.4-2.9,1.2c-0.8,0.8-1.2,1.8-1.2,3C124.1,147.5,124.5,148.5,125.3,149.3z"/>
	<path class="st1" d="M136.1,151.6v-15.3h1.4v15.3H136.1z"/>
	<path class="st1" d="M141.5,143.8c0,0.5,0.2,0.8,0.6,1.1s0.9,0.5,1.5,0.7s1.2,0.3,1.8,0.5c0.6,0.2,1.1,0.5,1.5,0.9
		c0.4,0.5,0.6,1,0.6,1.8c0,0.9-0.4,1.6-1.1,2.2c-0.7,0.6-1.6,0.8-2.7,0.8c-1,0-1.9-0.2-2.6-0.7s-1.2-1-1.5-1.7l1.2-0.7
		c0.2,0.5,0.5,1,1.1,1.3c0.5,0.3,1.1,0.5,1.8,0.5c0.7,0,1.3-0.1,1.7-0.4c0.5-0.3,0.7-0.7,0.7-1.3c0-0.5-0.2-0.9-0.6-1.1
		c-0.4-0.3-0.9-0.5-1.5-0.7c-0.6-0.2-1.2-0.3-1.8-0.5c-0.6-0.2-1.1-0.5-1.5-0.9c-0.4-0.4-0.6-1-0.6-1.7c0-0.9,0.3-1.6,1-2.1
		c0.7-0.6,1.5-0.9,2.6-0.9c0.9,0,1.6,0.2,2.2,0.6c0.6,0.4,1.1,0.9,1.4,1.6l-1.2,0.7c-0.4-1-1.2-1.5-2.5-1.5c-0.6,0-1.1,0.1-1.6,0.4
		C141.7,142.9,141.5,143.3,141.5,143.8z"/>
	<path class="st1" d="M158.4,150.2c-1.1,1.1-2.4,1.6-3.9,1.6c-1.5,0-2.8-0.5-3.9-1.6c-1.1-1.1-1.6-2.4-1.6-3.9
		c0-1.6,0.5-2.9,1.6-3.9s2.4-1.6,3.9-1.6c1.5,0,2.8,0.5,3.9,1.6s1.6,2.4,1.6,3.9C160,147.9,159.5,149.2,158.4,150.2z M151.6,149.3
		c0.8,0.8,1.8,1.2,2.9,1.2c1.2,0,2.1-0.4,2.9-1.2c0.8-0.8,1.2-1.8,1.2-3c0-1.2-0.4-2.1-1.2-3c-0.8-0.8-1.8-1.2-2.9-1.2
		c-1.2,0-2.1,0.4-2.9,1.2c-0.8,0.8-1.2,1.8-1.2,3C150.4,147.5,150.8,148.5,151.6,149.3z"/>
</g>
<g id="_x30_24---Money-Bag" transform="translate(0 -1)">
	<path id="Shape" class="st1" d="M63.9,108.6h6.3c1.1,0,2.1-0.5,2.8-1.3h31.6c1.8,0,3.7-0.5,5.2-1.5l23.6-14.4
		c2.1-1.2,2.8-3.8,1.8-6s-3.5-3.2-5.8-2.5l-1.8,0.6c0.4-1.3,0.6-2.6,0.4-3.9c-1.3-10.2-5.6-18.7-10.1-28c3.5,0.7,10.9,2.7,10.2,6.3
		c-0.1,0.4,0,0.9,0.4,1.2s0.8,0.4,1.3,0.3c0.4-0.2,0.8-0.5,0.8-1c0.9-4.6-4.4-7.1-8.9-8.4c4.5-1.3,9.8-3.8,8.9-8.4
		c-0.2-0.7-0.8-1.1-1.5-0.9s-1.1,0.8-1,1.4c0.8,3.8-7.6,5.9-11.5,6.5c-1-4-0.2-8.1,2.2-11.4c0.6-0.7,0.7-1.7,0.4-2.5
		c-0.3-0.9-1.1-1.5-2-1.6c-3.2-0.4-8.1,1.2-11.7,2.6c-1.7,0.7-3.7,0.7-5.4,0c-3.6-1.4-8.5-2.9-11.7-2.6c-0.9,0.1-1.7,0.7-2,1.6
		c-0.3,0.9-0.2,1.8,0.4,2.6c3.4,4.3,2.7,9.6,2,12.4c-4.5,9.4-9,17.6-10.8,27.7c-1.5-0.2-3-0.2-4.5-0.2c-0.5-1.5-2-2.5-3.5-2.5h-6.3
		c-2.1,0-3.8,1.7-3.8,3.8v26.5C60.1,106.9,61.8,108.6,63.9,108.6L63.9,108.6z M88.9,35.5c2.1-0.2,5.8,0.6,10.5,2.4
		c2.3,0.9,4.9,0.9,7.2,0c4.7-1.8,8.4-2.6,10.4-2.3c-2.8,3.8-3.9,8.7-2.8,13.3c-0.9,0.1-1.9,0.1-2.8,0.2c-0.4-1.6-0.7-4.9,0.2-6.6
		c0.3-0.6,0.1-1.4-0.5-1.7c-0.6-0.3-1.4-0.1-1.7,0.5c-1.3,2.4-1,5.9-0.5,8c-1.5,0.1-3.1,0.1-4.7,0.1v-6.3c0-0.7-0.6-1.3-1.3-1.3
		s-1.3,0.6-1.3,1.3v6.3c-1.6,0-3.1,0-4.7-0.1c0.4-2.1,0.8-5.7-0.5-8c-0.2-0.4-0.6-0.6-1.1-0.6c-0.5,0-0.9,0.2-1.1,0.6
		c-0.2,0.4-0.2,0.9,0,1.3c1,1.8,0.6,5,0.2,6.6c-0.9-0.1-1.9-0.1-2.8-0.2C92.8,44.2,91.8,39.3,88.9,35.5z M90.9,51.3
		c8,0.8,16.1,0.8,24.1,0c4.7,9.8,9.3,18.3,10.6,28.7c0.1,1.7-0.3,3.3-1.2,4.7c-20.3,6.8-18.3,6.3-20.2,6.3c1.6-4.4-2.4-8.8-7.1-8.8
		h-6.6c-2.3,0-4.6-0.8-6.4-2.2c-1.1-0.9-2.3-1.5-3.6-2C82.3,68.3,86.5,60.3,90.9,51.3L90.9,51.3z M82.7,81.9c2.3,1.8,5.1,2.8,8,2.8
		h6.6c3.3,0,6.2,3.6,4.2,6.3h-7.7c-2.5,0-4.9,0.7-7,2.1l-0.9,0.6c-0.4,0.2-0.6,0.7-0.6,1.1s0.3,0.9,0.7,1.1c0.4,0.2,0.9,0.2,1.3-0.1
		c1.9-1.5,4.1-2.3,6.5-2.3c12.3,0,11.9,0.1,13.2-0.3l23.3-7.8c1.1-0.4,2.2,0.1,2.7,1.2s0.1,2.2-0.8,2.8l-23.6,14.4
		c-1.2,0.7-2.5,1.1-3.9,1.1H74V79.6C76.9,79.6,79.6,79.4,82.7,81.9L82.7,81.9z M62.7,78.4c0-0.7,0.6-1.3,1.3-1.3h6.3
		c0.7,0,1.3,0.6,1.3,1.3v26.5c0,0.7-0.6,1.3-1.3,1.3h-6.3c-0.7,0-1.3-0.6-1.3-1.3V78.4z"/>
	<path id="Shape_1_" class="st1" d="M96.7,73.3c0-0.7-0.6-1.3-1.3-1.3s-1.3,0.6-1.3,1.3c0,2.6,2,4.7,5,5.7v1.9
		c0,0.7,0.6,1.3,1.3,1.3c0.7,0,1.3-0.6,1.3-1.3v-1.3c0.8,0.1,1.7,0.1,2.5,0v1.3c0,0.7,0.6,1.3,1.3,1.3s1.3-0.6,1.3-1.3V79
		c6.7-2.2,6.7-9.2,0-11.4v-7.4c1.3,0.4,2.3,1.6,2.5,3c0,0.7,0.6,1.3,1.3,1.3s1.3-0.6,1.3-1.3c0-2.6-2-4.7-5-5.7v-1.9
		c0-0.7-0.6-1.3-1.3-1.3s-1.3,0.6-1.3,1.3V57c-0.8-0.1-1.7-0.1-2.5,0v-1.3c0-0.7-0.6-1.3-1.3-1.3c-0.7,0-1.3,0.6-1.3,1.3v1.9
		c-6.7,2.2-6.7,9.2,0,11.4v7.4C97.9,75.9,96.9,74.7,96.7,73.3z M106.8,76.3v-6C110.1,71.9,110.1,74.7,106.8,76.3z M104.2,59.5v7.5
		c-1.2-0.1-1.5,0-2.5-0.1v-7.4C102.6,59.4,103.4,59.4,104.2,59.5L104.2,59.5z M99.2,60.3v6C95.9,64.7,95.8,61.8,99.2,60.3L99.2,60.3
		z M101.7,69.5c1.2,0.1,1.5,0,2.5,0.1V77c-0.8,0.1-1.7,0.1-2.5,0V69.5z"/>
</g>
</svg>
