<?xml version="1.0" encoding="utf-8"?>
<!-- Generator: Adobe Illustrator 23.0.6, SVG Export Plug-In . SVG Version: 6.00 Build 0)  -->
<svg version="1.1" id="Layer_1" xmlns="http://www.w3.org/2000/svg" xmlns:xlink="http://www.w3.org/1999/xlink" x="0px" y="0px"
	 viewBox="0 0 100 100" style="enable-background:new 0 0 100 100;" xml:space="preserve">
<style type="text/css">
	.st0{fill:#FFFFFF;}
</style>
<g id="XMLID_2353_">
	<g id="XMLID_2391_">
		<g id="XMLID_2392_">
			<path id="XMLID_2393_" class="st0" d="M21.7,66.1L21.7,66.1H10.3c-0.8,0-1.4,0.6-1.4,1.4v0v24.1c0,0.8,0.6,1.4,1.4,1.4h0h11.3
				c0.8,0,1.4-0.6,1.4-1.4v0V67.5C23.1,66.7,22.5,66.1,21.7,66.1z M20.3,90.2h-8.5V68.9h8.5V90.2z"/>
		</g>
	</g>
	<g id="XMLID_2384_">
		<g id="XMLID_2385_">
			<path id="XMLID_2388_" class="st0" d="M72.7,54.8L72.7,54.8H61.3c-0.8,0-1.4,0.6-1.4,1.4v0v35.4c0,0.8,0.6,1.4,1.4,1.4h0h11.3
				c0.8,0,1.4-0.6,1.4-1.4v0V56.2C74.1,55.4,73.5,54.8,72.7,54.8z M71.3,90.2h-8.5V57.6h8.5V90.2z"/>
		</g>
	</g>
	<g id="XMLID_2377_">
		<g id="XMLID_2378_">
			<path id="XMLID_2381_" class="st0" d="M55.7,61.8L55.7,61.8H44.3c-0.8,0-1.4,0.6-1.4,1.4v0v28.3c0,0.8,0.6,1.4,1.4,1.4h0h11.3
				c0.8,0,1.4-0.6,1.4-1.4v0V63.3C57.1,62.5,56.5,61.8,55.7,61.8z M54.3,90.2h-8.5V64.7h8.5V90.2z"/>
		</g>
	</g>
	<g id="XMLID_2368_">
		<g id="XMLID_2370_">
			<path id="XMLID_2373_" class="st0" d="M38.7,44.8L38.7,44.8H27.3c-0.8,0-1.4,0.6-1.4,1.4v0v45.3c0,0.8,0.6,1.4,1.4,1.4h0h11.3
				c0.8,0,1.4-0.6,1.4-1.4v0V46.3C40.1,45.5,39.5,44.8,38.7,44.8z M37.3,90.2h-8.5V47.7h8.5V90.2z"/>
		</g>
	</g>
	<g id="XMLID_2362_">
		<g id="XMLID_2363_">
			<path id="XMLID_2364_" class="st0" d="M89.7,73.2L89.7,73.2H78.3c-0.8,0-1.4,0.6-1.4,1.4v0v17c0,0.8,0.6,1.4,1.4,1.4h0h11.3
				c0.8,0,1.4-0.6,1.4-1.4v0v-17C91.1,73.8,90.5,73.2,89.7,73.2z M88.3,90.2h-8.5V76h8.5V90.2z"/>
		</g>
	</g>
	<g id="XMLID_2354_">
		<g id="XMLID_2356_">
			<path id="XMLID_2358_" class="st0" d="M92.2,39.1c-0.1-0.1-0.2-0.2-0.3-0.3l-5.7-3.6c-0.7-0.4-1.5-0.2-2,0.4
				c-0.1,0.2-0.2,0.5-0.2,0.8v2.8h-4.9L68.2,22.8c-0.5-0.7-1.4-0.8-2.1-0.3c-0.1,0.1-0.2,0.2-0.3,0.3L50.3,46.1l-16-37.3
				C34.1,8.3,33.6,8,33,8c-0.6,0-1.1,0.4-1.3,0.9L13.6,54.8H7.5v2.8h7.1c0.6,0,1.1-0.4,1.3-0.9l17.2-43.5l15.6,36.5
				c0.3,0.7,1.1,1.1,1.9,0.7c0.3-0.1,0.5-0.3,0.6-0.5L67,26.1l10.2,15.2c0.3,0.4,0.7,0.6,1.2,0.6H84v2.8c0,0.8,0.6,1.4,1.4,1.4
				c0.3,0,0.7-0.1,0.9-0.3l5.7-4.9C92.6,40.5,92.7,39.6,92.2,39.1z M86.8,41.8v-2.8l1.9,1.2L86.8,41.8z"/>
		</g>
	</g>
</g>
</svg>
