<?xml version="1.0" encoding="utf-8"?>
<!-- Generator: Adobe Illustrator 23.0.6, SVG Export Plug-In . SVG Version: 6.00 Build 0)  -->
<svg version="1.1" id="Layer_1" xmlns="http://www.w3.org/2000/svg" xmlns:xlink="http://www.w3.org/1999/xlink" x="0px" y="0px"
	 viewBox="0 0 200 200" style="enable-background:new 0 0 200 200;" xml:space="preserve">
<style type="text/css">
	.st0{fill:#FFFFFF;}
	.st1{fill:#2B318B;}
</style>
<path id="XMLID_4814_" class="st0" d="M101,21c51.5,0,93.3,35.8,93.3,80c0,44.2-41.7,80-93.3,80c-51.5-0.1-93.2-35.8-93.3-80
	C7.7,56.8,49.5,21,101,21"/>
<g>
	<path class="st1" d="M66.3,125.3c-1.5,1.5-3.3,2.2-5.4,2.2s-3.9-0.7-5.4-2.2c-1.5-1.5-2.2-3.3-2.2-5.4s0.7-3.9,2.2-5.4
		c1.5-1.5,3.3-2.2,5.4-2.2s3.9,0.7,5.4,2.2c1.5,1.5,2.2,3.3,2.2,5.4S67.7,123.9,66.3,125.3z M56.5,124.3c1.2,1.2,2.6,1.8,4.4,1.8
		s3.2-0.6,4.4-1.8s1.8-2.7,1.8-4.4s-0.6-3.2-1.8-4.4s-2.6-1.8-4.4-1.8s-3.2,0.6-4.4,1.8s-1.8,2.7-1.8,4.4S55.3,123.1,56.5,124.3z"/>
	<path class="st1" d="M72.2,118.6c0.6-1.3,1.7-1.9,3.3-1.9v1.3c-1,0-1.7,0.3-2.4,0.8c-0.6,0.6-0.9,1.4-0.9,2.6v5.8h-1.4v-10.5h1.4
		V118.6z"/>
	<path class="st1" d="M78.8,114.3c-0.2,0.2-0.4,0.3-0.7,0.3s-0.5-0.1-0.7-0.3c-0.2-0.2-0.3-0.4-0.3-0.7c0-0.3,0.1-0.5,0.3-0.7
		c0.2-0.2,0.4-0.3,0.7-0.3s0.5,0.1,0.7,0.3c0.2,0.2,0.3,0.4,0.3,0.7C79.1,113.9,79,114.1,78.8,114.3z M77.4,127.3v-10.5h1.4v10.5
		H77.4z"/>
	<path class="st1" d="M90.7,116.8h1.4v10.1c0,1.5-0.5,2.7-1.6,3.6c-1,0.9-2.3,1.3-3.7,1.3c-2.5,0-4.1-0.9-5-2.6l1.2-0.7
		c0.6,1.3,1.9,1.9,3.8,1.9c1.2,0,2.1-0.3,2.8-1c0.7-0.6,1-1.5,1-2.6v-1.6c-1,1.5-2.4,2.3-4.2,2.3c-1.5,0-2.8-0.5-3.8-1.6
		c-1.1-1.1-1.6-2.4-1.6-3.9c0-1.5,0.5-2.8,1.6-3.9c1.1-1.1,2.3-1.6,3.8-1.6c1.9,0,3.3,0.8,4.2,2.3V116.8z M83.6,125
		c0.8,0.8,1.8,1.2,2.9,1.2c1.2,0,2.1-0.4,2.9-1.2s1.2-1.8,1.2-2.9s-0.4-2.1-1.2-2.9c-0.8-0.8-1.8-1.2-2.9-1.2
		c-1.2,0-2.1,0.4-2.9,1.2c-0.8,0.8-1.2,1.8-1.2,2.9S82.8,124.2,83.6,125z"/>
	<path class="st1" d="M99.9,116.6c1.6,0,2.8,0.5,3.8,1.6c1,1.1,1.4,2.4,1.4,3.9c0,0.2,0,0.4,0,0.7h-9.2c0.1,1.1,0.6,1.9,1.4,2.5
		c0.8,0.6,1.7,0.9,2.8,0.9c0.8,0,1.5-0.2,2.1-0.5s1-0.8,1.3-1.3l1.2,0.7c-0.5,0.7-1.1,1.3-1.9,1.8c-0.8,0.4-1.7,0.7-2.7,0.7
		c-1.6,0-3-0.5-4-1.6c-1-1-1.6-2.3-1.6-3.9c0-1.6,0.5-2.9,1.5-3.9C96.9,117.1,98.3,116.6,99.9,116.6z M99.9,117.9
		c-1.1,0-2,0.3-2.7,1s-1.2,1.5-1.3,2.5h7.8c-0.1-1.1-0.6-2-1.3-2.6C101.6,118.2,100.8,117.9,99.9,117.9z"/>
	<path class="st1" d="M112.2,116.6c1.3,0,2.3,0.4,3,1.2c0.7,0.8,1.1,1.8,1.1,3.1v6.4h-1.4v-6.4c0-0.9-0.2-1.7-0.7-2.2
		c-0.5-0.5-1.2-0.8-2.1-0.8c-1,0-1.8,0.3-2.5,1c-0.6,0.6-0.9,1.6-0.9,2.9v5.5h-1.4v-10.5h1.4v1.6
		C109.4,117.2,110.6,116.6,112.2,116.6z"/>
	<path class="st1" d="M133.2,112.6h1.4v14.7h-1.4v-2.1c-1,1.5-2.4,2.3-4.2,2.3c-1.5,0-2.8-0.5-3.8-1.6s-1.6-2.4-1.6-3.9
		c0-1.5,0.5-2.8,1.6-3.9c1.1-1.1,2.3-1.6,3.8-1.6c1.9,0,3.3,0.8,4.2,2.3V112.6z M126.2,125c0.8,0.8,1.8,1.2,2.9,1.2s2.1-0.4,2.9-1.2
		s1.2-1.8,1.2-2.9s-0.4-2.1-1.2-2.9c-0.8-0.8-1.8-1.2-2.9-1.2s-2.1,0.4-2.9,1.2c-0.8,0.8-1.2,1.8-1.2,2.9S125.4,124.2,126.2,125z"/>
	<path class="st1" d="M142.4,116.6c1.6,0,2.8,0.5,3.8,1.6c1,1.1,1.4,2.4,1.4,3.9c0,0.2,0,0.4,0,0.7h-9.2c0.1,1.1,0.6,1.9,1.4,2.5
		s1.7,0.9,2.8,0.9c0.8,0,1.5-0.2,2.1-0.5s1-0.8,1.3-1.3l1.2,0.7c-0.5,0.7-1.1,1.3-1.9,1.8c-0.8,0.4-1.7,0.7-2.7,0.7
		c-1.6,0-3-0.5-4-1.6c-1-1-1.6-2.3-1.6-3.9c0-1.6,0.5-2.9,1.5-3.9C139.5,117.1,140.8,116.6,142.4,116.6z M142.4,117.9
		c-1.1,0-2,0.3-2.7,1c-0.7,0.7-1.2,1.5-1.3,2.5h7.8c-0.1-1.1-0.6-2-1.3-2.6C144.2,118.2,143.3,117.9,142.4,117.9z"/>
	<path class="st1" d="M32.4,136.7c0.6-1.3,1.7-1.9,3.3-1.9v1.3c-1,0-1.7,0.3-2.4,0.8c-0.6,0.6-0.9,1.4-0.9,2.6v5.8H31V135h1.4V136.7
		z"/>
	<path class="st1" d="M41.8,134.8c1.6,0,2.8,0.5,3.8,1.6c1,1.1,1.4,2.4,1.4,3.9c0,0.2,0,0.4,0,0.7h-9.2c0.1,1.1,0.6,1.9,1.4,2.5
		c0.8,0.6,1.7,0.9,2.8,0.9c0.8,0,1.5-0.2,2.1-0.5c0.6-0.3,1-0.8,1.3-1.3l1.2,0.7c-0.5,0.7-1.1,1.3-1.9,1.8c-0.8,0.4-1.7,0.7-2.7,0.7
		c-1.6,0-3-0.5-4-1.6c-1-1-1.6-2.3-1.6-3.9c0-1.6,0.5-2.9,1.5-3.9C38.9,135.3,40.2,134.8,41.8,134.8z M41.8,136.1
		c-1.1,0-2,0.3-2.7,1s-1.2,1.5-1.3,2.5h7.8c-0.1-1.1-0.6-2-1.3-2.6C43.6,136.4,42.8,136.1,41.8,136.1z"/>
	<path class="st1" d="M58.2,135h1.4v14.7h-1.4v-6.2c-1,1.5-2.4,2.3-4.2,2.3c-1.5,0-2.8-0.5-3.8-1.6c-1.1-1.1-1.6-2.4-1.6-3.9
		c0-1.5,0.5-2.8,1.6-3.9c1.1-1.1,2.3-1.6,3.8-1.6c1.9,0,3.3,0.8,4.2,2.3V135z M51.2,143.2c0.8,0.8,1.8,1.2,2.9,1.2
		c1.2,0,2.1-0.4,2.9-1.2s1.2-1.8,1.2-2.9s-0.4-2.1-1.2-2.9c-0.8-0.8-1.8-1.2-2.9-1.2c-1.2,0-2.1,0.4-2.9,1.2
		c-0.8,0.8-1.2,1.8-1.2,2.9S50.4,142.4,51.2,143.2z"/>
	<path class="st1" d="M69.9,135h1.4v10.5h-1.4v-1.6c-0.8,1.3-2,1.9-3.5,1.9c-1.3,0-2.3-0.4-3-1.2s-1.1-1.8-1.1-3.1V135h1.4v6.4
		c0,0.9,0.2,1.7,0.7,2.2c0.5,0.5,1.2,0.8,2.1,0.8c1,0,1.8-0.3,2.5-1c0.6-0.6,0.9-1.6,0.9-2.9V135z"/>
	<path class="st1" d="M79.1,134.8c1.6,0,2.8,0.5,3.8,1.6c1,1.1,1.4,2.4,1.4,3.9c0,0.2,0,0.4,0,0.7H75c0.1,1.1,0.6,1.9,1.4,2.5
		c0.8,0.6,1.7,0.9,2.8,0.9c0.8,0,1.5-0.2,2.1-0.5c0.6-0.3,1-0.8,1.3-1.3l1.2,0.7c-0.5,0.7-1.1,1.3-1.9,1.8c-0.8,0.4-1.7,0.7-2.7,0.7
		c-1.6,0-3-0.5-4-1.6c-1-1-1.6-2.3-1.6-3.9c0-1.6,0.5-2.9,1.5-3.9C76.2,135.3,77.5,134.8,79.1,134.8z M79.1,136.1
		c-1.1,0-2,0.3-2.7,1s-1.2,1.5-1.3,2.5h7.8c-0.1-1.1-0.6-2-1.3-2.6C80.9,136.4,80,136.1,79.1,136.1z"/>
	<path class="st1" d="M87.9,136.7c0.6-1.3,1.7-1.9,3.3-1.9v1.3c-1,0-1.7,0.3-2.4,0.8c-0.6,0.6-0.9,1.4-0.9,2.6v5.8h-1.4V135h1.4
		V136.7z"/>
	<path class="st1" d="M94.5,132.5c-0.2,0.2-0.4,0.3-0.7,0.3s-0.5-0.1-0.7-0.3c-0.2-0.2-0.3-0.4-0.3-0.7c0-0.3,0.1-0.5,0.3-0.7
		c0.2-0.2,0.4-0.3,0.7-0.3s0.5,0.1,0.7,0.3c0.2,0.2,0.3,0.4,0.3,0.7C94.8,132.1,94.7,132.3,94.5,132.5z M93.1,145.5V135h1.4v10.5
		H93.1z"/>
	<path class="st1" d="M108.6,134.8c1.2,0,2.1,0.4,2.8,1.1s1.1,1.8,1.1,3.1v6.5h-1.4v-6.5c0-0.9-0.2-1.6-0.7-2.1
		c-0.5-0.5-1.1-0.7-1.9-0.7c-0.9,0-1.6,0.3-2.1,0.9s-0.8,1.5-0.8,2.7v5.8h-1.4v-6.5c0-0.9-0.2-1.6-0.7-2.1s-1-0.7-1.8-0.7
		c-0.8,0-1.6,0.3-2.1,0.9c-0.6,0.6-0.9,1.5-0.9,2.7v5.8h-1.4V135h1.4v1.5c0.8-1.2,1.8-1.8,3.2-1.8c1.5,0,2.6,0.6,3.2,1.9
		C105.9,135.4,107.1,134.8,108.6,134.8z"/>
	<path class="st1" d="M116.6,132.5c-0.2,0.2-0.4,0.3-0.7,0.3c-0.3,0-0.5-0.1-0.7-0.3c-0.2-0.2-0.3-0.4-0.3-0.7
		c0-0.3,0.1-0.5,0.3-0.7c0.2-0.2,0.4-0.3,0.7-0.3c0.3,0,0.5,0.1,0.7,0.3c0.2,0.2,0.3,0.4,0.3,0.7
		C116.9,132.1,116.8,132.3,116.6,132.5z M115.2,145.5V135h1.4v10.5H115.2z"/>
	<path class="st1" d="M124.3,134.8c1.6,0,2.8,0.5,3.8,1.6c1,1.1,1.4,2.4,1.4,3.9c0,0.2,0,0.4,0,0.7h-9.2c0.1,1.1,0.6,1.9,1.4,2.5
		s1.7,0.9,2.8,0.9c0.8,0,1.5-0.2,2.1-0.5s1-0.8,1.3-1.3l1.2,0.7c-0.5,0.7-1.1,1.3-1.9,1.8c-0.8,0.4-1.7,0.7-2.7,0.7
		c-1.6,0-3-0.5-4-1.6c-1-1-1.6-2.3-1.6-3.9c0-1.6,0.5-2.9,1.5-3.9C121.4,135.3,122.7,134.8,124.3,134.8z M124.3,136.1
		c-1.1,0-2,0.3-2.7,1c-0.7,0.7-1.2,1.5-1.3,2.5h7.8c-0.1-1.1-0.6-2-1.3-2.6C126.1,136.4,125.3,136.1,124.3,136.1z"/>
	<path class="st1" d="M136.7,134.8c1.3,0,2.3,0.4,3,1.2c0.7,0.8,1.1,1.8,1.1,3.1v6.4h-1.4V139c0-0.9-0.2-1.7-0.7-2.2
		c-0.5-0.5-1.2-0.8-2.1-0.8c-1,0-1.8,0.3-2.5,1c-0.6,0.6-0.9,1.6-0.9,2.9v5.5h-1.4V135h1.4v1.6C133.9,135.4,135.1,134.8,136.7,134.8
		z"/>
	<path class="st1" d="M149,136.3h-3v6.4c0,0.6,0.1,1,0.3,1.2c0.2,0.2,0.6,0.4,1,0.4s1,0,1.7,0v1.2c-1.5,0.2-2.6,0.1-3.3-0.3
		c-0.7-0.4-1.1-1.3-1.1-2.5v-6.4h-2.2V135h2.2v-2.5l1.4-0.4v2.9h3V136.3z"/>
	<path class="st1" d="M159.5,144.2c-1.1,1.1-2.4,1.6-3.9,1.6c-1.5,0-2.8-0.5-3.9-1.6c-1.1-1.1-1.6-2.4-1.6-3.9s0.5-2.9,1.6-3.9
		c1.1-1.1,2.4-1.6,3.9-1.6c1.5,0,2.8,0.5,3.9,1.6c1.1,1.1,1.6,2.4,1.6,3.9S160.5,143.1,159.5,144.2z M152.6,143.2
		c0.8,0.8,1.8,1.2,2.9,1.2s2.1-0.4,2.9-1.2s1.2-1.8,1.2-2.9s-0.4-2.1-1.2-2.9c-0.8-0.8-1.8-1.2-2.9-1.2s-2.1,0.4-2.9,1.2
		c-0.8,0.8-1.2,1.8-1.2,2.9S151.8,142.4,152.6,143.2z"/>
	<path class="st1" d="M164.3,137.7c0,0.5,0.2,0.8,0.6,1.1c0.4,0.3,0.9,0.5,1.5,0.7c0.6,0.2,1.2,0.3,1.8,0.5s1.1,0.5,1.5,0.9
		c0.4,0.4,0.6,1,0.6,1.8c0,0.9-0.4,1.6-1.1,2.2c-0.7,0.6-1.6,0.8-2.7,0.8c-1,0-1.9-0.2-2.6-0.7c-0.7-0.4-1.2-1-1.5-1.7l1.2-0.7
		c0.2,0.5,0.5,1,1.1,1.3c0.5,0.3,1.1,0.5,1.8,0.5c0.7,0,1.3-0.1,1.7-0.4c0.5-0.3,0.7-0.7,0.7-1.3c0-0.5-0.2-0.9-0.6-1.1
		c-0.4-0.3-0.9-0.5-1.5-0.7c-0.6-0.2-1.2-0.3-1.8-0.5c-0.6-0.2-1.1-0.5-1.5-0.9c-0.4-0.4-0.6-1-0.6-1.7c0-0.9,0.3-1.6,1-2.1
		c0.7-0.6,1.5-0.9,2.6-0.9c0.9,0,1.6,0.2,2.2,0.6c0.6,0.4,1.1,0.9,1.4,1.6l-1.2,0.7c-0.4-1-1.2-1.5-2.5-1.5c-0.6,0-1.1,0.1-1.6,0.4
		C164.5,136.8,164.3,137.2,164.3,137.7z"/>
</g>
<g id="XMLID_3168_">
	<g>
		<path id="XMLID_78_" class="st1" d="M118.1,29.9l-41,0l0,75.9l59.5,0V48.3L118.1,29.9z M118.8,34.2l13.4,13.4l-13.4,0V34.2z
			 M79.6,103.3l0-70.8l36.7,0v17.7l17.7,0l0,53.1L79.6,103.3z"/>
		<path id="XMLID_77_" class="st1" d="M122.6,56.5l-20.2,0c-0.7,0-1.3,0.6-1.3,1.3s0.6,1.3,1.3,1.3l20.2,0c0.7,0,1.3-0.6,1.3-1.3
			S123.3,56.5,122.6,56.5z"/>
		<path id="XMLID_76_" class="st1" d="M97.8,52.9l-5.4,4.4l-1.7-1.7c-0.5-0.5-1.3-0.5-1.8,0s-0.5,1.3,0,1.8l2.5,2.5
			c0.2,0.2,0.6,0.4,0.9,0.4c0.3,0,0.6-0.1,0.8-0.3l6.3-5.1c0.5-0.4,0.6-1.2,0.2-1.8C99.1,52.6,98.3,52.5,97.8,52.9z"/>
		<path id="XMLID_75_" class="st1" d="M122.6,70.4l-20.2,0c-0.7,0-1.3,0.6-1.3,1.3s0.6,1.3,1.3,1.3l20.2,0c0.7,0,1.3-0.6,1.3-1.3
			S123.3,70.4,122.6,70.4z"/>
		<path id="XMLID_74_" class="st1" d="M97.8,66.9l-5.4,4.4l-1.7-1.7c-0.5-0.5-1.3-0.5-1.8,0c-0.5,0.5-0.5,1.3,0,1.8l2.5,2.5
			c0.2,0.2,0.6,0.4,0.9,0.4c0.3,0,0.6-0.1,0.8-0.3l6.3-5.1c0.5-0.4,0.6-1.2,0.2-1.8C99.1,66.5,98.3,66.4,97.8,66.9z"/>
		<path id="XMLID_73_" class="st1" d="M122.6,84.3l-20.2,0c-0.7,0-1.3,0.6-1.3,1.3s0.6,1.3,1.3,1.3l20.2,0c0.7,0,1.3-0.6,1.3-1.3
			C123.9,84.9,123.3,84.3,122.6,84.3z"/>
		<path id="XMLID_72_" class="st1" d="M97.8,80.8l-5.4,4.4l-1.7-1.7c-0.5-0.5-1.3-0.5-1.8,0c-0.5,0.5-0.5,1.3,0,1.8l2.5,2.5
			c0.2,0.2,0.6,0.4,0.9,0.4c0.3,0,0.6-0.1,0.8-0.3l6.3-5.1c0.5-0.4,0.6-1.2,0.2-1.8C99.1,80.4,98.3,80.3,97.8,80.8z"/>
	</g>
</g>
</svg>
