<?xml version="1.0" encoding="utf-8"?>
<!-- Generator: Adobe Illustrator 23.0.6, SVG Export Plug-In . SVG Version: 6.00 Build 0)  -->
<svg version="1.1" id="Layer_1" xmlns="http://www.w3.org/2000/svg" xmlns:xlink="http://www.w3.org/1999/xlink" x="0px" y="0px"
	 viewBox="0 0 100 100" style="enable-background:new 0 0 100 100;" xml:space="preserve">
<style type="text/css">
	.st0{fill:#FFFFFF;}
</style>
<g id="XMLID_4240_">
	<g id="XMLID_4309_">
		<path id="XMLID_4310_" class="st0" d="M12.2,96.9c-2.4,0-4.8-0.9-6.6-2.7C2,90.6,2,84.6,5.6,81l18-18c0.6-0.6,1.6-0.6,2.2,0l11,11
			c0.6,0.6,0.6,1.6,0,2.2l-18,18C17,96,14.6,96.9,12.2,96.9z M24.7,66.3L7.8,83.2c-2.4,2.4-2.4,6.3,0,8.8c2.4,2.4,6.3,2.4,8.8,0
			l16.9-16.9L24.7,66.3z"/>
	</g>
	<g id="XMLID_4305_">
		<path id="XMLID_4306_" class="st0" d="M33.3,74.3c-0.4,0-0.8-0.2-1.1-0.5L26,67.6c-0.6-0.6-0.6-1.6,0-2.2l11.7-11.8
			c0.6-0.6,1.6-0.6,2.2,0l0.2,0.2c0,0,0.1,0.1,0.1,0.2c1.6,2.1,3.5,4,5.6,5.6c0.1,0,0.1,0.1,0.2,0.1l0.2,0.2c0.6,0.6,0.6,1.6,0,2.2
			L34.4,73.8C34.1,74.1,33.7,74.3,33.3,74.3z M29.3,66.4l4.1,4.1l9.4-9.4c-1.5-1.2-2.8-2.6-4.1-4.1L29.3,66.4z"/>
	</g>
	<g id="XMLID_4301_">
		<path id="XMLID_4302_" class="st0" d="M63.9,62.5c-14.7,0-26.6-11.9-26.6-26.6S49.2,9.3,63.9,9.3s26.6,11.9,26.6,26.6
			S78.6,62.5,63.9,62.5z M63.9,12.4c-13,0-23.5,10.5-23.5,23.5s10.5,23.5,23.5,23.5c13,0,23.5-10.5,23.5-23.5S76.9,12.4,63.9,12.4z"
			/>
	</g>
	<g id="XMLID_4297_">
		<path id="XMLID_4298_" class="st0" d="M63.9,68.8C45.8,68.8,31,54,31,35.9S45.8,3,63.9,3C82,3,96.8,17.8,96.8,35.9
			S82,68.8,63.9,68.8z M63.9,6.1c-16.4,0-29.8,13.4-29.8,29.8s13.4,29.8,29.8,29.8c16.4,0,29.8-13.4,29.8-29.8S80.3,6.1,63.9,6.1z"
			/>
	</g>
	<g id="XMLID_4293_">
		<path id="XMLID_4294_" class="st0" d="M63.9,37.5c-6,0-11-4.9-11-11s4.9-11,11-11c6,0,11,4.9,11,11S69.9,37.5,63.9,37.5z
			 M63.9,18.7c-4.3,0-7.8,3.5-7.8,7.8s3.5,7.8,7.8,7.8c4.3,0,7.8-3.5,7.8-7.8S68.2,18.7,63.9,18.7z"/>
	</g>
	<g id="XMLID_4289_">
		<path id="XMLID_4290_" class="st0" d="M63.9,62.5c-6.8,0-13.3-2.6-18.3-7.3c-0.3-0.3-0.5-0.7-0.5-1.1v-0.9
			c0-10.4,8.4-18.8,18.8-18.8c10.4,0,18.8,8.4,18.8,18.8v0.9c0,0.4-0.2,0.8-0.5,1.1C77.2,59.9,70.7,62.5,63.9,62.5z M48.2,53.4
			c4.3,3.9,9.9,6,15.7,6c5.8,0,11.3-2.1,15.7-6v-0.3c0-8.6-7-15.7-15.7-15.7c-8.6,0-15.7,7-15.7,15.7V53.4z"/>
	</g>
	<g id="XMLID_4285_">
		<path id="XMLID_4286_" class="st0" d="M70.2,97H54.5c-0.9,0-1.6-0.7-1.6-1.6v-1.6c0-5.2,4.2-9.4,9.4-9.4c5.2,0,9.4,4.2,9.4,9.4
			v1.6C71.7,96.3,71,97,70.2,97z M56.1,93.9h12.5c0-3.5-2.8-6.3-6.3-6.3C58.9,87.6,56.1,90.4,56.1,93.9z"/>
	</g>
	<g id="XMLID_4281_">
		<path id="XMLID_4282_" class="st0" d="M62.3,87.6c-3.5,0-6.3-2.8-6.3-6.3s2.8-6.3,6.3-6.3c3.5,0,6.3,2.8,6.3,6.3
			S65.8,87.6,62.3,87.6z M62.3,78.2c-1.7,0-3.1,1.4-3.1,3.1s1.4,3.1,3.1,3.1c1.7,0,3.1-1.4,3.1-3.1S64.1,78.2,62.3,78.2z"/>
	</g>
	<g id="XMLID_4277_">
		<path id="XMLID_4278_" class="st0" d="M95.2,97H79.6c-0.9,0-1.6-0.7-1.6-1.6v-1.6c0-5.2,4.2-9.4,9.4-9.4c5.2,0,9.4,4.2,9.4,9.4
			v1.6C96.8,96.3,96.1,97,95.2,97z M81.1,93.9h12.5c0-3.5-2.8-6.3-6.3-6.3C83.9,87.6,81.1,90.4,81.1,93.9z"/>
	</g>
	<g id="XMLID_4273_">
		<path id="XMLID_4274_" class="st0" d="M87.4,87.6c-3.5,0-6.3-2.8-6.3-6.3s2.8-6.3,6.3-6.3c3.5,0,6.3,2.8,6.3,6.3
			S90.8,87.6,87.4,87.6z M87.4,78.2c-1.7,0-3.1,1.4-3.1,3.1s1.4,3.1,3.1,3.1c1.7,0,3.1-1.4,3.1-3.1S89.1,78.2,87.4,78.2z"/>
	</g>
	<g id="XMLID_4271_">
		<rect id="XMLID_4272_" x="21.6" y="32.8" class="st0" width="3.1" height="3.1"/>
	</g>
	<g id="XMLID_4269_">
		<rect id="XMLID_4270_" x="15.3" y="32.8" class="st0" width="3.1" height="3.1"/>
	</g>
	<g id="XMLID_4267_">
		<rect id="XMLID_4268_" x="15.3" y="26.5" class="st0" width="3.1" height="3.1"/>
	</g>
	<g id="XMLID_4265_">
		<rect id="XMLID_4266_" x="15.3" y="39" class="st0" width="3.1" height="3.1"/>
	</g>
	<g id="XMLID_4263_">
		<rect id="XMLID_4264_" x="9.1" y="32.8" class="st0" width="3.1" height="3.1"/>
	</g>
	<g id="XMLID_4261_">
		<rect id="XMLID_4262_" x="9.1" y="26.5" class="st0" width="3.1" height="3.1"/>
	</g>
	<g id="XMLID_4259_">
		<rect id="XMLID_4260_" x="9.1" y="39" class="st0" width="3.1" height="3.1"/>
	</g>
	<g id="XMLID_4257_">
		<rect id="XMLID_4258_" x="9.1" y="45.3" class="st0" width="3.1" height="3.1"/>
	</g>
	<g id="XMLID_4255_">
		<rect id="XMLID_4256_" x="9.1" y="20.2" class="st0" width="3.1" height="3.1"/>
	</g>
	<g id="XMLID_4253_">
		<rect id="XMLID_4254_" x="2.8" y="32.8" class="st0" width="3.1" height="3.1"/>
	</g>
	<g id="XMLID_4251_">
		<rect id="XMLID_4252_" x="2.8" y="26.5" class="st0" width="3.1" height="3.1"/>
	</g>
	<g id="XMLID_4249_">
		<rect id="XMLID_4250_" x="2.8" y="39" class="st0" width="3.1" height="3.1"/>
	</g>
	<g id="XMLID_4247_">
		<rect id="XMLID_4248_" x="2.8" y="45.3" class="st0" width="3.1" height="3.1"/>
	</g>
	<g id="XMLID_4245_">
		<rect id="XMLID_4246_" x="2.8" y="20.2" class="st0" width="3.1" height="3.1"/>
	</g>
	<g id="XMLID_4243_">
		<rect id="XMLID_4244_" x="2.8" y="14" class="st0" width="3.1" height="3.1"/>
	</g>
	<g id="XMLID_4241_">
		<rect id="XMLID_4242_" x="2.8" y="51.6" class="st0" width="3.1" height="3.1"/>
	</g>
</g>
</svg>
