<?xml version="1.0" encoding="utf-8"?>
<!-- Generator: Adobe Illustrator 23.0.6, SVG Export Plug-In . SVG Version: 6.00 Build 0)  -->
<svg version="1.1" id="Layer_1" xmlns="http://www.w3.org/2000/svg" xmlns:xlink="http://www.w3.org/1999/xlink" x="0px" y="0px"
	 viewBox="0 0 200 200" style="enable-background:new 0 0 200 200;" xml:space="preserve">
<style type="text/css">
	.st0{fill:#FFFFFF;}
	.st1{fill:#2B318B;}
</style>
<path id="XMLID_4716_" class="st0" d="M100.4,13.9c51.5,0,93.3,35.9,93.3,80c0,44.2-41.7,80.1-93.3,80.1
	C49,173.9,7.2,138.1,7.2,93.9C7.2,49.7,49,13.9,100.4,13.9"/>
<g>
	<g>
		<path class="st1" d="M37.9,116.4l-1.4-3.6h-7l-1.4,3.6h-1.6l5.6-14.7h1.5l5.6,14.7H37.9z M30.1,111.4H36l-3-7.9L30.1,111.4z"/>
		<path class="st1" d="M49.9,101.7h1.4v14.7h-1.4v-2.1c-1,1.5-2.4,2.3-4.2,2.3c-1.5,0-2.8-0.5-3.8-1.6c-1.1-1.1-1.6-2.4-1.6-3.9
			c0-1.5,0.5-2.8,1.6-3.9c1.1-1.1,2.3-1.6,3.8-1.6c1.9,0,3.3,0.8,4.2,2.3V101.7z M42.8,114.1c0.8,0.8,1.8,1.2,2.9,1.2
			s2.1-0.4,2.9-1.2c0.8-0.8,1.2-1.8,1.2-2.9c0-1.2-0.4-2.1-1.2-2.9c-0.8-0.8-1.8-1.2-2.9-1.2s-2.1,0.4-2.9,1.2
			c-0.8,0.8-1.2,1.8-1.2,2.9C41.6,112.3,42,113.3,42.8,114.1z"/>
		<path class="st1" d="M65.4,105.7c1.2,0,2.1,0.4,2.8,1.1s1.1,1.8,1.1,3.1v6.5H68v-6.5c0-0.9-0.2-1.6-0.7-2.1
			c-0.5-0.5-1.1-0.7-1.9-0.7c-0.9,0-1.6,0.3-2.1,0.9c-0.5,0.6-0.8,1.5-0.8,2.7v5.8h-1.4v-6.5c0-0.9-0.2-1.6-0.7-2.1
			c-0.4-0.5-1-0.7-1.8-0.7c-0.8,0-1.6,0.3-2.1,0.9c-0.6,0.6-0.9,1.5-0.9,2.7v5.8h-1.4v-10.5h1.4v1.5c0.8-1.2,1.8-1.8,3.2-1.8
			c1.5,0,2.6,0.6,3.2,1.9C62.8,106.3,63.9,105.7,65.4,105.7z"/>
		<path class="st1" d="M73.4,103.4c-0.2,0.2-0.4,0.3-0.7,0.3c-0.3,0-0.5-0.1-0.7-0.3c-0.2-0.2-0.3-0.4-0.3-0.7
			c0-0.3,0.1-0.5,0.3-0.7c0.2-0.2,0.4-0.3,0.7-0.3c0.3,0,0.5,0.1,0.7,0.3c0.2,0.2,0.3,0.4,0.3,0.7C73.7,103,73.6,103.2,73.4,103.4z
			 M72,116.4v-10.5h1.4v10.5H72z"/>
		<path class="st1" d="M81.2,105.7c1.3,0,2.3,0.4,3,1.2c0.7,0.8,1.1,1.8,1.1,3.1v6.4H84V110c0-0.9-0.2-1.7-0.7-2.2
			c-0.5-0.5-1.2-0.8-2.1-0.8c-1,0-1.8,0.3-2.5,1c-0.6,0.6-0.9,1.6-0.9,2.9v5.5h-1.4v-10.5h1.4v1.6C78.5,106.3,79.7,105.7,81.2,105.7
			z"/>
		<path class="st1" d="M89.4,103.4c-0.2,0.2-0.4,0.3-0.7,0.3c-0.3,0-0.5-0.1-0.7-0.3c-0.2-0.2-0.3-0.4-0.3-0.7
			c0-0.3,0.1-0.5,0.3-0.7c0.2-0.2,0.4-0.3,0.7-0.3c0.3,0,0.5,0.1,0.7,0.3c0.2,0.2,0.3,0.4,0.3,0.7C89.7,103,89.6,103.2,89.4,103.4z
			 M88,116.4v-10.5h1.4v10.5H88z"/>
		<path class="st1" d="M93.5,108.6c0,0.5,0.2,0.8,0.6,1.1c0.4,0.3,0.9,0.5,1.5,0.7s1.2,0.3,1.8,0.5c0.6,0.2,1.1,0.5,1.5,0.9
			c0.4,0.5,0.6,1,0.6,1.8c0,0.9-0.4,1.6-1.1,2.2c-0.7,0.6-1.6,0.8-2.7,0.8c-1,0-1.9-0.2-2.6-0.7c-0.7-0.4-1.2-1-1.5-1.7l1.2-0.7
			c0.2,0.5,0.5,1,1.1,1.3s1.1,0.5,1.8,0.5c0.7,0,1.3-0.1,1.7-0.4c0.5-0.3,0.7-0.7,0.7-1.3c0-0.5-0.2-0.9-0.6-1.1
			c-0.4-0.3-0.9-0.5-1.5-0.7s-1.2-0.3-1.8-0.5s-1.1-0.5-1.5-0.9s-0.6-1-0.6-1.7c0-0.9,0.3-1.6,1-2.1s1.5-0.9,2.6-0.9
			c0.9,0,1.6,0.2,2.2,0.6c0.6,0.4,1.1,0.9,1.4,1.6l-1.2,0.7c-0.4-1-1.2-1.5-2.5-1.5c-0.6,0-1.1,0.1-1.6,0.4
			C93.7,107.7,93.5,108.1,93.5,108.6z"/>
		<path class="st1" d="M107,107.3h-3v6.4c0,0.6,0.1,1,0.3,1.2c0.2,0.2,0.6,0.4,1,0.4c0.4,0,1,0,1.7,0v1.2c-1.5,0.2-2.6,0.1-3.3-0.3
			c-0.7-0.4-1.1-1.3-1.1-2.5v-6.4h-2.2v-1.3h2.2v-2.5l1.4-0.4v2.9h3V107.3z"/>
		<path class="st1" d="M110.7,107.7c0.6-1.3,1.7-1.9,3.3-1.9v1.3c-1,0-1.7,0.3-2.4,0.8c-0.6,0.6-0.9,1.4-0.9,2.6v5.8h-1.4v-10.5h1.4
			V107.7z"/>
		<path class="st1" d="M124.3,105.9h1.4v10.5h-1.4v-2.1c-1,1.5-2.4,2.3-4.2,2.3c-1.5,0-2.8-0.5-3.8-1.6c-1.1-1.1-1.6-2.4-1.6-3.9
			c0-1.5,0.5-2.8,1.6-3.9c1.1-1.1,2.3-1.6,3.8-1.6c1.9,0,3.3,0.8,4.2,2.3V105.9z M117.2,114.1c0.8,0.8,1.8,1.2,2.9,1.2
			c1.2,0,2.1-0.4,2.9-1.2c0.8-0.8,1.2-1.8,1.2-2.9c0-1.2-0.4-2.1-1.2-2.9c-0.8-0.8-1.8-1.2-2.9-1.2c-1.2,0-2.1,0.4-2.9,1.2
			c-0.8,0.8-1.2,1.8-1.2,2.9C116,112.3,116.4,113.3,117.2,114.1z"/>
		<path class="st1" d="M133.5,116.7c-1.6,0-2.9-0.5-3.9-1.6s-1.6-2.4-1.6-3.9c0-1.6,0.5-2.9,1.6-3.9s2.4-1.6,3.9-1.6
			c1,0,2,0.2,2.8,0.7c0.8,0.5,1.4,1.2,1.8,2l-1.1,0.6c-0.3-0.6-0.7-1.1-1.4-1.5c-0.6-0.4-1.3-0.6-2.1-0.6c-1.2,0-2.1,0.4-2.9,1.2
			c-0.8,0.8-1.2,1.8-1.2,2.9c0,1.2,0.4,2.1,1.2,2.9c0.8,0.8,1.8,1.2,2.9,1.2c0.8,0,1.5-0.2,2.1-0.6s1.1-0.9,1.4-1.5l1.2,0.7
			c-0.4,0.8-1.1,1.5-1.9,2S134.5,116.7,133.5,116.7z"/>
		<path class="st1" d="M141.6,103.4c-0.2,0.2-0.4,0.3-0.7,0.3c-0.3,0-0.5-0.1-0.7-0.3c-0.2-0.2-0.3-0.4-0.3-0.7
			c0-0.3,0.1-0.5,0.3-0.7c0.2-0.2,0.4-0.3,0.7-0.3c0.3,0,0.5,0.1,0.7,0.3c0.2,0.2,0.3,0.4,0.3,0.7
			C141.9,103,141.8,103.2,141.6,103.4z M140.2,116.4v-10.5h1.4v10.5H140.2z"/>
		<path class="st1" d="M153.3,115.1c-1.1,1.1-2.4,1.6-3.9,1.6s-2.8-0.5-3.9-1.6c-1.1-1.1-1.6-2.4-1.6-3.9c0-1.6,0.5-2.9,1.6-3.9
			c1.1-1.1,2.4-1.6,3.9-1.6s2.8,0.5,3.9,1.6c1.1,1.1,1.6,2.4,1.6,3.9C154.9,112.7,154.4,114,153.3,115.1z M146.5,114.1
			c0.8,0.8,1.8,1.2,2.9,1.2c1.2,0,2.1-0.4,2.9-1.2c0.8-0.8,1.2-1.8,1.2-2.9c0-1.2-0.4-2.1-1.2-2.9c-0.8-0.8-1.8-1.2-2.9-1.2
			c-1.2,0-2.1,0.4-2.9,1.2c-0.8,0.8-1.2,1.8-1.2,2.9C145.3,112.3,145.7,113.3,146.5,114.1z M148.4,104.4h1.3l2-2.7H150L148.4,104.4z
			"/>
		<path class="st1" d="M162.1,105.7c1.3,0,2.3,0.4,3,1.2c0.7,0.8,1.1,1.8,1.1,3.1v6.4h-1.4V110c0-0.9-0.2-1.7-0.7-2.2
			c-0.5-0.5-1.2-0.8-2.1-0.8c-1,0-1.8,0.3-2.5,1c-0.6,0.6-0.9,1.6-0.9,2.9v5.5h-1.4v-10.5h1.4v1.6
			C159.4,106.3,160.6,105.7,162.1,105.7z"/>
		<path class="st1" d="M37.5,119.9h1.4v14.7h-1.4v-2.1c-1,1.5-2.4,2.3-4.2,2.3c-1.5,0-2.8-0.5-3.8-1.6c-1.1-1.1-1.6-2.4-1.6-3.9
			c0-1.5,0.5-2.8,1.6-3.9c1.1-1.1,2.3-1.6,3.8-1.6c1.9,0,3.3,0.8,4.2,2.3V119.9z M30.4,132.3c0.8,0.8,1.8,1.2,2.9,1.2
			s2.1-0.4,2.9-1.2c0.8-0.8,1.2-1.8,1.2-2.9c0-1.2-0.4-2.1-1.2-2.9c-0.8-0.8-1.8-1.2-2.9-1.2s-2.1,0.4-2.9,1.2
			c-0.8,0.8-1.2,1.8-1.2,2.9C29.2,130.5,29.6,131.5,30.4,132.3z"/>
		<path class="st1" d="M46.7,123.9c1.6,0,2.8,0.5,3.8,1.6c1,1.1,1.4,2.4,1.4,3.9c0,0.2,0,0.4,0,0.7h-9.2c0.1,1.1,0.6,1.9,1.4,2.5
			c0.8,0.6,1.7,0.9,2.8,0.9c0.8,0,1.5-0.2,2.1-0.5c0.6-0.3,1-0.8,1.3-1.3l1.2,0.7c-0.5,0.7-1.1,1.3-1.9,1.8
			c-0.8,0.4-1.7,0.7-2.7,0.7c-1.7,0-3-0.5-4-1.6c-1-1-1.6-2.3-1.6-3.9c0-1.6,0.5-2.9,1.5-3.9C43.7,124.4,45.1,123.9,46.7,123.9z
			 M46.7,125.2c-1.1,0-2,0.3-2.7,1c-0.7,0.7-1.2,1.5-1.3,2.5h7.8c-0.1-1.1-0.6-2-1.3-2.6C48.5,125.5,47.6,125.2,46.7,125.2z"/>
		<path class="st1" d="M64.2,134.8c-1.6,0-2.9-0.5-3.9-1.6s-1.6-2.4-1.6-3.9c0-1.6,0.5-2.9,1.6-3.9s2.4-1.6,3.9-1.6
			c1,0,2,0.2,2.8,0.7c0.8,0.5,1.4,1.2,1.8,2l-1.1,0.6c-0.3-0.6-0.7-1.1-1.4-1.5s-1.3-0.6-2.1-0.6c-1.2,0-2.1,0.4-2.9,1.2
			c-0.8,0.8-1.2,1.8-1.2,2.9c0,1.2,0.4,2.1,1.2,2.9c0.8,0.8,1.8,1.2,2.9,1.2c0.8,0,1.5-0.2,2.1-0.6c0.6-0.4,1.1-0.9,1.4-1.5l1.2,0.7
			c-0.4,0.8-1.1,1.5-1.9,2C66.2,134.6,65.2,134.8,64.2,134.8z"/>
		<path class="st1" d="M72.3,125.8c0.6-1.3,1.7-1.9,3.3-1.9v1.3c-1,0-1.7,0.3-2.4,0.8c-0.6,0.6-0.9,1.4-0.9,2.6v5.8h-1.4v-10.5h1.4
			V125.8z"/>
		<path class="st1" d="M81.7,123.9c1.6,0,2.8,0.5,3.8,1.6c1,1.1,1.4,2.4,1.4,3.9c0,0.2,0,0.4,0,0.7h-9.2c0.1,1.1,0.6,1.9,1.4,2.5
			c0.8,0.6,1.7,0.9,2.8,0.9c0.8,0,1.5-0.2,2.1-0.5c0.6-0.3,1-0.8,1.3-1.3l1.2,0.7c-0.5,0.7-1.1,1.3-1.9,1.8
			c-0.8,0.4-1.7,0.7-2.7,0.7c-1.7,0-3-0.5-4-1.6c-1-1-1.6-2.3-1.6-3.9c0-1.6,0.5-2.9,1.5-3.9C78.8,124.4,80.1,123.9,81.7,123.9z
			 M81.7,125.2c-1.1,0-2,0.3-2.7,1c-0.7,0.7-1.2,1.5-1.3,2.5h7.8c-0.1-1.1-0.6-2-1.3-2.6C83.5,125.5,82.7,125.2,81.7,125.2z"/>
		<path class="st1" d="M98.1,124.1h1.4v10.5h-1.4v-2.1c-1,1.5-2.4,2.3-4.2,2.3c-1.5,0-2.8-0.5-3.8-1.6c-1.1-1.1-1.6-2.4-1.6-3.9
			c0-1.5,0.5-2.8,1.6-3.9c1.1-1.1,2.3-1.6,3.8-1.6c1.9,0,3.3,0.8,4.2,2.3V124.1z M91.1,132.3c0.8,0.8,1.8,1.2,2.9,1.2
			s2.1-0.4,2.9-1.2c0.8-0.8,1.2-1.8,1.2-2.9c0-1.2-0.4-2.1-1.2-2.9c-0.8-0.8-1.8-1.2-2.9-1.2s-2.1,0.4-2.9,1.2
			c-0.8,0.8-1.2,1.8-1.2,2.9C89.9,130.5,90.3,131.5,91.1,132.3z"/>
		<path class="st1" d="M107.3,134.8c-1.6,0-2.9-0.5-3.9-1.6s-1.6-2.4-1.6-3.9c0-1.6,0.5-2.9,1.6-3.9s2.4-1.6,3.9-1.6
			c1,0,2,0.2,2.8,0.7c0.8,0.5,1.4,1.2,1.8,2l-1.1,0.6c-0.3-0.6-0.7-1.1-1.4-1.5c-0.6-0.4-1.3-0.6-2.1-0.6c-1.2,0-2.1,0.4-2.9,1.2
			c-0.8,0.8-1.2,1.8-1.2,2.9c0,1.2,0.4,2.1,1.2,2.9c0.8,0.8,1.8,1.2,2.9,1.2c0.8,0,1.5-0.2,2.1-0.6s1.1-0.9,1.4-1.5l1.2,0.7
			c-0.4,0.8-1.1,1.5-1.9,2S108.4,134.8,107.3,134.8z"/>
		<path class="st1" d="M115.4,121.6c-0.2,0.2-0.4,0.3-0.7,0.3c-0.3,0-0.5-0.1-0.7-0.3c-0.2-0.2-0.3-0.4-0.3-0.7
			c0-0.3,0.1-0.5,0.3-0.7c0.2-0.2,0.4-0.3,0.7-0.3c0.3,0,0.5,0.1,0.7,0.3c0.2,0.2,0.3,0.4,0.3,0.7
			C115.7,121.2,115.6,121.4,115.4,121.6z M114,134.6v-10.5h1.4v10.5H114z"/>
		<path class="st1" d="M127.1,133.3c-1.1,1.1-2.4,1.6-3.9,1.6s-2.8-0.5-3.9-1.6c-1.1-1.1-1.6-2.4-1.6-3.9c0-1.6,0.5-2.9,1.6-3.9
			c1.1-1.1,2.4-1.6,3.9-1.6s2.8,0.5,3.9,1.6c1.1,1.1,1.6,2.4,1.6,3.9C128.7,130.9,128.2,132.2,127.1,133.3z M120.3,132.3
			c0.8,0.8,1.8,1.2,2.9,1.2c1.2,0,2.1-0.4,2.9-1.2c0.8-0.8,1.2-1.8,1.2-2.9c0-1.2-0.4-2.1-1.2-2.9c-0.8-0.8-1.8-1.2-2.9-1.2
			c-1.2,0-2.1,0.4-2.9,1.2c-0.8,0.8-1.2,1.8-1.2,2.9C119.1,130.5,119.5,131.5,120.3,132.3z M122.2,122.6h1.3l2-2.7h-1.7L122.2,122.6
			z"/>
		<path class="st1" d="M136,123.9c1.3,0,2.3,0.4,3,1.2c0.7,0.8,1.1,1.8,1.1,3.1v6.4h-1.4v-6.4c0-0.9-0.2-1.7-0.7-2.2
			c-0.5-0.5-1.2-0.8-2.1-0.8c-1,0-1.8,0.3-2.5,1c-0.6,0.6-0.9,1.6-0.9,2.9v5.5h-1.4v-10.5h1.4v1.6
			C133.2,124.5,134.4,123.9,136,123.9z"/>
		<path class="st1" d="M157,119.9h1.4v14.7H157v-2.1c-1,1.5-2.4,2.3-4.2,2.3c-1.5,0-2.8-0.5-3.8-1.6c-1.1-1.1-1.6-2.4-1.6-3.9
			c0-1.5,0.5-2.8,1.6-3.9c1.1-1.1,2.3-1.6,3.8-1.6c1.9,0,3.3,0.8,4.2,2.3V119.9z M150,132.3c0.8,0.8,1.8,1.2,2.9,1.2
			c1.2,0,2.1-0.4,2.9-1.2c0.8-0.8,1.2-1.8,1.2-2.9c0-1.2-0.4-2.1-1.2-2.9c-0.8-0.8-1.8-1.2-2.9-1.2c-1.2,0-2.1,0.4-2.9,1.2
			c-0.8,0.8-1.2,1.8-1.2,2.9C148.8,130.5,149.2,131.5,150,132.3z"/>
		<path class="st1" d="M166.2,123.9c1.6,0,2.8,0.5,3.8,1.6c1,1.1,1.4,2.4,1.4,3.9c0,0.2,0,0.4,0,0.7h-9.2c0.1,1.1,0.6,1.9,1.4,2.5
			c0.8,0.6,1.7,0.9,2.8,0.9c0.8,0,1.5-0.2,2.1-0.5c0.6-0.3,1-0.8,1.3-1.3l1.2,0.7c-0.5,0.7-1.1,1.3-1.9,1.8s-1.7,0.7-2.7,0.7
			c-1.6,0-3-0.5-4-1.6c-1-1-1.6-2.3-1.6-3.9c0-1.6,0.5-2.9,1.5-3.9S164.6,123.9,166.2,123.9z M166.2,125.2c-1.1,0-2,0.3-2.7,1
			s-1.2,1.5-1.3,2.5h7.8c-0.1-1.1-0.6-2-1.3-2.6S167.1,125.2,166.2,125.2z"/>
		<path class="st1" d="M46.8,142c1.5,0,2.8,0.5,3.8,1.6c1.1,1.1,1.6,2.4,1.6,3.9c0,1.5-0.5,2.8-1.6,3.9c-1.1,1.1-2.3,1.6-3.8,1.6
			c-1.9,0-3.3-0.8-4.2-2.3v6.3h-1.4v-14.7h1.4v2.1C43.5,142.8,44.9,142,46.8,142z M43.8,150.5c0.8,0.8,1.8,1.2,2.9,1.2
			c1.2,0,2.1-0.4,2.9-1.2c0.8-0.8,1.2-1.8,1.2-2.9c0-1.2-0.4-2.1-1.2-2.9c-0.8-0.8-1.8-1.2-2.9-1.2c-1.2,0-2.1,0.4-2.9,1.2
			c-0.8,0.8-1.2,1.8-1.2,2.9C42.6,148.7,43,149.7,43.8,150.5z"/>
		<path class="st1" d="M55.9,144c0.6-1.3,1.7-1.9,3.3-1.9v1.3c-1,0-1.7,0.3-2.4,0.8c-0.6,0.6-0.9,1.4-0.9,2.6v5.8h-1.4v-10.5h1.4
			V144z"/>
		<path class="st1" d="M69.3,151.4c-1.1,1.1-2.4,1.6-3.9,1.6c-1.5,0-2.8-0.5-3.9-1.6c-1.1-1.1-1.6-2.4-1.6-3.9
			c0-1.6,0.5-2.9,1.6-3.9c1.1-1.1,2.4-1.6,3.9-1.6c1.5,0,2.8,0.5,3.9,1.6c1.1,1.1,1.6,2.4,1.6,3.9C70.9,149.1,70.3,150.4,69.3,151.4
			z M62.4,150.5c0.8,0.8,1.8,1.2,2.9,1.2s2.1-0.4,2.9-1.2c0.8-0.8,1.2-1.8,1.2-2.9c0-1.2-0.4-2.1-1.2-2.9c-0.8-0.8-1.8-1.2-2.9-1.2
			s-2.1,0.4-2.9,1.2c-0.8,0.8-1.2,1.8-1.2,2.9C61.2,148.7,61.6,149.7,62.4,150.5z"/>
		<path class="st1" d="M80.3,142.3h1.5l-4.3,10.5h-1.7l-4.3-10.5H73l3.7,9L80.3,142.3z"/>
		<path class="st1" d="M87.9,142c1.6,0,2.8,0.5,3.8,1.6c1,1.1,1.4,2.4,1.4,3.9c0,0.2,0,0.4,0,0.7h-9.2c0.1,1.1,0.6,1.9,1.4,2.5
			c0.8,0.6,1.7,0.9,2.8,0.9c0.8,0,1.5-0.2,2.1-0.5c0.6-0.3,1-0.8,1.3-1.3l1.2,0.7c-0.5,0.7-1.1,1.3-1.9,1.8
			c-0.8,0.4-1.7,0.7-2.7,0.7c-1.7,0-3-0.5-4-1.6c-1-1-1.6-2.3-1.6-3.9c0-1.6,0.5-2.9,1.5-3.9C85,142.6,86.3,142,87.9,142z
			 M87.9,143.4c-1.1,0-2,0.3-2.7,1c-0.7,0.7-1.2,1.5-1.3,2.5h7.8c-0.1-1.1-0.6-2-1.3-2.6C89.7,143.7,88.8,143.4,87.9,143.4z"/>
		<path class="st1" d="M100.1,142c1.6,0,2.8,0.5,3.8,1.6c1,1.1,1.4,2.4,1.4,3.9c0,0.2,0,0.4,0,0.7h-9.2c0.1,1.1,0.6,1.9,1.4,2.5
			c0.8,0.6,1.7,0.9,2.8,0.9c0.8,0,1.5-0.2,2.1-0.5c0.6-0.3,1-0.8,1.3-1.3l1.2,0.7c-0.5,0.7-1.1,1.3-1.9,1.8s-1.7,0.7-2.7,0.7
			c-1.7,0-3-0.5-4-1.6c-1-1-1.6-2.3-1.6-3.9c0-1.6,0.5-2.9,1.5-3.9C97.2,142.6,98.5,142,100.1,142z M100.1,143.4c-1.1,0-2,0.3-2.7,1
			c-0.7,0.7-1.2,1.5-1.3,2.5h7.8c-0.1-1.1-0.6-2-1.3-2.6S101.1,143.4,100.1,143.4z"/>
		<path class="st1" d="M116.6,138.1h1.4v14.7h-1.4v-2.1c-1,1.5-2.4,2.3-4.2,2.3c-1.5,0-2.8-0.5-3.8-1.6c-1.1-1.1-1.6-2.4-1.6-3.9
			c0-1.5,0.5-2.8,1.6-3.9c1.1-1.1,2.3-1.6,3.8-1.6c1.9,0,3.3,0.8,4.2,2.3V138.1z M109.5,150.5c0.8,0.8,1.8,1.2,2.9,1.2
			c1.2,0,2.1-0.4,2.9-1.2c0.8-0.8,1.2-1.8,1.2-2.9c0-1.2-0.4-2.1-1.2-2.9c-0.8-0.8-1.8-1.2-2.9-1.2c-1.2,0-2.1,0.4-2.9,1.2
			c-0.8,0.8-1.2,1.8-1.2,2.9C108.3,148.7,108.7,149.7,109.5,150.5z"/>
		<path class="st1" d="M129.7,151.4c-1.1,1.1-2.4,1.6-3.9,1.6s-2.8-0.5-3.9-1.6c-1.1-1.1-1.6-2.4-1.6-3.9c0-1.6,0.5-2.9,1.6-3.9
			c1.1-1.1,2.4-1.6,3.9-1.6s2.8,0.5,3.9,1.6c1.1,1.1,1.6,2.4,1.6,3.9C131.3,149.1,130.8,150.4,129.7,151.4z M122.8,150.5
			c0.8,0.8,1.8,1.2,2.9,1.2c1.2,0,2.1-0.4,2.9-1.2c0.8-0.8,1.2-1.8,1.2-2.9c0-1.2-0.4-2.1-1.2-2.9c-0.8-0.8-1.8-1.2-2.9-1.2
			c-1.2,0-2.1,0.4-2.9,1.2c-0.8,0.8-1.2,1.8-1.2,2.9C121.6,148.7,122,149.7,122.8,150.5z"/>
		<path class="st1" d="M135,144c0.6-1.3,1.7-1.9,3.3-1.9v1.3c-1,0-1.7,0.3-2.4,0.8c-0.6,0.6-0.9,1.4-0.9,2.6v5.8h-1.4v-10.5h1.4V144
			z"/>
		<path class="st1" d="M144.4,142c1.6,0,2.8,0.5,3.8,1.6c1,1.1,1.4,2.4,1.4,3.9c0,0.2,0,0.4,0,0.7h-9.2c0.1,1.1,0.6,1.9,1.4,2.5
			c0.8,0.6,1.7,0.9,2.8,0.9c0.8,0,1.5-0.2,2.1-0.5c0.6-0.3,1-0.8,1.3-1.3l1.2,0.7c-0.5,0.7-1.1,1.3-1.9,1.8s-1.7,0.7-2.7,0.7
			c-1.6,0-3-0.5-4-1.6c-1-1-1.6-2.3-1.6-3.9c0-1.6,0.5-2.9,1.5-3.9S142.8,142,144.4,142z M144.4,143.4c-1.1,0-2,0.3-2.7,1
			s-1.2,1.5-1.3,2.5h7.8c-0.1-1.1-0.6-2-1.3-2.6S145.3,143.4,144.4,143.4z"/>
		<path class="st1" d="M152.5,145c0,0.5,0.2,0.8,0.6,1.1c0.4,0.3,0.9,0.5,1.5,0.7s1.2,0.3,1.8,0.5c0.6,0.2,1.1,0.5,1.5,0.9
			c0.4,0.5,0.6,1,0.6,1.8c0,0.9-0.4,1.6-1.1,2.2c-0.7,0.6-1.6,0.8-2.7,0.8c-1,0-1.9-0.2-2.6-0.7c-0.7-0.4-1.2-1-1.5-1.7l1.2-0.7
			c0.2,0.5,0.5,1,1.1,1.3c0.5,0.3,1.1,0.5,1.8,0.5c0.7,0,1.3-0.1,1.7-0.4c0.5-0.3,0.7-0.7,0.7-1.3c0-0.5-0.2-0.9-0.6-1.1
			c-0.4-0.3-0.9-0.5-1.5-0.7c-0.6-0.2-1.2-0.3-1.8-0.5c-0.6-0.2-1.1-0.5-1.5-0.9c-0.4-0.4-0.6-1-0.6-1.7c0-0.9,0.3-1.6,1-2.1
			c0.7-0.6,1.5-0.9,2.6-0.9c0.9,0,1.6,0.2,2.2,0.6c0.6,0.4,1.1,0.9,1.4,1.6l-1.2,0.7c-0.4-1-1.2-1.5-2.5-1.5c-0.6,0-1.1,0.1-1.6,0.4
			C152.7,144.1,152.5,144.5,152.5,145z"/>
	</g>
</g>
<path id="XMLID_479_" class="st1" d="M136.2,80.7l-3.5-1.2c2-1.6,3.2-3.9,3.2-6.6v-2.6c0-0.6-0.1-1.1-0.2-1.7
	c-0.1-0.7-0.8-1.1-1.5-1c-0.7,0.1-1.1,0.8-1,1.5c0.1,0.4,0.1,0.8,0.1,1.2v2.6c0,3.3-2.6,5.9-5.9,5.9c-3.3,0-5.9-2.6-5.9-5.9v-2.6
	c0-3.3,2.6-5.9,5.9-5.9c1.1,0,2.1,0.3,3,0.8c0.6,0.4,1.4,0.2,1.8-0.4c0.4-0.6,0.2-1.4-0.4-1.8c-0.9-0.6-2-0.9-3-1.1V46.5
	c0-6.4-5.2-11.5-11.5-11.5h-5l3.9-2.3c0.6-0.4,0.8-1.1,0.5-1.8l-3.4-5.9c-0.2-0.3-0.5-0.5-0.8-0.6c-0.3-0.1-0.7,0-1,0.1l-4.1,2.3
	c-0.6-0.5-1.3-0.9-2.1-1.2V21c0-0.7-0.6-1.3-1.3-1.3h-6.8c-0.7,0-1.3,0.6-1.3,1.3v4.7c-0.7,0.3-1.4,0.7-2.1,1.2l-4.1-2.3
	c-0.3-0.2-0.6-0.2-1-0.1c-0.3,0.1-0.6,0.3-0.8,0.6l-3.4,5.9c-0.4,0.6-0.1,1.4,0.5,1.8l3.9,2.3h-5c-6.4,0-11.5,5.2-11.5,11.5v15.4
	c-1.1,0.2-2.1,0.5-3,1.1c-0.6,0.4-0.8,1.1-0.4,1.8c0.4,0.6,1.1,0.8,1.8,0.4c0.9-0.5,1.9-0.8,3-0.8c3.3,0,5.9,2.6,5.9,5.9v2.6
	c0,3.3-2.6,5.9-5.9,5.9s-5.9-2.6-5.9-5.9v-2.6c0-0.4,0-0.8,0.1-1.2c0.1-0.7-0.3-1.4-1-1.5c-0.7-0.1-1.4,0.3-1.5,1
	c-0.1,0.6-0.2,1.1-0.2,1.7v2.6c0,2.7,1.3,5.1,3.2,6.6L65,80.7c-4.6,1.6-7.8,6-7.8,10.9v5c0,0.7,0.6,1.3,1.3,1.3h35.3
	c0.7,0,1.3-0.6,1.3-1.3c0-0.7-0.6-1.3-1.3-1.3h-7.2v-3.7c0-3.8,2.4-7.2,6-8.5l1.5-0.5l5.3,9.2c0.2,0.4,0.7,0.6,1.1,0.6
	c0.5,0,0.9-0.2,1.1-0.6l5.3-9.2l1.5,0.5c3.6,1.3,6,4.7,6,8.5v3.7H99.8c-0.7,0-1.3,0.6-1.3,1.3c0,0.7,0.6,1.3,1.3,1.3h42.8
	c0.7,0,1.3-0.6,1.3-1.3v-5C144,86.6,140.8,82.3,136.2,80.7z M130.1,81.3l1.2,0.4l-3.9,6.8l-3.9-6.8l1.2-0.4H130.1z M89.6,27.4
	l3.7,2.1c0.5,0.3,1.1,0.2,1.5-0.1c0.8-0.7,1.8-1.3,2.8-1.6c0.5-0.2,0.9-0.7,0.9-1.2v-4.3h4.3v4.3c0,0.5,0.3,1,0.9,1.2
	c1,0.4,2,0.9,2.8,1.6c0.4,0.4,1,0.4,1.5,0.1l3.7-2.1l2.1,3.7l-3.7,2.1c-0.5,0.3-0.7,0.8-0.6,1.3c0.1,0.5,0.2,1.1,0.2,1.6
	c0,0.5-0.1,1.1-0.2,1.6c-0.1,0.5,0.1,1.1,0.6,1.3l3.7,2.1l-2.1,3.7l-3.7-2.1c-0.5-0.3-1.1-0.2-1.5,0.1c-0.8,0.7-1.8,1.3-2.8,1.6
	c-0.5,0.2-0.9,0.7-0.9,1.2v4.3h-4.3v-4.3c0-0.5-0.3-1-0.9-1.2c-1-0.4-2-0.9-2.8-1.6c-0.4-0.4-1-0.4-1.5-0.1L89.6,45l-2.1-3.7
	l3.7-2.1c0.5-0.3,0.7-0.8,0.6-1.3c-0.1-0.5-0.2-1.1-0.2-1.6c0-0.5,0.1-1.1,0.2-1.6c0.1-0.5-0.1-1.1-0.6-1.3l-3.7-2.1L89.6,27.4z
	 M100.6,78.7c-3.3,0-5.9-2.6-5.9-5.9v-2.6c0-3.3,2.6-5.9,5.9-5.9s5.9,2.6,5.9,5.9v2.6C106.5,76.1,103.9,78.7,100.6,78.7z M76.4,81.3
	l1.2,0.4l-3.9,6.8l-3.9-6.8l1.2-0.4H76.4z M59.8,95.3v-3.7c0-3.8,2.4-7.2,6-8.5l1.5-0.5l5.3,9.2c0.2,0.4,0.7,0.6,1.1,0.6
	c0.5,0,0.9-0.2,1.1-0.6l5.3-9.2l1.5,0.5c1.6,0.5,2.9,1.5,4,2.8c-1,1.7-1.5,3.7-1.5,5.7v3.7H59.8z M91.9,80.7
	c-1.8,0.6-3.4,1.7-4.7,3.1c-1.3-1.4-2.9-2.4-4.7-3.1L79,79.4c2-1.6,3.2-3.9,3.2-6.6v-2.6c0-4.2-3.1-7.7-7.2-8.4V46.5c0-5,4-9,9-9h5
	l-3.9,2.3c-0.6,0.4-0.8,1.1-0.5,1.8l3.4,5.9c0.2,0.3,0.5,0.5,0.8,0.6c0.3,0.1,0.7,0,1-0.1l4.1-2.3c0.6,0.5,1.3,0.9,2.1,1.2v4.7
	c0,0.7,0.6,1.3,1.3,1.3h2.1v9.2c-4.1,0.6-7.2,4.1-7.2,8.4v2.6c0,2.7,1.3,5.1,3.2,6.6L91.9,80.7z M100.6,88.5l-3.9-6.8l1.2-0.4h5.4
	l1.2,0.4L100.6,88.5z M109.3,80.7l-3.5-1.2c2-1.6,3.2-3.9,3.2-6.6v-2.6c0-4.2-3.1-7.7-7.2-8.4v-9.2h2.1c0.7,0,1.3-0.6,1.3-1.3v-4.7
	c0.7-0.3,1.4-0.7,2.1-1.2l4.1,2.3c0.3,0.2,0.6,0.2,1,0.1c0.3-0.1,0.6-0.3,0.8-0.6l3.4-5.9c0.4-0.6,0.1-1.4-0.5-1.8l-3.9-2.3h5
	c5,0,9,4,9,9v15.4c-4.1,0.6-7.2,4.1-7.2,8.4v2.6c0,2.7,1.3,5.1,3.2,6.6l-3.5,1.2c-1.8,0.6-3.4,1.7-4.7,3.1
	C112.8,82.4,111.2,81.3,109.3,80.7z M141.4,95.3h-24.3v-3.7c0-2.1-0.5-4-1.5-5.7c1-1.3,2.4-2.2,4-2.8l1.5-0.5l5.3,9.2
	c0.2,0.4,0.7,0.6,1.1,0.6c0.5,0,0.9-0.2,1.1-0.6l5.3-9.2l1.5,0.5c3.6,1.3,6,4.7,6,8.5V95.3z"/>
</svg>
