<?xml version="1.0" encoding="utf-8"?>
<!-- Generator: Adobe Illustrator 23.0.6, SVG Export Plug-In . SVG Version: 6.00 Build 0)  -->
<svg version="1.1" id="Layer_1" xmlns="http://www.w3.org/2000/svg" xmlns:xlink="http://www.w3.org/1999/xlink" x="0px" y="0px"
	 viewBox="0 0 100 100" style="enable-background:new 0 0 100 100;" xml:space="preserve">
<style type="text/css">
	.st0{fill:#FFFFFF;}
</style>
<g id="XMLID_1867_">
	<path id="XMLID_2023_" class="st0" d="M71.9,11.6l1.5-1.5c0.5-0.5,0.5-1.2,0-1.7c-0.5-0.5-1.2-0.5-1.7,0l-1.5,1.5l-1.5-1.5
		c-0.5-0.5-1.2-0.5-1.7,0c-0.5,0.5-0.5,1.2,0,1.7l1.5,1.5L67,13c-0.5,0.5-0.5,1.2,0,1.7c0.2,0.2,0.5,0.4,0.9,0.4s0.6-0.1,0.9-0.4
		l1.5-1.5l1.5,1.5c0.2,0.2,0.5,0.4,0.9,0.4s0.6-0.1,0.9-0.4c0.5-0.5,0.5-1.2,0-1.7L71.9,11.6z"/>
	<g id="XMLID_2007_">
		<path id="XMLID_2022_" class="st0" d="M85.3,33.2C85.3,33.2,85.3,33.2,85.3,33.2c0-0.1,0-0.1,0-0.1c-0.2-0.6-0.9-1-1.5-0.7l-5.8,2
			c-0.4,0.1-0.7,0.5-0.8,0.9l-1,6.1l-6.4,5.5l3-7.6c0.1-0.2,0.1-0.4,0.1-0.6L72,32.1l9.3-4.2c0.6-0.3,0.9-1,0.6-1.6
			c0-0.1-0.1-0.2-0.1-0.2c0,0,0,0,0,0c-1.1-1.7-2.1-3.1-3.7-4.9c-0.4-0.5-1.2-0.5-1.7-0.1c-0.5,0.4-0.5,1.2-0.1,1.7
			c1.1,1.2,1.8,2.2,2.8,3.5l-8.8,4c-0.5,0.2-0.8,0.7-0.7,1.2l0.9,7.2l-4.7,11.8c-0.2,0.5,0,1.1,0.4,1.4c0.2,0.1,0.5,0.2,0.7,0.2
			c0.3,0,0.6-0.1,0.8-0.3l10.4-9c0.2-0.2,0.4-0.4,0.4-0.7l1-5.8l4-1.4c1.4,4,2.1,8.1,2.1,12.4c0,20.5-16.7,37.2-37.2,37.2
			c-1.9,0-3.9-0.2-5.8-0.5c-0.7-0.1-1.3,0.3-1.4,1c-0.1,0.7,0.3,1.3,1,1.4c2,0.3,4.1,0.5,6.2,0.5C70.2,87,88,69.2,88,47.4
			C88,42.5,87.1,37.7,85.3,33.2L85.3,33.2z"/>
		<path id="XMLID_2018_" class="st0" d="M53.4,20.9c0-0.7-0.5-1.2-1.2-1.2h-6.5c-0.7,0-1.2,0.5-1.2,1.2v4.5C42,26,40,27.2,38.4,28.8
			c-2.3,2.3-3.5,5.4-3.5,9c0,3.5,1.1,6.4,3.2,8.6c2,2.1,5,3.8,9.4,5.2c3.5,1.2,4.8,2.2,5.3,2.7c0.6,0.6,0.9,1.4,0.9,2.4
			c0,1.2-0.4,2-1.2,2.7c-1,0.8-2.2,1.2-3.9,1.2c-2,0-3.4-0.5-4.3-1.4c-0.9-0.9-1.4-2.2-1.4-4v-2c0-0.7-0.5-1.2-1.2-1.2h-7
			c-0.7,0-1.2,0.5-1.2,1.2v2c0,4.2,1.3,7.6,3.7,10.2c1.8,1.9,4.2,3.2,7.1,3.8v4.1c0,0.7,0.5,1.2,1.2,1.2h6.5c0.7,0,1.2-0.5,1.2-1.2
			v-4.1c2.5-0.6,4.6-1.7,6.3-3.4c2.4-2.3,3.6-5.4,3.6-9c0-2.3-0.5-4.3-1.4-6.1c-0.9-1.7-2.3-3.2-4.1-4.4c-1.6-1.1-4-2.2-7.3-3.3
			c-3.4-1.1-4.7-2.1-5.3-2.6c-0.4-0.3-0.9-1-0.9-2.5c0-1.2,0.3-2.1,1-2.8c0.8-0.7,1.9-1.1,3.5-1.1c1.5,0,2.6,0.4,3.3,1.3
			c0.9,1,1.3,2.4,1.3,4.3v2c0,0.7,0.5,1.2,1.2,1.2h7c0.7,0,1.2-0.5,1.2-1.2v-2c0-4.2-1.1-7.6-3.2-10.1c-1.6-1.9-3.7-3.3-6.3-4
			L53.4,20.9L53.4,20.9z M57.8,31c1.8,2.1,2.7,5,2.7,8.6v0.8h-4.6v-0.8c0-2.5-0.6-4.5-1.9-5.9c-1.2-1.4-3-2.1-5.1-2.1
			c-2.3,0-3.9,0.6-5.2,1.7c-1.2,1.1-1.8,2.7-1.8,4.6c0,1.8,0.5,3.3,1.6,4.3c1.2,1.1,3.2,2.1,6.1,3.1c3.1,1.1,5.3,2,6.7,3
			c1.5,1,2.6,2.2,3.3,3.6c0.7,1.4,1.1,3,1.1,4.9c0,3-1,5.5-2.9,7.3c-1.5,1.5-3.6,2.5-6,2.9c-0.6,0.1-1,0.6-1,1.2V72h-4.1v-3.9
			c0-0.6-0.4-1.1-1-1.2c-2.8-0.5-5.1-1.6-6.8-3.3c-2-2.1-3-4.9-3-8.5v-0.8h4.6v0.8c0,2.5,0.7,4.4,2.1,5.7c1.4,1.4,3.4,2.1,6,2.1
			c2.3,0,4.1-0.6,5.5-1.8c1.4-1.2,2-2.6,2-4.5c0-1.7-0.5-3.1-1.6-4.1c-1.1-1.1-3.2-2.2-6.3-3.3c-4-1.3-6.7-2.7-8.4-4.5
			c-1.7-1.8-2.5-4.2-2.5-7c0-3,0.9-5.4,2.8-7.3c1.5-1.5,3.4-2.5,5.8-3c0.6-0.1,1-0.6,1-1.2v-4.2H51v4.3c0,0.6,0.4,1.1,1,1.2
			C54.4,28.1,56.4,29.2,57.8,31L57.8,31z"/>
		<path id="XMLID_2017_" class="st0" d="M18.1,53.6l6.7,0.9c0.4,0,0.8-0.1,1-0.4l2.4-2.5L27,57.8l-5.7,1c-0.4,0.1-0.8,0.4-0.9,0.8
			l-3.7,10.6c-0.1,0.3-0.1,0.7,0.1,1c0.1,0.1,0.1,0.2,0.2,0.3c0,0,0,0.1,0.1,0.1c0.6,0.8,1.2,1.5,1.8,2.2c0.2,0.3,0.6,0.4,0.9,0.4
			c0.3,0,0.6-0.1,0.8-0.3c0.5-0.4,0.5-1.2,0.1-1.7c-0.5-0.6-1-1.2-1.5-1.8l3.3-9.3l5.8-1c0.5-0.1,0.9-0.5,1-1l2.1-11
			c0.1-0.5-0.2-1-0.6-1.3c-0.5-0.2-1-0.1-1.4,0.2l-4.8,5l-6.9-0.9c-0.5-0.1-1,0.2-1.2,0.7L13,59c-1.2-3.7-1.9-7.6-1.9-11.6
			c0-20.5,16.7-37.2,37.2-37.2c3.1,0,6.1,0.4,9,1.1c0.6,0.2,1.3-0.2,1.5-0.9C59,9.8,58.6,9.1,58,9c-3.1-0.8-6.4-1.2-9.6-1.2
			C26.5,7.8,8.8,25.5,8.8,47.4c0,5.2,1,10.2,2.9,14.9c0,0,0,0.1,0.1,0.1c0,0.1,0.1,0.2,0.1,0.3c0.3,0.6,1,0.8,1.6,0.5
			c0.2-0.1,0.4-0.3,0.6-0.6L18.1,53.6z"/>
		<path id="XMLID_2012_" class="st0" d="M70.2,21.1c5.3,0,9.5-4.3,9.5-9.5S75.5,2,70.2,2s-9.5,4.3-9.5,9.5S64.9,21.1,70.2,21.1z
			 M70.2,4.4c3.9,0,7.1,3.2,7.1,7.1s-3.2,7.1-7.1,7.1S63,15.5,63,11.5S66.2,4.4,70.2,4.4z"/>
		<path id="XMLID_2009_" class="st0" d="M26.5,73.6c-7,0-12.7,5.7-12.7,12.7S19.5,99,26.5,99s12.7-5.7,12.7-12.7
			S33.5,73.6,26.5,73.6z M26.5,96.6c-5.7,0-10.3-4.6-10.3-10.3S20.9,76,26.5,76s10.3,4.6,10.3,10.3C36.8,92,32.2,96.6,26.5,96.6z"/>
	</g>
	<path id="XMLID_2006_" class="st0" d="M28.2,86.3l3.5-3.5c0.5-0.5,0.5-1.2,0-1.7c-0.5-0.5-1.2-0.5-1.7,0l-3.5,3.5L23,81.1
		c-0.5-0.5-1.2-0.5-1.7,0c-0.5,0.5-0.5,1.2,0,1.7l3.5,3.5l-3.5,3.5c-0.5,0.5-0.5,1.2,0,1.7c0.2,0.2,0.5,0.4,0.9,0.4s0.6-0.1,0.9-0.4
		l3.5-3.5l3.5,3.5c0.2,0.2,0.5,0.4,0.9,0.4c0.3,0,0.6-0.1,0.9-0.4c0.5-0.5,0.5-1.2,0-1.7L28.2,86.3z"/>
</g>
</svg>
