<?xml version="1.0" encoding="utf-8"?>
<!-- Generator: Adobe Illustrator 23.0.6, SVG Export Plug-In . SVG Version: 6.00 Build 0)  -->
<svg version="1.1" id="Layer_1" xmlns="http://www.w3.org/2000/svg" xmlns:xlink="http://www.w3.org/1999/xlink" x="0px" y="0px"
	 viewBox="0 0 200 200" style="enable-background:new 0 0 200 200;" xml:space="preserve">
<style type="text/css">
	.st0{fill:#FFFFFF;}
	.st1{fill:#2B318B;}
</style>
<path id="XMLID_4715_" class="st0" d="M100.1,20c54.1,0,97.9,37.6,97.9,84c0,46.4-43.8,84-97.9,84C46,187.9,2.2,150.4,2.2,104
	C2.2,57.6,46,20,100.1,20"/>
<g>
	<path class="st1" d="M29.2,116.6c1.4,0,2.5,0.5,3.5,1.4s1.4,2.1,1.4,3.5c0,1.4-0.5,2.5-1.4,3.5s-2.1,1.4-3.5,1.4h-4v5.7h-1.5v-15.4
		H29.2z M29.2,124.9c1,0,1.7-0.3,2.4-1c0.6-0.6,0.9-1.4,0.9-2.4c0-1-0.3-1.8-0.9-2.4c-0.6-0.6-1.4-1-2.4-1h-4v6.8H29.2z"/>
	<path class="st1" d="M37.7,122.8c0.7-1.3,1.8-2,3.5-2v1.4c-1,0-1.8,0.3-2.5,0.9s-1,1.5-1,2.8v6.1h-1.5v-11h1.5V122.8z"/>
	<path class="st1" d="M51.8,130.6c-1.1,1.1-2.5,1.7-4.1,1.7c-1.6,0-3-0.6-4.1-1.7c-1.1-1.1-1.7-2.5-1.7-4.1c0-1.6,0.6-3,1.7-4.1
		c1.1-1.1,2.5-1.7,4.1-1.7c1.6,0,3,0.6,4.1,1.7c1.1,1.1,1.7,2.5,1.7,4.1C53.5,128.2,52.9,129.5,51.8,130.6z M44.6,129.6
		c0.8,0.8,1.9,1.3,3.1,1.3c1.2,0,2.2-0.4,3.1-1.3c0.8-0.8,1.3-1.9,1.3-3.1c0-1.2-0.4-2.2-1.3-3.1c-0.8-0.8-1.9-1.3-3.1-1.3
		c-1.2,0-2.2,0.4-3.1,1.3c-0.8,0.8-1.3,1.9-1.3,3.1C43.3,127.7,43.7,128.8,44.6,129.6z"/>
	<path class="st1" d="M61,132.3c-1.7,0-3-0.6-4.1-1.7c-1.1-1.1-1.7-2.5-1.7-4.1c0-1.6,0.6-3,1.7-4.1s2.5-1.7,4.1-1.7
		c1.1,0,2.1,0.3,2.9,0.8c0.9,0.5,1.5,1.2,1.9,2.1l-1.2,0.7c-0.3-0.7-0.8-1.2-1.4-1.6c-0.7-0.4-1.4-0.6-2.2-0.6
		c-1.2,0-2.2,0.4-3.1,1.3c-0.8,0.8-1.3,1.9-1.3,3.1c0,1.2,0.4,2.2,1.3,3.1c0.8,0.8,1.9,1.3,3.1,1.3c0.8,0,1.6-0.2,2.2-0.6
		c0.6-0.4,1.2-0.9,1.5-1.6l1.2,0.7c-0.5,0.9-1.1,1.6-2,2.1S62.1,132.3,61,132.3z"/>
	<path class="st1" d="M73,120.8c1.6,0,2.9,0.6,4,1.7c1,1.2,1.5,2.5,1.5,4.1c0,0.2,0,0.4,0,0.7h-9.7c0.1,1.1,0.6,2,1.4,2.7
		c0.8,0.7,1.8,1,3,1c0.8,0,1.6-0.2,2.2-0.5c0.6-0.3,1.1-0.8,1.4-1.4l1.3,0.7c-0.5,0.8-1.1,1.4-2,1.8c-0.8,0.5-1.8,0.7-2.9,0.7
		c-1.7,0-3.1-0.5-4.2-1.6c-1.1-1.1-1.6-2.5-1.6-4.1c0-1.6,0.5-3,1.6-4.1C69.9,121.3,71.3,120.8,73,120.8z M73,122.2
		c-1.1,0-2.1,0.3-2.9,1c-0.8,0.7-1.2,1.6-1.4,2.7H77c-0.1-1.2-0.6-2.1-1.3-2.7C74.9,122.5,74,122.2,73,122.2z"/>
	<path class="st1" d="M81.5,123.9c0,0.5,0.2,0.9,0.7,1.2c0.4,0.3,1,0.5,1.6,0.7c0.6,0.2,1.3,0.4,1.9,0.5c0.6,0.2,1.2,0.5,1.6,1
		c0.4,0.5,0.7,1.1,0.7,1.9c0,0.9-0.4,1.7-1.1,2.3c-0.7,0.6-1.7,0.9-2.9,0.9c-1.1,0-2-0.2-2.7-0.7s-1.3-1.1-1.6-1.8l1.2-0.7
		c0.2,0.6,0.6,1,1.1,1.4s1.2,0.5,1.9,0.5c0.7,0,1.3-0.1,1.8-0.4s0.7-0.7,0.7-1.3c0-0.5-0.2-0.9-0.7-1.2s-1-0.5-1.6-0.7
		c-0.6-0.2-1.3-0.4-1.9-0.5c-0.6-0.2-1.2-0.5-1.6-1c-0.4-0.5-0.7-1.1-0.7-1.8c0-0.9,0.4-1.6,1.1-2.2c0.7-0.6,1.6-0.9,2.7-0.9
		c0.9,0,1.7,0.2,2.4,0.6c0.7,0.4,1.2,1,1.5,1.6l-1.2,0.7c-0.4-1-1.3-1.5-2.6-1.5c-0.6,0-1.2,0.1-1.6,0.4S81.5,123.3,81.5,123.9z"/>
	<path class="st1" d="M99.5,121h1.5v11h-1.5v-2.2c-1,1.6-2.5,2.4-4.4,2.4c-1.6,0-2.9-0.6-4-1.7s-1.7-2.5-1.7-4.1
		c0-1.6,0.6-3,1.7-4.1c1.1-1.1,2.4-1.7,4-1.7c2,0,3.4,0.8,4.4,2.4V121z M92,129.6c0.8,0.8,1.9,1.3,3.1,1.3c1.2,0,2.2-0.4,3.1-1.3
		c0.8-0.8,1.3-1.9,1.3-3.1c0-1.2-0.4-2.2-1.3-3.1c-0.8-0.8-1.9-1.3-3.1-1.3c-1.2,0-2.2,0.4-3.1,1.3c-0.8,0.8-1.3,1.9-1.3,3.1
		C90.8,127.7,91.2,128.8,92,129.6z"/>
	<path class="st1" d="M115.7,120.8c1.2,0,2.2,0.4,3,1.2c0.8,0.8,1.1,1.9,1.1,3.2v6.9h-1.5v-6.9c0-1-0.2-1.7-0.7-2.2
		c-0.5-0.5-1.1-0.8-1.9-0.8c-0.9,0-1.6,0.3-2.2,0.9c-0.6,0.6-0.8,1.6-0.8,2.9v6.1h-1.5v-6.9c0-1-0.2-1.7-0.7-2.2
		c-0.5-0.5-1.1-0.8-1.9-0.8c-0.9,0-1.6,0.3-2.2,0.9c-0.6,0.6-0.9,1.6-0.9,2.8v6.1H104v-11h1.5v1.6c0.8-1.2,1.9-1.9,3.4-1.9
		c1.6,0,2.7,0.7,3.3,2C113,121.4,114.2,120.8,115.7,120.8z"/>
	<path class="st1" d="M124.2,118.4c-0.2,0.2-0.5,0.3-0.7,0.3s-0.5-0.1-0.7-0.3c-0.2-0.2-0.3-0.5-0.3-0.7c0-0.3,0.1-0.5,0.3-0.7
		c0.2-0.2,0.5-0.3,0.7-0.3s0.5,0.1,0.7,0.3c0.2,0.2,0.3,0.5,0.3,0.7C124.5,117.9,124.4,118.2,124.2,118.4z M122.7,132v-11h1.5v11
		H122.7z"/>
	<path class="st1" d="M132.3,120.8c1.6,0,2.9,0.6,4,1.7c1,1.2,1.5,2.5,1.5,4.1c0,0.2,0,0.4,0,0.7H128c0.1,1.1,0.6,2,1.4,2.7
		c0.8,0.7,1.8,1,3,1c0.8,0,1.6-0.2,2.2-0.5c0.6-0.3,1.1-0.8,1.4-1.4l1.3,0.7c-0.5,0.8-1.1,1.4-2,1.8c-0.8,0.5-1.8,0.7-2.9,0.7
		c-1.7,0-3.1-0.5-4.2-1.6c-1.1-1.1-1.6-2.5-1.6-4.1c0-1.6,0.5-3,1.6-4.1C129.2,121.3,130.6,120.8,132.3,120.8z M132.3,122.2
		c-1.1,0-2.1,0.3-2.9,1s-1.2,1.6-1.4,2.7h8.2c-0.1-1.2-0.6-2.1-1.3-2.7C134.2,122.5,133.3,122.2,132.3,122.2z"/>
	<path class="st1" d="M145.2,120.8c1.3,0,2.4,0.4,3.2,1.2s1.2,1.9,1.2,3.3v6.8h-1.5v-6.8c0-1-0.3-1.7-0.8-2.3
		c-0.5-0.5-1.3-0.8-2.2-0.8c-1.1,0-1.9,0.3-2.6,1s-1,1.7-1,3.1v5.8h-1.5v-11h1.5v1.7C142.3,121.4,143.6,120.8,145.2,120.8z"/>
	<path class="st1" d="M158.2,122.4H155v6.7c0,0.6,0.1,1,0.4,1.3c0.2,0.3,0.6,0.4,1.1,0.4c0.5,0,1.1,0,1.8,0v1.3
		c-1.5,0.2-2.7,0.1-3.5-0.3s-1.2-1.3-1.2-2.6v-6.7h-2.3V121h2.3v-2.6l1.5-0.4v3.1h3.2V122.4z"/>
	<path class="st1" d="M169.2,130.6c-1.1,1.1-2.5,1.7-4.1,1.7c-1.6,0-3-0.6-4.1-1.7c-1.1-1.1-1.7-2.5-1.7-4.1c0-1.6,0.6-3,1.7-4.1
		s2.5-1.7,4.1-1.7c1.6,0,3,0.6,4.1,1.7s1.7,2.5,1.7,4.1C170.9,128.2,170.3,129.5,169.2,130.6z M162,129.6c0.8,0.8,1.9,1.3,3.1,1.3
		c1.2,0,2.2-0.4,3.1-1.3c0.8-0.8,1.3-1.9,1.3-3.1c0-1.2-0.4-2.2-1.3-3.1c-0.8-0.8-1.9-1.3-3.1-1.3c-1.2,0-2.2,0.4-3.1,1.3
		c-0.8,0.8-1.3,1.9-1.3,3.1C160.7,127.7,161.2,128.8,162,129.6z"/>
	<path class="st1" d="M35.7,139.4h1.5v15.4h-1.5v-2.2c-1,1.6-2.5,2.4-4.4,2.4c-1.6,0-2.9-0.6-4-1.7s-1.7-2.5-1.7-4.1
		c0-1.6,0.6-3,1.7-4.1c1.1-1.1,2.4-1.7,4-1.7c2,0,3.4,0.8,4.4,2.4V139.4z M28.3,152.4c0.8,0.8,1.9,1.3,3.1,1.3
		c1.2,0,2.2-0.4,3.1-1.3c0.8-0.8,1.3-1.9,1.3-3.1c0-1.2-0.4-2.2-1.3-3.1c-0.8-0.8-1.9-1.3-3.1-1.3c-1.2,0-2.2,0.4-3.1,1.3
		c-0.8,0.8-1.3,1.9-1.3,3.1C27.1,150.5,27.5,151.5,28.3,152.4z"/>
	<path class="st1" d="M45.4,143.5c1.6,0,2.9,0.6,4,1.7c1,1.2,1.5,2.5,1.5,4.1c0,0.2,0,0.4,0,0.7h-9.7c0.1,1.1,0.6,2,1.4,2.7
		c0.8,0.7,1.8,1,3,1c0.8,0,1.6-0.2,2.2-0.5c0.6-0.3,1.1-0.8,1.4-1.4l1.3,0.7c-0.5,0.8-1.1,1.4-2,1.8c-0.8,0.5-1.8,0.7-2.9,0.7
		c-1.7,0-3.1-0.5-4.2-1.6c-1.1-1.1-1.6-2.5-1.6-4.1c0-1.6,0.5-3,1.6-4.1C42.3,144.1,43.7,143.5,45.4,143.5z M45.4,144.9
		c-1.1,0-2.1,0.3-2.9,1c-0.8,0.7-1.2,1.6-1.4,2.7h8.2c-0.1-1.2-0.6-2.1-1.3-2.7C47.2,145.2,46.4,144.9,45.4,144.9z"/>
	<path class="st1" d="M58.6,154.8v-16.1h1.5v16.1H58.6z"/>
	<path class="st1" d="M72.7,143.8h1.5v11h-1.5v-2.2c-1,1.6-2.5,2.4-4.4,2.4c-1.6,0-2.9-0.6-4-1.7s-1.7-2.5-1.7-4.1
		c0-1.6,0.6-3,1.7-4.1c1.1-1.1,2.4-1.7,4-1.7c2,0,3.4,0.8,4.4,2.4V143.8z M65.2,152.4c0.8,0.8,1.9,1.3,3.1,1.3
		c1.2,0,2.2-0.4,3.1-1.3c0.8-0.8,1.3-1.9,1.3-3.1c0-1.2-0.4-2.2-1.3-3.1c-0.8-0.8-1.9-1.3-3.1-1.3c-1.2,0-2.2,0.4-3.1,1.3
		c-0.8,0.8-1.3,1.9-1.3,3.1C64,150.5,64.4,151.5,65.2,152.4z"/>
	<path class="st1" d="M78.3,146.6c0,0.5,0.2,0.9,0.7,1.2c0.4,0.3,1,0.5,1.6,0.7c0.6,0.2,1.3,0.4,1.9,0.5c0.6,0.2,1.2,0.5,1.6,1
		c0.4,0.5,0.7,1.1,0.7,1.9c0,0.9-0.4,1.7-1.1,2.3c-0.7,0.6-1.7,0.9-2.9,0.9c-1.1,0-2-0.2-2.7-0.7s-1.3-1.1-1.6-1.8l1.2-0.7
		c0.2,0.6,0.6,1,1.1,1.4s1.2,0.5,1.9,0.5c0.7,0,1.3-0.1,1.8-0.4s0.7-0.7,0.7-1.3c0-0.5-0.2-0.9-0.7-1.2s-1-0.5-1.6-0.7
		c-0.6-0.2-1.3-0.4-1.9-0.5c-0.6-0.2-1.2-0.5-1.6-1c-0.4-0.5-0.7-1.1-0.7-1.8c0-0.9,0.4-1.6,1.1-2.2c0.7-0.6,1.6-0.9,2.7-0.9
		c0.9,0,1.7,0.2,2.4,0.6c0.7,0.4,1.2,1,1.5,1.6l-1.2,0.7c-0.4-1-1.3-1.5-2.6-1.5c-0.6,0-1.2,0.1-1.6,0.4S78.3,146.1,78.3,146.6z"/>
	<path class="st1" d="M98.2,140.5c-1.1-0.1-1.9,0.1-2.4,0.6s-0.8,1.2-0.8,2.3v0.4h3.2v1.4H95v9.6h-1.5v-9.6h-1.9v-1.4h1.9v-0.4
		c0-1.4,0.4-2.5,1.2-3.3c0.8-0.7,1.9-1.1,3.4-1V140.5z"/>
	<path class="st1" d="M108.5,143.8h1.5v11h-1.5v-2.2c-1,1.6-2.5,2.4-4.4,2.4c-1.6,0-2.9-0.6-4-1.7s-1.7-2.5-1.7-4.1
		c0-1.6,0.6-3,1.7-4.1c1.1-1.1,2.4-1.7,4-1.7c2,0,3.4,0.8,4.4,2.4V143.8z M101.1,152.4c0.8,0.8,1.9,1.3,3.1,1.3
		c1.2,0,2.2-0.4,3.1-1.3c0.8-0.8,1.3-1.9,1.3-3.1c0-1.2-0.4-2.2-1.3-3.1c-0.8-0.8-1.9-1.3-3.1-1.3c-1.2,0-2.2,0.4-3.1,1.3
		c-0.8,0.8-1.3,1.9-1.3,3.1C99.9,150.5,100.3,151.5,101.1,152.4z"/>
	<path class="st1" d="M118.2,155.1c-1.7,0-3-0.6-4.1-1.7c-1.1-1.1-1.7-2.5-1.7-4.1c0-1.6,0.6-3,1.7-4.1s2.5-1.7,4.1-1.7
		c1.1,0,2.1,0.3,2.9,0.8c0.9,0.5,1.5,1.2,1.9,2.1l-1.2,0.7c-0.3-0.7-0.8-1.2-1.4-1.6c-0.7-0.4-1.4-0.6-2.2-0.6
		c-1.2,0-2.2,0.4-3.1,1.3c-0.8,0.8-1.3,1.9-1.3,3.1c0,1.2,0.4,2.2,1.3,3.1c0.8,0.8,1.9,1.3,3.1,1.3c0.8,0,1.6-0.2,2.2-0.6
		c0.6-0.4,1.2-0.9,1.5-1.6l1.2,0.7c-0.5,0.9-1.1,1.6-2,2.1C120.3,154.8,119.3,155.1,118.2,155.1z"/>
	<path class="st1" d="M131.1,145.2h-3.2v6.7c0,0.6,0.1,1,0.4,1.3c0.2,0.3,0.6,0.4,1.1,0.4c0.5,0,1.1,0,1.8,0v1.3
		c-1.5,0.2-2.7,0.1-3.5-0.3s-1.2-1.3-1.2-2.6v-6.7h-2.3v-1.4h2.3v-2.6l1.5-0.4v3.1h3.2V145.2z"/>
	<path class="st1" d="M141.2,143.8h1.5v11h-1.5v-1.7c-0.8,1.3-2.1,2-3.7,2c-1.3,0-2.4-0.4-3.2-1.2c-0.8-0.8-1.2-1.9-1.2-3.3v-6.8
		h1.5v6.8c0,1,0.3,1.7,0.8,2.3c0.5,0.5,1.3,0.8,2.2,0.8c1.1,0,1.9-0.3,2.6-1c0.7-0.7,1-1.7,1-3.1V143.8z"/>
	<path class="st1" d="M147.2,145.6c0.7-1.3,1.8-2,3.5-2v1.4c-1,0-1.8,0.3-2.5,0.9s-1,1.5-1,2.8v6.1h-1.5v-11h1.5V145.6z"/>
	<path class="st1" d="M161.5,143.8h1.5v11h-1.5v-2.2c-1,1.6-2.5,2.4-4.4,2.4c-1.6,0-2.9-0.6-4-1.7s-1.7-2.5-1.7-4.1
		c0-1.6,0.6-3,1.7-4.1c1.1-1.1,2.4-1.7,4-1.7c2,0,3.4,0.8,4.4,2.4V143.8z M154.1,152.4c0.8,0.8,1.9,1.3,3.1,1.3
		c1.2,0,2.2-0.4,3.1-1.3c0.8-0.8,1.3-1.9,1.3-3.1c0-1.2-0.4-2.2-1.3-3.1c-0.8-0.8-1.9-1.3-3.1-1.3c-1.2,0-2.2,0.4-3.1,1.3
		c-0.8,0.8-1.3,1.9-1.3,3.1C152.8,150.5,153.2,151.5,154.1,152.4z"/>
	<path class="st1" d="M167.2,146.6c0,0.5,0.2,0.9,0.7,1.2s1,0.5,1.6,0.7c0.6,0.2,1.3,0.4,1.9,0.5c0.6,0.2,1.2,0.5,1.6,1
		c0.4,0.5,0.7,1.1,0.7,1.9c0,0.9-0.4,1.7-1.1,2.3s-1.7,0.9-2.9,0.9c-1.1,0-2-0.2-2.7-0.7s-1.3-1.1-1.6-1.8l1.2-0.7
		c0.2,0.6,0.6,1,1.1,1.4s1.2,0.5,1.9,0.5c0.7,0,1.3-0.1,1.8-0.4s0.7-0.7,0.7-1.3c0-0.5-0.2-0.9-0.7-1.2c-0.4-0.3-1-0.5-1.6-0.7
		c-0.6-0.2-1.3-0.4-1.9-0.5c-0.6-0.2-1.2-0.5-1.6-1c-0.4-0.5-0.7-1.1-0.7-1.8c0-0.9,0.4-1.6,1.1-2.2c0.7-0.6,1.6-0.9,2.7-0.9
		c0.9,0,1.7,0.2,2.4,0.6c0.7,0.4,1.2,1,1.5,1.6l-1.2,0.7c-0.4-1-1.3-1.5-2.6-1.5c-0.6,0-1.2,0.1-1.6,0.4
		C167.4,145.7,167.2,146.1,167.2,146.6z"/>
</g>
<g id="XMLID_597_">
	<g id="XMLID_1187_">
		<g id="XMLID_1196_">
			<path id="XMLID_1202_" class="st1" d="M134.1,70.1h-10.9V35.3c0-0.6-0.4-1.1-0.9-1.4c-0.5-0.2-1.2-0.1-1.6,0.3l-4.2,4.2l-4.2-4.2
				c-0.6-0.6-1.5-0.6-2.1,0l-4.2,4.2l-4.2-4.2c-0.6-0.6-1.5-0.6-2.1,0l-4.2,4.2l-4.2-4.2c-0.6-0.6-1.5-0.6-2.1,0l-4.2,4.2l-4.2-4.2
				c-0.6-0.6-1.5-0.6-2.1,0l-4.2,4.2l-4.2-4.2c-0.6-0.6-1.5-0.6-2.1,0c-0.3,0.3-0.4,0.7-0.4,1.1v66.2c0,4.2,3.4,7.7,7.7,7.7h52.1h0
				h0c4.2,0,7.7-3.4,7.7-7.7v-30C135.5,70.7,134.9,70.1,134.1,70.1z M75.8,106.3c-2.6,0-4.7-2.1-4.7-4.7V38.9l2.7,2.7
				c0.6,0.6,1.5,0.6,2.1,0l4.2-4.2l4.2,4.2c0.6,0.6,1.5,0.6,2.1,0l4.2-4.2l4.2,4.2c0.6,0.6,1.5,0.6,2.1,0l4.2-4.2l4.2,4.2
				c0.6,0.6,1.5,0.6,2.1,0l4.2-4.2l4.2,4.2c0.6,0.6,1.5,0.6,2.1,0l2.7-2.7v32.6c0,0,0,0,0,0l0,30c0,1.8,0.6,3.4,1.6,4.7L75.8,106.3
				L75.8,106.3z M132.6,101.5c0,2.6-2.1,4.7-4.7,4.7s-4.7-2.1-4.7-4.7V73h9.4V101.5L132.6,101.5z"/>
		</g>
	</g>
	<g id="XMLID_1184_">
		<g id="XMLID_1185_">
			<path id="XMLID_682_" class="st1" d="M95.7,57.2c-1.5,0-2.6-1-2.6-2.3c0-1.3,1.2-2.3,2.6-2.3c1.5,0,2.6,1,2.6,2.3
				c0,0.8,0.7,1.5,1.5,1.5s1.5-0.7,1.5-1.5c0-2.4-1.7-4.4-4.1-5v-1c0-0.8-0.7-1.5-1.5-1.5s-1.5,0.7-1.5,1.5v1
				c-2.4,0.6-4.1,2.6-4.1,5c0,2.9,2.5,5.2,5.6,5.2c1.5,0,2.6,1,2.6,2.3s-1.2,2.3-2.6,2.3c-1.5,0-2.6-1-2.6-2.3
				c0-0.8-0.7-1.5-1.5-1.5c-0.8,0-1.5,0.7-1.5,1.5c0,2.4,1.7,4.4,4.1,5v1.2c0,0.8,0.7,1.5,1.5,1.5s1.5-0.7,1.5-1.5v-1.2
				c2.4-0.6,4.1-2.6,4.1-5C101.3,59.6,98.8,57.2,95.7,57.2z"/>
		</g>
	</g>
	<g id="XMLID_1169_">
		<g id="XMLID_1172_">
			<path id="XMLID_678_" class="st1" d="M110.5,57.2h-2.9c-0.8,0-1.5,0.7-1.5,1.5s0.7,1.5,1.5,1.5h2.9c0.8,0,1.5-0.7,1.5-1.5
				S111.3,57.2,110.5,57.2z"/>
		</g>
	</g>
	<g id="XMLID_1111_">
		<g id="XMLID_1161_">
			<path id="XMLID_675_" class="st1" d="M83.8,57.2h-2.9c-0.8,0-1.5,0.7-1.5,1.5s0.7,1.5,1.5,1.5h2.9c0.8,0,1.5-0.7,1.5-1.5
				S84.6,57.2,83.8,57.2z"/>
		</g>
	</g>
	<g id="XMLID_1068_">
		<g id="XMLID_1104_">
			<path id="XMLID_667_" class="st1" d="M111.2,73.6H87.9c-0.8,0-1.5,0.7-1.5,1.5s0.7,1.5,1.5,1.5h23.3c0.8,0,1.5-0.7,1.5-1.5
				C112.7,74.2,112,73.6,111.2,73.6z"/>
		</g>
	</g>
	<g id="XMLID_1043_">
		<g id="XMLID_1044_">
			<path id="XMLID_652_" class="st1" d="M81.2,74c-0.3-0.3-0.7-0.4-1-0.4s-0.8,0.2-1,0.4c-0.3,0.3-0.4,0.7-0.4,1
				c0,0.4,0.2,0.8,0.4,1c0.3,0.3,0.7,0.4,1,0.4s0.8-0.2,1-0.4s0.4-0.7,0.4-1C81.6,74.7,81.5,74.3,81.2,74z"/>
		</g>
	</g>
	<g id="XMLID_1038_">
		<g id="XMLID_1041_">
			<path id="XMLID_637_" class="st1" d="M111.2,83.3H87.9c-0.8,0-1.5,0.7-1.5,1.5c0,0.8,0.7,1.5,1.5,1.5h23.3c0.8,0,1.5-0.7,1.5-1.5
				C112.7,84,112,83.3,111.2,83.3z"/>
		</g>
	</g>
	<g id="XMLID_1008_">
		<g id="XMLID_1021_">
			<path id="XMLID_624_" class="st1" d="M81.2,83.7c-0.3-0.3-0.7-0.4-1-0.4s-0.8,0.2-1,0.4c-0.3,0.3-0.4,0.7-0.4,1
				c0,0.4,0.2,0.8,0.4,1c0.3,0.3,0.7,0.4,1,0.4s0.8-0.2,1-0.4s0.4-0.7,0.4-1C81.6,84.4,81.5,84,81.2,83.7z"/>
		</g>
	</g>
	<g id="XMLID_965_">
		<g id="XMLID_982_">
			<path id="XMLID_600_" class="st1" d="M111.2,93H87.9c-0.8,0-1.5,0.7-1.5,1.5s0.7,1.5,1.5,1.5h23.3c0.8,0,1.5-0.7,1.5-1.5
				S112,93,111.2,93z"/>
		</g>
	</g>
	<g id="XMLID_865_">
		<g id="XMLID_916_">
			<path id="XMLID_599_" class="st1" d="M81.2,93.4c-0.3-0.3-0.7-0.4-1-0.4s-0.8,0.2-1,0.4c-0.3,0.3-0.4,0.7-0.4,1
				c0,0.4,0.2,0.8,0.4,1c0.3,0.3,0.7,0.4,1,0.4s0.8-0.2,1-0.4s0.4-0.7,0.4-1C81.6,94.1,81.5,93.7,81.2,93.4z"/>
		</g>
	</g>
</g>
</svg>
