<?xml version="1.0" encoding="utf-8"?>
<!-- Generator: Adobe Illustrator 23.0.6, SVG Export Plug-In . SVG Version: 6.00 Build 0)  -->
<svg version="1.1" id="Layer_1" xmlns="http://www.w3.org/2000/svg" xmlns:xlink="http://www.w3.org/1999/xlink" x="0px" y="0px"
	 viewBox="0 0 100 100" style="enable-background:new 0 0 100 100;" xml:space="preserve">
<style type="text/css">
	.st0{fill:#FFFFFF;}
</style>
<g id="XMLID_2024_">
	<path id="XMLID_2289_" class="st0" d="M6.7,98h11.3c2.7,0,4.8-2.2,4.8-4.8V52.3c0-0.8-0.6-1.4-1.4-1.4c-0.8,0-1.4,0.6-1.4,1.4v40.8
		c0,1.1-0.9,2-2,2H6.7c-1.1,0-2-0.9-2-2V33.4c0-1.1,0.9-2,2-2h11.3c1.1,0,2,0.9,2,2v13.2c0,0.8,0.6,1.4,1.4,1.4
		c0.8,0,1.4-0.6,1.4-1.4V33.4c0-2.7-2.2-4.8-4.8-4.8H6.7c-2.7,0-4.8,2.2-4.8,4.8v59.8C1.9,95.8,4,98,6.7,98z"/>
	<path id="XMLID_2286_" class="st0" d="M31.2,40.2c-2.7,0-4.8,2.2-4.8,4.8v48.2c0,2.7,2.2,4.8,4.8,4.8h11.3c2.7,0,4.8-2.2,4.8-4.8
		V45c0-2.7-2.2-4.8-4.8-4.8H31.2z M44.4,45v48.2c0,1.1-0.9,2-2,2H31.2c-1.1,0-2-0.9-2-2V45c0-1.1,0.9-2,2-2h11.3
		C43.6,43,44.4,43.9,44.4,45z"/>
	<path id="XMLID_2285_" class="st0" d="M70.4,81.6c0.8,0,1.4-0.6,1.4-1.4V56.6c0-2.7-2.2-4.8-4.8-4.8H55.7c-2.7,0-4.8,2.2-4.8,4.8
		v36.6c0,2.7,2.2,4.8,4.8,4.8H67c2.7,0,4.8-2.2,4.8-4.8v-7.3c0-0.8-0.6-1.4-1.4-1.4c-0.8,0-1.4,0.6-1.4,1.4v7.3c0,1.1-0.9,2-2,2
		H55.7c-1.1,0-2-0.9-2-2V56.6c0-1.1,0.9-2,2-2H67c1.1,0,2,0.9,2,2v23.6C69,81,69.6,81.6,70.4,81.6z"/>
	<path id="XMLID_2281_" class="st0" d="M91.5,63.3H80.2c-2.7,0-4.8,2.2-4.8,4.8v25c0,2.7,2.2,4.8,4.8,4.8h11.3
		c2.7,0,4.8-2.2,4.8-4.8v-25C96.3,65.5,94.2,63.3,91.5,63.3z M93.5,93.2c0,1.1-0.9,2-2,2H80.2c-1.1,0-2-0.9-2-2v-25c0-1.1,0.9-2,2-2
		h11.3c1.1,0,2,0.9,2,2V93.2z"/>
	<path id="XMLID_2025_" class="st0" d="M14.9,1c-1.3,0-2.6,0.8-3.1,2.1c0,0-1.7,4-1.7,4c-0.7,1.7,0.1,3.7,1.8,4.3l62,25.4
		c0,0-4,1.7-4,1.7c-1.6,0.7-2.4,2.6-1.7,4.2c0,0,1.8,4.3,1.8,4.3c0.7,1.6,2.6,2.4,4.2,1.7c0,0,16.3-6.8,16.3-6.8
		c2.8-1.2,4.1-4.4,2.9-7.2c0,0-6.8-16.3-6.8-16.3c-0.7-1.6-2.6-2.4-4.2-1.7l-4.3,1.8c-1.6,0.7-2.4,2.6-1.7,4.2l1.7,4
		c0,0-62-25.4-62-25.4C15.8,1.1,15.3,1,14.9,1z M80.2,30.5c1.1,0.5,2.3-0.7,1.8-1.9l-3-7.2c-0.1-0.2,0-0.4,0.2-0.4l4.3-1.8
		c0,0,0.1,0,0.1,0c0.1,0,0.3,0.1,0.3,0.2c0,0,6.8,16.3,6.8,16.3c0.6,1.3-0.1,2.9-1.4,3.5l-16.3,6.8c-0.2,0.1-0.4,0-0.4-0.2l-1.8-4.3
		c-0.1-0.2,0-0.4,0.2-0.4c0,0,7.2-3,7.2-3c1.1-0.5,1.1-2.2,0-2.6L13.1,8.8c-0.2-0.1-0.4-0.4-0.3-0.6l1.7-4c0.1-0.2,0.4-0.4,0.6-0.3
		C15.1,3.9,80.2,30.5,80.2,30.5z"/>
</g>
</svg>
