<?xml version="1.0" encoding="utf-8"?>
<!-- Generator: Adobe Illustrator 23.0.6, SVG Export Plug-In . SVG Version: 6.00 Build 0)  -->
<svg version="1.1" id="Layer_1" xmlns="http://www.w3.org/2000/svg" xmlns:xlink="http://www.w3.org/1999/xlink" x="0px" y="0px"
	 viewBox="0 0 100 100" style="enable-background:new 0 0 100 100;" xml:space="preserve">
<style type="text/css">
	.st0{fill:#FFFFFF;}
</style>
<g id="XMLID_2090_">
	<g id="XMLID_4074_">
		<g id="XMLID_4075_">
			<path id="XMLID_4076_" class="st0" d="M52.7,76.3H3.5c-0.9,0-1.6-0.7-1.6-1.6V33.4c0-0.9,0.7-1.6,1.6-1.6h92.1
				c0.9,0,1.6,0.7,1.6,1.6v31.7c0,0.9-0.7,1.6-1.6,1.6c-0.9,0-1.6-0.7-1.6-1.6c0-0.9-0.7-1.6-1.6-1.6H81.3c-0.9,0-1.6-0.7-1.6-1.6
				v-8.7c0-1.3-1.1-2.4-2.4-2.4c-1.3,0-2.4,1.1-2.4,2.4V62c0,0.9-0.7,1.6-1.6,1.6l-9.5,0.1c-0.4,0-0.8-0.2-1.1-0.5
				c-0.3-0.3-0.5-0.7-0.5-1.1v-3.3h-7.9v15.9C54.3,75.5,53.6,76.3,52.7,76.3z M5.1,73.1h46V57.2c0-0.9,0.7-1.6,1.6-1.6h11.1
				c0.9,0,1.6,0.7,1.6,1.6v3.3l6.3-0.1v-7.2c0-3.1,2.5-5.6,5.6-5.6c3.1,0,5.6,2.5,5.6,5.6v7.1h9.5c0.6,0,1.1,0.1,1.6,0.3V35H5.1
				V73.1z"/>
		</g>
	</g>
	<g id="XMLID_4070_">
		<path id="XMLID_4071_" class="st0" d="M95.6,35H3.5c-0.9,0-1.6-0.7-1.6-1.6v-6.3c0-0.9,0.7-1.6,1.6-1.6h92.1
			c0.9,0,1.6,0.7,1.6,1.6v6.3C97.1,34.3,96.4,35,95.6,35z M5.1,31.8H94v-3.2H5.1V31.8z"/>
	</g>
	<g id="XMLID_4066_">
		<path id="XMLID_4067_" class="st0" d="M95.6,28.6H3.5c-0.9,0-1.6-0.7-1.6-1.6v-6.3c0-0.9,0.7-1.6,1.6-1.6h92.1
			c0.9,0,1.6,0.7,1.6,1.6v6.3C97.1,27.9,96.4,28.6,95.6,28.6z M5.1,25.5H94v-3.2H5.1V25.5z"/>
	</g>
	<g id="XMLID_4062_">
		<path id="XMLID_4063_" class="st0" d="M49.5,68.3c-7.9,0-14.3-6.4-14.3-14.3s6.4-14.3,14.3-14.3c7.9,0,14.3,6.4,14.3,14.3
			c0,1.2-0.2,2.4-0.5,3.6c-0.2,0.7-0.8,1.2-1.5,1.2h-7.5v7.5c0,0.7-0.5,1.4-1.2,1.5C51.9,68.2,50.7,68.3,49.5,68.3z M49.5,42.9
			c-6.1,0-11.1,5-11.1,11.1c0,6.6,5.8,12,12.7,11v-7.8c0-0.9,0.7-1.6,1.6-1.6h7.8c0.1-0.5,0.1-1.1,0.1-1.6
			C60.6,47.9,55.7,42.9,49.5,42.9z"/>
	</g>
	<g id="XMLID_3471_">
		<path id="XMLID_3472_" class="st0" d="M3.5,46.1c-0.9,0-1.6-0.7-1.6-1.6V33.4c0-0.9,0.7-1.6,1.6-1.6h11.1c0.9,0,1.6,0.7,1.6,1.6
			C16.2,40.4,10.5,46.1,3.5,46.1z M5.1,35v7.8c4-0.7,7.1-3.8,7.8-7.8H5.1z"/>
	</g>
	<g id="XMLID_3461_">
		<path id="XMLID_3465_" class="st0" d="M14.6,76.3H3.5c-0.9,0-1.6-0.7-1.6-1.6V63.6c0-0.9,0.7-1.6,1.6-1.6c7,0,12.7,5.7,12.7,12.7
			C16.2,75.5,15.5,76.3,14.6,76.3z M5.1,73.1h7.8c-0.7-4-3.8-7.1-7.8-7.8V73.1z"/>
	</g>
	<g id="XMLID_3452_">
		<path id="XMLID_3453_" class="st0" d="M95.6,46.1c-7,0-12.7-5.7-12.7-12.7c0-0.9,0.7-1.6,1.6-1.6h11.1c0.9,0,1.6,0.7,1.6,1.6v11.1
			C97.1,45.4,96.4,46.1,95.6,46.1z M86.2,35c0.7,4,3.8,7.1,7.8,7.8V35H86.2z"/>
	</g>
	<g id="XMLID_3450_">
		<path id="XMLID_3451_" class="st0" d="M92.4,82.6H86v-3.2h6.3c0.9,0,1.6-0.7,1.6-1.6c0-0.9-0.7-1.6-1.6-1.6H86v-3.2h6.3
			c2.6,0,4.8,2.1,4.8,4.8C97.1,80.5,95,82.6,92.4,82.6z"/>
	</g>
	<g id="XMLID_3448_">
		<path id="XMLID_3449_" class="st0" d="M92.4,89H63.8c-0.9,0-1.6-0.7-1.6-1.6V62c0-0.9,0.7-1.6,1.6-1.6h7.9v-7.1
			c0-3.1,2.5-5.6,5.6-5.6c3.1,0,5.6,2.5,5.6,5.6v7.1h9.5c2.6,0,4.8,2.1,4.8,4.8c0,2.6-2.1,4.8-4.8,4.8H86v-3.2h6.3
			c0.9,0,1.6-0.7,1.6-1.6s-0.7-1.6-1.6-1.6H81.3c-0.9,0-1.6-0.7-1.6-1.6v-8.7c0-1.3-1.1-2.4-2.4-2.4c-1.3,0-2.4,1.1-2.4,2.4V62
			c0,0.9-0.7,1.6-1.6,1.6h-7.9v22.2h27c0.9,0,1.6-0.7,1.6-1.6s-0.7-1.6-1.6-1.6H86v-3.2h6.3c2.6,0,4.8,2.1,4.8,4.8
			C97.1,86.8,95,89,92.4,89z"/>
	</g>
	<g id="XMLID_3446_">
		<path id="XMLID_3447_" class="st0" d="M92.4,76.3H86v-3.2h6.3c0.9,0,1.6-0.7,1.6-1.6s-0.7-1.6-1.6-1.6H86v-3.2h6.3
			c2.6,0,4.8,2.1,4.8,4.8C97.1,74.1,95,76.3,92.4,76.3z"/>
	</g>
	<g id="XMLID_3439_">
		<path id="XMLID_3440_" class="st0" d="M63.8,93.7H52.7c-0.9,0-1.6-0.7-1.6-1.6V57.2c0-0.9,0.7-1.6,1.6-1.6h11.1
			c0.9,0,1.6,0.7,1.6,1.6v34.9C65.4,93,64.7,93.7,63.8,93.7z M54.3,90.5h7.9V58.8h-7.9V90.5z"/>
	</g>
	<g id="XMLID_3432_">
		<rect id="XMLID_3433_" x="8.3" y="79.4" class="st0" width="3.2" height="3.2"/>
	</g>
	<g id="XMLID_3430_">
		<rect id="XMLID_3431_" x="1.9" y="85.8" class="st0" width="3.2" height="3.2"/>
	</g>
	<g id="XMLID_3428_">
		<rect id="XMLID_3429_" x="8.3" y="85.8" class="st0" width="3.2" height="3.2"/>
	</g>
	<g id="XMLID_3426_">
		<rect id="XMLID_3427_" x="14.6" y="85.8" class="st0" width="3.2" height="3.2"/>
	</g>
	<g id="XMLID_3424_">
		<rect id="XMLID_3425_" x="8.3" y="12.8" class="st0" width="3.2" height="3.2"/>
	</g>
	<g id="XMLID_3422_">
		<rect id="XMLID_3423_" x="1.9" y="6.4" class="st0" width="3.2" height="3.2"/>
	</g>
	<g id="XMLID_3361_">
		<rect id="XMLID_3421_" x="8.3" y="6.4" class="st0" width="3.2" height="3.2"/>
	</g>
	<g id="XMLID_3341_">
		<rect id="XMLID_3360_" x="14.6" y="6.4" class="st0" width="3.2" height="3.2"/>
	</g>
</g>
</svg>
