<?xml version="1.0" encoding="utf-8"?>
<!-- Generator: Adobe Illustrator 23.0.6, SVG Export Plug-In . SVG Version: 6.00 Build 0)  -->
<svg version="1.1" id="Layer_1" xmlns="http://www.w3.org/2000/svg" xmlns:xlink="http://www.w3.org/1999/xlink" x="0px" y="0px"
	 viewBox="0 0 200 200" style="enable-background:new 0 0 200 200;" xml:space="preserve">
<style type="text/css">
	.st0{fill:#FFFFFF;}
	.st1{fill:#2B318B;}
</style>
<path id="XMLID_4814_" class="st0" d="M102.1,14c50.2,0,90.9,34.9,90.9,78c0,43.1-40.7,78-90.9,78c-50.2-0.1-90.9-34.9-90.9-78
	C11.2,48.9,51.9,14,102.1,14"/>
<g>
	<path class="st1" d="M68.3,115.7c-1.4,1.4-3.2,2.2-5.3,2.2c-2.1,0-3.8-0.7-5.3-2.2c-1.4-1.4-2.1-3.2-2.1-5.2c0-2.1,0.7-3.8,2.1-5.2
		c1.4-1.4,3.2-2.2,5.3-2.2c2.1,0,3.8,0.7,5.3,2.2c1.4,1.4,2.1,3.2,2.1,5.2C70.4,112.5,69.7,114.3,68.3,115.7z M58.8,114.7
		c1.1,1.2,2.6,1.7,4.3,1.7s3.1-0.6,4.3-1.7c1.1-1.2,1.7-2.6,1.7-4.3s-0.6-3.1-1.7-4.3c-1.1-1.2-2.6-1.7-4.3-1.7s-3.1,0.6-4.3,1.7
		c-1.1,1.2-1.7,2.6-1.7,4.3S57.6,113.6,58.8,114.7z"/>
	<path class="st1" d="M74,109.1c0.6-1.2,1.7-1.9,3.2-1.9v1.3c-0.9,0-1.7,0.3-2.3,0.8c-0.6,0.5-0.9,1.4-0.9,2.6v5.7h-1.3v-10.2H74
		V109.1z"/>
	<path class="st1" d="M80.4,105c-0.2,0.2-0.4,0.3-0.7,0.3s-0.5-0.1-0.7-0.3c-0.2-0.2-0.3-0.4-0.3-0.7s0.1-0.5,0.3-0.7
		c0.2-0.2,0.4-0.3,0.7-0.3s0.5,0.1,0.7,0.3c0.2,0.2,0.3,0.4,0.3,0.7S80.6,104.8,80.4,105z M79.1,117.6v-10.2h1.3v10.2H79.1z"/>
	<path class="st1" d="M92.1,107.4h1.3v9.8c0,1.5-0.5,2.6-1.5,3.5c-1,0.8-2.2,1.3-3.6,1.3c-2.4,0-4-0.8-4.8-2.5l1.2-0.7
		c0.6,1.2,1.8,1.9,3.7,1.9c1.2,0,2.1-0.3,2.8-0.9c0.7-0.6,1-1.5,1-2.5v-1.6c-0.9,1.5-2.3,2.2-4.1,2.2c-1.5,0-2.7-0.5-3.7-1.6
		c-1-1-1.5-2.3-1.5-3.8c0-1.5,0.5-2.8,1.5-3.8c1-1,2.3-1.6,3.7-1.6c1.8,0,3.2,0.8,4.1,2.2V107.4z M85.2,115.4
		c0.8,0.8,1.7,1.2,2.9,1.2s2.1-0.4,2.9-1.2c0.8-0.8,1.2-1.7,1.2-2.9c0-1.1-0.4-2.1-1.2-2.9c-0.8-0.8-1.7-1.2-2.9-1.2
		s-2.1,0.4-2.9,1.2c-0.8,0.8-1.2,1.7-1.2,2.9C84,113.7,84.4,114.6,85.2,115.4z"/>
	<path class="st1" d="M101,107.2c1.5,0,2.7,0.5,3.7,1.6c0.9,1.1,1.4,2.3,1.4,3.8c0,0.2,0,0.4,0,0.6h-9c0.1,1,0.6,1.9,1.3,2.5
		s1.7,0.9,2.8,0.9c0.8,0,1.4-0.2,2-0.5c0.6-0.3,1-0.7,1.3-1.3l1.2,0.7c-0.4,0.7-1.1,1.3-1.8,1.7c-0.8,0.4-1.7,0.6-2.7,0.6
		c-1.6,0-2.9-0.5-3.9-1.5c-1-1-1.5-2.3-1.5-3.8c0-1.5,0.5-2.8,1.5-3.8C98.2,107.7,99.4,107.2,101,107.2z M101,108.5
		c-1.1,0-2,0.3-2.7,1c-0.7,0.6-1.1,1.5-1.3,2.5h7.6c-0.1-1.1-0.6-1.9-1.2-2.5C102.7,108.8,101.9,108.5,101,108.5z"/>
	<path class="st1" d="M113,107.2c1.2,0,2.2,0.4,2.9,1.1c0.7,0.8,1.1,1.8,1.1,3.1v6.3h-1.3v-6.3c0-0.9-0.2-1.6-0.7-2.1
		s-1.2-0.8-2.1-0.8c-1,0-1.8,0.3-2.4,0.9s-0.9,1.6-0.9,2.9v5.4h-1.3v-10.2h1.3v1.6C110.3,107.8,111.5,107.2,113,107.2z"/>
	<path class="st1" d="M133.5,103.3h1.3v14.3h-1.3v-2c-0.9,1.5-2.3,2.2-4.1,2.2c-1.5,0-2.7-0.5-3.7-1.6c-1-1-1.5-2.3-1.5-3.8
		c0-1.5,0.5-2.8,1.5-3.8c1-1,2.3-1.6,3.7-1.6c1.8,0,3.2,0.8,4.1,2.2V103.3z M126.6,115.4c0.8,0.8,1.7,1.2,2.9,1.2
		c1.1,0,2.1-0.4,2.9-1.2c0.8-0.8,1.2-1.7,1.2-2.9c0-1.1-0.4-2.1-1.2-2.9c-0.8-0.8-1.7-1.2-2.9-1.2c-1.1,0-2.1,0.4-2.9,1.2
		c-0.8,0.8-1.2,1.7-1.2,2.9C125.5,113.7,125.9,114.6,126.6,115.4z"/>
	<path class="st1" d="M142.5,107.2c1.5,0,2.7,0.5,3.7,1.6c0.9,1.1,1.4,2.3,1.4,3.8c0,0.2,0,0.4,0,0.6h-9c0.1,1,0.6,1.9,1.3,2.5
		s1.7,0.9,2.8,0.9c0.8,0,1.4-0.2,2-0.5c0.6-0.3,1-0.7,1.3-1.3l1.2,0.7c-0.4,0.7-1.1,1.3-1.8,1.7c-0.8,0.4-1.7,0.6-2.7,0.6
		c-1.6,0-2.9-0.5-3.9-1.5c-1-1-1.5-2.3-1.5-3.8c0-1.5,0.5-2.8,1.5-3.8C139.6,107.7,140.9,107.2,142.5,107.2z M142.5,108.5
		c-1.1,0-2,0.3-2.7,1c-0.7,0.6-1.1,1.5-1.3,2.5h7.6c-0.1-1.1-0.6-1.9-1.2-2.5C144.2,108.8,143.4,108.5,142.5,108.5z"/>
	<path class="st1" d="M35.2,126.8c0.6-1.2,1.7-1.9,3.2-1.9v1.3c-0.9,0-1.7,0.3-2.3,0.8s-0.9,1.4-0.9,2.6v5.7h-1.3v-10.2h1.3V126.8z"
		/>
	<path class="st1" d="M44.4,124.9c1.5,0,2.7,0.5,3.7,1.6c0.9,1.1,1.4,2.3,1.4,3.8c0,0.2,0,0.4,0,0.6h-9c0.1,1,0.6,1.9,1.3,2.5
		s1.7,0.9,2.8,0.9c0.8,0,1.4-0.2,2-0.5c0.6-0.3,1-0.7,1.3-1.3l1.2,0.7c-0.4,0.7-1.1,1.3-1.8,1.7c-0.8,0.4-1.7,0.6-2.7,0.6
		c-1.6,0-2.9-0.5-3.9-1.5c-1-1-1.5-2.3-1.5-3.8c0-1.5,0.5-2.8,1.5-3.8C41.6,125.4,42.8,124.9,44.4,124.9z M44.4,126.2
		c-1.1,0-2,0.3-2.7,1c-0.7,0.6-1.1,1.5-1.3,2.5h7.6c-0.1-1.1-0.6-1.9-1.2-2.5C46.1,126.5,45.3,126.2,44.4,126.2z"/>
	<path class="st1" d="M60.4,125.1h1.3v14.3h-1.3v-6.1c-0.9,1.5-2.3,2.2-4.1,2.2c-1.5,0-2.7-0.5-3.7-1.6c-1-1-1.5-2.3-1.5-3.8
		c0-1.5,0.5-2.8,1.5-3.8c1-1,2.3-1.6,3.7-1.6c1.8,0,3.2,0.7,4.1,2.2V125.1z M53.5,133.1c0.8,0.8,1.7,1.2,2.9,1.2s2.1-0.4,2.9-1.2
		c0.8-0.8,1.2-1.7,1.2-2.9c0-1.1-0.4-2.1-1.2-2.9c-0.8-0.8-1.7-1.2-2.9-1.2s-2.1,0.4-2.9,1.2c-0.8,0.8-1.2,1.7-1.2,2.9
		C52.4,131.4,52.8,132.3,53.5,133.1z"/>
	<path class="st1" d="M71.8,125.1h1.3v10.2h-1.3v-1.6c-0.8,1.2-1.9,1.8-3.4,1.8c-1.2,0-2.2-0.4-2.9-1.1c-0.7-0.8-1.1-1.8-1.1-3.1
		v-6.3h1.3v6.3c0,0.9,0.2,1.6,0.7,2.1c0.5,0.5,1.2,0.8,2.1,0.8c1,0,1.8-0.3,2.4-0.9s0.9-1.6,0.9-2.9V125.1z"/>
	<path class="st1" d="M80.8,124.9c1.5,0,2.7,0.5,3.7,1.6c0.9,1.1,1.4,2.3,1.4,3.8c0,0.2,0,0.4,0,0.6h-9c0.1,1,0.6,1.9,1.3,2.5
		s1.7,0.9,2.8,0.9c0.8,0,1.4-0.2,2-0.5c0.6-0.3,1-0.7,1.3-1.3l1.2,0.7c-0.4,0.7-1.1,1.3-1.8,1.7c-0.8,0.4-1.7,0.6-2.7,0.6
		c-1.6,0-2.9-0.5-3.9-1.5c-1-1-1.5-2.3-1.5-3.8c0-1.5,0.5-2.8,1.5-3.8C77.9,125.4,79.2,124.9,80.8,124.9z M80.8,126.2
		c-1.1,0-2,0.3-2.7,1c-0.7,0.6-1.1,1.5-1.3,2.5h7.6c-0.1-1.1-0.6-1.9-1.2-2.5C82.5,126.5,81.7,126.2,80.8,126.2z"/>
	<path class="st1" d="M89.3,126.8c0.6-1.2,1.7-1.9,3.2-1.9v1.3c-0.9,0-1.7,0.3-2.3,0.8s-0.9,1.4-0.9,2.6v5.7H88v-10.2h1.3V126.8z"/>
	<path class="st1" d="M95.8,122.7c-0.2,0.2-0.4,0.3-0.7,0.3s-0.5-0.1-0.7-0.3c-0.2-0.2-0.3-0.4-0.3-0.7s0.1-0.5,0.3-0.7
		c0.2-0.2,0.4-0.3,0.7-0.3s0.5,0.1,0.7,0.3c0.2,0.2,0.3,0.4,0.3,0.7S96,122.5,95.8,122.7z M94.4,135.4v-10.2h1.3v10.2H94.4z"/>
	<path class="st1" d="M109.5,124.9c1.1,0,2.1,0.4,2.8,1.1c0.7,0.7,1.1,1.7,1.1,3v6.4H112V129c0-0.9-0.2-1.6-0.7-2.1
		c-0.5-0.5-1.1-0.7-1.8-0.7c-0.8,0-1.5,0.3-2.1,0.8c-0.5,0.6-0.8,1.4-0.8,2.6v5.7h-1.3V129c0-0.9-0.2-1.6-0.6-2.1
		c-0.4-0.5-1-0.7-1.7-0.7c-0.8,0-1.5,0.3-2.1,0.9c-0.6,0.6-0.9,1.5-0.9,2.6v5.7h-1.3v-10.2h1.3v1.5c0.7-1.2,1.8-1.7,3.1-1.7
		c1.5,0,2.5,0.6,3.1,1.9C106.9,125.5,108,124.9,109.5,124.9z"/>
	<path class="st1" d="M117.3,122.7c-0.2,0.2-0.4,0.3-0.7,0.3s-0.5-0.1-0.7-0.3c-0.2-0.2-0.3-0.4-0.3-0.7s0.1-0.5,0.3-0.7
		c0.2-0.2,0.4-0.3,0.7-0.3s0.5,0.1,0.7,0.3c0.2,0.2,0.3,0.4,0.3,0.7S117.5,122.5,117.3,122.7z M115.9,135.4v-10.2h1.3v10.2H115.9z"
		/>
	<path class="st1" d="M124.9,124.9c1.5,0,2.7,0.5,3.7,1.6c0.9,1.1,1.4,2.3,1.4,3.8c0,0.2,0,0.4,0,0.6h-9c0.1,1,0.6,1.9,1.3,2.5
		s1.7,0.9,2.8,0.9c0.8,0,1.4-0.2,2-0.5c0.6-0.3,1-0.7,1.3-1.3l1.2,0.7c-0.4,0.7-1.1,1.3-1.8,1.7c-0.8,0.4-1.7,0.6-2.7,0.6
		c-1.6,0-2.9-0.5-3.9-1.5c-1-1-1.5-2.3-1.5-3.8c0-1.5,0.5-2.8,1.5-3.8C122,125.4,123.3,124.9,124.9,124.9z M124.9,126.2
		c-1.1,0-2,0.3-2.7,1c-0.7,0.6-1.1,1.5-1.3,2.5h7.6c-0.1-1.1-0.6-1.9-1.2-2.5C126.6,126.5,125.8,126.2,124.9,126.2z"/>
	<path class="st1" d="M136.9,124.9c1.2,0,2.2,0.4,2.9,1.1c0.7,0.8,1.1,1.8,1.1,3.1v6.3h-1.3v-6.3c0-0.9-0.2-1.6-0.7-2.1
		c-0.5-0.5-1.2-0.8-2.1-0.8c-1,0-1.8,0.3-2.4,0.9s-0.9,1.6-0.9,2.9v5.4h-1.3v-10.2h1.3v1.6C134.2,125.5,135.3,124.9,136.9,124.9z"/>
	<path class="st1" d="M148.9,126.4H146v6.2c0,0.6,0.1,1,0.3,1.2c0.2,0.2,0.5,0.4,1,0.4s1,0,1.6,0v1.2c-1.4,0.2-2.5,0.1-3.2-0.3
		s-1.1-1.2-1.1-2.4v-6.2h-2.1v-1.3h2.1v-2.5l1.3-0.4v2.9h2.9V126.4z"/>
	<path class="st1" d="M159.1,134.1c-1,1-2.3,1.5-3.8,1.5s-2.8-0.5-3.8-1.5c-1-1-1.6-2.3-1.6-3.8c0-1.5,0.5-2.8,1.6-3.8
		c1-1,2.3-1.5,3.8-1.5s2.8,0.5,3.8,1.5c1,1,1.6,2.3,1.6,3.8C160.7,131.8,160.2,133,159.1,134.1z M152.5,133.1
		c0.8,0.8,1.7,1.2,2.9,1.2c1.1,0,2.1-0.4,2.9-1.2c0.8-0.8,1.2-1.7,1.2-2.9c0-1.1-0.4-2.1-1.2-2.9c-0.8-0.8-1.7-1.2-2.9-1.2
		c-1.1,0-2.1,0.4-2.9,1.2c-0.8,0.8-1.2,1.7-1.2,2.9C151.3,131.4,151.7,132.3,152.5,133.1z"/>
	<path class="st1" d="M163.8,127.8c0,0.5,0.2,0.8,0.6,1.1c0.4,0.3,0.9,0.5,1.5,0.7c0.6,0.2,1.2,0.3,1.8,0.5c0.6,0.2,1.1,0.5,1.5,0.9
		c0.4,0.4,0.6,1,0.6,1.7c0,0.9-0.3,1.6-1,2.1c-0.7,0.5-1.6,0.8-2.7,0.8c-1,0-1.8-0.2-2.5-0.7c-0.7-0.4-1.2-1-1.4-1.7l1.1-0.7
		c0.2,0.5,0.5,1,1,1.3c0.5,0.3,1.1,0.5,1.8,0.5c0.7,0,1.2-0.1,1.7-0.4c0.5-0.3,0.7-0.7,0.7-1.2c0-0.5-0.2-0.8-0.6-1.1
		c-0.4-0.3-0.9-0.5-1.5-0.7s-1.2-0.3-1.8-0.5c-0.6-0.2-1.1-0.5-1.5-0.9c-0.4-0.4-0.6-1-0.6-1.7c0-0.8,0.3-1.5,1-2.1
		c0.7-0.6,1.5-0.8,2.5-0.8c0.8,0,1.6,0.2,2.2,0.6c0.6,0.4,1.1,0.9,1.4,1.5l-1.1,0.7c-0.4-1-1.2-1.4-2.5-1.4c-0.6,0-1.1,0.1-1.5,0.4
		C164,126.9,163.8,127.3,163.8,127.8z"/>
</g>
<g id="XMLID_3168_">
	<g>
		<path id="XMLID_78_" class="st1" d="M118.8,22.7l-40,0v74l58,0v-56L118.8,22.7z M119.5,26.9l13.1,13.1l-13.1,0V26.9z M81.2,94.2
			V25.1l35.8,0v17.3l17.3,0v51.8L81.2,94.2z"/>
		<path id="XMLID_77_" class="st1" d="M123.2,48.6l-19.7,0c-0.7,0-1.2,0.6-1.2,1.2c0,0.7,0.6,1.2,1.2,1.2l19.7,0
			c0.7,0,1.2-0.6,1.2-1.2S123.9,48.6,123.2,48.6z"/>
		<path id="XMLID_76_" class="st1" d="M99,45.1l-5.3,4.2L92,47.7c-0.5-0.5-1.3-0.5-1.7,0c-0.5,0.5-0.5,1.3,0,1.7l2.5,2.5
			c0.2,0.2,0.6,0.4,0.9,0.4c0.3,0,0.5-0.1,0.8-0.3l6.2-4.9c0.5-0.4,0.6-1.2,0.2-1.7C100.3,44.8,99.5,44.7,99,45.1z"/>
		<path id="XMLID_75_" class="st1" d="M123.2,62.1l-19.7,0c-0.7,0-1.2,0.6-1.2,1.2s0.6,1.2,1.2,1.2l19.7,0c0.7,0,1.2-0.6,1.2-1.2
			C124.4,62.7,123.9,62.1,123.2,62.1z"/>
		<path id="XMLID_74_" class="st1" d="M99,58.7l-5.3,4.2L92,61.3c-0.5-0.5-1.3-0.5-1.7,0c-0.5,0.5-0.5,1.3,0,1.7l2.5,2.5
			c0.2,0.2,0.6,0.4,0.9,0.4c0.3,0,0.5-0.1,0.8-0.3l6.2-4.9c0.5-0.4,0.6-1.2,0.2-1.7C100.3,58.4,99.5,58.3,99,58.7z"/>
		<path id="XMLID_73_" class="st1" d="M123.2,75.7l-19.7,0c-0.7,0-1.2,0.6-1.2,1.2s0.6,1.2,1.2,1.2l19.7,0c0.7,0,1.2-0.6,1.2-1.2
			C124.4,76.2,123.9,75.7,123.2,75.7z"/>
		<path id="XMLID_72_" class="st1" d="M99,72.3l-5.3,4.2L92,74.8c-0.5-0.5-1.3-0.5-1.7,0s-0.5,1.3,0,1.7l2.5,2.5
			c0.2,0.2,0.6,0.4,0.9,0.4c0.3,0,0.5-0.1,0.8-0.3l6.2-4.9c0.5-0.4,0.6-1.2,0.2-1.7C100.3,71.9,99.5,71.8,99,72.3z"/>
	</g>
</g>
</svg>
