<?xml version="1.0" encoding="utf-8"?>
<!-- Generator: Adobe Illustrator 23.0.6, SVG Export Plug-In . SVG Version: 6.00 Build 0)  -->
<svg version="1.1" id="Layer_1" xmlns="http://www.w3.org/2000/svg" xmlns:xlink="http://www.w3.org/1999/xlink" x="0px" y="0px"
	 viewBox="0 0 200 200" style="enable-background:new 0 0 200 200;" xml:space="preserve">
<style type="text/css">
	.st0{fill:#FFFFFF;}
	.st1{font-family:'Gilroy-Regular';}
	.st2{font-size:17.6762px;}
	.st3{fill:none;stroke:#FFFFFF;stroke-miterlimit:10;}
</style>
<text id="XMLID_2974_" transform="matrix(1 0 0 1 62.4536 109.9492)"><tspan x="0" y="0" class="st0 st1 st2">Balances</tspan><tspan x="-21.1" y="15.3" class="st0 st1 st2"> intercompany</tspan></text>
<g id="XMLID_2901_">
	<g id="XMLID_2907_">
		<polygon id="Arrow_64_" class="st0" points="139.3,189 136.7,173.7 132.6,181.5 124.4,184.7 		"/>
		<polygon id="Arrow_63_" class="st0" points="111.1,156.3 113.8,171.6 117.8,163.8 126,160.6 		"/>
	</g>
	<line id="XMLID_2906_" class="st3" x1="132.3" y1="181.5" x2="117.4" y2="163.2"/>
</g>
<g id="XMLID_5069_">
	<g id="XMLID_5070_">
		<path id="XMLID_5071_" class="st0" d="M141.4,57.8L141.4,57.8L127.8,28l3.3-1.6l-1.2-2.5l-3.2,1.6l-0.4-1c-0.3-0.7-1.1-1-1.8-0.7
			c-0.3,0.1-0.5,0.4-0.7,0.7l-0.4,0.9c-2.4-1.1-4.9-1.7-7.5-1.7h-11.7v-2.8h2.8v-2.8h-2.4l1-4c0.8-3.1-1.1-6.2-4.2-6.9
			c-3.1-0.8-6.2,1.1-6.9,4.2c-0.2,0.9-0.2,1.9,0,2.8l1,4H93v2.8h2.8v2.8H84.1c-2.6,0-5.2,0.6-7.5,1.7l-0.4-0.9
			c-0.3-0.7-1.1-1-1.8-0.7c-0.3,0.1-0.5,0.4-0.7,0.7l-0.4,1l-3.2-1.6l-1.2,2.5l3.3,1.7L58.5,57.8c-0.1,0.2-0.1,0.4-0.1,0.6
			c0,5.4,4.4,9.7,9.7,9.7h13.9c5.4,0,9.7-4.4,9.7-9.7c0-0.2-0.1-0.4-0.1-0.6L77.8,27.9c2-0.9,4.2-1.4,6.4-1.4h11.6v50.8L91.1,82h-5
			c-3.8,0-6.9,3.1-6.9,6.9c0,0.8,0.6,1.4,1.4,1.4h38.9c0.8,0,1.4-0.6,1.4-1.4c0-3.8-3.1-6.9-6.9-6.9h-5l-4.7-4.7V26.5h11.7
			c2.2,0,4.4,0.5,6.4,1.4l-13.7,29.9c-0.1,0.2-0.1,0.4-0.1,0.6c0,5.4,4.4,9.7,9.7,9.7h13.9c5.4,0,9.7-4.4,9.7-9.7
			C141.6,58.2,141.5,58,141.4,57.8z M81.9,65.3H68c-3.3,0-6.1-2.3-6.8-5.6h27.5C88.1,63,85.2,65.3,81.9,65.3z M88.1,57H61.9
			l12.7-27.8c0.2,0.1,0.5,0.1,0.7,0L88.1,57z M97.6,10.9c1.1-1.3,3-1.4,4.3-0.4c0.1,0.1,0.3,0.2,0.4,0.4c0.6,0.7,0.8,1.6,0.5,2.5
			l-1.2,4.7h-3.4l-1.2-4.7C96.9,12.6,97.1,11.7,97.6,10.9z M98.6,23.7v-2.8h2.8v2.8H98.6z M101.3,26.5v50h-2.8v-50H101.3z
			 M113.8,84.7c1.8,0,3.3,1.1,3.9,2.8H82.2c0.6-1.7,2.2-2.8,3.9-2.8H113.8z M104.9,82H95l2.8-2.8h4.4L104.9,82z M124.6,29.2
			c0.2,0.1,0.5,0.1,0.7,0L138,57h-26.2L124.6,29.2z M131.9,65.3H118c-3.3,0-6.1-2.3-6.8-5.6h27.5C138,63,135.2,65.3,131.9,65.3z"/>
	</g>
</g>
</svg>
