<?xml version="1.0" encoding="utf-8"?>
<!-- Generator: Adobe Illustrator 23.0.6, SVG Export Plug-In . SVG Version: 6.00 Build 0)  -->
<svg version="1.1" id="Layer_1" xmlns="http://www.w3.org/2000/svg" xmlns:xlink="http://www.w3.org/1999/xlink" x="0px" y="0px"
	 viewBox="0 0 100 100" style="enable-background:new 0 0 100 100;" xml:space="preserve">
<style type="text/css">
	.st0{fill:#FFFFFF;}
</style>
<g id="XMLID_1212_">
	<g id="XMLID_2920_">
		<g id="XMLID_2921_">
			<path id="XMLID_1197_" class="st0" d="M69.5,44.6c-0.4-1.1-1.6-1.6-2.7-1.2c-1.1,0.4-1.6,1.6-1.2,2.7c1.1,2.7,1.6,5.5,1.6,8.4
				c0,12.5-10.2,22.7-22.7,22.7C32,77.2,21.8,67,21.8,54.4S32,31.7,44.5,31.7c2.9,0,5.7,0.5,8.4,1.6c1.1,0.4,2.3-0.1,2.7-1.2
				c0.4-1.1-0.1-2.3-1.2-2.7c-3.1-1.3-6.5-1.9-9.9-1.9c-14.8,0-26.9,12.1-26.9,26.9s12.1,26.9,26.9,26.9c14.8,0,26.9-12.1,26.9-26.9
				C71.4,51,70.8,47.7,69.5,44.6z"/>
		</g>
	</g>
	<g id="XMLID_2879_">
		<g id="XMLID_2893_">
			<path id="XMLID_1189_" class="st0" d="M82.3,43.6c-0.3-1.1-1.5-1.7-2.6-1.4c-1.1,0.3-1.7,1.5-1.4,2.6c0.9,3.1,1.4,6.4,1.4,9.7
				c0,19.4-15.8,35.1-35.1,35.1c-19.4,0-35.1-15.8-35.1-35.1s15.8-35.1,35.1-35.1c3.3,0,6.6,0.5,9.7,1.4c1.1,0.3,2.2-0.3,2.6-1.4
				c0.3-1.1-0.3-2.2-1.4-2.6c-3.5-1-7.2-1.5-10.8-1.5c-21.6,0-39.3,17.6-39.3,39.3s17.6,39.3,39.3,39.3c21.6,0,39.3-17.6,39.3-39.3
				C83.8,50.8,83.3,47.1,82.3,43.6z"/>
		</g>
	</g>
	<g id="XMLID_2582_">
		<g id="XMLID_2835_">
			<path id="XMLID_1188_" class="st0" d="M59,53.2c-0.1-1.1-1.1-2-2.2-1.9c-1.1,0.1-2,1.1-1.9,2.2c0,0.3,0,0.6,0,0.9
				c0,5.7-4.6,10.3-10.3,10.3c-5.7,0-10.3-4.6-10.3-10.3c0-5.7,4.6-10.3,10.3-10.3c0.3,0,0.6,0,0.9,0c1.1,0.1,2.1-0.7,2.3-1.9
				c0.1-1.1-0.7-2.1-1.9-2.3C45.4,40,45,40,44.5,40c-8,0-14.5,6.5-14.5,14.5c0,8,6.5,14.5,14.5,14.5c8,0,14.5-6.5,14.5-14.5
				C59,54,59,53.6,59,53.2z"/>
		</g>
	</g>
	<g id="XMLID_1448_">
		<g id="XMLID_1757_">
			<path id="XMLID_2437_" class="st0" d="M92.7,19.9c-0.6-1.6-2.1-2.6-3.8-2.6h-7.2v-7.2c0-1.7-1-3.2-2.6-3.8
				c-1.6-0.6-3.3-0.3-4.5,0.9L62.5,19.3c-1.2,1.2-1.8,2.7-1.8,4.4v11.7L43.9,52.2c-0.8,0.8-0.8,2.1,0,2.9c0.4,0.4,0.9,0.6,1.5,0.6
				s1.1-0.2,1.5-0.6l16.8-16.8h11.7c1.7,0,3.2-0.6,4.4-1.8l12.1-12.1C93,23.2,93.3,21.5,92.7,19.9z M64.8,23.7
				c0-0.6,0.2-1.1,0.6-1.5l12.1-12.1v8.4L64.8,31.2L64.8,23.7L64.8,23.7z M76.8,33.6c-0.4,0.4-0.9,0.6-1.5,0.6h-7.6l12.7-12.7l8.4,0
				L76.8,33.6z"/>
		</g>
	</g>
	<g id="XMLID_1446_">
	</g>
	<g id="XMLID_1445_">
	</g>
	<g id="XMLID_1439_">
	</g>
	<g id="XMLID_1438_">
	</g>
	<g id="XMLID_1433_">
	</g>
	<g id="XMLID_1432_">
	</g>
	<g id="XMLID_1429_">
	</g>
	<g id="XMLID_1427_">
	</g>
	<g id="XMLID_1403_">
	</g>
	<g id="XMLID_1402_">
	</g>
	<g id="XMLID_1363_">
	</g>
	<g id="XMLID_1360_">
	</g>
	<g id="XMLID_1233_">
	</g>
	<g id="XMLID_1232_">
	</g>
	<g id="XMLID_1223_">
	</g>
</g>
</svg>
