<?xml version="1.0" encoding="utf-8"?>
<!-- Generator: Adobe Illustrator 23.0.6, SVG Export Plug-In . SVG Version: 6.00 Build 0)  -->
<svg version="1.1" id="Layer_1" xmlns="http://www.w3.org/2000/svg" xmlns:xlink="http://www.w3.org/1999/xlink" x="0px" y="0px"
	 viewBox="0 0 500 589" style="enable-background:new 0 0 500 589;" xml:space="preserve">
<style type="text/css">
	.st0{fill:#FFFFFF;}
	.st1{fill:#2B318B;}
	.st2{font-family:'Gilroy-Bold';}
	.st3{font-size:61.0638px;}
	.st4{font-size:92.9844px;}
	.st5{font-size:108.3948px;}
	.st6{font-size:101.3869px;}
</style>
<g id="XMLID_2933_">
	<path id="XMLID_2934_" class="st0" d="M494,534.9V396c-13.9,11-26.1,24.7-32.5,39.8V325.2h-75.9v110.6
		c-8.7-20.3-27.9-38.2-47.5-50.4h-82.5c26.7,20.3,69,52,69,77.3c0,12.6-15.1,15.1-23.7,15.1h-52v60.7h81.5
		c18.2,0,44.5-6.7,55.1-35.3v68.1h76v-68.1C468.2,521.1,480.9,530.4,494,534.9"/>
</g>
<g id="XMLID_2618_">
	<text id="XMLID_3003_" transform="matrix(1 0 0 1 4.3535 59.9033)" class="st1 st2 st3">Relevancia del</text>
	<text id="XMLID_2987_" transform="matrix(1 0 0 1 1.5498 136.2822)" class="st1 st2 st4">primary </text>
	<text id="XMLID_2986_" transform="matrix(0.9999 1.999880e-05 9.000000e-05 1 4.0871 231.9717)" class="st1 st2 st5">working</text>
	<g id="XMLID_2936_">
		<text transform="matrix(1 0 0 1 9.0322 318.0303)" class="st1 st2 st6">capital</text>
	</g>
	<g id="XMLID_2927_">
		<text transform="matrix(1 0 0 1 11.291 402.8926)" class="st1 st2 st6">CCC</text>
	</g>
</g>
</svg>
