<?xml version="1.0" encoding="utf-8"?>
<!-- Generator: Adobe Illustrator 23.0.6, SVG Export Plug-In . SVG Version: 6.00 Build 0)  -->
<svg version="1.1" id="Layer_1" xmlns="http://www.w3.org/2000/svg" xmlns:xlink="http://www.w3.org/1999/xlink" x="0px" y="0px"
	 viewBox="0 0 100 100" style="enable-background:new 0 0 100 100;" xml:space="preserve">
<style type="text/css">
	.st0{fill:#FFFFFF;}
</style>
<g id="XMLID_4352_">
	<g id="XMLID_4353_">
		<g id="XMLID_4354_">
			<path id="XMLID_4355_" class="st0" d="M42.1,19.1v25.7c-2-4.7-6.6-8.8-11.2-11.6H11.5c6.3,4.7,16.2,12,16.2,17.9
				c0,2.9-3.5,3.5-5.5,3.5H9.9v14h19.2c4.3,0,10.4-1.6,13-8.2v18.8h17.8V60.4c2.5,6.6,8.7,8.2,13,8.2H92v-14H79.8
				c-2,0-5.6-0.6-5.6-3.5c0-5.9,9.9-13.2,16.2-17.9H71.1c-4.6,2.8-9.1,6.9-11.2,11.6V19.1H42.1z M51,10c26.5,0,48,18.5,48,41.2
				c0,22.8-21.5,41.2-48,41.2c-26.5,0-48-18.5-48-41.2C2.9,28.4,24.5,10,51,10"/>
		</g>
	</g>
</g>
</svg>
