<?xml version="1.0" encoding="utf-8"?>
<!-- Generator: Adobe Illustrator 23.0.6, SVG Export Plug-In . SVG Version: 6.00 Build 0)  -->
<svg version="1.1" id="Layer_1" xmlns="http://www.w3.org/2000/svg" xmlns:xlink="http://www.w3.org/1999/xlink" x="0px" y="0px"
	 viewBox="0 0 100 100" style="enable-background:new 0 0 100 100;" xml:space="preserve">
<style type="text/css">
	.st0{fill:#FFFFFF;}
</style>
<g id="XMLID_100_">
	<g id="XMLID_1644_">
		<path id="XMLID_1647_" class="st0" d="M34.8,97C16.5,97,1.6,82.1,1.6,63.8c0-18.3,14.9-33.2,33.2-33.2c18.3,0,33.2,14.9,33.2,33.2
			c0,0.4,0,0.8-0.1,1.2l0,0.5c0,0.8-0.7,1.5-1.6,1.5h-1.5v10.6c0,0.2-0.1,0.5-0.2,0.7C59.1,89.8,47.7,97,34.8,97z M34.8,33.7
			c-16.6,0-30.1,13.5-30.1,30.1s13.5,30.1,30.1,30.1c11.5,0,21.8-6.4,26.9-16.7V65.3c0-0.9,0.7-1.6,1.6-1.6h1.6
			C64.9,47.2,51.4,33.7,34.8,33.7z"/>
	</g>
	<g id="XMLID_1614_">
		<path id="XMLID_1615_" class="st0" d="M95,95.4H63.3c-0.9,0-1.6-0.7-1.6-1.6V65.3c0-0.9,0.7-1.6,1.6-1.6H95c0.9,0,1.6,0.7,1.6,1.6
			v28.5C96.6,94.7,95.9,95.4,95,95.4z M64.9,92.2h28.5V66.9H64.9V92.2z"/>
	</g>
	<g id="XMLID_1610_">
		<path id="XMLID_1611_" class="st0" d="M91.8,66.9H66.5c-0.9,0-1.6-0.7-1.6-1.6V59c0-7.9,6.4-14.2,14.2-14.2
			c7.9,0,14.2,6.4,14.2,14.2v6.3C93.4,66.2,92.7,66.9,91.8,66.9z M68.1,63.8h22.2V59c0-6.1-5-11.1-11.1-11.1
			c-6.1,0-11.1,5-11.1,11.1V63.8z"/>
	</g>
	<g id="XMLID_1256_">
		<path id="XMLID_1607_" class="st0" d="M85.5,66.9H72.8c-0.9,0-1.6-0.7-1.6-1.6V59c0-4.4,3.6-7.9,7.9-7.9c4.4,0,7.9,3.6,7.9,7.9
			v6.3C87.1,66.2,86.4,66.9,85.5,66.9z M74.4,63.8h9.5V59c0-2.6-2.1-4.8-4.8-4.8c-2.6,0-4.8,2.1-4.8,4.8V63.8z"/>
	</g>
	<g id="XMLID_1056_">
		<path id="XMLID_1071_" class="st0" d="M69.7,85.9h-6.3c-0.9,0-1.6-0.7-1.6-1.6v-19c0-0.9,0.7-1.6,1.6-1.6h6.3
			c0.9,0,1.6,0.7,1.6,1.6v19C71.2,85.2,70.5,85.9,69.7,85.9z M64.9,82.8h3.2V66.9h-3.2V82.8z"/>
	</g>
	<g id="XMLID_935_">
		<rect id="XMLID_1032_" x="63.3" y="70.1" class="st0" width="6.3" height="3.2"/>
	</g>
	<g id="XMLID_928_">
		<rect id="XMLID_933_" x="63.3" y="76.4" class="st0" width="6.3" height="3.2"/>
	</g>
	<g id="XMLID_909_">
		<path id="XMLID_910_" class="st0" d="M80.7,82.8h-3.2V78c0-0.9,0.7-1.6,1.6-1.6c0.9,0,1.6-0.7,1.6-1.6c0-0.9-0.7-1.6-1.6-1.6
			c-0.9,0-1.6,0.7-1.6,1.6h-3.2c0-2.6,2.1-4.8,4.8-4.8c2.6,0,4.8,2.1,4.8,4.8c0,2.1-1.3,3.8-3.2,4.5V82.8z"/>
	</g>
	<g id="XMLID_836_">
		<path id="XMLID_842_" class="st0" d="M47.5,36.3c-0.2,0-0.4,0-0.6-0.1c-7.6-3.3-16.4-3.3-24.1,0c-0.5,0.2-1.1,0.2-1.5-0.1
			c-0.4-0.3-0.7-0.8-0.7-1.3V24.2c0-0.9,0.7-1.6,1.6-1.6h25.3c0.9,0,1.6,0.7,1.6,1.6v10.6c0,0.5-0.3,1-0.7,1.3
			C48.1,36.2,47.8,36.3,47.5,36.3z M34.8,30.5c3.8,0,7.5,0.6,11.1,1.9v-6.7H23.7v6.7C27.3,31.1,31,30.5,34.8,30.5z"/>
	</g>
	<g id="XMLID_756_">
		<path id="XMLID_835_" class="st0" d="M71.2,35.2c-7,0-12.7-5.7-12.7-12.7v-6.3c0-6.1-5-11.1-11.1-11.1c-6.1,0-11.1,5-11.1,11.1
			v7.9h-3.2v-7.9C33.2,8.4,39.6,2,47.5,2c7.9,0,14.2,6.4,14.2,14.2v6.3c0,5.2,4.3,9.5,9.5,9.5c5.2,0,9.5-4.3,9.5-9.5v-6.3h3.2v6.3
			C83.9,29.6,78.2,35.2,71.2,35.2z"/>
	</g>
	<g id="XMLID_689_">
		<rect id="XMLID_692_" x="80.7" y="2" class="st0" width="3.2" height="9.5"/>
	</g>
	<g id="XMLID_662_">
		
			<rect id="XMLID_688_" x="72.8" y="6.8" transform="matrix(0.6 -0.8 0.8 0.6 21.1962 63.8091)" class="st0" width="3.2" height="7.9"/>
	</g>
	<g id="XMLID_382_">
		<rect id="XMLID_611_" x="68.1" y="17.8" class="st0" width="7.9" height="3.2"/>
	</g>
	<g id="XMLID_313_">
		
			<rect id="XMLID_381_" x="86.3" y="9.1" transform="matrix(0.8001 -0.5998 0.5998 0.8001 11.614 56.2703)" class="st0" width="7.9" height="3.2"/>
	</g>
	<g id="XMLID_199_">
		<rect id="XMLID_211_" x="88.7" y="17.8" class="st0" width="7.9" height="3.2"/>
	</g>
	<g id="XMLID_152_">
		<path id="XMLID_190_" class="st0" d="M34.8,74.8c-3.5,0-6.3-2.8-6.3-6.3h3.2c0,1.7,1.4,3.2,3.2,3.2c1.7,0,3.2-1.4,3.2-3.2
			s-1.4-3.2-3.2-3.2c-3.5,0-6.3-2.8-6.3-6.3s2.8-6.3,6.3-6.3c3.5,0,6.3,2.8,6.3,6.3H38c0-1.7-1.4-3.2-3.2-3.2
			c-1.7,0-3.2,1.4-3.2,3.2s1.4,3.2,3.2,3.2c3.5,0,6.3,2.8,6.3,6.3S38.3,74.8,34.8,74.8z"/>
	</g>
	<g id="XMLID_105_">
		<rect id="XMLID_106_" x="33.2" y="49.5" class="st0" width="3.2" height="4.8"/>
	</g>
	<g id="XMLID_101_">
		<rect id="XMLID_104_" x="33.2" y="73.2" class="st0" width="3.2" height="4.8"/>
	</g>
</g>
</svg>
