<?xml version="1.0" encoding="utf-8"?>
<!-- Generator: Adobe Illustrator 23.0.6, SVG Export Plug-In . SVG Version: 6.00 Build 0)  -->
<svg version="1.1" id="Layer_1" xmlns="http://www.w3.org/2000/svg" xmlns:xlink="http://www.w3.org/1999/xlink" x="0px" y="0px"
	 viewBox="0 0 1704 1500" style="enable-background:new 0 0 1704 1500;" xml:space="preserve">
<style type="text/css">
	.st0{fill:#FFFFFF;}
	.st1{font-family:'Gilroy-Bold';}
	.st2{font-size:158.0947px;}
</style>
<text id="XMLID_2496_" transform="matrix(1 0 0 1 534.1367 695.0791)"><tspan x="0" y="0" class="st0 st1 st2">Cuentas </tspan><tspan x="-57.9" y="164" class="st0 st1 st2">por cobrar</tspan></text>
<g id="XMLID_1775_">
	<g id="XMLID_1845_">
		<path id="XMLID_2481_" class="st0" d="M469.8,372.6C578.4,285,718.1,237,866.3,237c157.7,0,305.8,54.4,417,153.1l-52.8,46.9
			c-97.1-86.2-226.5-133.6-364.2-133.7c-137.7,0-267.1,47.5-364.2,133.6c-200.8,178.2-200.8,468.2,0,646.4l-52.8,46.9
			c-230-204.1-230-536.1,0-740.2C456,384.1,462.8,378.3,469.8,372.6"/>
	</g>
	<g id="XMLID_1778_">
		<path id="XMLID_1779_" class="st0" d="M1424.1,760.1c0,126.8-54.4,253.6-163.2,350.2c-217.6,193.1-571.6,193.1-789.2,0l7.9-7
			c213.2,189.2,560.1,189.2,773.3,0c213.2-189.2,213.2-497.1,0-686.3l7.9-7C1369.7,506.5,1424.1,633.3,1424.1,760.1z"/>
	</g>
</g>
<g id="XMLID_145_">
	<polygon id="Arrow_6_" class="st0" points="850.4,41 891.2,106.2 850.4,90.8 809.6,106.2 	"/>
	<polygon id="Arrow_1_" class="st0" points="850.4,195 809.7,129.8 850.4,145.2 891.2,129.8 	"/>
</g>
<g id="XMLID_332_">
	<polygon id="Arrow_3_" class="st0" points="1588.5,345.1 1561.2,417 1548.8,375.2 1511.9,352.1 	"/>
	<polygon id="Arrow_2_" class="st0" points="1465.8,438.3 1493.1,366.4 1505.5,408.2 1542.4,431.3 	"/>
</g>
<g id="XMLID_207_">
	<polygon id="Arrow_5_" class="st0" points="1620,987 1581.7,920.3 1576.1,963.5 1543.3,992.2 	"/>
	<polygon id="Arrow_4_" class="st0" points="1484.2,914.4 1522.5,981.1 1528.1,937.9 1560.9,909.2 	"/>
</g>
<g id="XMLID_218_">
	<polygon id="Arrow_8_" class="st0" points="1201.3,1451 1207.6,1374.3 1178.4,1406.7 1135.1,1411.7 	"/>
	<polygon id="Arrow_7_" class="st0" points="1130.7,1314.1 1124.3,1390.7 1153.5,1358.3 1196.8,1353.4 	"/>
</g>
<g id="XMLID_221_">
	<polygon id="Arrow_14_" class="st0" points="93.2,345.1 120.5,417 132.8,375.2 169.8,352.1 	"/>
	<polygon id="Arrow_13_" class="st0" points="215.8,438.3 188.5,366.4 176.2,408.2 139.3,431.3 	"/>
</g>
<g id="XMLID_219_">
	<polygon id="Arrow_12_" class="st0" points="61.6,987 99.9,920.3 105.6,963.5 138.4,992.2 	"/>
	<polygon id="Arrow_11_" class="st0" points="197.5,914.4 159.2,981.1 153.6,937.9 120.8,909.2 	"/>
</g>
<g id="XMLID_206_">
	<polygon id="Arrow_10_" class="st0" points="480.4,1451 474,1374.3 503.2,1406.7 546.5,1411.7 	"/>
	<polygon id="Arrow_9_" class="st0" points="551,1314.1 557.3,1390.7 528.1,1358.3 484.8,1353.4 	"/>
</g>
</svg>
