<?xml version="1.0" encoding="utf-8"?>
<!-- Generator: Adobe Illustrator 23.0.6, SVG Export Plug-In . SVG Version: 6.00 Build 0)  -->
<svg version="1.1" id="Layer_1" xmlns="http://www.w3.org/2000/svg" xmlns:xlink="http://www.w3.org/1999/xlink" x="0px" y="0px"
	 viewBox="0 0 100 100" style="enable-background:new 0 0 100 100;" xml:space="preserve">
<style type="text/css">
	.st0{fill:#FFFFFF;}
</style>
<g id="XMLID_2290_">
	<g id="XMLID_2351_">
		<path id="XMLID_2352_" class="st0" d="M26.5,64.7H12.3v-3.1H24c-1.5-3.5-2.2-7.2-2.2-11c0-0.5,0-1,0.1-1.6h-9.5
			c-3.5,0-6.3,2.8-6.3,6.3v3.1H2.9v-3.1c0-5.2,4.2-9.4,9.4-9.4h11.2c0.4,0,0.9,0.2,1.2,0.5c0.3,0.3,0.4,0.8,0.4,1.2
			c-0.1,1.1-0.2,2.1-0.2,3c0,4.1,1,8.2,3,11.9c0.3,0.5,0.2,1.1,0,1.6C27.5,64.4,27,64.7,26.5,64.7z"/>
	</g>
	<g id="XMLID_2346_">
		<path id="XMLID_2347_" class="st0" d="M39.1,93c-0.2,0-0.4,0-0.6-0.1c-0.6-0.3-0.9-0.8-0.9-1.4v-4.7H13.9c-6.1,0-11-4.9-11-11
			V58.4c0-0.9,0.7-1.6,1.6-1.6S6,57.5,6,58.4c0,2.9,1.3,5.6,3.6,7.4c0.3,0.2,0.6,0.4,1,0.6c0.2,0.1,0.5,0.3,0.8,0.4
			c1.3,0.6,2.7,0.9,4,0.9h22v-4.7c0-0.6,0.4-1.2,0.9-1.4c0.6-0.3,1.2-0.1,1.7,0.3l15.7,14.2c0.3,0.3,0.5,0.7,0.5,1.2
			c0,0.4-0.2,0.9-0.5,1.2L40.1,92.6C39.8,92.9,39.4,93,39.1,93z M6,66.7v9c0,4.3,3.5,7.9,7.9,7.9h25.2c0.9,0,1.6,0.7,1.6,1.6v2.8
			l11.8-10.6L40.6,66.6v2.8c0,0.9-0.7,1.6-1.6,1.6H15.5c-1.8,0-3.7-0.4-5.4-1.3c-0.4-0.2-0.7-0.4-1.1-0.6c-0.5-0.3-0.9-0.6-1.3-0.9
			C7.1,67.8,6.5,67.3,6,66.7z"/>
	</g>
	<g id="XMLID_2323_">
		
			<rect id="XMLID_2344_" x="38.9" y="48.9" transform="matrix(0.7071 -0.7071 0.7071 0.7071 -21.0406 50.203)" class="st0" width="22.3" height="3.1"/>
	</g>
	<g id="XMLID_2317_">
		<path id="XMLID_2318_" class="st0" d="M58,63.1c-2.6,0-4.7-2.1-4.7-4.7s2.1-4.7,4.7-4.7s4.7,2.1,4.7,4.7S60.6,63.1,58,63.1z
			 M58,56.8c-0.9,0-1.6,0.7-1.6,1.6c0,0.9,0.7,1.6,1.6,1.6s1.6-0.7,1.6-1.6C59.5,57.5,58.8,56.8,58,56.8z"/>
	</g>
	<g id="XMLID_2310_">
		<path id="XMLID_2311_" class="st0" d="M42.2,47.4c-2.6,0-4.7-2.1-4.7-4.7s2.1-4.7,4.7-4.7c2.6,0,4.7,2.1,4.7,4.7
			S44.8,47.4,42.2,47.4z M42.2,41.1c-0.9,0-1.6,0.7-1.6,1.6c0,0.9,0.7,1.6,1.6,1.6c0.9,0,1.6-0.7,1.6-1.6
			C43.8,41.8,43.1,41.1,42.2,41.1z"/>
	</g>
	<g id="XMLID_2306_">
		<path id="XMLID_2307_" class="st0" d="M54.4,78.5c-0.4,0-0.8-0.1-1.1-0.4L40.6,66.6v2.8c0,0.9-0.7,1.6-1.6,1.6h-7.9
			c-0.4,0-0.8-0.2-1.1-0.5c-5.3-5.3-8.3-12.5-8.3-20c0-14,10-25.7,23.8-27.9c0.5-0.1,1,0.1,1.3,0.4l12.7,11.4v-2.8
			c0-0.9,0.7-1.6,1.6-1.6H69c0.4,0,0.8,0.2,1.1,0.5c5.3,5.3,8.3,12.5,8.3,20c0,14-10,25.7-23.8,27.9C54.6,78.4,54.5,78.5,54.4,78.5z
			 M39.1,61.5c0.4,0,0.8,0.1,1.1,0.4l14.8,13.3c11.9-2.3,20.4-12.5,20.4-24.7c0-6.5-2.4-12.6-6.9-17.3h-5.7v4.7
			c0,0.6-0.4,1.2-0.9,1.4c-0.6,0.3-1.2,0.1-1.7-0.3L45.3,25.8c-11.9,2.3-20.4,12.5-20.4,24.7c0,6.5,2.4,12.6,6.9,17.3h5.7v-4.7
			c0-0.6,0.4-1.2,0.9-1.4C38.6,61.6,38.8,61.5,39.1,61.5z"/>
	</g>
	<g id="XMLID_2302_">
		<path id="XMLID_2303_" class="st0" d="M31.1,71H15.5c-1.8,0-3.7-0.4-5.4-1.3c-0.4-0.2-0.7-0.4-1.1-0.6c-0.5-0.3-0.9-0.6-1.3-0.9
			c-0.7-0.6-1.4-1.2-2-2c-0.5-0.6-0.5-1.6,0.1-2.1c1.8-1.7,4.1-2.6,6.5-2.6h14.2c0.6,0,1.1,0.3,1.4,0.8c1.2,2.2,2.6,4.2,4.4,5.9
			c0.4,0.5,0.6,1.1,0.3,1.7C32.3,70.6,31.8,71,31.1,71z M9.2,65.5c0.1,0.1,0.3,0.2,0.4,0.3c0.3,0.2,0.6,0.4,1,0.6
			c0.2,0.1,0.5,0.3,0.8,0.4c1.3,0.6,2.7,0.9,4,0.9h12.2c-0.8-1-1.5-2-2.1-3.1H12.3C11.2,64.7,10.2,64.9,9.2,65.5z"/>
	</g>
	<g id="XMLID_2300_">
		<path id="XMLID_2301_" class="st0" d="M87.9,55.2H76.6c-0.4,0-0.9-0.2-1.2-0.5c-0.3-0.3-0.4-0.8-0.4-1.2c0.1-1.1,0.2-2.1,0.2-3
			c0-4.1-1-8.2-3-11.9c-0.3-0.5-0.2-1.1,0-1.6c0.3-0.5,0.8-0.8,1.4-0.8h14.2v3.1H76.2c1.5,3.5,2.2,7.2,2.2,11c0,0.5,0,1-0.1,1.6h9.5
			c3.5,0,6.3-2.8,6.3-6.3v-3.1h3.1v3.1C97.3,51,93.1,55.2,87.9,55.2z"/>
	</g>
	<g id="XMLID_2295_">
		<path id="XMLID_2296_" class="st0" d="M95.7,44.2c-0.9,0-1.6-0.7-1.6-1.6c0-2.9-1.3-5.6-3.6-7.4c-0.3-0.2-0.6-0.4-1-0.6
			c-0.2-0.1-0.5-0.3-0.8-0.4c-1.3-0.6-2.7-0.9-4-0.9h-22v4.7c0,0.6-0.4,1.2-0.9,1.4c-0.6,0.3-1.2,0.1-1.7-0.3L44.3,24.9
			c-0.3-0.3-0.5-0.7-0.5-1.2c0-0.4,0.2-0.9,0.5-1.2L60,8.4c0.5-0.4,1.1-0.5,1.7-0.3c0.6,0.3,0.9,0.8,0.9,1.4v4.7h23.6
			c6.1,0,11,4.9,11,11v17.3C97.3,43.5,96.6,44.2,95.7,44.2z M47.7,23.7l11.8,10.6v-2.8c0-0.9,0.7-1.6,1.6-1.6h23.6
			c1.8,0,3.7,0.4,5.4,1.3c0.4,0.2,0.7,0.4,1.1,0.6c0.5,0.3,0.9,0.6,1.3,0.9c0.6,0.5,1.2,1,1.7,1.6v-9c0-4.3-3.5-7.9-7.9-7.9H61.1
			c-0.9,0-1.6-0.7-1.6-1.6v-2.8L47.7,23.7z"/>
	</g>
	<g id="XMLID_2291_">
		<path id="XMLID_2292_" class="st0" d="M87.9,39.5H73.7c-0.6,0-1.1-0.3-1.4-0.8c-1.2-2.2-2.6-4.2-4.4-5.9c-0.4-0.5-0.6-1.1-0.3-1.7
			c0.2-0.6,0.8-1,1.5-1h15.7c1.8,0,3.7,0.4,5.4,1.3c0.4,0.2,0.7,0.4,1.1,0.6c0.5,0.3,0.9,0.6,1.3,0.9c0.7,0.6,1.4,1.2,2,2
			c0.5,0.6,0.5,1.6-0.1,2.1C92.6,38.5,90.3,39.5,87.9,39.5z M74.6,36.3h13.2c1.1,0,2.1-0.3,3.1-0.8c-0.1-0.1-0.3-0.2-0.4-0.3
			c-0.3-0.2-0.6-0.4-1-0.6c-0.2-0.1-0.5-0.3-0.8-0.4c-1.3-0.6-2.7-0.9-4-0.9H72.5C73.3,34.2,74,35.2,74.6,36.3z"/>
	</g>
</g>
</svg>
