<?xml version="1.0" encoding="utf-8"?>
<!-- Generator: Adobe Illustrator 23.0.6, SVG Export Plug-In . SVG Version: 6.00 Build 0)  -->
<svg version="1.1" id="Layer_1" xmlns="http://www.w3.org/2000/svg" xmlns:xlink="http://www.w3.org/1999/xlink" x="0px" y="0px"
	 viewBox="0 0 200 200" style="enable-background:new 0 0 200 200;" xml:space="preserve">
<style type="text/css">
	.st0{fill:#FFFFFF;}
	.st1{font-family:'Gilroy-Regular';}
	.st2{font-size:17.5254px;}
	.st3{fill:none;stroke:#FFFFFF;stroke-miterlimit:10;}
</style>
<text id="XMLID_2988_" transform="matrix(1 0 0 1 16.3564 133.7061)"><tspan x="0" y="0" class="st0 st1 st2">Dividendos </tspan><tspan x="-12.4" y="15.2" class="st0 st1 st2">e Intereses por</tspan><tspan x="18" y="30.3" class="st0 st1 st2"> cobrar</tspan></text>
<g id="XMLID_2908_">
	<g id="XMLID_2910_">
		<polygon id="Arrow_66_" class="st0" points="152.8,47.7 162.5,35.7 162.2,44.5 167.8,51.2 		"/>
		<polygon id="Arrow_65_" class="st0" points="193,33 183.3,44.9 183.6,36.2 178,29.5 		"/>
	</g>
	<line id="XMLID_2909_" class="st3" x1="162.5" y1="44.6" x2="184.3" y2="35.9"/>
</g>
<g id="XMLID_4933_">
	<path id="XMLID_5066_" class="st0" d="M98.9,100.8c-0.4-1.7-1.4-3.2-2.9-4.2c-1.5-1-3.3-1.3-5-0.9l-8,1.8v-3.3
		c1.6-1.5,3.3-3.5,4.5-5.3c2.1-3.2,3.6-6.7,4.4-10.3c1-4.4,1-9,0.1-13.5c-0.2-0.8-1-1.3-1.8-1.2c-0.8,0.2-1.3,1-1.2,1.8
		c0.9,4,0.8,8.2-0.1,12.2c-0.7,3.3-2.1,6.5-4,9.3c-0.6,0.8-1.2,1.7-2,2.6V73.3c0-0.8-0.7-1.5-1.5-1.5H69.6v-16
		c0-0.8-0.7-1.5-1.5-1.5l-13.4,0c0,0,0,0,0,0c-0.4,0-0.8,0.2-1.1,0.4c-0.3,0.3-0.4,0.7-0.4,1.1V64H41.4c-0.8,0-1.5,0.7-1.5,1.5v14.9
		h-3.3v-2c0-0.8-0.7-1.5-1.5-1.5h-1.5c-0.3-1.4-0.4-2.9-0.5-4.4c-0.1-3.6,0.5-7,1.7-10.4c0.3-0.8,0.6-1.5,0.9-2.3
		c0.4-0.8,0-1.6-0.7-2c-0.8-0.3-1.6,0-2,0.7c-0.4,0.8-0.7,1.7-1,2.5c-1.3,3.7-2,7.5-1.9,11.5c0,1.4,0.2,2.9,0.4,4.3h-6.8
		c-0.8,0-1.5,0.7-1.5,1.5v26.4c0,0.8,0.7,1.5,1.5,1.5H35c0.8,0,1.5-0.7,1.5-1.5v-1.4h5.7l22.9,9c2.1,0.8,4.4,1.3,6.6,1.3
		c1.5,0,3-0.2,4.5-0.6l17.9-4.6C97.5,107.6,99.6,104.2,98.9,100.8z M80,74.8v23.5l-4,0.9c-0.4,0.1-0.9,0.2-1.3,0.2
		c-1.7,0.2-3.4,0.2-5-0.1c0,0,0,0,0,0V97c1.1-1.7,1.5-3.9,0.9-5.9c-0.2-0.6-0.4-1.1-0.7-1.6c-0.1-0.1-0.1-0.2-0.2-0.3c0,0,0,0,0,0
		V74.8L80,74.8L80,74.8z M56.3,57.2l10.4,0v29.6l-5.8-2.4l-4.6-1.9V57.2z M42.9,67h10.4v14.3l-1.9-0.8c-0.2-0.1-0.4-0.1-0.6-0.1
		h-7.9V67z M33.5,103.3h-8.4V79.9h7.1c0,0,0,0,0,0c0,0,0,0,0,0h1.3V103.3z M93.4,105.6l-17.9,4.6c-3.1,0.8-6.3,0.6-9.3-0.6L43,100.5
		c-0.2-0.1-0.4-0.1-0.5-0.1h-5.9V83.4h14l9.7,4l5.3,2.2c1.9,0.8,2.8,3,2,4.9c-0.2,0.4-0.3,0.7-0.6,1.1c-0.9,1.2-2.5,1.7-3.9,1.4
		c0,0,0,0,0,0c-0.1,0-0.2,0-0.3-0.1L52.6,93c-0.1,0-0.1,0-0.1,0c-0.8-0.3-1.6,0.1-1.9,0.9c-0.3,0.8,0.1,1.6,0.9,1.9
		c0,0,5.7,2.2,10,3.9c0.1,0,0.2,0.1,0.3,0.1l3.3,1.3c1,0.4,2,0.8,3.1,1c1.8,0.5,3.6,0.6,5.5,0.5c1-0.1,2.1-0.2,3.1-0.4l5.2-1.2
		c0,0,0,0,0,0l9.8-2.3c0.9-0.2,1.9,0,2.7,0.5c0.8,0.5,1.4,1.3,1.6,2.3C96.4,103.3,95.2,105.1,93.4,105.6z"/>
	<path id="XMLID_5032_" class="st0" d="M41.4,51.2c0.4,0,0.7-0.1,1-0.4c2.7-2.4,5.9-4.4,9.3-5.6c3.7-1.3,7.7-1.9,11.6-1.6
		c2.8,0.2,5.6,0.8,8.2,1.8c0.8,0.3,1.6-0.1,1.9-0.9c0.3-0.8-0.1-1.6-0.9-1.9c-2.9-1.1-6-1.8-9.1-2c-4.3-0.3-8.8,0.3-12.8,1.8
		c-3.7,1.4-7.3,3.5-10.2,6.2c-0.6,0.6-0.7,1.5-0.1,2.1C40.5,51,40.9,51.2,41.4,51.2z"/>
	<path id="XMLID_5030_" class="st0" d="M75.5,61.9c0.3,0.2,0.6,0.4,1,0.4c0.4,0,0.8-0.2,1.1-0.5l12.4-14.2c0.5-0.6,0.5-1.6-0.1-2.1
		c-0.6-0.5-1.6-0.5-2.1,0.1L75.3,59.8C74.8,60.4,74.8,61.3,75.5,61.9z"/>
	<path id="XMLID_5061_" class="st0" d="M86.5,55.5c-2.1,0-3.8,1.7-3.8,3.8s1.7,3.8,3.8,3.8s3.8-1.7,3.8-3.8
		C90.3,57.1,88.6,55.5,86.5,55.5z M86.5,60c-0.4,0-0.8-0.3-0.8-0.8c0-0.4,0.3-0.8,0.8-0.8c0.4,0,0.8,0.3,0.8,0.8
		C87.3,59.6,87,60,86.5,60z"/>
	<path id="XMLID_5057_" class="st0" d="M78.2,52.1c2.1,0,3.8-1.7,3.8-3.8s-1.7-3.8-3.8-3.8s-3.8,1.7-3.8,3.8S76.1,52.1,78.2,52.1z
		 M78.2,47.6c0.4,0,0.8,0.3,0.8,0.8c0,0.4-0.3,0.8-0.8,0.8s-0.8-0.3-0.8-0.8C77.4,47.9,77.8,47.6,78.2,47.6z"/>
	<path id="XMLID_4948_" class="st0" d="M36,54.7c0.2,0.6,0.8,1,1.5,0.9c0.6,0,1.2-0.5,1.4-1c0.2-0.6,0-1.3-0.5-1.7
		c-0.5-0.4-1.2-0.4-1.7-0.1C36,53.3,35.7,54,36,54.7z"/>
</g>
</svg>
