<?xml version="1.0" encoding="utf-8"?>
<!-- Generator: Adobe Illustrator 23.0.6, SVG Export Plug-In . SVG Version: 6.00 Build 0)  -->
<svg version="1.1" id="Layer_1" xmlns="http://www.w3.org/2000/svg" xmlns:xlink="http://www.w3.org/1999/xlink" x="0px" y="0px"
	 viewBox="0 0 200 200" style="enable-background:new 0 0 200 200;" xml:space="preserve">
<style type="text/css">
	.st0{fill:#FFFFFF;}
	.st1{font-family:'Gilroy-Regular';}
	.st2{font-size:23.7108px;}
</style>
<text id="XMLID_2983_" transform="matrix(1 0 0 1 25.2861 149.8564)" class="st0 st1 st2">Otras cuentas</text>
<g id="XMLID_5068_">
	<path id="XMLID_5144_" class="st0" d="M151.4,31.5h-24.3v-1.6h0c0-0.4-0.2-0.8-0.5-1.1l-13-13c-0.3-0.3-0.7-0.5-1.1-0.5v0H70.4
		c-0.9,0-1.6,0.7-1.6,1.6v14.6H57.4c-0.9,0-1.6,0.7-1.6,1.6v61.6c0,0.9,0.7,1.6,1.6,1.6h42.1v6.5h-9.7c-0.4,0-0.8,0.2-1.1,0.5
		l-6.5,6.5c-0.6,0.6-0.6,1.7,0,2.3c0.3,0.3,0.7,0.5,1.1,0.5h42.1c0.9,0,1.6-0.7,1.6-1.6c0-0.4-0.2-0.8-0.5-1.1l-6.5-6.5
		c-0.3-0.3-0.7-0.5-1.1-0.5h-9.7v-6.5h42.1c0.9,0,1.6-0.7,1.6-1.6V33.1C153,32.2,152.3,31.5,151.4,31.5z M149.8,34.7v16.2h-3.2V39.6
		c0-0.9-0.7-1.6-1.6-1.6h-17.8v-3.2H149.8z M127.1,41.2h16.2v9.7h-16.2V41.2z M114.1,20.8l7.4,7.4h-7.4V20.8z M72,18.5h38.9v11.3
		c0,0.9,0.7,1.6,1.6,1.6h11.3v19.4h-1.6c-0.9,0-1.6,0.7-1.6,1.6v34H72V18.5z M65.5,86.6V41.2h3.2v45.4H65.5z M59.1,34.7h9.7V38h-4.9
		c-0.9,0-1.6,0.7-1.6,1.6v48.6c0,0.9,0.7,1.6,1.6,1.6h56.7v3.2H59.1V34.7z M121.6,109.3H87.3l3.2-3.2h27.8L121.6,109.3z M106,102.8
		h-3.2v-6.5h3.2V102.8z M149.8,93.1h-25.9V54.2h25.9V93.1z"/>
	<path id="XMLID_5138_" class="st0" d="M97.9,50.9c7.2,0,13-5.8,13-13s-5.8-13-13-13c-7.2,0-13,5.8-13,13
		C85,45.1,90.8,50.9,97.9,50.9z M107.5,36.4h-8v-8C103.6,29.1,106.8,32.3,107.5,36.4z M96.3,28.4V38c0,0.9,0.7,1.6,1.6,1.6h9.6
		c-0.9,5.3-5.9,8.9-11.2,8c-5.3-0.9-8.9-5.9-8-11.2C89,32.3,92.2,29.1,96.3,28.4z"/>
	<path id="XMLID_5094_" class="st0" d="M75.3,54.2h3.2v3.2h-3.2V54.2z"/>
	<path id="XMLID_5093_" class="st0" d="M81.7,54.2h35.6v3.2H81.7V54.2z"/>
	<path id="XMLID_5092_" class="st0" d="M75.3,60.7h3.2v3.2h-3.2V60.7z"/>
	<path id="XMLID_5091_" class="st0" d="M81.7,60.7h35.6v3.2H81.7V60.7z"/>
	<path id="XMLID_5090_" class="st0" d="M75.3,67.2h3.2v3.2h-3.2V67.2z"/>
	<path id="XMLID_5089_" class="st0" d="M81.7,67.2h35.6v3.2H81.7V67.2z"/>
	<path id="XMLID_5088_" class="st0" d="M75.3,73.6h3.2v3.2h-3.2V73.6z"/>
	<path id="XMLID_5084_" class="st0" d="M81.7,73.6h35.6v3.2H81.7V73.6z"/>
	<path id="XMLID_5083_" class="st0" d="M75.3,80.1h3.2v3.2h-3.2V80.1z"/>
	<path id="XMLID_5082_" class="st0" d="M81.7,80.1h35.6v3.2H81.7V80.1z"/>
	<path id="XMLID_5122_" class="st0" d="M127.1,68.8h19.4c0.9,0,1.6-0.7,1.6-1.6v-9.7c0-0.9-0.7-1.6-1.6-1.6h-19.4
		c-0.9,0-1.6,0.7-1.6,1.6v9.7C125.5,68,126.2,68.8,127.1,68.8z M128.7,59h16.2v6.5h-16.2V59z"/>
	<path id="XMLID_5119_" class="st0" d="M127.1,80.1h6.5c0.9,0,1.6-0.7,1.6-1.6V72c0-0.9-0.7-1.6-1.6-1.6h-6.5
		c-0.9,0-1.6,0.7-1.6,1.6v6.5C125.5,79.4,126.2,80.1,127.1,80.1z M128.7,73.6h3.2v3.2h-3.2V73.6z"/>
	<path id="XMLID_5116_" class="st0" d="M146.5,70.4h-6.5c-0.9,0-1.6,0.7-1.6,1.6v6.5c0,0.9,0.7,1.6,1.6,1.6h6.5
		c0.9,0,1.6-0.7,1.6-1.6V72C148.2,71.1,147.4,70.4,146.5,70.4z M144.9,76.9h-3.2v-3.2h3.2V76.9z"/>
	<path id="XMLID_5113_" class="st0" d="M127.1,91.5h6.5c0.9,0,1.6-0.7,1.6-1.6v-6.5c0-0.9-0.7-1.6-1.6-1.6h-6.5
		c-0.9,0-1.6,0.7-1.6,1.6v6.5C125.5,90.7,126.2,91.5,127.1,91.5z M128.7,85h3.2v3.2h-3.2V85z"/>
	<path id="XMLID_5110_" class="st0" d="M146.5,81.7h-6.5c-0.9,0-1.6,0.7-1.6,1.6v6.5c0,0.9,0.7,1.6,1.6,1.6h6.5
		c0.9,0,1.6-0.7,1.6-1.6v-6.5C148.2,82.5,147.4,81.7,146.5,81.7z M144.9,88.2h-3.2V85h3.2V88.2z"/>
</g>
</svg>
