<?xml version="1.0" encoding="utf-8"?>
<!-- Generator: Adobe Illustrator 23.0.6, SVG Export Plug-In . SVG Version: 6.00 Build 0)  -->
<svg version="1.1" id="Layer_1" xmlns="http://www.w3.org/2000/svg" xmlns:xlink="http://www.w3.org/1999/xlink" x="0px" y="0px"
	 viewBox="0 0 100 100" style="enable-background:new 0 0 100 100;" xml:space="preserve">
<style type="text/css">
	.st0{fill:#FFFFFF;}
</style>
<g id="XMLID_892_">
	<g id="XMLID_4984_">
		<g id="XMLID_4985_">
			<path id="XMLID_4986_" class="st0" d="M61.8,25.1c-1.7-0.5-2-0.7-2-1.6c0-0.9,0.7-1.6,1.6-1.5c0.9,0,1.6,0.7,1.6,1.5h2.6
				c0-2.3-1.9-4.1-4.2-4.1c-2.2,0-4.1,1.8-4.1,4.1c0,2.9,2.3,3.6,3.8,4c1.7,0.5,2,0.8,2,1.6c0,0.9-0.8,1.6-1.6,1.5
				c-0.8,0-1.5-0.7-1.5-1.5h-2.6c0,2.3,1.9,4.1,4.2,4.1c2.2,0,4.1-1.8,4.1-4.1C65.6,26.2,63.3,25.5,61.8,25.1z"/>
		</g>
	</g>
	<g id="XMLID_4968_">
		<g id="XMLID_4969_">
			<path id="XMLID_4972_" class="st0" d="M87,48.9H48.7c-0.7,0-1.3,0.6-1.3,1.3v37c0,0.7,0.6,1.3,1.3,1.3H87c0.7,0,1.3-0.6,1.3-1.3
				v-37C88.2,49.4,87.7,48.9,87,48.9z M75.5,51.4h3.8v4.5c0,1.1-0.9,1.9-1.9,1.9s-1.9-0.9-1.9-1.9V51.4z M69.1,51.4h3.8v4.5
				c0,1.1-0.9,1.9-1.9,1.9s-1.9-0.9-1.9-1.9V51.4z M62.7,51.4h3.8v4.5c0,1.1-0.9,1.9-1.9,1.9s-1.9-0.9-1.9-1.9V51.4z M56.4,51.4h3.8
				v4.5c0,1.1-0.9,1.9-1.9,1.9s-1.9-0.9-1.9-1.9V51.4z M50,51.4h3.8v4.5c0,1.1-0.9,1.9-1.9,1.9S50,56.9,50,55.9L50,51.4L50,51.4z
				 M62.7,85.9h-7.7V73.1h7.7V85.9z M85.7,85.9H65.3v-14c0-0.7-0.6-1.3-1.3-1.3H53.8c-0.7,0-1.3,0.6-1.3,1.3v14H50v-26
				c1.7,0.8,3.8,0.5,5.1-0.9c1.7,1.8,4.5,1.8,6.3,0.1c0,0,0.1-0.1,0.1-0.1c1.7,1.8,4.5,1.8,6.3,0.1c0,0,0.1-0.1,0.1-0.1
				c1.7,1.8,4.5,1.8,6.3,0.1c0,0,0.1-0.1,0.1-0.1c1.7,1.8,4.5,1.8,6.3,0.1c0,0,0.1-0.1,0.1-0.1c1.3,1.4,3.4,1.7,5.1,0.9L85.7,85.9
				L85.7,85.9z M85.7,55.9c0,1.1-0.9,1.9-1.9,1.9s-1.9-0.9-1.9-1.9v-4.5h3.8V55.9z"/>
		</g>
	</g>
	<g id="XMLID_4953_">
		<g id="XMLID_4954_">
			<path id="XMLID_4955_" class="st0" d="M39.5,59.1c-0.6,0-1.1,0.4-1.2,1l-1.1,4.1h-23c-0.7,0-1.3,0.6-1.3,1.3c0,0.1,0,0.2,0,0.3
				l3.4,12.8c0.1,0.6,0.7,0.9,1.2,0.9H20V81c-2,0.7-3,2.9-2.3,4.9s2.9,3,4.9,2.3c2-0.7,3-2.9,2.3-4.9c-0.4-1.1-1.2-1.9-2.3-2.3v-1.5
				h7.7V81c-2,0.7-3,2.9-2.3,4.9c0.7,2,2.9,3,4.9,2.3c2-0.7,3-2.9,2.3-4.9c-0.4-1.1-1.2-1.9-2.3-2.3v-1.5h2c0.6,0,1.1-0.4,1.2-0.9
				l4.5-16.9h4.3v-2.6H39.5z M21.3,85.9c-0.7,0-1.3-0.6-1.3-1.3s0.6-1.3,1.3-1.3c0.7,0,1.3,0.6,1.3,1.3C22.6,85.3,22,85.9,21.3,85.9
				z M31.5,85.9c-0.7,0-1.3-0.6-1.3-1.3s0.6-1.3,1.3-1.3s1.3,0.6,1.3,1.3C32.8,85.3,32.2,85.9,31.5,85.9z M33.8,76.9H18.7l-2.7-10.2
				h20.6L33.8,76.9z"/>
		</g>
	</g>
	<g id="XMLID_4905_">
		<g id="XMLID_4909_">
			<path id="XMLID_4910_" class="st0" d="M83.5,39L80.6,42V25.9c0-0.7-0.6-1.3-1.3-1.3h-6.5c-0.7-6.3-6.4-10.8-12.7-10.1
				c-5.3,0.6-9.5,4.8-10.1,10.1H39.7c-0.7-7.7-7.5-13.4-15.2-12.7c-7.7,0.7-13.4,7.5-12.7,15.2c0.7,7.7,7.5,13.4,15.2,12.7
				c6.7-0.6,12.1-6,12.7-12.7h10.3c0.7,6.3,6.4,10.8,12.7,10.1c5.3-0.6,9.5-4.8,10.1-10.1H78V42L75.1,39l-1.8,1.8l5.1,5.1
				c0.5,0.5,1.3,0.5,1.8,0l0,0l5.1-5.1L83.5,39z M30.8,36.2c-3.2,1.6-7,1.6-10.2,0v-2.4c0-2.2,1.8-4,4-4h2.2c2.2,0,4,1.8,4,4
				L30.8,36.2L30.8,36.2z M21.9,23.4c0-2.1,1.7-3.8,3.8-3.8s3.8,1.7,3.8,3.8c0,2.1-1.7,3.8-3.8,3.8C23.6,27.2,21.9,25.5,21.9,23.4z
				 M34.3,33.5c-0.3,0.3-0.6,0.6-0.9,0.9v-0.7c0-2.4-1.3-4.5-3.4-5.7c2.6-2.4,2.8-6.4,0.4-9c-2.4-2.6-6.4-2.8-9-0.4s-2.8,6.4-0.4,9
				c0.1,0.2,0.3,0.3,0.4,0.4c-2.1,1.1-3.4,3.3-3.4,5.7v0.7C13.4,30.2,13,23,17.2,18.2c4.2-4.7,11.5-5.1,16.2-0.9
				S38.5,28.8,34.3,33.5z M61.5,34.8c-4.9,0-8.9-4-8.9-8.9s4-8.9,8.9-8.9c4.9,0,8.9,4,8.9,8.9C70.4,30.8,66.4,34.8,61.5,34.8z"/>
		</g>
	</g>
	<g id="XMLID_4618_">
		<g id="XMLID_4619_">
			<path id="XMLID_4620_" class="st0" d="M26.6,42.9c-0.5-0.5-1.3-0.5-1.8,0l0,0L19.7,48l1.8,1.8l2.9-2.9v14.8H27V46.8l2.9,2.9
				l1.8-1.8L26.6,42.9z"/>
		</g>
	</g>
	<g id="XMLID_4608_">
		<g id="XMLID_4609_">
			<path id="XMLID_4610_" class="st0" d="M81.9,62.9H69.1c-0.7,0-1.3,0.6-1.3,1.3v8.9c0,0.7,0.6,1.3,1.3,1.3h12.8
				c0.7,0,1.3-0.6,1.3-1.3v-8.9C83.1,63.5,82.6,62.9,81.9,62.9z M80.6,71.8H70.4v-6.4h10.2V71.8z"/>
		</g>
	</g>
	<g id="XMLID_4604_">
	</g>
	<g id="XMLID_4602_">
	</g>
	<g id="XMLID_4601_">
	</g>
	<g id="XMLID_4600_">
	</g>
	<g id="XMLID_4599_">
	</g>
	<g id="XMLID_4598_">
	</g>
	<g id="XMLID_4597_">
	</g>
	<g id="XMLID_4573_">
	</g>
	<g id="XMLID_4572_">
	</g>
	<g id="XMLID_4567_">
	</g>
	<g id="XMLID_1688_">
	</g>
	<g id="XMLID_1687_">
	</g>
	<g id="XMLID_1684_">
	</g>
	<g id="XMLID_1327_">
	</g>
	<g id="XMLID_1326_">
	</g>
</g>
</svg>
