<?xml version="1.0" encoding="utf-8"?>
<!-- Generator: Adobe Illustrator 23.0.6, SVG Export Plug-In . SVG Version: 6.00 Build 0)  -->
<svg version="1.1" id="Layer_1" xmlns="http://www.w3.org/2000/svg" xmlns:xlink="http://www.w3.org/1999/xlink" x="0px" y="0px"
	 viewBox="0 0 200 200" style="enable-background:new 0 0 200 200;" xml:space="preserve">
<style type="text/css">
	.st0{fill:#FFFFFF;}
	.st1{font-family:'Gilroy-Regular';}
	.st2{font-size:18.4489px;}
	.st3{fill:none;stroke:#FFFFFF;stroke-miterlimit:10;}
</style>
<text id="XMLID_2975_" transform="matrix(1 0 0 1 51.4189 94.0439)"><tspan x="0" y="0" class="st0 st1 st2">Impuestos por</tspan><tspan x="-5.3" y="19" class="st0 st1 st2">pagar (débitos </tspan><tspan x="26.6" y="38.1" class="st0 st1 st2">fiscales)</tspan></text>
<g id="XMLID_2916_">
	<polygon id="Arrow_70_" class="st0" points="67.8,192 70.6,176 74.8,184.2 83.4,187.5 	"/>
	<polygon id="Arrow_69_" class="st0" points="97.3,157.9 94.5,173.8 90.3,165.7 81.7,162.4 	"/>
</g>
<line id="XMLID_2915_" class="st3" x1="75.2" y1="184.2" x2="90.7" y2="165.1"/>
<g id="XMLID_5021_">
	<g id="XMLID_5022_">
		<path id="XMLID_5028_" class="st0" d="M136.5,11H91.6c-1.8,0-3.3,1.5-3.3,3.3v60.6c0,1.8,1.5,3.3,3.3,3.3h34.8
			c0.3,0,0.5-0.1,0.7-0.3l12.4-12.4c0.2-0.2,0.3-0.5,0.3-0.7V14.3C139.8,12.5,138.4,11,136.5,11z M127.5,74.6v-7.6
			c0-0.7,0.5-1.2,1.2-1.2h7.6L127.5,74.6z M137.7,63.8h-9.1c-1.8,0-3.3,1.5-3.3,3.3v9.1H91.6c-0.7,0-1.2-0.5-1.2-1.2V14.3
			c0-0.7,0.5-1.2,1.2-1.2h44.9c0.7,0,1.2,0.5,1.2,1.2V63.8L137.7,63.8z"/>
	</g>
</g>
<g id="XMLID_4977_">
	<g id="XMLID_5019_">
		<path id="XMLID_4688_" class="st0" d="M107.3,20h-9c-0.6,0-1.1,0.5-1.1,1.1c0,0.6,0.5,1.1,1.1,1.1h3.4v10.2c0,0.6,0.5,1.1,1.1,1.1
			s1.1-0.5,1.1-1.1V22.1h3.4c0.6,0,1.1-0.5,1.1-1.1S107.9,20,107.3,20z"/>
	</g>
</g>
<g id="XMLID_4965_">
	<g id="XMLID_4966_">
		<path id="XMLID_4970_" class="st0" d="M118.5,32l-3.1-10.4c-0.3-0.9-1.1-1.6-2.1-1.6h-0.6c-1,0-1.8,0.6-2.1,1.6L107.5,32
			c-0.2,0.6,0.1,1.1,0.7,1.3c0.6,0.2,1.1-0.1,1.3-0.7l0.4-1.5h6.1l0.4,1.5c0.1,0.5,0.6,0.8,1,0.8c0.1,0,0.2,0,0.3,0
			C118.3,33.1,118.6,32.5,118.5,32z M110.6,29l2-6.8c0,0,0-0.1,0.1-0.1h0.6c0,0,0.1,0,0.1,0.1l2,6.8H110.6z"/>
	</g>
</g>
<g id="XMLID_4961_">
	<g id="XMLID_4962_">
		<path id="XMLID_4683_" class="st0" d="M129.5,31.7l-3.5-5l3.5-5c0.3-0.5,0.2-1.1-0.3-1.5c-0.5-0.3-1.1-0.2-1.5,0.3l-3.1,4.4
			l-3.1-4.4c-0.3-0.5-1-0.6-1.5-0.3c-0.5,0.3-0.6,1-0.3,1.5l3.5,5l-3.5,5c-0.3,0.5-0.2,1.1,0.3,1.5c0.2,0.1,0.4,0.2,0.6,0.2
			c0.3,0,0.7-0.2,0.9-0.4l3.1-4.4l3.1,4.4c0.2,0.3,0.5,0.4,0.9,0.4c0.2,0,0.4-0.1,0.6-0.2C129.8,32.8,129.9,32.1,129.5,31.7z"/>
	</g>
</g>
<g id="XMLID_4957_">
	<g id="XMLID_4958_">
		<path id="XMLID_4682_" class="st0" d="M98.4,39.1h-2.2c-0.6,0-1.1,0.5-1.1,1.1c0,0.6,0.5,1.1,1.1,1.1h2.2c0.6,0,1.1-0.5,1.1-1.1
			C99.4,39.5,98.9,39.1,98.4,39.1z"/>
	</g>
</g>
<g id="XMLID_4949_">
	<g id="XMLID_4951_">
		<path id="XMLID_4680_" class="st0" d="M98.4,43.6h-2.2c-0.6,0-1.1,0.5-1.1,1.1c0,0.6,0.5,1.1,1.1,1.1h2.2c0.6,0,1.1-0.5,1.1-1.1
			S98.9,43.6,98.4,43.6z"/>
	</g>
</g>
<g id="XMLID_4944_">
	<g id="XMLID_4945_">
		<path id="XMLID_4679_" class="st0" d="M98.4,48.1h-2.2c-0.6,0-1.1,0.5-1.1,1.1s0.5,1.1,1.1,1.1h2.2c0.6,0,1.1-0.5,1.1-1.1
			S98.9,48.1,98.4,48.1z"/>
	</g>
</g>
<g id="XMLID_4941_">
	<g id="XMLID_4942_">
		<path id="XMLID_4672_" class="st0" d="M132.1,39.1h-2.2c-0.6,0-1.1,0.5-1.1,1.1c0,0.6,0.5,1.1,1.1,1.1h2.2c0.6,0,1.1-0.5,1.1-1.1
			C133.1,39.5,132.6,39.1,132.1,39.1z"/>
	</g>
</g>
<g id="XMLID_4937_">
	<g id="XMLID_4939_">
		<path id="XMLID_4671_" class="st0" d="M132.1,43.6h-2.2c-0.6,0-1.1,0.5-1.1,1.1c0,0.6,0.5,1.1,1.1,1.1h2.2c0.6,0,1.1-0.5,1.1-1.1
			S132.6,43.6,132.1,43.6z"/>
	</g>
</g>
<g id="XMLID_4930_">
	<g id="XMLID_4932_">
		<path id="XMLID_4636_" class="st0" d="M132.1,48.1h-2.2c-0.6,0-1.1,0.5-1.1,1.1s0.5,1.1,1.1,1.1h2.2c0.6,0,1.1-0.5,1.1-1.1
			S132.6,48.1,132.1,48.1z"/>
	</g>
</g>
<g id="XMLID_4927_">
	<g id="XMLID_4928_">
		<path id="XMLID_4634_" class="st0" d="M116.3,39.1h-13.5c-0.6,0-1.1,0.5-1.1,1.1c0,0.6,0.5,1.1,1.1,1.1h13.5
			c0.6,0,1.1-0.5,1.1-1.1C117.4,39.5,116.9,39.1,116.3,39.1z"/>
	</g>
</g>
<g id="XMLID_4924_">
	<g id="XMLID_4925_">
		<path id="XMLID_4633_" class="st0" d="M111.8,43.6h-9c-0.6,0-1.1,0.5-1.1,1.1c0,0.6,0.5,1.1,1.1,1.1h9c0.6,0,1.1-0.5,1.1-1.1
			S112.4,43.6,111.8,43.6z"/>
	</g>
</g>
<g id="XMLID_4921_">
	<g id="XMLID_4922_">
		<path id="XMLID_4632_" class="st0" d="M116.3,48.1h-13.5c-0.6,0-1.1,0.5-1.1,1.1s0.5,1.1,1.1,1.1h13.5c0.6,0,1.1-0.5,1.1-1.1
			S116.9,48.1,116.3,48.1z"/>
	</g>
</g>
<g id="XMLID_4872_">
	<g id="XMLID_4873_">
		<path id="XMLID_4916_" class="st0" d="M100.5,61.9v-3.7c0.8,0.3,1.3,0.8,1.3,1.2c0,0.6,0.5,1.1,1.1,1.1s1.1-0.5,1.1-1.1
			c0-1.7-1.4-3-3.4-3.4v-0.2c0-0.6-0.5-1.1-1.1-1.1s-1.1,0.5-1.1,1.1V56c-2,0.4-3.4,1.7-3.4,3.4c0,2.3,1.9,3.3,3.4,3.9V67
			c-0.8-0.3-1.3-0.8-1.3-1.2c0-0.6-0.5-1.1-1.1-1.1c-0.6,0-1.1,0.5-1.1,1.1c0,1.7,1.4,3,3.4,3.4v0.2c0,0.6,0.5,1.1,1.1,1.1
			c0.6,0,1.1-0.5,1.1-1.1v-0.2c2-0.4,3.4-1.7,3.4-3.4C103.9,63.4,102,62.4,100.5,61.9z M98.4,61c-1-0.5-1.3-1-1.3-1.6
			c0-0.5,0.5-1,1.3-1.2V61z M100.5,67v-2.8c1,0.5,1.3,1,1.3,1.6C101.8,66.2,101.3,66.7,100.5,67z"/>
	</g>
</g>
<g id="XMLID_4869_">
	<g id="XMLID_4870_">
		<path id="XMLID_4626_" class="st0" d="M115.2,57h-7.9c-0.6,0-1.1,0.5-1.1,1.1s0.5,1.1,1.1,1.1h7.9c0.6,0,1.1-0.5,1.1-1.1
			S115.8,57,115.2,57z"/>
	</g>
</g>
<g id="XMLID_4866_">
	<g id="XMLID_4867_">
		<path id="XMLID_4624_" class="st0" d="M111.8,66h-4.5c-0.6,0-1.1,0.5-1.1,1.1c0,0.6,0.5,1.1,1.1,1.1h4.5c0.6,0,1.1-0.5,1.1-1.1
			C112.9,66.5,112.4,66,111.8,66z"/>
	</g>
</g>
<g id="XMLID_4862_">
	<g id="XMLID_4864_">
		<path id="XMLID_4623_" class="st0" d="M118.6,66h-2.2c-0.6,0-1.1,0.5-1.1,1.1c0,0.6,0.5,1.1,1.1,1.1h2.2c0.6,0,1.1-0.5,1.1-1.1
			C119.6,66.5,119.2,66,118.6,66z"/>
	</g>
</g>
<g id="XMLID_4778_">
	<g id="XMLID_4860_">
		<path id="XMLID_4617_" class="st0" d="M121.9,61.5h-14.6c-0.6,0-1.1,0.5-1.1,1.1c0,0.6,0.5,1.1,1.1,1.1h14.6
			c0.6,0,1.1-0.5,1.1-1.1S122.5,61.5,121.9,61.5z"/>
	</g>
</g>
<g id="XMLID_4775_">
	<g id="XMLID_4776_">
		<circle id="XMLID_4613_" class="st0" cx="116.3" cy="44.6" r="1.1"/>
	</g>
</g>
<g id="XMLID_4770_">
	<g id="XMLID_4771_">
		<circle id="XMLID_4612_" class="st0" cx="120.8" cy="44.6" r="1.1"/>
	</g>
</g>
<g id="XMLID_4766_">
	<g id="XMLID_4767_">
		<circle id="XMLID_4605_" class="st0" cx="125.3" cy="44.6" r="1.1"/>
	</g>
</g>
<g id="XMLID_4763_">
	<g id="XMLID_4764_">
		<circle id="XMLID_4594_" class="st0" cx="120.8" cy="40.1" r="1.1"/>
	</g>
</g>
<g id="XMLID_4759_">
	<g id="XMLID_4761_">
		<circle id="XMLID_4341_" class="st0" cx="125.3" cy="40.1" r="1.1"/>
	</g>
</g>
<g id="XMLID_4755_">
	<g id="XMLID_4756_">
		<circle id="XMLID_4338_" class="st0" cx="120.8" cy="49.1" r="1.1"/>
	</g>
</g>
<g id="XMLID_4696_">
	<g id="XMLID_4697_">
		<circle id="XMLID_632_" class="st0" cx="125.3" cy="49.1" r="1.1"/>
	</g>
</g>
</svg>
