<?xml version="1.0" encoding="utf-8"?>
<!-- Generator: Adobe Illustrator 23.0.6, SVG Export Plug-In . SVG Version: 6.00 Build 0)  -->
<svg version="1.1" id="Layer_1" xmlns="http://www.w3.org/2000/svg" xmlns:xlink="http://www.w3.org/1999/xlink" x="0px" y="0px"
	 viewBox="0 0 200 200" style="enable-background:new 0 0 200 200;" xml:space="preserve">
<style type="text/css">
	.st0{fill:#FFFFFF;}
	.st1{fill:#2B318B;}
</style>
<path id="XMLID_4714_" class="st0" d="M100.6,12c51,0,92.4,35.5,92.4,79.3c0,43.8-41.3,79.3-92.4,79.3c-51-0.1-92.4-35.5-92.4-79.3
	C8.2,47.4,49.6,12,100.6,12"/>
<g>
	<path class="st1" d="M41.8,125.9l-3.4-5.8h-4.1v5.8h-1.5v-14.5h5.8c1.2,0,2.2,0.4,3.1,1.3s1.3,1.9,1.3,3.1c0,1-0.3,1.9-0.9,2.6
		c-0.6,0.8-1.3,1.3-2.3,1.5l3.6,6H41.8z M34.4,112.7v6h4.4c0.8,0,1.5-0.3,2.1-0.9c0.6-0.6,0.9-1.3,0.9-2.1c0-0.8-0.3-1.5-0.9-2.1
		c-0.6-0.6-1.3-0.9-2.1-0.9H34.4z"/>
	<path class="st1" d="M49.6,115.2c1.5,0,2.8,0.5,3.7,1.6c0.9,1.1,1.4,2.4,1.4,3.9c0,0.2,0,0.4,0,0.6h-9.1c0.1,1.1,0.6,1.9,1.3,2.5
		c0.8,0.6,1.7,0.9,2.8,0.9c0.8,0,1.5-0.2,2-0.5c0.6-0.3,1-0.8,1.3-1.3l1.2,0.7c-0.5,0.7-1.1,1.3-1.9,1.7c-0.8,0.4-1.7,0.6-2.7,0.6
		c-1.6,0-3-0.5-4-1.5c-1-1-1.5-2.3-1.5-3.9c0-1.6,0.5-2.8,1.5-3.9S48.1,115.2,49.6,115.2z M49.6,116.5c-1.1,0-2,0.3-2.7,1
		c-0.7,0.6-1.2,1.5-1.3,2.5h7.8c-0.1-1.1-0.6-1.9-1.3-2.6C51.4,116.9,50.6,116.5,49.6,116.5z"/>
	<path class="st1" d="M61.8,126.1c-1.6,0-2.9-0.5-3.9-1.6s-1.6-2.3-1.6-3.9s0.5-2.8,1.6-3.9c1-1,2.3-1.6,3.9-1.6
		c1,0,1.9,0.2,2.8,0.7c0.8,0.5,1.4,1.2,1.8,2l-1.1,0.6c-0.3-0.6-0.7-1.1-1.3-1.5c-0.6-0.4-1.3-0.6-2.1-0.6c-1.1,0-2.1,0.4-2.9,1.2
		c-0.8,0.8-1.2,1.8-1.2,2.9c0,1.2,0.4,2.1,1.2,2.9s1.8,1.2,2.9,1.2c0.8,0,1.5-0.2,2.1-0.5c0.6-0.4,1.1-0.9,1.4-1.5l1.1,0.7
		c-0.4,0.8-1.1,1.5-1.9,2C63.8,125.9,62.8,126.1,61.8,126.1z"/>
	<path class="st1" d="M73.1,115.2c1.5,0,2.8,0.5,3.7,1.6c0.9,1.1,1.4,2.4,1.4,3.9c0,0.2,0,0.4,0,0.6h-9.1c0.1,1.1,0.6,1.9,1.3,2.5
		c0.8,0.6,1.7,0.9,2.8,0.9c0.8,0,1.5-0.2,2-0.5c0.6-0.3,1-0.8,1.3-1.3l1.2,0.7c-0.5,0.7-1.1,1.3-1.9,1.7c-0.8,0.4-1.7,0.6-2.7,0.6
		c-1.6,0-3-0.5-4-1.5c-1-1-1.5-2.3-1.5-3.9c0-1.6,0.5-2.8,1.5-3.9S71.6,115.2,73.1,115.2z M73.1,116.5c-1.1,0-2,0.3-2.7,1
		c-0.7,0.6-1.2,1.5-1.3,2.5h7.8c-0.1-1.1-0.6-1.9-1.3-2.6C74.9,116.9,74.1,116.5,73.1,116.5z"/>
	<path class="st1" d="M86.1,115.2c1.5,0,2.7,0.5,3.8,1.6c1,1.1,1.6,2.3,1.6,3.9c0,1.5-0.5,2.8-1.6,3.9c-1,1.1-2.3,1.6-3.8,1.6
		c-1.8,0-3.2-0.8-4.2-2.3v6.2h-1.4v-14.5h1.4v2C82.8,116,84.2,115.2,86.1,115.2z M83,123.6c0.8,0.8,1.8,1.2,2.9,1.2s2.1-0.4,2.9-1.2
		c0.8-0.8,1.2-1.8,1.2-2.9c0-1.1-0.4-2.1-1.2-2.9c-0.8-0.8-1.8-1.2-2.9-1.2s-2.1,0.4-2.9,1.2c-0.8,0.8-1.2,1.8-1.2,2.9
		C81.9,121.8,82.3,122.8,83,123.6z"/>
	<path class="st1" d="M98.5,126.1c-1.6,0-2.9-0.5-3.9-1.6s-1.6-2.3-1.6-3.9s0.5-2.8,1.6-3.9c1-1,2.3-1.6,3.9-1.6
		c1,0,1.9,0.2,2.8,0.7c0.8,0.5,1.4,1.2,1.8,2l-1.1,0.6c-0.3-0.6-0.7-1.1-1.3-1.5c-0.6-0.4-1.3-0.6-2.1-0.6c-1.1,0-2.1,0.4-2.9,1.2
		c-0.8,0.8-1.2,1.8-1.2,2.9c0,1.2,0.4,2.1,1.2,2.9s1.8,1.2,2.9,1.2c0.8,0,1.5-0.2,2.1-0.5c0.6-0.4,1.1-0.9,1.4-1.5l1.1,0.7
		c-0.4,0.8-1.1,1.5-1.9,2C100.5,125.9,99.6,126.1,98.5,126.1z"/>
	<path class="st1" d="M106.6,113c-0.2,0.2-0.4,0.3-0.7,0.3c-0.3,0-0.5-0.1-0.7-0.3s-0.3-0.4-0.3-0.7c0-0.3,0.1-0.5,0.3-0.7
		s0.4-0.3,0.7-0.3c0.3,0,0.5,0.1,0.7,0.3s0.3,0.4,0.3,0.7C106.9,112.5,106.8,112.8,106.6,113z M105.2,125.9v-10.4h1.4v10.4H105.2z"
		/>
	<path class="st1" d="M118.2,124.5c-1.1,1-2.4,1.6-3.9,1.6c-1.5,0-2.8-0.5-3.9-1.6s-1.6-2.3-1.6-3.9s0.5-2.8,1.6-3.9
		c1.1-1,2.4-1.6,3.9-1.6c1.5,0,2.8,0.5,3.9,1.6c1.1,1,1.6,2.3,1.6,3.9S119.2,123.5,118.2,124.5z M111.4,123.6
		c0.8,0.8,1.8,1.2,2.9,1.2c1.1,0,2.1-0.4,2.9-1.2c0.8-0.8,1.2-1.8,1.2-2.9c0-1.1-0.4-2.1-1.2-2.9c-0.8-0.8-1.8-1.2-2.9-1.2
		c-1.2,0-2.1,0.4-2.9,1.2c-0.8,0.8-1.2,1.8-1.2,2.9C110.2,121.8,110.6,122.8,111.4,123.6z"/>
	<path class="st1" d="M126.9,115.2c1.3,0,2.3,0.4,3,1.2c0.7,0.8,1.1,1.8,1.1,3.1v6.4h-1.4v-6.4c0-0.9-0.2-1.6-0.7-2.2
		c-0.5-0.5-1.2-0.8-2.1-0.8c-1,0-1.8,0.3-2.4,0.9c-0.6,0.6-0.9,1.6-0.9,2.9v5.4H122v-10.4h1.4v1.6
		C124.2,115.8,125.4,115.2,126.9,115.2z"/>
	<path class="st1" d="M138.4,115.2c1.5,0,2.8,0.5,3.7,1.6c0.9,1.1,1.4,2.4,1.4,3.9c0,0.2,0,0.4,0,0.6h-9.1c0.1,1.1,0.6,1.9,1.3,2.5
		c0.8,0.6,1.7,0.9,2.8,0.9c0.8,0,1.5-0.2,2-0.5c0.6-0.3,1-0.8,1.3-1.3l1.2,0.7c-0.5,0.7-1.1,1.3-1.9,1.7c-0.8,0.4-1.7,0.6-2.7,0.6
		c-1.6,0-3-0.5-4-1.5s-1.5-2.3-1.5-3.9c0-1.6,0.5-2.8,1.5-3.9C135.5,115.7,136.8,115.2,138.4,115.2z M138.4,116.5
		c-1.1,0-2,0.3-2.7,1c-0.7,0.6-1.2,1.5-1.3,2.5h7.8c-0.1-1.1-0.6-1.9-1.3-2.6C140.2,116.9,139.4,116.5,138.4,116.5z"/>
	<path class="st1" d="M146.4,118.2c0,0.5,0.2,0.8,0.6,1.1s0.9,0.5,1.5,0.7c0.6,0.2,1.2,0.3,1.8,0.5c0.6,0.2,1.1,0.5,1.5,0.9
		c0.4,0.4,0.6,1,0.6,1.8c0,0.9-0.4,1.6-1,2.2c-0.7,0.6-1.6,0.8-2.7,0.8c-1,0-1.8-0.2-2.5-0.7c-0.7-0.4-1.2-1-1.5-1.7l1.2-0.7
		c0.2,0.5,0.5,1,1,1.3c0.5,0.3,1.1,0.5,1.8,0.5c0.7,0,1.2-0.1,1.7-0.4s0.7-0.7,0.7-1.3c0-0.5-0.2-0.8-0.6-1.1
		c-0.4-0.3-0.9-0.5-1.5-0.7s-1.2-0.3-1.8-0.5s-1.1-0.5-1.5-0.9c-0.4-0.4-0.6-1-0.6-1.7c0-0.8,0.3-1.6,1-2.1c0.7-0.6,1.5-0.9,2.5-0.9
		c0.8,0,1.6,0.2,2.2,0.6c0.6,0.4,1.1,0.9,1.4,1.5l-1.1,0.7c-0.4-1-1.2-1.5-2.5-1.5c-0.6,0-1.1,0.1-1.5,0.4
		C146.7,117.2,146.4,117.6,146.4,118.2z"/>
	<path class="st1" d="M167.5,115.5h1.5l-4.4,11.3c-0.4,1-1,1.8-1.7,2.4s-1.6,0.8-2.5,0.8v-1.3c1.2,0.1,2.2-0.6,2.8-2.2l0.3-0.7
		l-4.6-10.4h1.5l3.9,8.6L167.5,115.5z"/>
	<path class="st1" d="M44.3,133.5h1.4v10.4h-1.4v-2c-1,1.5-2.4,2.3-4.2,2.3c-1.5,0-2.7-0.5-3.8-1.6c-1-1.1-1.6-2.3-1.6-3.9
		c0-1.5,0.5-2.8,1.6-3.9c1-1.1,2.3-1.6,3.8-1.6c1.8,0,3.2,0.8,4.2,2.3V133.5z M37.3,141.6c0.8,0.8,1.8,1.2,2.9,1.2s2.1-0.4,2.9-1.2
		c0.8-0.8,1.2-1.8,1.2-2.9c0-1.1-0.4-2.1-1.2-2.9c-0.8-0.8-1.8-1.2-2.9-1.2s-2.1,0.4-2.9,1.2c-0.8,0.8-1.2,1.8-1.2,2.9
		C36.2,139.8,36.6,140.8,37.3,141.6z"/>
	<path class="st1" d="M54.2,133.2c1.5,0,2.7,0.5,3.8,1.6c1,1.1,1.6,2.3,1.6,3.9c0,1.5-0.5,2.8-1.6,3.9c-1,1.1-2.3,1.6-3.8,1.6
		c-1.8,0-3.2-0.8-4.2-2.3v6.2h-1.4v-14.5H50v2C51,134,52.4,133.2,54.2,133.2z M51.2,141.6c0.8,0.8,1.8,1.2,2.9,1.2s2.1-0.4,2.9-1.2
		c0.8-0.8,1.2-1.8,1.2-2.9c0-1.1-0.4-2.1-1.2-2.9c-0.8-0.8-1.8-1.2-2.9-1.2s-2.1,0.4-2.9,1.2c-0.8,0.8-1.2,1.8-1.2,2.9
		C50,139.8,50.4,140.8,51.2,141.6z"/>
	<path class="st1" d="M63.2,135.2c0.6-1.3,1.7-1.9,3.3-1.9v1.3c-0.9,0-1.7,0.3-2.3,0.8c-0.6,0.6-0.9,1.4-0.9,2.6v5.8h-1.4v-10.4h1.4
		V135.2z"/>
	<path class="st1" d="M76.5,142.6c-1.1,1-2.4,1.6-3.9,1.6s-2.8-0.5-3.9-1.6c-1.1-1-1.6-2.3-1.6-3.9s0.5-2.8,1.6-3.9
		c1.1-1,2.4-1.6,3.9-1.6s2.8,0.5,3.9,1.6c1.1,1,1.6,2.3,1.6,3.9S77.5,141.5,76.5,142.6z M69.7,141.6c0.8,0.8,1.8,1.2,2.9,1.2
		s2.1-0.4,2.9-1.2c0.8-0.8,1.2-1.8,1.2-2.9c0-1.1-0.4-2.1-1.2-2.9c-0.8-0.8-1.8-1.2-2.9-1.2s-2.1,0.4-2.9,1.2
		c-0.8,0.8-1.2,1.8-1.2,2.9C68.5,139.8,68.9,140.8,69.7,141.6z"/>
	<path class="st1" d="M85.9,133.2c1.5,0,2.7,0.5,3.8,1.6c1,1.1,1.6,2.3,1.6,3.9c0,1.5-0.5,2.8-1.6,3.9c-1,1.1-2.3,1.6-3.8,1.6
		c-1.8,0-3.2-0.8-4.2-2.3v2h-1.4v-14.5h1.4v6.2C82.7,134,84.1,133.2,85.9,133.2z M82.9,141.6c0.8,0.8,1.8,1.2,2.9,1.2
		s2.1-0.4,2.9-1.2c0.8-0.8,1.2-1.8,1.2-2.9c0-1.1-0.4-2.1-1.2-2.9c-0.8-0.8-1.8-1.2-2.9-1.2s-2.1,0.4-2.9,1.2
		c-0.8,0.8-1.2,1.8-1.2,2.9C81.7,139.8,82.1,140.8,82.9,141.6z"/>
	<path class="st1" d="M102.5,133.5h1.4v10.4h-1.4v-2c-1,1.5-2.4,2.3-4.2,2.3c-1.5,0-2.7-0.5-3.8-1.6c-1-1.1-1.6-2.3-1.6-3.9
		c0-1.5,0.5-2.8,1.6-3.9c1-1.1,2.3-1.6,3.8-1.6c1.8,0,3.2,0.8,4.2,2.3V133.5z M95.5,141.6c0.8,0.8,1.8,1.2,2.9,1.2s2.1-0.4,2.9-1.2
		c0.8-0.8,1.2-1.8,1.2-2.9c0-1.1-0.4-2.1-1.2-2.9c-0.8-0.8-1.8-1.2-2.9-1.2s-2.1,0.4-2.9,1.2c-0.8,0.8-1.2,1.8-1.2,2.9
		C94.3,139.8,94.7,140.8,95.5,141.6z"/>
	<path class="st1" d="M111.6,144.1c-1.6,0-2.9-0.5-3.9-1.6s-1.6-2.3-1.6-3.9s0.5-2.8,1.6-3.9c1-1,2.3-1.6,3.9-1.6
		c1,0,1.9,0.2,2.8,0.7c0.8,0.5,1.4,1.2,1.8,2l-1.1,0.6c-0.3-0.6-0.7-1.1-1.3-1.5s-1.3-0.6-2.1-0.6c-1.2,0-2.1,0.4-2.9,1.2
		c-0.8,0.8-1.2,1.8-1.2,2.9c0,1.2,0.4,2.1,1.2,2.9c0.8,0.8,1.8,1.2,2.9,1.2c0.8,0,1.5-0.2,2.1-0.5c0.6-0.4,1.1-0.9,1.4-1.5l1.1,0.7
		c-0.4,0.8-1.1,1.5-1.9,2C113.5,143.9,112.6,144.1,111.6,144.1z"/>
	<path class="st1" d="M119.6,131c-0.2,0.2-0.4,0.3-0.7,0.3c-0.3,0-0.5-0.1-0.7-0.3s-0.3-0.4-0.3-0.7c0-0.3,0.1-0.5,0.3-0.7
		s0.4-0.3,0.7-0.3c0.3,0,0.5,0.1,0.7,0.3s0.3,0.4,0.3,0.7C119.9,130.6,119.8,130.8,119.6,131z M118.2,143.9v-10.4h1.4v10.4H118.2z"
		/>
	<path class="st1" d="M131.2,142.6c-1.1,1-2.4,1.6-3.9,1.6c-1.5,0-2.8-0.5-3.9-1.6s-1.6-2.3-1.6-3.9s0.5-2.8,1.6-3.9
		c1.1-1,2.4-1.6,3.9-1.6c1.5,0,2.8,0.5,3.9,1.6c1.1,1,1.6,2.3,1.6,3.9S132.3,141.5,131.2,142.6z M124.5,141.6
		c0.8,0.8,1.8,1.2,2.9,1.2c1.1,0,2.1-0.4,2.9-1.2c0.8-0.8,1.2-1.8,1.2-2.9c0-1.1-0.4-2.1-1.2-2.9c-0.8-0.8-1.8-1.2-2.9-1.2
		c-1.2,0-2.1,0.4-2.9,1.2c-0.8,0.8-1.2,1.8-1.2,2.9C123.3,139.8,123.7,140.8,124.5,141.6z"/>
	<path class="st1" d="M140,133.2c1.3,0,2.3,0.4,3,1.2c0.7,0.8,1.1,1.8,1.1,3.1v6.4h-1.4v-6.4c0-0.9-0.2-1.6-0.7-2.2
		c-0.5-0.5-1.2-0.8-2.1-0.8c-1,0-1.8,0.3-2.4,0.9c-0.6,0.6-0.9,1.6-0.9,2.9v5.4h-1.4v-10.4h1.4v1.6
		C137.3,133.9,138.4,133.2,140,133.2z"/>
	<path class="st1" d="M151.5,133.2c1.5,0,2.8,0.5,3.7,1.6c0.9,1.1,1.4,2.4,1.4,3.9c0,0.2,0,0.4,0,0.6h-9.1c0.1,1.1,0.6,1.9,1.3,2.5
		c0.8,0.6,1.7,0.9,2.8,0.9c0.8,0,1.5-0.2,2-0.5c0.6-0.3,1-0.8,1.3-1.3l1.2,0.7c-0.5,0.7-1.1,1.3-1.9,1.7c-0.8,0.4-1.7,0.6-2.7,0.6
		c-1.6,0-3-0.5-4-1.5s-1.5-2.3-1.5-3.9c0-1.6,0.5-2.8,1.5-3.9C148.6,133.8,149.9,133.2,151.5,133.2z M151.5,134.6
		c-1.1,0-2,0.3-2.7,1c-0.7,0.6-1.2,1.5-1.3,2.5h7.8c-0.1-1.1-0.6-1.9-1.3-2.6C153.3,134.9,152.5,134.6,151.5,134.6z"/>
	<path class="st1" d="M159.5,136.2c0,0.5,0.2,0.8,0.6,1.1s0.9,0.5,1.5,0.7c0.6,0.2,1.2,0.3,1.8,0.5c0.6,0.2,1.1,0.5,1.5,0.9
		c0.4,0.4,0.6,1,0.6,1.8c0,0.9-0.4,1.6-1,2.2c-0.7,0.6-1.6,0.8-2.7,0.8c-1,0-1.8-0.2-2.5-0.7c-0.7-0.4-1.2-1-1.5-1.7l1.2-0.7
		c0.2,0.5,0.5,1,1,1.3c0.5,0.3,1.1,0.5,1.8,0.5c0.7,0,1.2-0.1,1.7-0.4s0.7-0.7,0.7-1.3c0-0.5-0.2-0.8-0.6-1.1
		c-0.4-0.3-0.9-0.5-1.5-0.7s-1.2-0.3-1.8-0.5s-1.1-0.5-1.5-0.9c-0.4-0.4-0.6-1-0.6-1.7c0-0.8,0.3-1.6,1-2.1c0.7-0.6,1.5-0.9,2.5-0.9
		c0.8,0,1.6,0.2,2.2,0.6c0.6,0.4,1.1,0.9,1.4,1.5l-1.1,0.7c-0.4-1-1.2-1.5-2.5-1.5c-0.6,0-1.1,0.1-1.5,0.4
		C159.7,135.3,159.5,135.7,159.5,136.2z"/>
</g>
<g id="XMLID_182_">
	<path id="XMLID_771_" class="st1" d="M146,44.4c-0.3-1-0.9-1.8-1.8-2.3c-0.9-0.5-1.9-0.7-2.9-0.4c-1,0.3-1.8,0.9-2.3,1.8l-0.6,1.1
		c-0.6-0.4-1.4-0.1-1.7,0.5l-3.3,5.6l-1.1-0.6c-0.3-0.2-0.6-0.2-1-0.1c-0.3,0.1-0.6,0.3-0.8,0.6c-0.3,0.6-0.1,1.4,0.5,1.7l1.1,0.6
		l-10.9,18.9l-2.7,7.2l-1.3,2.4c-0.8,1.3-0.7,2.9,0.2,4.2l-2.9,3.5l-0.8-2c-0.4-0.9-1.2-1.5-2.2-1.6c-1-0.1-1.9,0.4-2.4,1.2
		l-0.5,0.8l-0.4-5.1c-0.1-1.2-1-2.2-2.3-2.3c-1.2-0.1-2.4,0.6-2.7,1.7l-3.2,9.5c-0.2,0.7,0.1,1.4,0.8,1.6c0.1,0.1,0.3,0.1,0.4,0.1
		c0.6,0,1-0.4,1.2-0.9l3.1-9.5l0.4,5.2c0.1,1.1,0.9,2,2,2.3s2.2-0.2,2.8-1.2l0.5-0.8l0.8,2c0.3,0.9,1.1,1.5,2,1.6
		c0.9,0.1,1.8-0.2,2.4-0.9l3-3.8c0.3,0.1,0.7,0.1,1,0.1c1.4,0,2.7-0.7,3.4-1.9l1.3-2.1l4.9-5.9L141,58l1.1,0.6
		c0.3,0.2,0.5,0.5,0.6,0.8c0.1,0.3,0,0.7-0.1,1l-5.1,8.9c-0.2,0.3-0.3,0.7-0.2,1c0.1,0.3,0.3,0.6,0.6,0.8c0.3,0.2,0.6,0.2,1,0.1
		c0.3-0.1,0.6-0.3,0.8-0.6l5.1-8.9c0.5-0.9,0.7-1.9,0.4-2.9c-0.3-1-0.9-1.8-1.8-2.3l-1.1-0.6l3.2-5.6c0.4-0.6,0.1-1.4-0.5-1.7
		l0.6-1.1C146.1,46.5,146.3,45.4,146,44.4z M141.1,44.8c0.2-0.3,0.5-0.5,0.8-0.6c0.3-0.1,0.7,0,1,0.1c0.3,0.2,0.5,0.5,0.6,0.8
		c0.1,0.3,0,0.7-0.1,1l-0.6,1.1l-2.2-1.3L141.1,44.8z M123.6,80.7l-0.6-0.4l-1.9-1.1l1.8-4.9l4,2.3L123.6,80.7z M119.8,84.4
		c-0.5-0.4-0.7-1.1-0.4-1.7l0.6-1.1l2.2,1.3l-0.6,1.1c-0.2,0.3-0.5,0.5-0.8,0.6C120.4,84.7,120.1,84.6,119.8,84.4z M128.4,74.6
		L124,72l10.3-17.8l4.4,2.6L128.4,74.6z M140,54.5l-4.4-2.6l2.6-4.4l4.4,2.6L140,54.5z"/>
	<path id="XMLID_484_" class="st1" d="M89.3,83.8l-4.5,4.5L82,85.6c-0.5-0.5-1.3-0.5-1.8,0c-0.2,0.2-0.4,0.6-0.4,0.9
		c0,0.3,0.1,0.7,0.4,0.9l2.7,2.7c0.5,0.5,1.1,0.7,1.8,0.7c0.7,0,1.3-0.3,1.8-0.7l4.5-4.5c0.4-0.5,0.4-1.3-0.1-1.7
		C90.6,83.3,89.8,83.3,89.3,83.8z"/>
	<path id="XMLID_481_" class="st1" d="M74.2,87.2c0,6,4.9,10.9,10.9,10.9c6,0,10.9-4.9,10.9-10.9c0-0.7-0.6-1.3-1.3-1.3
		c-0.7,0-1.3,0.6-1.3,1.3c0,4.6-3.7,8.4-8.4,8.4c-4.6,0-8.4-3.7-8.4-8.4c0-4.6,3.7-8.4,8.4-8.4c1.8,0,3.6,0.6,5,1.7
		c0.6,0.4,1.4,0.3,1.8-0.3c0.4-0.6,0.3-1.4-0.3-1.8c-3.3-2.5-7.7-2.9-11.4-1C76.5,79.3,74.2,83.1,74.2,87.2z"/>
	<path id="XMLID_468_" class="st1" d="M115.3,36.4c0.7,0,1.3-0.6,1.3-1.3c0-0.7-0.6-1.3-1.3-1.3H81.9c-0.7,0-1.3,0.6-1.3,1.3v5.1
		c0,0.7,0.6,1.3,1.3,1.3h33.4c0.7,0,1.3-0.6,1.3-1.3c0-0.7-0.6-1.3-1.3-1.3H83.2v-2.6H115.3z"/>
	<path id="XMLID_454_" class="st1" d="M85.7,44.2c-0.7,0-1.3,0.6-1.3,1.3c0,0.7,0.6,1.3,1.3,1.3h25.7c0.7,0,1.3-0.6,1.3-1.3
		c0-0.7-0.6-1.3-1.3-1.3H85.7z"/>
	<path id="XMLID_444_" class="st1" d="M119.1,53.2H90.9c-0.7,0-1.3,0.6-1.3,1.3c0,0.7,0.6,1.3,1.3,1.3h28.3c0.7,0,1.3-0.6,1.3-1.3
		C120.4,53.7,119.8,53.2,119.1,53.2z"/>
	<path id="XMLID_367_" class="st1" d="M106.3,62.1c0-0.7-0.6-1.3-1.3-1.3H79.3c-0.7,0-1.3,0.6-1.3,1.3c0,0.7,0.6,1.3,1.3,1.3H105
		C105.7,63.4,106.3,62.9,106.3,62.1z"/>
	<path id="XMLID_361_" class="st1" d="M119.1,60.9h-9c-0.7,0-1.3,0.6-1.3,1.3c0,0.7,0.6,1.3,1.3,1.3h9c0.7,0,1.3-0.6,1.3-1.3
		C120.4,61.4,119.8,60.9,119.1,60.9z"/>
	<path id="XMLID_326_" class="st1" d="M92.1,69.9c0.7,0,1.3-0.6,1.3-1.3c0-0.7-0.6-1.3-1.3-1.3H79.3c-0.7,0-1.3,0.6-1.3,1.3
		c0,0.7,0.6,1.3,1.3,1.3H92.1z"/>
	<path id="XMLID_253_" class="st1" d="M97.3,69.9h9c0.7,0,1.3-0.6,1.3-1.3c0-0.7-0.6-1.3-1.3-1.3h-9c-0.7,0-1.3,0.6-1.3,1.3
		C96,69.3,96.6,69.9,97.3,69.9z"/>
	<path id="XMLID_249_" class="st1" d="M126.8,85.3c-0.7,0-1.3,0.6-1.3,1.3v12.9c0,0.7-0.6,1.3-1.3,1.3H72.9c-0.7,0-1.3-0.6-1.3-1.3
		V30c0-0.7,0.6-1.3,1.3-1.3h51.4c0.7,0,1.3,0.6,1.3,1.3v24.1c0,0.7,0.6,1.3,1.3,1.3c0.7,0,1.3-0.6,1.3-1.3V30c0-2.1-1.7-3.9-3.9-3.9
		H72.9c-2.1,0-3.9,1.7-3.9,3.9v69.4c0,2.1,1.7,3.9,3.9,3.9h51.4c2.1,0,3.9-1.7,3.9-3.9V86.6C128.1,85.9,127.6,85.3,126.8,85.3z"/>
</g>
</svg>
