<?xml version="1.0" encoding="utf-8"?>
<!-- Generator: Adobe Illustrator 23.0.6, SVG Export Plug-In . SVG Version: 6.00 Build 0)  -->
<svg version="1.1" id="Layer_1" xmlns="http://www.w3.org/2000/svg" xmlns:xlink="http://www.w3.org/1999/xlink" x="0px" y="0px"
	 viewBox="0 0 200 151" style="enable-background:new 0 0 200 151;" xml:space="preserve">
<style type="text/css">
	.st0{fill:#FFFFFF;}
	.st1{fill:#2B318B;}
	.st2{fill:none;stroke:#FFFFFF;stroke-miterlimit:10;}
</style>
<path id="XMLID_195_" class="st0" d="M122.4,17.2c31.7,0,57.4,22.1,57.4,49.2c0,27.2-25.7,49.3-57.4,49.3
	c-31.7,0-57.4-22.1-57.4-49.3C65,39.2,90.7,17.2,122.4,17.2"/>
<g>
	<g>
		<path class="st1" d="M70.1,73.2h0.8v7.7h-0.8V73.2z"/>
		<path class="st1" d="M78.4,75.2c0.6,0,1.1,0.2,1.5,0.6c0.4,0.4,0.6,0.9,0.6,1.6v3.4h-0.7v-3.4c0-0.5-0.1-0.8-0.4-1.1
			c-0.2-0.3-0.6-0.4-1-0.4c-0.5,0-0.8,0.2-1.1,0.5c-0.3,0.3-0.4,0.8-0.4,1.4v3h-0.7v-3.4c0-0.5-0.1-0.9-0.3-1.1s-0.5-0.4-0.9-0.4
			c-0.4,0-0.8,0.2-1.1,0.5c-0.3,0.3-0.5,0.8-0.5,1.4v3h-0.7v-5.5h0.7v0.8c0.4-0.6,1-0.9,1.7-0.9c0.8,0,1.3,0.3,1.7,1
			C77,75.6,77.6,75.2,78.4,75.2z"/>
		<path class="st1" d="M84.8,75.2c0.8,0,1.5,0.3,2,0.8s0.8,1.2,0.8,2s-0.3,1.5-0.8,2c-0.6,0.6-1.2,0.8-2,0.8c-1,0-1.7-0.4-2.2-1.2
			v3.3h-0.7v-7.7h0.7v1.1C83.1,75.6,83.8,75.2,84.8,75.2z M83.2,79.7c0.4,0.4,0.9,0.6,1.5,0.6c0.6,0,1.1-0.2,1.5-0.6
			c0.4-0.4,0.6-0.9,0.6-1.5s-0.2-1.1-0.6-1.5c-0.4-0.4-0.9-0.6-1.5-0.6c-0.6,0-1.1,0.2-1.5,0.6c-0.4,0.4-0.6,0.9-0.6,1.5
			S82.8,79.2,83.2,79.7z"/>
		<path class="st1" d="M92.7,75.4h0.7v5.5h-0.7V80c-0.4,0.7-1,1-1.8,1c-0.7,0-1.2-0.2-1.6-0.6c-0.4-0.4-0.6-1-0.6-1.6v-3.4h0.7v3.4
			c0,0.5,0.1,0.9,0.4,1.1c0.3,0.3,0.6,0.4,1.1,0.4c0.5,0,1-0.2,1.3-0.5s0.5-0.8,0.5-1.5V75.4z"/>
		<path class="st1" d="M97.5,75.2c0.8,0,1.5,0.3,2,0.9c0.5,0.6,0.8,1.3,0.8,2c0,0.1,0,0.2,0,0.3h-4.8c0.1,0.6,0.3,1,0.7,1.3
			c0.4,0.3,0.9,0.5,1.5,0.5c0.4,0,0.8-0.1,1.1-0.3c0.3-0.2,0.5-0.4,0.7-0.7l0.6,0.4c-0.2,0.4-0.6,0.7-1,0.9S98.1,81,97.6,81
			c-0.9,0-1.6-0.3-2.1-0.8c-0.5-0.5-0.8-1.2-0.8-2.1c0-0.8,0.3-1.5,0.8-2.1C96,75.5,96.7,75.2,97.5,75.2z M97.5,75.9
			c-0.6,0-1.1,0.2-1.4,0.5c-0.4,0.3-0.6,0.8-0.7,1.3h4.1c-0.1-0.6-0.3-1-0.7-1.4C98.4,76.1,98,75.9,97.5,75.9z"/>
		<path class="st1" d="M101.7,76.8c0,0.2,0.1,0.4,0.3,0.6s0.5,0.3,0.8,0.4s0.6,0.2,0.9,0.3c0.3,0.1,0.6,0.3,0.8,0.5
			c0.2,0.2,0.3,0.5,0.3,0.9c0,0.5-0.2,0.9-0.6,1.1c-0.4,0.3-0.8,0.4-1.4,0.4c-0.5,0-1-0.1-1.3-0.4c-0.4-0.2-0.6-0.5-0.8-0.9l0.6-0.4
			c0.1,0.3,0.3,0.5,0.6,0.7s0.6,0.2,1,0.2c0.4,0,0.7-0.1,0.9-0.2c0.2-0.1,0.4-0.4,0.4-0.7c0-0.2-0.1-0.4-0.3-0.6s-0.5-0.3-0.8-0.4
			c-0.3-0.1-0.6-0.2-0.9-0.3s-0.6-0.3-0.8-0.5c-0.2-0.2-0.3-0.5-0.3-0.9c0-0.4,0.2-0.8,0.5-1.1s0.8-0.5,1.3-0.5
			c0.4,0,0.8,0.1,1.2,0.3c0.3,0.2,0.6,0.5,0.7,0.8l-0.6,0.4c-0.2-0.5-0.7-0.8-1.3-0.8c-0.3,0-0.6,0.1-0.8,0.2
			C101.8,76.3,101.7,76.5,101.7,76.8z"/>
		<path class="st1" d="M108.9,76.1h-1.6v3.3c0,0.3,0.1,0.5,0.2,0.6s0.3,0.2,0.5,0.2c0.2,0,0.5,0,0.9,0v0.6c-0.8,0.1-1.3,0.1-1.7-0.2
			s-0.6-0.7-0.6-1.3v-3.3h-1.2v-0.7h1.2V74l0.7-0.2v1.5h1.6V76.1z"/>
		<path class="st1" d="M114.3,80.2c-0.6,0.6-1.2,0.8-2.1,0.8s-1.5-0.3-2.1-0.8c-0.6-0.6-0.8-1.2-0.8-2.1s0.3-1.5,0.8-2.1
			c0.6-0.6,1.2-0.8,2.1-0.8s1.5,0.3,2.1,0.8s0.8,1.2,0.8,2.1S114.9,79.6,114.3,80.2z M110.8,79.7c0.4,0.4,0.9,0.6,1.5,0.6
			s1.1-0.2,1.5-0.6c0.4-0.4,0.6-0.9,0.6-1.5s-0.2-1.1-0.6-1.5c-0.4-0.4-0.9-0.6-1.5-0.6s-1.1,0.2-1.5,0.6c-0.4,0.4-0.6,0.9-0.6,1.5
			S110.3,79.2,110.8,79.7z"/>
		<path class="st1" d="M116.9,76.8c0,0.2,0.1,0.4,0.3,0.6s0.5,0.3,0.8,0.4s0.6,0.2,0.9,0.3c0.3,0.1,0.6,0.3,0.8,0.5
			c0.2,0.2,0.3,0.5,0.3,0.9c0,0.5-0.2,0.9-0.6,1.1c-0.4,0.3-0.8,0.4-1.4,0.4c-0.5,0-1-0.1-1.3-0.4c-0.4-0.2-0.6-0.5-0.8-0.9l0.6-0.4
			c0.1,0.3,0.3,0.5,0.6,0.7s0.6,0.2,1,0.2c0.4,0,0.7-0.1,0.9-0.2c0.2-0.1,0.4-0.4,0.4-0.7c0-0.2-0.1-0.4-0.3-0.6s-0.5-0.3-0.8-0.4
			c-0.3-0.1-0.6-0.2-0.9-0.3s-0.6-0.3-0.8-0.5c-0.2-0.2-0.3-0.5-0.3-0.9c0-0.4,0.2-0.8,0.5-1.1s0.8-0.5,1.3-0.5
			c0.4,0,0.8,0.1,1.2,0.3c0.3,0.2,0.6,0.5,0.7,0.8l-0.6,0.4c-0.2-0.5-0.7-0.8-1.3-0.8c-0.3,0-0.6,0.1-0.8,0.2
			C117,76.3,116.9,76.5,116.9,76.8z"/>
		<path class="st1" d="M127,75.2c0.8,0,1.5,0.3,2,0.8s0.8,1.2,0.8,2s-0.3,1.5-0.8,2c-0.6,0.6-1.2,0.8-2,0.8c-1,0-1.7-0.4-2.2-1.2
			v3.3H124v-7.7h0.7v1.1C125.3,75.6,126,75.2,127,75.2z M125.4,79.7c0.4,0.4,0.9,0.6,1.5,0.6s1.1-0.2,1.5-0.6
			c0.4-0.4,0.6-0.9,0.6-1.5s-0.2-1.1-0.6-1.5c-0.4-0.4-0.9-0.6-1.5-0.6s-1.1,0.2-1.5,0.6c-0.4,0.4-0.6,0.9-0.6,1.5
			S125,79.2,125.4,79.7z"/>
		<path class="st1" d="M135.6,80.2c-0.6,0.6-1.2,0.8-2.1,0.8s-1.5-0.3-2.1-0.8s-0.8-1.2-0.8-2.1s0.3-1.5,0.8-2.1s1.2-0.8,2.1-0.8
			s1.5,0.3,2.1,0.8c0.6,0.6,0.8,1.2,0.8,2.1S136.2,79.6,135.6,80.2z M132.1,79.7c0.4,0.4,0.9,0.6,1.5,0.6c0.6,0,1.1-0.2,1.5-0.6
			c0.4-0.4,0.6-0.9,0.6-1.5s-0.2-1.1-0.6-1.5c-0.4-0.4-0.9-0.6-1.5-0.6c-0.6,0-1.1,0.2-1.5,0.6c-0.4,0.4-0.6,0.9-0.6,1.5
			S131.6,79.2,132.1,79.7z"/>
		<path class="st1" d="M138.4,76.3c0.3-0.7,0.9-1,1.7-1V76c-0.5,0-0.9,0.1-1.2,0.4c-0.3,0.3-0.5,0.8-0.5,1.4v3.1h-0.7v-5.5h0.7V76.3
			z"/>
		<path class="st1" d="M146.5,81c-0.8,0-1.5-0.3-2.1-0.8c-0.6-0.6-0.8-1.2-0.8-2.1s0.3-1.5,0.8-2.1c0.5-0.6,1.2-0.8,2.1-0.8
			c0.5,0,1,0.1,1.5,0.4c0.4,0.3,0.7,0.6,0.9,1l-0.6,0.3c-0.1-0.3-0.4-0.6-0.7-0.8s-0.7-0.3-1.1-0.3c-0.6,0-1.1,0.2-1.5,0.6
			c-0.4,0.4-0.6,0.9-0.6,1.5s0.2,1.1,0.6,1.5c0.4,0.4,0.9,0.6,1.5,0.6c0.4,0,0.8-0.1,1.1-0.3c0.3-0.2,0.6-0.5,0.8-0.8l0.6,0.4
			c-0.2,0.4-0.6,0.8-1,1C147.5,80.9,147,81,146.5,81z"/>
		<path class="st1" d="M154.5,80.2c-0.6,0.6-1.2,0.8-2.1,0.8s-1.5-0.3-2.1-0.8s-0.8-1.2-0.8-2.1s0.3-1.5,0.8-2.1s1.2-0.8,2.1-0.8
			s1.5,0.3,2.1,0.8c0.6,0.6,0.8,1.2,0.8,2.1S155.1,79.6,154.5,80.2z M150.9,79.7c0.4,0.4,0.9,0.6,1.5,0.6c0.6,0,1.1-0.2,1.5-0.6
			c0.4-0.4,0.6-0.9,0.6-1.5s-0.2-1.1-0.6-1.5c-0.4-0.4-0.9-0.6-1.5-0.6c-0.6,0-1.1,0.2-1.5,0.6c-0.4,0.4-0.6,0.9-0.6,1.5
			S150.5,79.2,150.9,79.7z"/>
		<path class="st1" d="M159.5,75.2c0.8,0,1.5,0.3,2,0.8s0.8,1.2,0.8,2s-0.3,1.5-0.8,2c-0.6,0.6-1.2,0.8-2,0.8c-1,0-1.7-0.4-2.2-1.2
			v1.1h-0.7v-7.7h0.7v3.3C157.8,75.6,158.6,75.2,159.5,75.2z M157.9,79.7c0.4,0.4,0.9,0.6,1.5,0.6c0.6,0,1.1-0.2,1.5-0.6
			c0.4-0.4,0.6-0.9,0.6-1.5s-0.2-1.1-0.6-1.5c-0.4-0.4-0.9-0.6-1.5-0.6c-0.6,0-1.1,0.2-1.5,0.6c-0.4,0.4-0.6,0.9-0.6,1.5
			S157.5,79.2,157.9,79.7z"/>
		<path class="st1" d="M164.3,76.3c0.3-0.7,0.9-1,1.7-1V76c-0.5,0-0.9,0.1-1.2,0.4c-0.3,0.3-0.5,0.8-0.5,1.4v3.1h-0.7v-5.5h0.7V76.3
			z"/>
		<path class="st1" d="M171.4,75.4h0.7v5.5h-0.7v-1.1c-0.5,0.8-1.2,1.2-2.2,1.2c-0.8,0-1.5-0.3-2-0.8c-0.6-0.6-0.8-1.2-0.8-2
			s0.3-1.5,0.8-2s1.2-0.8,2-0.8c1,0,1.7,0.4,2.2,1.2V75.4z M167.7,79.7c0.4,0.4,0.9,0.6,1.5,0.6s1.1-0.2,1.5-0.6
			c0.4-0.4,0.6-0.9,0.6-1.5s-0.2-1.1-0.6-1.5c-0.4-0.4-0.9-0.6-1.5-0.6s-1.1,0.2-1.5,0.6c-0.4,0.4-0.6,0.9-0.6,1.5
			S167.3,79.2,167.7,79.7z"/>
		<path class="st1" d="M174.4,76.3c0.3-0.7,0.9-1,1.7-1V76c-0.5,0-0.9,0.1-1.2,0.4c-0.3,0.3-0.5,0.8-0.5,1.4v3.1h-0.7v-5.5h0.7V76.3
			z"/>
		<path class="st1" d="M104.5,92.3c-0.8-1.6-1.2-3.3-1.2-4.9s0.4-3.3,1.2-5h0.7c-0.8,1.6-1.2,3.3-1.2,5s0.4,3.3,1.2,4.9H104.5z"/>
		<path class="st1" d="M108.8,91.3c-0.8,0-1.5-0.3-2.1-0.8c-0.6-0.6-0.8-1.2-0.8-2.1s0.3-1.5,0.8-2.1c0.5-0.6,1.2-0.8,2.1-0.8
			c0.5,0,1,0.1,1.5,0.4c0.4,0.3,0.7,0.6,0.9,1l-0.6,0.3c-0.1-0.3-0.4-0.6-0.7-0.8s-0.7-0.3-1.1-0.3c-0.6,0-1.1,0.2-1.5,0.6
			c-0.4,0.4-0.6,0.9-0.6,1.5s0.2,1.1,0.6,1.5c0.4,0.4,0.9,0.6,1.5,0.6c0.4,0,0.8-0.1,1.1-0.3c0.3-0.2,0.6-0.5,0.8-0.8l0.6,0.4
			c-0.2,0.4-0.6,0.8-1,1C109.9,91.2,109.4,91.3,108.8,91.3z"/>
		<path class="st1" d="M113.1,86.6c0.3-0.7,0.9-1,1.7-1v0.7c-0.5,0-0.9,0.1-1.2,0.4c-0.3,0.3-0.5,0.8-0.5,1.4v3.1h-0.7v-5.5h0.7
			V86.6z"/>
		<path class="st1" d="M118,85.5c0.8,0,1.5,0.3,2,0.9c0.5,0.6,0.8,1.3,0.8,2c0,0.1,0,0.2,0,0.3h-4.8c0.1,0.6,0.3,1,0.7,1.3
			c0.4,0.3,0.9,0.5,1.5,0.5c0.4,0,0.8-0.1,1.1-0.3c0.3-0.2,0.5-0.4,0.7-0.7l0.6,0.4c-0.2,0.4-0.6,0.7-1,0.9s-0.9,0.3-1.4,0.3
			c-0.9,0-1.6-0.3-2.1-0.8c-0.5-0.5-0.8-1.2-0.8-2.1c0-0.8,0.3-1.5,0.8-2.1C116.5,85.8,117.2,85.5,118,85.5z M118,86.3
			c-0.6,0-1,0.2-1.4,0.5c-0.4,0.3-0.6,0.8-0.7,1.3h4.1c-0.1-0.6-0.3-1-0.7-1.4C119,86.4,118.5,86.3,118,86.3z M119.2,83.5l-1.1,1.4
			h-0.7l0.9-1.4H119.2z"/>
		<path class="st1" d="M126.6,83.5h0.7v7.7h-0.7v-1.1c-0.5,0.8-1.2,1.2-2.2,1.2c-0.8,0-1.5-0.3-2-0.8c-0.6-0.6-0.8-1.2-0.8-2
			s0.3-1.5,0.8-2s1.2-0.8,2-0.8c1,0,1.7,0.4,2.2,1.2V83.5z M122.9,90c0.4,0.4,0.9,0.6,1.5,0.6s1.1-0.2,1.5-0.6
			c0.4-0.4,0.6-0.9,0.6-1.5s-0.2-1.1-0.6-1.5c-0.4-0.4-0.9-0.6-1.5-0.6s-1.1,0.2-1.5,0.6c-0.4,0.4-0.6,0.9-0.6,1.5
			S122.5,89.6,122.9,90z"/>
		<path class="st1" d="M129.6,84.4c-0.1,0.1-0.2,0.2-0.4,0.2s-0.3-0.1-0.4-0.2c-0.1-0.1-0.2-0.2-0.2-0.4c0-0.1,0.1-0.3,0.2-0.4
			c0.1-0.1,0.2-0.2,0.4-0.2s0.3,0.1,0.4,0.2c0.1,0.1,0.2,0.2,0.2,0.4C129.8,84.1,129.7,84.3,129.6,84.4z M128.9,91.2v-5.5h0.7v5.5
			H128.9z"/>
		<path class="st1" d="M134.1,86.4h-1.6v3.3c0,0.3,0.1,0.5,0.2,0.6s0.3,0.2,0.5,0.2c0.2,0,0.5,0,0.9,0v0.6c-0.8,0.1-1.3,0.1-1.7-0.2
			c-0.4-0.2-0.6-0.7-0.6-1.3v-3.3h-1.2v-0.7h1.2v-1.3l0.7-0.2v1.5h1.6V86.4z"/>
		<path class="st1" d="M139.6,90.5c-0.6,0.6-1.2,0.8-2.1,0.8s-1.5-0.3-2.1-0.8c-0.6-0.6-0.8-1.2-0.8-2.1s0.3-1.5,0.8-2.1
			c0.6-0.6,1.2-0.8,2.1-0.8s1.5,0.3,2.1,0.8s0.8,1.2,0.8,2.1S140.1,89.9,139.6,90.5z M136,90c0.4,0.4,0.9,0.6,1.5,0.6
			s1.1-0.2,1.5-0.6c0.4-0.4,0.6-0.9,0.6-1.5s-0.2-1.1-0.6-1.5c-0.4-0.4-0.9-0.6-1.5-0.6s-1.1,0.2-1.5,0.6c-0.4,0.4-0.6,0.9-0.6,1.5
			S135.6,89.6,136,90z"/>
		<path class="st1" d="M142.1,87.1c0,0.2,0.1,0.4,0.3,0.6s0.5,0.3,0.8,0.4s0.6,0.2,0.9,0.3c0.3,0.1,0.6,0.3,0.8,0.5
			c0.2,0.2,0.3,0.5,0.3,0.9c0,0.5-0.2,0.9-0.6,1.1c-0.4,0.3-0.8,0.4-1.4,0.4c-0.5,0-1-0.1-1.3-0.4c-0.4-0.2-0.6-0.5-0.8-0.9l0.6-0.4
			c0.1,0.3,0.3,0.5,0.6,0.7s0.6,0.2,1,0.2c0.4,0,0.7-0.1,0.9-0.2c0.2-0.1,0.4-0.4,0.4-0.7c0-0.2-0.1-0.4-0.3-0.6s-0.5-0.3-0.8-0.4
			c-0.3-0.1-0.6-0.2-0.9-0.3s-0.6-0.3-0.8-0.5c-0.2-0.2-0.3-0.5-0.3-0.9c0-0.4,0.2-0.8,0.5-1.1s0.8-0.5,1.3-0.5
			c0.4,0,0.8,0.1,1.2,0.3c0.3,0.2,0.6,0.5,0.7,0.8l-0.6,0.4c-0.2-0.5-0.7-0.8-1.3-0.8c-0.3,0-0.6,0.1-0.8,0.2
			C142.2,86.6,142.1,86.8,142.1,87.1z"/>
		<path class="st1" d="M107.7,96v5.5H107v-4.8h-2.2v4.8H104v-4.8h-0.9V96h0.9v-0.2c0-1.4,0.8-2.1,2.3-2.1c0.3,0,0.7,0,1.1,0.1v0.7
			c-0.3-0.1-0.7-0.1-1.1-0.1c-0.5,0-1,0.1-1.2,0.3c-0.3,0.2-0.4,0.6-0.4,1.1V96H107.7z"/>
		<path class="st1" d="M109.9,97.4c0,0.2,0.1,0.4,0.3,0.6c0.2,0.1,0.5,0.3,0.8,0.4s0.6,0.2,0.9,0.3c0.3,0.1,0.6,0.3,0.8,0.5
			c0.2,0.2,0.3,0.5,0.3,0.9c0,0.5-0.2,0.9-0.6,1.1c-0.4,0.3-0.8,0.4-1.4,0.4c-0.5,0-1-0.1-1.3-0.4c-0.4-0.2-0.6-0.5-0.8-0.9l0.6-0.4
			c0.1,0.3,0.3,0.5,0.6,0.7s0.6,0.2,1,0.2c0.4,0,0.7-0.1,0.9-0.2s0.4-0.4,0.4-0.7c0-0.2-0.1-0.4-0.3-0.6c-0.2-0.1-0.5-0.3-0.8-0.4
			c-0.3-0.1-0.6-0.2-0.9-0.3c-0.3-0.1-0.6-0.3-0.8-0.5c-0.2-0.2-0.3-0.5-0.3-0.9c0-0.4,0.2-0.8,0.5-1.1s0.8-0.5,1.3-0.5
			c0.4,0,0.8,0.1,1.2,0.3c0.3,0.2,0.6,0.5,0.7,0.8l-0.6,0.4c-0.2-0.5-0.7-0.8-1.3-0.8c-0.3,0-0.6,0.1-0.8,0.2
			C110,96.9,109.9,97.2,109.9,97.4z"/>
		<path class="st1" d="M116.7,101.6c-0.8,0-1.5-0.3-2.1-0.8s-0.8-1.2-0.8-2.1s0.3-1.5,0.8-2.1s1.2-0.8,2.1-0.8c0.5,0,1,0.1,1.5,0.4
			c0.4,0.3,0.7,0.6,0.9,1l-0.6,0.3c-0.1-0.3-0.4-0.6-0.7-0.8s-0.7-0.3-1.1-0.3c-0.6,0-1.1,0.2-1.5,0.6c-0.4,0.4-0.6,0.9-0.6,1.5
			s0.2,1.1,0.6,1.5c0.4,0.4,0.9,0.6,1.5,0.6c0.4,0,0.8-0.1,1.1-0.3s0.6-0.5,0.8-0.8l0.6,0.4c-0.2,0.4-0.6,0.8-1,1
			C117.7,101.5,117.2,101.6,116.7,101.6z"/>
		<path class="st1" d="M124.9,96h0.7v5.5h-0.7v-1.1c-0.5,0.8-1.2,1.2-2.2,1.2c-0.8,0-1.5-0.3-2-0.8c-0.6-0.6-0.8-1.2-0.8-2
			s0.3-1.5,0.8-2s1.2-0.8,2-0.8c1,0,1.7,0.4,2.2,1.2V96z M121.1,100.3c0.4,0.4,0.9,0.6,1.5,0.6s1.1-0.2,1.5-0.6
			c0.4-0.4,0.6-0.9,0.6-1.5s-0.2-1.1-0.6-1.5c-0.4-0.4-0.9-0.6-1.5-0.6s-1.1,0.2-1.5,0.6c-0.4,0.4-0.6,0.9-0.6,1.5
			S120.7,99.9,121.1,100.3z"/>
		<path class="st1" d="M127.1,101.5v-8h0.7v8H127.1z"/>
		<path class="st1" d="M131.9,95.9c0.8,0,1.5,0.3,2,0.9c0.5,0.6,0.8,1.3,0.8,2c0,0.1,0,0.2,0,0.3h-4.8c0.1,0.6,0.3,1,0.7,1.3
			s0.9,0.5,1.5,0.5c0.4,0,0.8-0.1,1.1-0.3c0.3-0.2,0.5-0.4,0.7-0.7l0.6,0.4c-0.2,0.4-0.6,0.7-1,0.9s-0.9,0.3-1.4,0.3
			c-0.9,0-1.6-0.3-2.1-0.8c-0.5-0.5-0.8-1.2-0.8-2.1c0-0.8,0.3-1.5,0.8-2.1C130.4,96.1,131.1,95.9,131.9,95.9z M131.9,96.6
			c-0.6,0-1.1,0.2-1.4,0.5c-0.4,0.3-0.6,0.8-0.7,1.3h4.1c-0.1-0.6-0.3-1-0.7-1.4C132.9,96.7,132.4,96.6,131.9,96.6z"/>
		<path class="st1" d="M136.2,97.4c0,0.2,0.1,0.4,0.3,0.6s0.5,0.3,0.8,0.4s0.6,0.2,0.9,0.3c0.3,0.1,0.6,0.3,0.8,0.5
			c0.2,0.2,0.3,0.5,0.3,0.9c0,0.5-0.2,0.9-0.6,1.1c-0.4,0.3-0.8,0.4-1.4,0.4c-0.5,0-1-0.1-1.3-0.4c-0.4-0.2-0.6-0.5-0.8-0.9l0.6-0.4
			c0.1,0.3,0.3,0.5,0.6,0.7s0.6,0.2,1,0.2c0.4,0,0.7-0.1,0.9-0.2c0.2-0.1,0.4-0.4,0.4-0.7c0-0.2-0.1-0.4-0.3-0.6s-0.5-0.3-0.8-0.4
			c-0.3-0.1-0.6-0.2-0.9-0.3s-0.6-0.3-0.8-0.5c-0.2-0.2-0.3-0.5-0.3-0.9c0-0.4,0.2-0.8,0.5-1.1s0.8-0.5,1.3-0.5
			c0.4,0,0.8,0.1,1.2,0.3c0.3,0.2,0.6,0.5,0.7,0.8l-0.6,0.4c-0.2-0.5-0.7-0.8-1.3-0.8c-0.3,0-0.6,0.1-0.8,0.2
			C136.3,96.9,136.2,97.2,136.2,97.4z"/>
		<path class="st1" d="M140.9,102.6h-0.7c0.8-1.6,1.2-3.3,1.2-4.9s-0.4-3.3-1.2-5h0.7c0.8,1.6,1.2,3.3,1.2,5S141.7,101,140.9,102.6z
			"/>
	</g>
</g>
<g id="XMLID_359_">
	<g id="XMLID_363_">
		<polygon id="Arrow_20_" class="st0" points="95.3,144.2 97.1,133.9 99.9,139.2 105.4,141.3 		"/>
		<polygon id="Arrow_19_" class="st0" points="114.4,122.2 112.6,132.5 109.8,127.2 104.3,125.1 		"/>
	</g>
	<line id="XMLID_360_" class="st2" x1="100.1" y1="139.2" x2="110.1" y2="126.8"/>
</g>
<g id="XMLID_3025_">
	<path id="XMLID_3622_" class="st1" d="M137.5,30.2C137.5,30.2,137.5,30.2,137.5,30.2c0.1,0,0.1,0,0.2,0c0.9,0,1.7,0.8,1.7,1.7
		c0,0.4,0.3,0.8,0.8,0.8s0.8-0.3,0.8-0.8c0-1.5-1.1-2.8-2.6-3.2V28c0-0.4-0.3-0.8-0.8-0.8s-0.8,0.3-0.8,0.8v0.8
		c-1.6,0.4-2.6,1.9-2.4,3.6c0.2,1.6,1.6,2.8,3.2,2.8c0.9,0,1.7,0.8,1.7,1.7c0,0.9-0.8,1.7-1.7,1.7c-0.9,0-1.7-0.8-1.7-1.7
		c0-0.4-0.3-0.8-0.8-0.8s-0.8,0.3-0.8,0.8c0,1.5,1,2.8,2.4,3.1v0.8c0,0.4,0.3,0.8,0.8,0.8s0.8-0.3,0.8-0.8v-0.8
		c1.6-0.4,2.7-1.9,2.5-3.5c-0.2-1.6-1.6-2.9-3.2-2.9c-0.9,0-1.7-0.7-1.7-1.6C135.9,31.1,136.6,30.3,137.5,30.2L137.5,30.2z"/>
	<path id="XMLID_3675_" class="st1" d="M137.7,23.5c-4.7,0-8.7,3.1-10.3,7.2h-19c-0.4,0-0.8,0.4-0.8,0.8l-0.2,26.9H102
		c-0.4,0-0.8,0.3-0.8,0.7v3.4c0,3.2,2.5,5.9,5.8,6v0h23.7v0c0.2,0,0.3,0,0.4,0h0c3.3,0,6-2.7,6-6V45.3c0.2,0,0.4,0,0.6,0
		c6,0,10.9-4.9,10.9-10.9C148.5,28.4,143.7,23.5,137.7,23.5z M107.3,67L107.3,67c-2.5,0-4.5-2-4.5-4.5V60H125v2.6
		c0,1.6,0.6,3.1,1.8,4.3c0.1,0.1,0.2,0.1,0.3,0.2H107.3z M135.5,62.6c0,2.5-2,4.5-4.5,4.5h0c-2.5,0-4.5-2-4.5-4.5v-3.4
		c0-0.2-0.1-0.4-0.2-0.5c-0.1-0.1-0.3-0.2-0.5-0.2H109l0.2-26.2H127c-0.1,0.7-0.2,1.4-0.2,2.1c0,1.5,0.3,3,0.9,4.4h-7.2
		c-0.4,0-0.8,0.3-0.8,0.8s0.3,0.8,0.8,0.8h8.1c1.6,2.5,4.1,4.2,7,4.8V62.6z M137.7,43.8c-5.2,0-9.4-4.2-9.4-9.4
		c0-5.2,4.2-9.4,9.4-9.4c5.2,0,9.4,4.2,9.4,9.4C147,39.6,142.8,43.8,137.7,43.8z"/>
	<path id="XMLID_3670_" class="st1" d="M115.5,43.9c-1.4,0-2.5,1.1-2.5,2.4c0,1.3,1.1,2.4,2.5,2.4c1.4,0,2.5-1.1,2.5-2.4
		C118,44.9,116.9,43.9,115.5,43.9z M115.5,47.1c-0.5,0-0.9-0.4-0.9-0.8c0-0.5,0.4-0.8,0.9-0.8s0.9,0.4,0.9,0.8
		C116.5,46.7,116,47.1,115.5,47.1z"/>
	<path id="XMLID_3553_" class="st1" d="M119.7,46.2c0,0.4,0.3,0.8,0.8,0.8h10.2c0.4,0,0.8-0.3,0.8-0.8s-0.3-0.8-0.8-0.8h-10.2
		C120,45.5,119.7,45.8,119.7,46.2z"/>
	<path id="XMLID_3665_" class="st1" d="M115.5,37.2c-1.4,0-2.5,1.1-2.5,2.4c0,1.3,1.1,2.4,2.5,2.4c1.4,0,2.5-1.1,2.5-2.4
		C118,38.3,116.9,37.2,115.5,37.2z M115.5,40.4c-0.5,0-0.9-0.4-0.9-0.8c0-0.5,0.4-0.8,0.9-0.8s0.9,0.4,0.9,0.8
		C116.5,40,116,40.4,115.5,40.4L115.5,40.4z"/>
	<path id="XMLID_3629_" class="st1" d="M115.5,50.5c-1.4,0-2.5,1.1-2.5,2.4c0,1.3,1.1,2.4,2.5,2.4c1.4,0,2.5-1.1,2.5-2.4
		C118,51.6,116.9,50.5,115.5,50.5z M115.5,53.8c-0.5,0-0.9-0.4-0.9-0.8c0-0.5,0.4-0.8,0.9-0.8s0.9,0.4,0.9,0.8
		C116.5,53.4,116,53.8,115.5,53.8z"/>
	<path id="XMLID_3070_" class="st1" d="M130.7,52.2h-10.2c-0.4,0-0.8,0.3-0.8,0.8s0.3,0.8,0.8,0.8h10.2c0.4,0,0.8-0.3,0.8-0.8
		S131.1,52.2,130.7,52.2z"/>
</g>
</svg>
