<?xml version="1.0" encoding="utf-8"?>
<!-- Generator: Adobe Illustrator 23.0.6, SVG Export Plug-In . SVG Version: 6.00 Build 0)  -->
<svg version="1.1" id="Layer_1" xmlns="http://www.w3.org/2000/svg" xmlns:xlink="http://www.w3.org/1999/xlink" x="0px" y="0px"
	 viewBox="0 0 200 151" style="enable-background:new 0 0 200 151;" xml:space="preserve">
<style type="text/css">
	.st0{fill:#FFFFFF;}
	.st1{fill:#2B318B;}
	.st2{font-family:'Gilroy-Regular';}
	.st3{font-size:11px;}
	.st4{fill:none;stroke:#FFFFFF;stroke-miterlimit:10;}
</style>
<path id="XMLID_388_" class="st0" d="M101.2,43.1c31.7,0,57.4,22.1,57.4,49.2c0,27.2-25.7,49.3-57.4,49.3
	c-31.7,0-57.4-22.1-57.4-49.3C43.8,65.1,69.5,43.1,101.2,43.1"/>
<text id="XMLID_2581_" transform="matrix(1 0 0 1 79.0188 113.7633)"><tspan x="0" y="0" class="st1 st2 st3">Cartera </tspan><tspan x="-13.9" y="10.3" class="st1 st2 st3">intercompany</tspan></text>
<g id="XMLID_376_">
	<g id="XMLID_380_">
		<polygon id="Arrow_26_" class="st0" points="103.3,37.6 97.9,28.7 103.4,30.9 109,28.9 		"/>
		<polygon id="Arrow_25_" class="st0" points="103.2,8.5 108.6,17.5 103.1,15.3 97.5,17.3 		"/>
	</g>
	<line id="XMLID_379_" class="st4" x1="103.6" y1="30.7" x2="103.1" y2="14.8"/>
</g>
<g id="XMLID_2499_">
	<g id="XMLID_2500_">
		<g id="XMLID_2513_">
			<path id="XMLID_3008_" class="st1" d="M117.3,61.3l-9.2-9.2c-0.2-0.2-0.4-0.3-0.6-0.3H88.2c-2,0-3.7,1.6-3.7,3.7v36.7
				c0,2,1.6,3.7,3.7,3.7h25.7c2,0,3.7-1.6,3.7-3.7V62C117.6,61.7,117.5,61.5,117.3,61.3z M108.4,55l6,6h-4.2c-1,0-1.8-0.8-1.8-1.8
				V55z M115.7,92.3c0,1-0.8,1.8-1.8,1.8H88.2c-1,0-1.8-0.8-1.8-1.8V55.6c0-1,0.8-1.8,1.8-1.8h18.3v5.5c0,2,1.6,3.7,3.7,3.7h5.5
				V92.3z"/>
			<path id="XMLID_2445_" class="st1" d="M111.1,77.6H91c-0.5,0-0.9,0.4-0.9,0.9s0.4,0.9,0.9,0.9h20.2c0.5,0,0.9-0.4,0.9-0.9
				C112.1,78,111.7,77.6,111.1,77.6z"/>
			<path id="XMLID_2442_" class="st1" d="M111.1,72.1H91c-0.5,0-0.9,0.4-0.9,0.9s0.4,0.9,0.9,0.9h20.2c0.5,0,0.9-0.4,0.9-0.9
				C112.1,72.5,111.7,72.1,111.1,72.1z"/>
			<path id="XMLID_2327_" class="st1" d="M111.1,83.1H91c-0.5,0-0.9,0.4-0.9,0.9s0.4,0.9,0.9,0.9h20.2c0.5,0,0.9-0.4,0.9-0.9
				C112.1,83.5,111.7,83.1,111.1,83.1z"/>
			<path id="XMLID_2265_" class="st1" d="M102,88.6H91c-0.5,0-0.9,0.4-0.9,0.9s0.4,0.9,0.9,0.9h11c0.5,0,0.9-0.4,0.9-0.9
				C102.9,89,102.5,88.6,102,88.6z"/>
			<path id="XMLID_2262_" class="st1" d="M99.2,67.5c0,0.5,0.4,0.9,0.9,0.9h11c0.5,0,0.9-0.4,0.9-0.9s-0.4-0.9-0.9-0.9h-11
				C99.6,66.6,99.2,67,99.2,67.5z"/>
			<path id="XMLID_2233_" class="st1" d="M92.8,66.6H91c-0.5,0-0.9,0.4-0.9,0.9s0.4,0.9,0.9,0.9h0.9c0,0.5,0.4,0.9,0.9,0.9
				c0.5,0,0.9-0.4,0.9-0.9v-0.2c1.1-0.4,1.8-1.4,1.8-2.6c0-1.5-1.2-2.8-2.8-2.8c-0.5,0-0.9-0.4-0.9-0.9c0-0.5,0.4-0.9,0.9-0.9h1.8
				c0.5,0,0.9-0.4,0.9-0.9c0-0.5-0.4-0.9-0.9-0.9h-0.9c0-0.5-0.4-0.9-0.9-0.9c-0.5,0-0.9,0.4-0.9,0.9v0.2C90.8,59.8,90,60.8,90,62
				c0,1.5,1.2,2.8,2.8,2.8c0.5,0,0.9,0.4,0.9,0.9S93.3,66.6,92.8,66.6z"/>
		</g>
	</g>
</g>
</svg>
