<?xml version="1.0" encoding="utf-8"?>
<!-- Generator: Adobe Illustrator 23.0.6, SVG Export Plug-In . SVG Version: 6.00 Build 0)  -->
<svg version="1.1" id="Layer_1" xmlns="http://www.w3.org/2000/svg" xmlns:xlink="http://www.w3.org/1999/xlink" x="0px" y="0px"
	 viewBox="0 0 106 98" style="enable-background:new 0 0 106 98;" xml:space="preserve">
<style type="text/css">
	.st0{fill:#FFFFFF;}
</style>
<g id="XMLID_4157_">
	<path id="XMLID_4158_" class="st0" d="M81.5,20.7C73.7,12.9,63.3,8.6,52.3,8.6s-21.4,4.3-29.2,12.1S11,38.9,11,49.9
		s4.3,21.4,12.1,29.2s18.2,12.1,29.2,12.1S73.7,87,81.5,79.1S93.6,61,93.6,49.9S89.3,28.5,81.5,20.7z M89.9,48.1h-16
		c-0.2-6.4-1-12.5-2.6-18c3.1-1.6,5.9-3.5,8.5-5.9C85.7,30.6,89.4,38.9,89.9,48.1z M54.2,51.8h16c-0.1,5.9-0.9,11.5-2.3,16.5
		c-4.3-1.7-8.9-2.7-13.7-3V51.8z M77.1,21.7c-2.2,1.9-4.5,3.5-7,4.9c-0.6-1.8-1.4-3.5-2.2-5.1c-1.6-3.2-3.4-5.8-5.4-7.8
		C68,15.3,72.9,18,77.1,21.7z M54.2,12.9c3.9,0.9,7.5,4.4,10.4,10.2c0.8,1.6,1.5,3.2,2.1,5c-4,1.6-8.2,2.6-12.6,2.8V12.9z
		 M67.8,31.7c1.4,5,2.2,10.6,2.3,16.4h-16V34.7C58.9,34.5,63.5,33.4,67.8,31.7L67.8,31.7z M50.5,48.1h-16c0.1-5.8,0.9-11.4,2.3-16.4
		c4.3,1.8,8.9,2.8,13.7,3L50.5,48.1L50.5,48.1z M50.5,12.9v18c-4.4-0.2-8.6-1.2-12.6-2.8c0.6-1.8,1.3-3.4,2.1-5
		C43,17.3,46.6,13.8,50.5,12.9z M42.2,13.7c-2,2-3.8,4.6-5.4,7.8c-0.8,1.6-1.5,3.3-2.2,5.1c-2.5-1.3-4.8-3-7-4.9
		C31.7,18,36.7,15.3,42.2,13.7L42.2,13.7z M24.9,24.3c2.6,2.3,5.5,4.3,8.5,5.9c-1.6,5.5-2.5,11.6-2.6,18h-16
		C15.2,38.9,19,30.6,24.9,24.3z M14.8,51.8h16c0.2,6.4,1.1,12.6,2.6,18.1c-3,1.6-5.9,3.5-8.5,5.8C19,69.4,15.2,61,14.8,51.8z
		 M27.6,78.3c2.2-1.9,4.5-3.5,7-4.8c0.6,1.7,1.3,3.4,2.1,5c1.6,3.2,3.4,5.8,5.4,7.8C36.7,84.6,31.8,81.9,27.6,78.3L27.6,78.3z
		 M50.5,87C46.6,86.1,43,82.5,40,76.7c-0.8-1.5-1.5-3.2-2.1-4.9c3.9-1.6,8.2-2.6,12.5-2.8L50.5,87L50.5,87z M36.8,68.3
		c-1.4-5-2.2-10.6-2.3-16.5h16v13.5C45.7,65.5,41.1,66.5,36.8,68.3L36.8,68.3z M54.2,87V69c4.4,0.2,8.6,1.2,12.5,2.8
		c-0.6,1.7-1.3,3.4-2.1,4.9C61.7,82.5,58,86.1,54.2,87L54.2,87z M62.5,86.1c2-2,3.8-4.6,5.4-7.8c0.8-1.6,1.5-3.2,2.1-5
		c2.5,1.3,4.8,3,7,4.8C72.9,81.9,67.9,84.6,62.5,86.1L62.5,86.1z M79.7,75.7c-2.6-2.3-5.4-4.3-8.5-5.8c1.6-5.5,2.5-11.7,2.6-18.1h16
		C89.4,61,85.7,69.4,79.7,75.7L79.7,75.7z"/>
</g>
</svg>
