<?xml version="1.0" encoding="utf-8"?>
<!-- Generator: Adobe Illustrator 23.0.6, SVG Export Plug-In . SVG Version: 6.00 Build 0)  -->
<svg version="1.1" id="Layer_1" xmlns="http://www.w3.org/2000/svg" xmlns:xlink="http://www.w3.org/1999/xlink" x="0px" y="0px"
	 viewBox="0 0 215 45" style="enable-background:new 0 0 215 45;" xml:space="preserve">
<style type="text/css">
	.st0{fill:#2B318B;}
</style>
<g id="XMLID_1073_">
	<g id="XMLID_1074_">
		<g id="XMLID_1215_">
			<path id="XMLID_1216_" class="st0" d="M16.9,15.2v7.3c-0.6-1.3-1.9-2.5-3.2-3.3H8.2c1.8,1.3,4.6,3.4,4.6,5.1c0,0.8-1,1-1.6,1H7.7
				v4h5.5c1.2,0,3-0.4,3.7-2.3v5.3h5.1V27c0.7,1.9,2.5,2.3,3.7,2.3h5.5v-4h-3.5c-0.6,0-1.6-0.2-1.6-1c0-1.7,2.8-3.8,4.6-5.1h-5.5
				c-1.3,0.8-2.6,2-3.2,3.3v-7.3H16.9z M19.4,12.6c7.5,0,13.7,5.3,13.7,11.7c0,6.5-6.1,11.7-13.7,11.7c-7.5,0-13.7-5.3-13.7-11.7
				C5.7,17.9,11.8,12.6,19.4,12.6"/>
		</g>
		<polygon id="XMLID_1211_" class="st0" points="61.7,15.1 61.5,18.2 65.8,18.2 66,15.1 		"/>
		<g id="XMLID_1150_">
			<path id="XMLID_1164_" class="st0" d="M178.6,30.1c2.1,0,2.3-2,2.4-3.6c-1,0-1.9,0-2.5,0.3c-0.7,0.3-1.2,0.9-1.3,1.7
				C177.2,29.4,177.8,30.1,178.6,30.1 M180.6,30.9L180.6,30.9c-1,0.9-1.9,1.6-3.7,1.6c-2.9,0-4-1.6-4-3.7c0-2.4,2.5-3.9,6.8-3.9h1.4
				c0.1-1.1,0.4-2.8-1.4-2.8c-1.3,0-1.6,1.2-1.6,1.8H174c0.1-1.6,0.8-2.6,2-3.2c1.3-0.6,2.9-0.7,4.2-0.7c2.4,0,5.4,1.2,5.2,4.2
				l-0.3,5.8c0,0.5,0,1,0,2.5h-4.3L180.6,30.9z"/>
		</g>
		<path id="XMLID_1119_" class="st0" d="M200.1,25.7l4.3-5.3h5.2l-4.6,5.1l4.4,6.9h-5.6L200.1,25.7z M195.1,32.3l1.2-17.2h4.5
			l-1.2,17.2H195.1z"/>
		<g id="XMLID_1115_">
			<path id="XMLID_1117_" class="st0" d="M121,22.1L121,22.1c1.2-1.5,2.6-1.7,4-1.7l-0.3,3.8c-0.3,0-0.6,0-0.9,0
				c-3,0-3.1,1.7-3.2,3.7l-0.3,4.5h-4.7l0.6-8.9c0.1-1.1,0.1-1.8,0.1-3.1h4.4L121,22.1z"/>
		</g>
		<polygon id="XMLID_1113_" class="st0" points="125.9,15.1 124.7,32.3 129.1,32.3 130.3,15.1 		"/>
		<g id="XMLID_1098_">
			<path id="XMLID_1109_" class="st0" d="M92.9,26.5C92.8,28,93.2,30,94.8,30c2.1,0,2.6-2.1,2.7-3.7c0.1-1.5-0.2-3.7-2-3.7
				C93.3,22.7,93,24.9,92.9,26.5 M89.3,15.1h4.5L93.3,22h0.1c0.9-1.1,2.2-2,3.8-2c3.7,0,5.1,3.2,4.9,6.2c-0.2,3-1.8,6.3-5.9,6.3
				c-1.4,0-2.7-0.8-3.4-1.6h-0.1l-0.3,1.5h-4.4L89.3,15.1z"/>
			<path id="XMLID_1106_" class="st0" d="M111.4,24.9c0-0.6-0.1-1.3-0.4-1.8c-0.3-0.5-0.8-0.8-1.5-0.8c-1.6,0.1-2,1.2-2.2,2.6H111.4
				z M107,27.1c-0.1,1.7,0.2,3,1.9,3c1.3,0,2.1-0.8,2.1-1.6h4.2c-0.1,1.5-1.1,2.6-2.3,3.3c-1.1,0.7-2.4,0.8-3.7,0.8
				c-4.9,0-6.8-2-6.5-6.6c0.3-3.8,3.3-6,6.9-6c4.8,0.1,6.4,2.9,5.9,7.1H107z"/>
		</g>
		<polygon id="XMLID_1097_" class="st0" points="43.9,15.1 42.6,32.3 47.7,32.3 48.9,15.1 		"/>
		<polygon id="XMLID_1096_" class="st0" points="54.5,15.1 48.5,22.8 53.8,32.3 59.9,32.3 53.9,22.5 60.2,15.1 		"/>
		<polygon id="XMLID_1095_" class="st0" points="61.3,20.3 60.5,32.3 64.8,32.3 65.6,20.3 		"/>
		<g id="XMLID_1082_">
			<path id="XMLID_1083_" class="st0" d="M71.1,20.3V22h0c1.3-1.7,3.2-1.9,4.3-1.9c1.6,0,3.3,0.9,3.7,2.1c0.9-1.4,2.6-2.1,4.4-2.2
				c2.6,0,4.4,1.7,4.3,4.3l-0.6,8h-4.6l0.5-7.1c0.1-1.1,0-2.4-1.5-2.4c-2.2,0-2.1,2.5-2.1,2.6l-0.5,6.9h-4.6l0.5-7.1
				c0-1.2-0.1-2.4-1.6-2.4c-2.3,0-2.3,2.5-2.3,2.6l-0.5,6.9h-4.8l0.8-12H71.1z"/>
		</g>
		<polygon id="XMLID_1081_" class="st0" points="136.2,38.1 132,38.1 134.7,32.5 130.3,20.3 135.4,20.3 137.4,27.8 140.6,20.3 
			144.8,20.3 		"/>
		<polygon id="XMLID_1080_" class="st0" points="145.2,22.8 143.4,26.5 149.2,26.5 151,22.8 		"/>
		<g id="XMLID_1078_">
			<path id="XMLID_1079_" class="st0" d="M160.4,14.7c3.6,0,7.2,1.5,7,5.9h-4.9c0-1.1-0.7-2.4-2.3-2.4c-1.7,0-3.6,1.2-4,4.8
				c-0.3,3.6,0.1,6.3,3,6.3c2.5,0,3-2.2,3.1-2.6h4.9c0,1.9-1.6,5.9-8.2,5.9c-7,0-8.2-5-7.6-9.7C151.9,18.8,154.7,14.7,160.4,14.7"/>
		</g>
		<polygon id="XMLID_1077_" class="st0" points="168.7,15.1 167.5,32.3 171.9,32.3 173.1,15.1 		"/>
		<g id="XMLID_1075_">
			<path id="XMLID_1076_" class="st0" d="M191.2,22.1L191.2,22.1c1.2-1.5,2.6-1.7,4.1-1.7l-0.3,3.8c-0.3,0-0.6,0-1,0
				c-3,0-3.1,1.7-3.2,3.7l-0.3,4.5h-4.7l0.6-8.9c0.1-1.1,0.1-1.8,0.1-3.1h4.4L191.2,22.1z"/>
		</g>
	</g>
</g>
</svg>
