<?xml version="1.0" encoding="utf-8"?>
<!-- Generator: Adobe Illustrator 23.0.6, SVG Export Plug-In . SVG Version: 6.00 Build 0)  -->
<svg version="1.1" id="Layer_1" xmlns="http://www.w3.org/2000/svg" xmlns:xlink="http://www.w3.org/1999/xlink" x="0px" y="0px"
	 viewBox="0 0 2500 1448" style="enable-background:new 0 0 2500 1448;" xml:space="preserve">
<style type="text/css">
	.st0{fill:#252525;}
	.st1{font-family:'Gilroy-Regular';}
	.st2{font-size:44.8369px;}
	.st3{fill:#231F20;}
	.st4{font-family:'Gilroy-Bold';}
	.st5{fill:#56BE92;}
	.st6{fill:none;stroke:#252525;stroke-width:2;stroke-miterlimit:10;}
	.st7{fill:none;stroke:#252525;stroke-miterlimit:10;}
	.st8{fill:none;stroke:#252525;stroke-miterlimit:10;stroke-dasharray:2.9953,2.9953;}
	.st9{fill:none;stroke:#56BE92;stroke-miterlimit:10;stroke-dasharray:3;}
	.st10{fill:none;}
	.st11{fill:#EC3246;}
	.st12{font-size:71.792px;}
	.st13{fill:none;stroke:#EC3246;stroke-miterlimit:10;}
	.st14{fill:#FFFFFF;}
	.st15{font-size:40.4656px;}
</style>
<g id="XMLID_2989_">
	<text id="XMLID_3844_" transform="matrix(1 0 0 1 545.0781 234.313)"><tspan x="0" y="0" class="st0 st1 st2">Banco desembolsa</tspan><tspan x="66.9" y="41.8" class="st0 st1 st2">al proveedor</tspan><tspan x="138.6" y="83.7" class="st3 st4 st2">día 15</tspan></text>
	<text id="XMLID_3843_" transform="matrix(1 0 0 1 238.5566 234.313)"><tspan x="0" y="0" class="st0 st1 st2">Proveedor</tspan><tspan x="10.5" y="41.8" class="st0 st1 st2">factura a</tspan><tspan x="65" y="83.7" class="st0 st1 st2">K-C</tspan></text>
	<text id="XMLID_3842_" transform="matrix(1 0 0 1 174.9795 847.4512)"><tspan x="0" y="0" class="st0 st1 st2">Cliente radica la</tspan><tspan x="-33.2" y="41.8" class="st0 st1 st2">factura en el banco</tspan><tspan x="-42.8" y="83.7" class="st0 st1 st2">desde el momento 0</tspan></text>
	<g id="XMLID_3839_">
		<text transform="matrix(1 0 0 1 482.605 633.9097)" class="st3 st4 st2">PLAZO PROVEEDOR</text>
	</g>
	<g id="XMLID_3836_">
		<text transform="matrix(1 0 0 1 1161.0396 633.9097)"><tspan x="0" y="0" class="st3 st4 st2">PLAZO ADICIONAL</tspan><tspan x="75.5" y="41.8" class="st3 st4 st2">SIN COSTO</tspan></text>
	</g>
	<g id="XMLID_3835_">
		<text transform="matrix(1 0 0 1 1351.9268 810)" class="st5 st1 st2">Plazo adicional otorgado por el banco</text>
	</g>
	<text id="XMLID_3834_" transform="matrix(1 0 0 1 823.2148 472.1284)" class="st5 st1 st2">Costo asumido por el proveedor</text>
	<text id="XMLID_3833_" transform="matrix(1 0 0 1 1714.8105 472.1284)" class="st5 st1 st2">i de mora con Banco</text>
	<g id="XMLID_3830_">
		<text transform="matrix(1 0 0 1 1765.8564 633.9097)"><tspan x="0" y="0" class="st3 st4 st2">PLAZO ADICIONAL</tspan><tspan x="60.6" y="41.8" class="st3 st4 st2">CON COSTO</tspan></text>
	</g>
	<text id="XMLID_3829_" transform="matrix(1 0 0 1 1456.8154 243.9673)"><tspan x="0" y="0" class="st0 st1 st2">Vencimiento neto al</tspan><tspan x="81.2" y="41.8" class="st3 st4 st2">día 80 (+20)</tspan></text>
	<text id="XMLID_3828_" transform="matrix(1 0 0 1 782.6069 847.4512)"><tspan x="0" y="0" class="st0 st1 st2">Fecha de vencimiento</tspan><tspan x="94.1" y="41.8" class="st0 st1 st2">de la factura</tspan><tspan x="161.9" y="83.7" class="st3 st4 st2">día 60</tspan></text>
	<text id="XMLID_3827_" transform="matrix(1 0 0 1 2061.0547 214.8091)"><tspan x="0" y="0" class="st0 st1 st2">Vencimiento</tspan><tspan x="29.5" y="41.8" class="st0 st1 st2">con mora</tspan><tspan x="-34.6" y="83.7" class="st0 st1 st2">(asume el costo</tspan><tspan x="80.1" y="125.5" class="st0 st1 st2">K-C)</tspan></text>
	<line id="XMLID_3826_" class="st6" x1="344.9" y1="543.7" x2="2218" y2="543.7"/>
	<g id="XMLID_3817_">
		<g id="XMLID_3820_">
			<g>
				<line class="st7" x1="2218" y1="543.7" x2="2218" y2="542.2"/>
				<line class="st8" x1="2218" y1="539.2" x2="2218" y2="373"/>
				<line class="st7" x1="2218" y1="371.5" x2="2218" y2="370"/>
			</g>
		</g>
		<polygon id="Arrow_119_" class="st0" points="2218.7,352.2 2240.1,387.8 2218.2,379.1 2196,387 		"/>
	</g>
	<g id="XMLID_3808_">
		<g id="XMLID_3811_">
			<g>
				<line class="st7" x1="1639.9" y1="543.7" x2="1639.9" y2="542.2"/>
				<line class="st8" x1="1639.9" y1="539.2" x2="1639.9" y2="373"/>
				<line class="st7" x1="1639.9" y1="371.5" x2="1639.9" y2="370"/>
			</g>
		</g>
		<polygon id="Arrow_118_" class="st0" points="1640.5,352.2 1661.9,387.8 1640.1,379.1 1617.9,387 		"/>
	</g>
	<g id="XMLID_3799_">
		<g id="XMLID_3802_">
			<g>
				<line class="st7" x1="721.8" y1="543.7" x2="721.8" y2="542.2"/>
				<line class="st8" x1="721.8" y1="539.2" x2="721.8" y2="373"/>
				<line class="st7" x1="721.8" y1="371.5" x2="721.8" y2="370"/>
			</g>
		</g>
		<polygon id="Arrow_117_" class="st0" points="722.4,352.2 743.8,387.8 722,379.1 699.8,387 		"/>
	</g>
	<g id="XMLID_3790_">
		<g id="XMLID_3793_">
			<g>
				<line class="st7" x1="342.4" y1="543.7" x2="342.4" y2="542.2"/>
				<line class="st8" x1="342.4" y1="539.2" x2="342.4" y2="373"/>
				<line class="st7" x1="342.4" y1="371.5" x2="342.4" y2="370"/>
			</g>
		</g>
		<polygon id="Arrow_116_" class="st0" points="343,352.2 364.5,387.8 342.6,379.1 320.4,387 		"/>
	</g>
	<g id="XMLID_3781_">
		<g id="XMLID_3784_">
			<g>
				<line class="st7" x1="342.4" y1="545" x2="342.4" y2="546.5"/>
				<line class="st8" x1="342.4" y1="549.5" x2="342.4" y2="715.8"/>
				<line class="st7" x1="342.4" y1="717.2" x2="342.4" y2="718.7"/>
			</g>
		</g>
		<polygon id="Arrow_115_" class="st0" points="341.8,736.6 320.4,700.9 342.3,709.7 364.5,701.7 		"/>
	</g>
	<g id="XMLID_3766_">
		<g id="XMLID_3769_">
			<g>
				<line class="st7" x1="988.2" y1="545" x2="988.2" y2="546.5"/>
				<line class="st8" x1="988.2" y1="549.5" x2="988.2" y2="715.8"/>
				<line class="st7" x1="988.2" y1="717.2" x2="988.2" y2="718.7"/>
			</g>
		</g>
		<polygon id="Arrow_114_" class="st0" points="987.6,736.6 966.1,700.9 988,709.7 1010.2,701.7 		"/>
	</g>
	<g id="XMLID_3758_">
		<line id="XMLID_3763_" class="st9" x1="1213.3" y1="746.5" x2="2188.5" y2="746.5"/>
		<polygon id="Arrow_113_" class="st5" points="2188.5,744.1 2152.9,765.5 2161.6,743.6 2153.7,721.4 		"/>
		<polygon id="Arrow_112_" class="st5" points="1207.6,743.1 1243.3,721.9 1234.5,743.5 1242.3,765.5 		"/>
	</g>
	<g id="XMLID_3750_">
		<line id="XMLID_3755_" class="st9" x1="758.6" y1="497.2" x2="1614.8" y2="497.2"/>
		<polygon id="Arrow_111_" class="st5" points="1614.8,494.8 1579.2,516.2 1587.9,494.3 1579.9,472.1 		"/>
		<polygon id="Arrow_110_" class="st5" points="752.9,493.8 788.6,472.6 779.8,494.3 787.6,516.2 		"/>
	</g>
	<g id="XMLID_3742_">
		<line id="XMLID_3747_" class="st9" x1="1670.2" y1="497.2" x2="2205.1" y2="497.2"/>
		<polygon id="Arrow_109_" class="st5" points="2205.1,494.8 2169.5,516.2 2178.2,494.3 2170.2,472.1 		"/>
		<polygon id="Arrow_108_" class="st5" points="1664.5,493.8 1700.2,472.6 1691.4,494.3 1699.2,516.2 		"/>
	</g>
	<g id="XMLID_3715_">
		<g>
			<g id="XMLID_111_">
				<path id="XMLID_112_" class="st3" d="M637.6,509.7c-33.8,0-54-15.4-54-41.3c0-25.9,29.6-56.9,42.3-69l4.4,4.6
					C605.1,428,590,452.1,590,468.3c0,31.5,33.3,35,47.7,35c14.3,0,47.7-3.4,47.7-35c0-23.9-19.9-45-40.3-64.4l4.4-4.6
					c21.4,20.4,42.3,42.6,42.3,69C691.7,494.2,671.5,509.7,637.6,509.7z"/>
			</g>
			<g id="XMLID_109_">
				<path id="XMLID_110_" class="st3" d="M640.8,477.9h-6.4c-5.3,0-9.5-4.3-9.5-9.5v-3.2h6.4v3.2c0,1.8,1.4,3.2,3.2,3.2h6.4
					c1.8,0,3.2-1.4,3.2-3.2v-5c0-1.4-0.9-2.6-2.2-3l-10.4-3.5c-3.9-1.3-6.5-4.9-6.5-9v-5c0-5.3,4.3-9.5,9.5-9.5h6.4
					c5.3,0,9.5,4.3,9.5,9.5v3.2H644v-3.2c0-1.8-1.4-3.2-3.2-3.2h-6.4c-1.8,0-3.2,1.4-3.2,3.2v5c0,1.4,0.9,2.6,2.2,3l10.4,3.5
					c3.9,1.3,6.5,4.9,6.5,9v5C650.3,473.6,646.1,477.9,640.8,477.9z"/>
			</g>
			<g id="XMLID_107_">
				<rect id="XMLID_108_" x="634.5" y="427" class="st3" width="6.4" height="9.5"/>
			</g>
			<g id="XMLID_105_">
				<rect id="XMLID_106_" x="634.5" y="474.7" class="st3" width="6.4" height="9.5"/>
			</g>
			<g id="XMLID_101_">
				<path id="XMLID_102_" class="st3" d="M637.6,408c-3,0-10-1.4-12.2-4.6l-0.2-0.3c-15.1-29.1-14.7-29.8-13.8-31.5
					c6.2-12,19.7-8.4,27-6.4c11.3,3.1,16.2,2.8,18.8,2.7l3.8-0.2l0.2,3.1c0.2,3.8-6.9,21.7-11.2,32l-0.2,0.4
					C647.8,406.8,640.6,408,637.6,408z M630.8,399.8c0.8,0.6,4.4,1.8,6.9,1.8c2.5,0,5.9-1,6.8-1.7c4-9.6,8.1-20.3,9.8-25.6
					c-3.4-0.1-8.8-0.6-17.4-3c-9.4-2.6-15.7-3-19.1,2.1C619.2,377.1,625.2,389,630.8,399.8z"/>
			</g>
		</g>
	</g>
	<g id="XMLID_3656_">
		<g>
			<g id="XMLID_252_">
				<path id="XMLID_253_" class="st3" d="M2301.4,533c-0.6,0-1.2-0.2-1.7-0.5l-47.6-32.7c-1.4-0.9-1.7-2.8-0.8-4.1
					c0.9-1.4,2.8-1.7,4.1-0.8l46,31.6l31.1-19.7c1.4-0.9,3.2-0.5,4.1,0.9s0.5,3.2-0.9,4.1l-32.7,20.7
					C2302.5,532.8,2302,533,2301.4,533z"/>
			</g>
			<g id="XMLID_250_">
				<rect id="XMLID_251_" x="2340.1" y="440.7" class="st3" width="6" height="6"/>
			</g>
			<g id="XMLID_248_">
				<rect id="XMLID_249_" x="2298.4" y="467.5" class="st3" width="6" height="6"/>
			</g>
			<g id="XMLID_244_">
				<path id="XMLID_245_" class="st3" d="M2334.1,530.6c-0.5,0-1-0.1-1.4-0.4c-1-0.5-1.6-1.5-1.6-2.6v-46.8l-47.7-32.2
					c-0.8-0.6-1.3-1.5-1.3-2.5c0-1,0.6-1.9,1.4-2.5l22.1-13.3c1-0.6,2.2-0.6,3.1,0l50.8,31.9c0.9,0.5,1.4,1.5,1.4,2.5v47.6
					c0,1-0.5,2-1.4,2.5l-23.8,15.4C2335.3,530.4,2334.7,530.6,2334.1,530.6z M2290.7,446.2l45.2,30.5c0.8,0.6,1.3,1.5,1.3,2.5v43
					l17.9-11.5v-44.4l-47.8-30L2290.7,446.2z"/>
			</g>
			<g id="XMLID_242_">
				<path id="XMLID_243_" class="st3" d="M2349.7,461l-3.2-5l14.1-8.9c-0.4-0.9-0.6-1.8-0.6-2.3c0-0.7,0.1-1.5,0.5-2.3l-14.3-9
					c-2.9,1.2-6.2,1.2-9.1,0l-15.7,9.9l-3.2-5l18.7-11.8l1.6,1c1.4,0.9,3.9,1.4,6.2,0l1.6-1l24.3,15.4l-4,2.5
					c-0.3,0.2-0.5,0.3-0.6,0.4c0.1,0.1,0.3,0.3,0.6,0.5l4,2.5L2349.7,461z"/>
			</g>
			<g id="XMLID_240_">
				<path id="XMLID_241_" class="st3" d="M2307.4,487.7l-1.6-1c-2.3-1.4-4.7-1-6.2,0l-1.6,1l-24.3-15.4l4-2.5
					c0.3-0.2,0.4-0.3,0.6-0.4c-0.1-0.1-0.3-0.3-0.6-0.4l-4-2.5l22.6-14.3l3.2,5l-15.6,9.9c0.4,0.9,0.5,1.7,0.5,2.3
					c0,0.6-0.1,1.4-0.5,2.3l14.3,9.1c2.9-1.2,6.1-1.2,9,0l16.2-10.3l3.2,5L2307.4,487.7z"/>
			</g>
			<g id="XMLID_238_">
				<path id="XMLID_239_" class="st3" d="M2301.4,503.2c-0.5,0-1.1-0.2-1.6-0.5l-47.6-29.8c-0.9-0.5-1.4-1.5-1.4-2.5
					c0-1,0.5-2,1.4-2.5l35.2-21.8c1.4-0.9,3.2-0.4,4.1,1c0.9,1.4,0.4,3.2-1,4.1l-31.1,19.3l42,26.2l31.2-19.7
					c1.4-0.9,3.2-0.5,4.1,0.9s0.5,3.2-0.9,4.1l-32.7,20.7C2302.5,503,2302,503.2,2301.4,503.2z"/>
			</g>
			<g id="XMLID_236_">
				<path id="XMLID_237_" class="st3" d="M2357.8,467.5c-1,0-2-0.5-2.5-1.4c-0.9-1.4-0.5-3.2,0.9-4.1l28.9-18.3l-42-26.3l-31,19.9
					c-1.4,0.9-3.2,0.5-4.1-0.9c-0.9-1.4-0.5-3.2,0.9-4.1l32.6-20.9c1-0.6,2.2-0.6,3.2,0l47.6,29.8c0.9,0.5,1.4,1.5,1.4,2.5
					s-0.5,2-1.4,2.5l-32.9,20.8C2358.9,467.3,2358.3,467.5,2357.8,467.5z"/>
			</g>
			<g id="XMLID_234_">
				<path id="XMLID_235_" class="st3" d="M2301.4,518.1c-0.6,0-1.2-0.2-1.7-0.5l-47.6-32.7c-1.4-0.9-1.7-2.8-0.8-4.1
					c0.9-1.4,2.8-1.7,4.1-0.8l46,31.6l31.1-19.6c1.4-0.9,3.2-0.5,4.1,0.9c0.9,1.4,0.5,3.2-0.9,4.1l-32.7,20.7
					C2302.5,517.9,2301.9,518.1,2301.4,518.1z"/>
			</g>
			<g id="XMLID_232_">
				<path id="XMLID_233_" class="st3" d="M2358,482.2c-1,0-2-0.5-2.5-1.4c-0.9-1.4-0.5-3.2,0.9-4.1l32.7-20.7
					c1.4-0.9,3.2-0.5,4.1,0.9s0.5,3.2-0.9,4.1l-32.7,20.7C2359.1,482.1,2358.5,482.2,2358,482.2z"/>
			</g>
			<g id="XMLID_230_">
				<path id="XMLID_231_" class="st3" d="M2301.4,547.8c-0.6,0-1.2-0.2-1.7-0.5l-47.6-32.7c-1.4-0.9-1.7-2.8-0.8-4.1
					c0.9-1.4,2.8-1.7,4.1-0.8l46,31.6l31.1-19.7c1.4-0.9,3.2-0.5,4.1,0.9s0.5,3.2-0.9,4.1l-32.7,20.7
					C2302.5,547.7,2302,547.8,2301.4,547.8z"/>
			</g>
			<g id="XMLID_228_">
				<path id="XMLID_229_" class="st3" d="M2358,512c-1,0-2-0.5-2.5-1.4c-0.9-1.4-0.5-3.2,0.9-4.1l32.7-20.7c1.4-0.9,3.2-0.5,4.1,0.9
					c0.9,1.4,0.5,3.2-0.9,4.1l-32.7,20.7C2359.1,511.9,2358.5,512,2358,512z"/>
			</g>
			<g id="XMLID_226_">
				<path id="XMLID_227_" class="st3" d="M2358,497.1c-1,0-2-0.5-2.5-1.4c-0.9-1.4-0.5-3.2,0.9-4.1l32.7-20.7
					c1.4-0.9,3.2-0.5,4.1,0.9c0.9,1.4,0.5,3.2-0.9,4.1l-32.7,20.7C2359.1,497,2358.5,497.1,2358,497.1z"/>
			</g>
		</g>
	</g>
	<g id="XMLID_3638_">
		<path id="XMLID_3655_" d="M381.7,975.4c0.1,0,0.1,0,0.2,0c0.1,0,0.2,0,0.3,0c2.7,0.1,4.9,2.3,4.9,5c0,1.2,1,2.2,2.2,2.2
			s2.2-1,2.2-2.2c0-4.5-3.1-8.3-7.5-9.3V969c0-1.2-1-2.2-2.2-2.2s-2.2,1-2.2,2.2v2.3c-4.6,1.2-7.6,5.7-7,10.4s4.6,8.3,9.4,8.3
			c2.8,0,5,2.2,5,5c0,2.8-2.2,5-5,5s-5-2.2-5-5c0-1.2-1-2.2-2.2-2.2s-2.2,1-2.2,2.2c0,4.3,2.9,8.1,7,9.2v2.5c0,1.2,1,2.2,2.2,2.2
			s2.2-1,2.2-2.2v-2.4c4.7-1,7.9-5.5,7.4-10.3c-0.5-4.8-4.6-8.5-9.4-8.5c-2.7,0-4.9-2.1-5-4.8C377,977.9,379.1,975.6,381.7,975.4
			L381.7,975.4z"/>
		<path id="XMLID_3650_" d="M382.3,955.8c-13.8,0-25.6,9-30,21h-55.6c-1.2,0-2.2,1.1-2.2,2.3l-0.5,78.6H278c-1.2,0-2.3,0.9-2.3,2.1
			v10c0,9.4,7.4,17.1,16.8,17.5v0h69.2v-0.1c0.6,0,0.8,0.1,1.1,0.1h0c9.7,0,17.6-7.9,17.6-17.6v-50.4c0.6,0,1.2,0,1.7,0
			c17.5,0,31.8-14.3,31.8-31.8C414.1,970.1,399.8,955.8,382.3,955.8z M293.4,1083L293.4,1083c-7.3,0-13.1-5.9-13.2-13.1v-7.6h65v7.6
			c0,4.7,1.9,9.2,5.2,12.5c0.2,0.2,0.5,0.4,0.8,0.7H293.4z M376,1069.9c0,7.2-5.9,13.1-13.1,13.1h0c-7.3,0-13.2-5.9-13.2-13.2v-9.9
			c0-0.6-0.2-1.1-0.6-1.5c-0.4-0.4-1-0.6-1.5-0.6h-49.2l0.5-76.5h52.2c-0.4,2.1-0.6,4.1-0.6,6.2c0,4.4,0.9,8.8,2.7,12.8H332
			c-1.2,0-2.2,1-2.2,2.2s1,2.2,2.2,2.2h23.6c4.6,7.3,12,12.3,20.5,14V1069.9z M382.3,1015c-15.1,0-27.3-12.2-27.3-27.3
			c0-15.1,12.2-27.3,27.3-27.3c15.1,0,27.3,12.2,27.3,27.3C409.6,1002.8,397.3,1015,382.3,1015z"/>
		<path id="XMLID_3647_" d="M317.6,1015.3c-4,0-7.2,3.1-7.2,6.9s3.2,6.9,7.2,6.9s7.2-3.1,7.2-6.9S321.5,1015.3,317.6,1015.3z
			 M317.6,1024.7c-1.5,0-2.7-1.1-2.7-2.5c0-1.4,1.2-2.5,2.7-2.5c1.5,0,2.7,1.1,2.7,2.5S319.1,1024.7,317.6,1024.7z"/>
		<path id="XMLID_3646_" d="M329.7,1022.2c0,1.2,1,2.2,2.2,2.2h29.9c1.2,0,2.2-1,2.2-2.2s-1-2.2-2.2-2.2H332
			C330.7,1020,329.7,1021,329.7,1022.2z"/>
		<path id="XMLID_3643_" d="M317.6,995.8c-4,0-7.2,3.1-7.2,6.9c0,3.8,3.2,6.9,7.2,6.9s7.2-3.1,7.2-6.9
			C324.8,998.9,321.5,995.8,317.6,995.8z M317.6,1005.2c-1.5,0-2.7-1.1-2.7-2.5s1.2-2.5,2.7-2.5c1.5,0,2.7,1.1,2.7,2.5
			C320.3,1004.1,319.1,1005.2,317.6,1005.2L317.6,1005.2z"/>
		<path id="XMLID_3640_" d="M317.6,1034.8c-4,0-7.2,3.1-7.2,6.9c0,3.8,3.2,6.9,7.2,6.9s7.2-3.1,7.2-6.9
			C324.8,1037.9,321.5,1034.8,317.6,1034.8z M317.6,1044.2c-1.5,0-2.7-1.1-2.7-2.5c0-1.4,1.2-2.5,2.7-2.5c1.5,0,2.7,1.1,2.7,2.5
			C320.3,1043.1,319.1,1044.2,317.6,1044.2z"/>
		<path id="XMLID_3639_" d="M361.9,1039.6H332c-1.2,0-2.2,1-2.2,2.2c0,1.2,1,2.2,2.2,2.2h29.9c1.2,0,2.2-1,2.2-2.2
			C364.1,1040.6,363.1,1039.6,361.9,1039.6z"/>
	</g>
</g>
<rect id="XMLID_7_" x="275.7" y="29.5" class="st10" width="1981.9" height="114.6"/>
<text id="XMLID_3633_" transform="matrix(1 0 0 1 885.8926 79.748)" class="st11 st4 st12">Factoring proveedores</text>
<polyline id="XMLID_257_" class="st13" points="1695.1,47.7 2461.5,47.7 2461.5,1264.8 29.6,1264.8 29.6,47.7 835.9,47.7 "/>
<rect id="XMLID_5503_" x="1071.7" y="767.4" transform="matrix(-3.234830e-05 1 -1 -3.234830e-05 2487.7444 -3.4231)" class="st14" width="347.7" height="949.4"/>
<g id="XMLID_5500_">
	<text transform="matrix(1 0 0 1 984.7061 1168.2578)"><tspan x="0" y="0" class="st3 st4 st15">Banco gana tasa de interés</tspan><tspan x="-125" y="51.8" class="st3 st4 st15">K-C gana al recibir mayor plazo de pago</tspan><tspan x="-91.4" y="103.6" class="st3 st4 st15">Proveedor gana al recibir de manera </tspan><tspan x="-55.4" y="155.4" class="st3 st4 st15">anticipada, el pago de su factura</tspan></text>
</g>
</svg>
