<?xml version="1.0" encoding="utf-8"?>
<!-- Generator: Adobe Illustrator 23.0.6, SVG Export Plug-In . SVG Version: 6.00 Build 0)  -->
<svg version="1.1" id="Layer_1" xmlns="http://www.w3.org/2000/svg" xmlns:xlink="http://www.w3.org/1999/xlink" x="0px" y="0px"
	 viewBox="0 0 116 100" style="enable-background:new 0 0 116 100;" xml:space="preserve">
<style type="text/css">
	.st0{fill:#FFFFFF;}
	.st1{fill:#2B318B;}
	.st2{font-family:'Gilroy-Regular';}
	.st3{font-size:12.0158px;}
</style>
<path id="XMLID_2849_" class="st0" d="M58.4,4.1c29.5,0,53.4,20.5,53.4,45.8c0,25.3-23.9,45.9-53.4,45.9C28.9,95.7,5,75.2,4.9,49.9
	C4.9,24.6,28.9,4.1,58.4,4.1"/>
<text id="XMLID_2842_" transform="matrix(1 0 0 1 23.4409 72.932)" class="st1 st2 st3">Manufactura</text>
<g id="XMLID_2632_">
	<path id="XMLID_2687_" class="st1" d="M81.4,30.7h-2.6c-0.3-1.1-1.3-1.9-2.5-1.9h-2.8v-6.9c0-0.3-0.1-0.5-0.4-0.6L53.2,9.8
		c-0.2-0.1-0.5-0.1-0.7,0L32.5,21.3c-0.2,0.1-0.4,0.4-0.4,0.6v23c0,0.3,0.1,0.5,0.4,0.6l19.9,11.5c0.1,0.1,0.2,0.1,0.4,0.1
		c0.1,0,0.3,0,0.4-0.1l10.5-6v4.4c0,1.7,1.4,3.2,3.1,3.2c0,0,0,0,0,0h14.6c1.7,0,3.2-1.4,3.2-3.1c0,0,0,0,0,0V33.9
		C84.6,32.2,83.2,30.7,81.4,30.7z M76.3,30.3c0.6,0,1.1,0.5,1.1,1.1l0,0v0.1c0,0.6-0.5,1.1-1.1,1.1l0,0H72c-0.6,0-1.1-0.5-1.1-1.1
		l0,0v-0.1c0-0.6,0.5-1.1,1.1-1.1l0,0H76.3z M52.8,11.3l8.3,4.8L42.7,26.7l-8.3-4.8L52.8,11.3z M52.1,55.1L33.6,44.5V23.2l18.5,10.6
		V55.1z M52.8,32.6l-8.7-5l18.4-10.6l8.7,5L52.8,32.6z M63.7,33.9v15.4l-10.1,5.8V33.8L72,23.2v5.6h0c-1.2,0-2.2,0.8-2.5,1.9h-2.6
		C65.1,30.7,63.7,32.2,63.7,33.9z M83.1,55.4c0,0.9-0.8,1.7-1.7,1.7c0,0,0,0,0,0H66.9c-0.9,0-1.7-0.7-1.7-1.6c0,0,0,0,0,0V33.9
		c0-0.9,0.7-1.7,1.7-1.7c0,0,0,0,0,0h2.7c0.3,1.1,1.3,1.8,2.5,1.8h4.3c1.1,0,2.1-0.7,2.5-1.8h2.7c0.9,0,1.7,0.8,1.7,1.7V55.4z"/>
	<path id="XMLID_2432_" class="st1" d="M67.7,41.5h0.8c0.4,0,0.7-0.3,0.7-0.7c0-0.4-0.3-0.7-0.7-0.7h0v-2h2.1
		c0.1,0.3,0.4,0.5,0.7,0.5c0.4,0,0.7-0.3,0.7-0.7v-0.5c0-0.4-0.3-0.7-0.8-0.7h-3.5c-0.4,0-0.7,0.3-0.7,0.7l0,0v3.5
		C67,41.1,67.3,41.5,67.7,41.5C67.7,41.5,67.7,41.5,67.7,41.5z"/>
	<path id="XMLID_2661_" class="st1" d="M67.7,48.3h3.5c0.4,0,0.7-0.3,0.7-0.7V44c0-0.4-0.3-0.7-0.7-0.7h-3.5c-0.4,0-0.7,0.3-0.7,0.7
		v3.5C67,47.9,67.3,48.3,67.7,48.3z M68.5,44.7h2v2h-2V44.7z"/>
	<path id="XMLID_1791_" class="st1" d="M68.5,53.6L68.5,53.6l0-2h2c0,0.4,0.3,0.7,0.8,0.7c0.4,0,0.7-0.3,0.7-0.7v-0.7
		c0-0.4-0.3-0.8-0.8-0.8h-3.5c-0.4,0-0.7,0.4-0.7,0.8v3.5c0,0.4,0.3,0.7,0.7,0.7c0,0,0,0,0,0h0.8c0.4,0,0.7-0.3,0.7-0.7
		C69.2,53.9,68.9,53.6,68.5,53.6L68.5,53.6z"/>
	<path id="XMLID_1786_" class="st1" d="M72.9,37.4l-2.2,2.2l-0.7-0.7c-0.3-0.3-0.8-0.3-1.1,0c-0.3,0.3-0.3,0.8,0,1.1l1.2,1.2
		c0.3,0.3,0.8,0.3,1.1,0l0,0l2.7-2.7c0.3-0.3,0.3-0.8,0-1.1C73.7,37.1,73.2,37.1,72.9,37.4L72.9,37.4z"/>
	<path id="XMLID_1777_" class="st1" d="M72.9,51.1l-2.2,2.2l-0.7-0.7c-0.3-0.3-0.8-0.3-1.1,0s-0.3,0.8,0,1.1l1.2,1.2
		c0.3,0.3,0.8,0.3,1.1,0l0,0l2.7-2.7c0.3-0.3,0.3-0.8,0-1.1C73.7,50.8,73.2,50.8,72.9,51.1L72.9,51.1z"/>
	<path id="XMLID_1773_" class="st1" d="M80.6,38.3h-4.7c-0.4,0-0.7,0.3-0.7,0.7c0,0.4,0.3,0.7,0.7,0.7h4.7c0.4,0,0.7-0.3,0.7-0.7
		C81.3,38.6,81,38.3,80.6,38.3z"/>
	<path id="XMLID_1770_" class="st1" d="M80.6,45.1h-4.7c-0.4,0-0.7,0.3-0.7,0.7c0,0.4,0.3,0.7,0.7,0.7h4.7c0.4,0,0.7-0.3,0.7-0.7
		C81.3,45.4,81,45.1,80.6,45.1z"/>
	<path id="XMLID_1752_" class="st1" d="M80.6,51.9h-4.7c-0.4,0-0.7,0.3-0.7,0.7c0,0.4,0.3,0.7,0.7,0.7h4.7c0.4,0,0.7-0.3,0.7-0.7
		C81.3,52.2,81,51.9,80.6,51.9z"/>
</g>
</svg>
