<?xml version="1.0" encoding="utf-8"?>
<!-- Generator: Adobe Illustrator 23.0.6, SVG Export Plug-In . SVG Version: 6.00 Build 0)  -->
<svg version="1.1" id="Layer_1" xmlns="http://www.w3.org/2000/svg" xmlns:xlink="http://www.w3.org/1999/xlink" x="0px" y="0px"
	 viewBox="0 0 116 100" style="enable-background:new 0 0 116 100;" xml:space="preserve">
<style type="text/css">
	.st0{fill:#FFFFFF;}
</style>
<g id="XMLID_3266_">
	<g id="XMLID_3267_">
		<path id="XMLID_3277_" class="st0" d="M73.4,52.7h-9.7c-2.7,0-4.8,2.2-4.8,4.8V65c0,2.7,2.2,4.8,4.8,4.8h9.7
			c2.7,0,4.8-2.2,4.8-4.8v-7.4C78.2,54.9,76.1,52.7,73.4,52.7z M74.7,65c0,0.7-0.6,1.3-1.3,1.3h-9.7c-0.7,0-1.3-0.6-1.3-1.3v-7.4
			c0-0.7,0.6-1.3,1.3-1.3h9.7c0.7,0,1.3,0.6,1.3,1.3V65z"/>
		<path id="XMLID_3268_" class="st0" d="M94.1,39.2c0-0.3-0.1-0.6-0.2-0.9L83.2,19.7c-0.3-0.5-0.9-0.9-1.5-0.9H35
			c-0.6,0-1.2,0.3-1.5,0.9L22.9,38.3c-0.1,0.3-0.2,0.6-0.2,0.9c0,4.2,2.5,7.8,6.1,9.4v30.8c0,1,0.8,1.8,1.8,1.8h9.7c0,0,0,0,0,0
			h13.6c0,0,0,0,0,0h32.3c1,0,1.8-0.8,1.8-1.8V48.8c0-0.1,0-0.1,0-0.2C91.5,47,94.1,43.4,94.1,39.2z M36.1,22.3h44.6L89,36.9H27.8
			L36.1,22.3z M73.5,40.4c-0.6,3.2-3.3,5.5-6.6,5.5c-3.3,0-6.1-2.4-6.6-5.5H73.5z M56.5,40.4c-0.6,3.2-3.3,5.5-6.6,5.5
			s-6.1-2.4-6.6-5.5H56.5z M26.3,40.4h13.3c-0.6,3.2-3.3,5.5-6.6,5.5C29.6,45.9,26.9,43.5,26.3,40.4z M52.1,77.6H42V58.7
			c0-1.4,1.1-2.5,2.5-2.5h5.1c1.4,0,2.5,1.1,2.5,2.5L52.1,77.6L52.1,77.6z M84.4,77.6H55.6V58.7c0-3.3-2.7-6-6-6h-5.1
			c-3.3,0-6,2.7-6,6v18.9h-6.2V49.4c0.2,0,0.4,0,0.6,0c3.5,0,6.7-1.8,8.5-4.5c1.8,2.7,5,4.5,8.5,4.5s6.6-1.8,8.5-4.5
			c1.8,2.7,5,4.5,8.5,4.5c3.5,0,6.6-1.8,8.5-4.5c1.8,2.7,5,4.5,8.5,4.5c0.2,0,0.4,0,0.6,0L84.4,77.6L84.4,77.6z M83.8,45.9
			c-3.3,0-6.1-2.4-6.6-5.5h13.3C89.9,43.5,87.1,45.9,83.8,45.9z"/>
	</g>
</g>
</svg>
