<?xml version="1.0" encoding="utf-8"?>
<!-- Generator: Adobe Illustrator 23.0.6, SVG Export Plug-In . SVG Version: 6.00 Build 0)  -->
<svg version="1.1" id="Layer_1" xmlns="http://www.w3.org/2000/svg" xmlns:xlink="http://www.w3.org/1999/xlink" x="0px" y="0px"
	 viewBox="0 0 128 98" style="enable-background:new 0 0 128 98;" xml:space="preserve">
<style type="text/css">
	.st0{fill:#FFFFFF;}
	.st1{fill:#2B318B;}
	.st2{font-family:'Gilroy-Regular';}
	.st3{font-size:12.0158px;}
</style>
<g>
	<path id="XMLID_1368_" class="st0" d="M65.6,3.2c29.5,0,53.4,20.5,53.4,45.8c0,25.3-23.9,45.9-53.4,45.9
		c-29.5,0-53.4-20.5-53.4-45.9C12.2,23.7,36.1,3.2,65.6,3.2"/>
	<text id="XMLID_638_" transform="matrix(1 0 0 1 24.8374 71.9501)" class="st1 st2 st3">Ordenamiento</text>
	<g id="XMLID_1903_">
		<g id="XMLID_1957_">
			<g id="XMLID_1967_">
				<path id="XMLID_1970_" class="st1" d="M87.8,17.2c-0.1-0.1-0.3-0.2-0.5-0.2l-9.9-0.8l-0.2-1.4c0-0.4-0.4-0.6-0.7-0.6l-9.2,1.2
					c0,0-0.1,0-0.1,0l-12.6-1.1c-0.4,0-0.7,0.2-0.7,0.6L53.8,17L44,18.2c-0.4,0-0.6,0.4-0.6,0.7l5,39.6c0,0.2,0,0.4,0.1,0.5
					c0.1,0.2,0.4,0.4,0.6,0.4h32.8c0.4,0,0.7-0.3,0.7-0.7V58l1.3,0.1c0.4,0,0.7-0.2,0.7-0.6L88,17.7C88,17.5,87.9,17.3,87.8,17.2z
					 M48.4,47.9l-3.6-28.5l3.6-0.4V47.9z M55.2,15.5l5.9,0.5l-6,0.7L55.2,15.5z M76.1,15.5l0.3,2.7h-22L76.1,15.5z M83.3,56.7
					l-0.7-0.1V37.1c0-0.4-0.3-0.7-0.7-0.7c-0.4,0-0.7,0.3-0.7,0.7v21.1H49.7V19.6h31.5V34c0,0.4,0.3,0.7,0.7,0.7s0.7-0.3,0.7-0.7
					V18.9c0-0.4-0.3-0.7-0.7-0.7h-4.1l-0.1-0.8l8.9,0.8L83.3,56.7z"/>
			</g>
		</g>
		<g id="XMLID_1934_">
			<g id="XMLID_1940_">
				<path id="XMLID_1950_" class="st1" d="M78.3,21.8h-3.6c-0.2,0-0.4,0.1-0.6,0.3l-1.5,2.3c-1.6-1.2-3.6-1.9-5.8-1.9
					c-0.4,0-0.7,0.3-0.7,0.7v9.3c0,0.4,0.3,0.7,0.7,0.7h9.3c0.4,0,0.7-0.3,0.7-0.7c0-2.8-1.2-5.4-3.1-7.2l1.4-2.1h3.2
					c0.4,0,0.7-0.3,0.7-0.7S78.7,21.8,78.3,21.8z M75.5,31.8h-7.9v-7.9c1.6,0.1,3.1,0.7,4.4,1.6l-0.6,0.9c-0.2,0.3-0.1,0.7,0.1,0.9
					c0.3,0.3,0.8,0.2,1-0.1l0.5-0.8C74.4,27.8,75.3,29.7,75.5,31.8z"/>
			</g>
		</g>
		<g id="XMLID_1926_">
			<g id="XMLID_1927_">
				<path id="XMLID_1929_" class="st1" d="M78.3,43.9h-6l-1.1-1.7c1.7-1.8,2.8-4.2,2.8-6.9c0-0.4-0.3-0.7-0.7-0.7h-8.6V26
					c0-0.4-0.3-0.7-0.7-0.7c-5.5,0-9.9,4.5-9.9,9.9c0,5.5,4.5,9.9,9.9,9.9c2.3,0,4.5-0.8,6.1-2.1l1.1,1.8c0.1,0.2,0.3,0.3,0.6,0.3
					h6.4c0.4,0,0.7-0.3,0.7-0.7S78.7,43.9,78.3,43.9z M68.9,38.5c-0.2-0.3-0.6-0.4-0.9-0.2c-0.3,0.2-0.4,0.6-0.2,0.9l1.7,2.7
					c-1.5,1.2-3.4,1.9-5.4,1.9c-4.7,0-8.6-3.9-8.6-8.6c0-4.5,3.5-8.2,7.9-8.6v8.6c0,0.4,0.3,0.7,0.7,0.7h8.6
					c-0.1,1.9-0.9,3.7-2.2,5.1L68.9,38.5z"/>
			</g>
		</g>
		<g id="XMLID_1921_">
			<g id="XMLID_1922_">
				<path id="XMLID_1883_" class="st1" d="M58.4,47.5h-5.7c-0.4,0-0.7,0.3-0.7,0.7c0,0.4,0.3,0.7,0.7,0.7h5.7c0.4,0,0.7-0.3,0.7-0.7
					C59,47.8,58.7,47.5,58.4,47.5z"/>
			</g>
		</g>
		<g id="XMLID_1917_">
			<g id="XMLID_1919_">
				<path id="XMLID_1882_" class="st1" d="M66.9,47.5h-5.7c-0.4,0-0.7,0.3-0.7,0.7c0,0.4,0.3,0.7,0.7,0.7h5.7c0.4,0,0.7-0.3,0.7-0.7
					C67.6,47.8,67.3,47.5,66.9,47.5z"/>
			</g>
		</g>
		<g id="XMLID_1913_">
			<g id="XMLID_1914_">
				<path id="XMLID_1881_" class="st1" d="M61.9,51h-9.3c-0.4,0-0.7,0.3-0.7,0.7s0.3,0.7,0.7,0.7h9.3c0.4,0,0.7-0.3,0.7-0.7
					S62.3,51,61.9,51z"/>
			</g>
		</g>
		<g id="XMLID_1910_">
			<g id="XMLID_1911_">
				<path id="XMLID_1880_" class="st1" d="M66.9,51h-2.1c-0.4,0-0.7,0.3-0.7,0.7s0.3,0.7,0.7,0.7h2.1c0.4,0,0.7-0.3,0.7-0.7
					C67.6,51.3,67.3,51,66.9,51z"/>
			</g>
		</g>
		<g id="XMLID_1907_">
			<g id="XMLID_1908_">
				<path id="XMLID_1878_" class="st1" d="M55.5,54.6h-2.9c-0.4,0-0.7,0.3-0.7,0.7s0.3,0.7,0.7,0.7h2.9c0.4,0,0.7-0.3,0.7-0.7
					S55.9,54.6,55.5,54.6z"/>
			</g>
		</g>
		<g id="XMLID_1904_">
			<g id="XMLID_1905_">
				<path id="XMLID_1877_" class="st1" d="M66.9,54.6h-8.6c-0.4,0-0.7,0.3-0.7,0.7s0.3,0.7,0.7,0.7h8.6c0.4,0,0.7-0.3,0.7-0.7
					S67.3,54.6,66.9,54.6z"/>
			</g>
		</g>
	</g>
</g>
</svg>
