<?xml version="1.0" encoding="utf-8"?>
<!-- Generator: Adobe Illustrator 23.0.6, SVG Export Plug-In . SVG Version: 6.00 Build 0)  -->
<svg version="1.1" id="Layer_1" xmlns="http://www.w3.org/2000/svg" xmlns:xlink="http://www.w3.org/1999/xlink" x="0px" y="0px"
	 viewBox="0 0 116 100" style="enable-background:new 0 0 116 100;" xml:space="preserve">
<style type="text/css">
	.st0{fill:#FFFFFF;}
	.st1{fill:#2B318B;}
	.st2{font-family:'Gilroy-Regular';}
	.st3{font-size:12.0158px;}
</style>
<path id="XMLID_2848_" class="st0" d="M57.7,4.1c29.5,0,53.4,20.5,53.4,45.8c0,25.3-23.9,45.9-53.4,45.9
	c-29.5,0-53.4-20.5-53.4-45.9C4.3,24.6,28.2,4.1,57.7,4.1"/>
<text id="XMLID_2844_" transform="matrix(1 0 0 1 29.0559 79.0814)" class="st1 st2 st3">Planeación</text>
<g id="XMLID_2866_">
	<path id="XMLID_2877_" class="st1" d="M82.4,48.9l-6.7-1.5l0-1.7c0.7-0.5,1.2-1.2,1.7-2l1,0c2.4,0,4.4-2,4.4-4.4
		c0-1-0.3-1.9-0.9-2.6l0-3.5c0-5.8-4.7-10.5-10.5-10.5c-5.8,0-10.5,4.7-10.6,10.5l0,3.5c-0.5,0.7-0.9,1.6-0.9,2.6
		c0,2.4,2,4.4,4.4,4.4l1,0c0.4,0.8,1,1.4,1.7,2l0,1.7l-6.7,1.5c-0.4,0.1-0.9,0.3-1.3,0.4l0-4.8c0-1.5-1.2-2.6-2.6-2.6l-21.1,0
		c-1.5,0-2.6,1.2-2.6,2.6l0,15.8c0,1.5,1.2,2.6,2.6,2.6l7,0l0,1.8l-1.8,0l0,1.8l46.6,0l0-11.6C87.1,52,85.2,49.5,82.4,48.9z
		 M67.6,49l2.1,1.6l-2.2,1.3l-0.5-2.8L67.6,49z M70.4,56l1.9,0l0.7,8.8l-3.4,0L70.4,56z M72.4,54.2l-2.2,0l-0.5-1.5l1.6-1l1.6,1
		L72.4,54.2z M72.9,50.6L75,49l0.6,0.1l-0.6,2.8L72.9,50.6z M78.3,41.9l-0.2,0c0.1-0.6,0.2-1.1,0.2-1.8l0-3.5c1.5,0,2.6,1.2,2.6,2.6
		C81,40.7,79.8,41.9,78.3,41.9z M71.3,24.3c4.8,0,8.8,3.9,8.8,8.8l0,2.1c-0.5-0.2-1.1-0.4-1.8-0.4l0-1.8l-1.8,0l0,0.5
		c-0.6,0.5-1.3,0.9-2.1,1.1c0,0,0.1-0.1,0.1-0.1l-1.2-1.2c-0.7,0.7-1.5,1.1-2.4,1.3c0,0,0.1-0.1,0.1-0.1l-1.2-1.2
		c-1,1-2.3,1.5-3.6,1.5l-0.2,0l0-1.8l-1.8,0l0,1.8c-0.6,0-1.2,0.1-1.8,0.4l0-2.1C62.5,28.2,66.5,24.3,71.3,24.3z M64.3,41.9
		c-1.5,0-2.6-1.2-2.6-2.6s1.2-2.6,2.6-2.6l0,3.5c0,0.6,0.1,1.2,0.2,1.8L64.3,41.9z M66,40.1l0-3.5l0.2,0c0.9,0,1.7-0.2,2.5-0.5
		l0,0.5l1,0c0.9,0,1.7-0.2,2.5-0.5l0,0.5l1,0c1.2,0,2.3-0.3,3.4-0.9l0,4.4c0,0.6-0.1,1.2-0.3,1.8l-5,0l0,1.8l3.9,0
		c-1,1.1-2.4,1.8-3.9,1.8C68.4,45.4,66,43,66,40.1z M71.3,47.2c0.9,0,1.8-0.2,2.6-0.5l0,1l-2.6,2l-2.6-2l0-1
		C69.5,47,70.4,47.2,71.3,47.2z M60.7,50.6l4.7-1.1l0.9,5.2l1.9-1.1l0.5,1.6l-0.8,9.6l-4.5,0l0-9.7l-1.8,0l0,9.7l-4.4,0l0-1.9
		c1-0.4,1.8-1.3,1.8-2.5l0-9C59.5,51,60.1,50.7,60.7,50.6z M49.3,63l6.2,0l0,1.8l-6.2,0L49.3,63z M35.3,61.2c-0.5,0-0.9-0.4-0.9-0.9
		l0-15.8c0-0.5,0.4-0.9,0.9-0.9l21.1,0c0.5,0,0.9,0.4,0.9,0.9l0,15.8c0,0.5-0.4,0.9-0.9,0.9l-7,0l0-1.8c0-1.9-1.6-3.5-3.5-3.5
		c-1.9,0-3.5,1.6-3.5,3.5l0,1.8L35.3,61.2z M44.1,59.5c0-1,0.8-1.8,1.8-1.8c1,0,1.8,0.8,1.8,1.8l0,5.3l-3.5,0L44.1,59.5z M85.4,64.7
		l-4.4,0l0-9.7l-1.8,0l0,9.7l-4.5,0L74,55.2l0.5-1.6l1.8,1.1l1-5.2l4.6,1.1c2,0.5,3.4,2.2,3.4,4.3L85.4,64.7z"/>
	<path id="XMLID_2873_" class="st1" d="M54.6,30c0-1.1-0.7-2.1-1.8-2.5l-3.5-1.2l0-1.1c1.1-0.8,1.8-2.1,1.8-3.5l0-1.8
		c0-2.4-2-4.4-4.4-4.4c-2.4,0-4.4,2-4.4,4.4l0,1.8c0,1.4,0.7,2.7,1.8,3.5l0,1.1l-3.5,1.2c-1.1,0.4-1.8,1.4-1.8,2.5l0,4.9l15.8,0
		L54.6,30z M44.1,19.9c0-1.5,1.2-2.6,2.6-2.6s2.6,1.2,2.6,2.6l0,1.8c0,1.5-1.2,2.6-2.6,2.6s-2.6-1.2-2.6-2.6L44.1,19.9z M52.9,33.1
		l-12.3,0l0-3.1c0-0.4,0.2-0.7,0.6-0.8l4.7-1.6l0-1.6c0.3,0.1,0.6,0.1,0.9,0.1c0.3,0,0.6,0,0.9-0.1l0,1.6l4.7,1.6
		c0.4,0.1,0.6,0.5,0.6,0.8L52.9,33.1z"/>
	<path id="XMLID_2870_" class="st1" d="M46.7,40.1c7.8,0,14.1-6.3,14.1-14.1c0-7.8-6.3-14.1-14.1-14.1s-14.1,6.3-14.1,14.1
		C32.6,33.8,38.9,40.1,46.7,40.1z M46.7,13.8c6.8,0,12.3,5.5,12.3,12.3c0,6.8-5.5,12.3-12.3,12.3c-6.8,0-12.3-5.5-12.3-12.3
		S39.9,13.8,46.7,13.8z"/>
	<path id="XMLID_2774_" class="st1" d="M65.2,17.3l1.8,0l0,1.8l-1.8,0L65.2,17.3z"/>
	<path id="XMLID_2773_" class="st1" d="M70.4,17.3l1.8,0l0,1.8l-1.8,0L70.4,17.3z"/>
	<path id="XMLID_2763_" class="st1" d="M75.7,17.3l1.8,0l0,1.8l-1.8,0L75.7,17.3z"/>
</g>
</svg>
