<?xml version="1.0" encoding="utf-8"?>
<!-- Generator: Adobe Illustrator 23.0.6, SVG Export Plug-In . SVG Version: 6.00 Build 0)  -->
<svg version="1.1" id="Layer_1" xmlns="http://www.w3.org/2000/svg" xmlns:xlink="http://www.w3.org/1999/xlink" x="0px" y="0px"
	 viewBox="0 0 209 226" style="enable-background:new 0 0 209 226;" xml:space="preserve">
<style type="text/css">
	.st0{fill:#FFFFFF;}
	.st1{fill:#2B318B;}
	.st2{font-family:'Gilroy-Bold';}
	.st3{font-size:34.7465px;}
	.st4{font-size:22.8184px;}
</style>
<g id="XMLID_4482_">
	<path id="XMLID_4483_" class="st0" d="M191.5,201.3v-51.9c-5.2,4.1-9.8,9.2-12.1,14.9V123H151v41.3c-3.2-7.6-10.4-14.3-17.8-18.8
		h-30.8c10,7.6,25.8,19.4,25.8,28.9c0,4.7-5.6,5.7-8.8,5.7H99.9v22.7h30.5c6.8,0,16.6-2.5,20.6-13.2V215h28.4v-25.5
		C181.9,196.2,186.6,199.7,191.5,201.3"/>
</g>
<g id="XMLID_4464_">
	<text id="XMLID_4481_" transform="matrix(1 0 0 1 8.5662 65.8382)"><tspan x="0" y="0" class="st1 st2 st3">Playbook</tspan><tspan x="0" y="25.1" class="st1 st2 st4">de Iniciativas</tspan></text>
</g>
</svg>
