<?xml version="1.0" encoding="utf-8"?>
<!-- Generator: Adobe Illustrator 23.0.6, SVG Export Plug-In . SVG Version: 6.00 Build 0)  -->
<svg version="1.1" id="Layer_1" xmlns="http://www.w3.org/2000/svg" xmlns:xlink="http://www.w3.org/1999/xlink" x="0px" y="0px"
	 viewBox="0 0 1560 1448" style="enable-background:new 0 0 1560 1448;" xml:space="preserve">
<style type="text/css">
	.st0{opacity:0.42;}
	.st1{clip-path:url(#XMLID_2_);fill:#FFFFFF;}
	.st2{clip-path:url(#XMLID_3_);}
</style>
<g id="XMLID_3434_" class="st0">
	<defs>
		<rect id="XMLID_3436_" x="269.6" y="-0.9" class="st0" width="1290.4" height="1449.1"/>
	</defs>
	<clipPath id="XMLID_2_">
		<use xlink:href="#XMLID_3436_"  style="overflow:visible;"/>
	</clipPath>
	<path id="XMLID_3437_" class="st1" d="M1019.5,70.6l0,625.2C970,582.1,860.1,481.5,748,413.4l-471.2,0
		c153.2,113.7,393.8,291.7,393.8,434c0,70.4-85.9,85.1-134.6,85.1l-297.1,0l0,340.4l465.8,0c103.7,0,253.8-37.9,314.9-198.9l0,456.5
		l433.3,0l0-456.5C1513.9,1235,1664,1273,1767.7,1273l465.8,0l0-340.4l-297.1,0c-49.5,0-135.4-14.7-135.4-85.1
		c0-142.4,241.4-320.3,394.6-434l-471.2,0c-112.2,68.1-222,168.7-271.6,282.4l0-625.2L1019.5,70.6z"/>
</g>
<g id="XMLID_5485_">
	<defs>
		<rect id="XMLID_5484_" x="-0.1" y="289.8" width="1552.1" height="1158.4"/>
	</defs>
	<clipPath id="XMLID_3_">
		<use xlink:href="#XMLID_5484_"  style="overflow:visible;"/>
	</clipPath>
	<g id="foto3.psd_1_" class="st2">
		<defs>
			<rect id="SVGID_1_" x="81.9" y="361.2" width="1626.1" height="1086.9"/>
		</defs>
		<clipPath id="SVGID_2_">
			<use xlink:href="#SVGID_1_"  style="overflow:visible;"/>
		</clipPath>
		<g style="clip-path:url(#SVGID_2_);">
			
				<image style="overflow:visible;" width="1825" height="1268" id="Layer_1_2_" xlink:href="AED2DE3C9A62F65C.png"  transform="matrix(-0.8572 0 0 0.8572 1708.0115 361.2294)">
			</image>
		</g>
	</g>
</g>
</svg>
