<?xml version="1.0" encoding="utf-8"?>
<!-- Generator: Adobe Illustrator 23.0.6, SVG Export Plug-In . SVG Version: 6.00 Build 0)  -->
<svg version="1.1" id="Layer_1" xmlns="http://www.w3.org/2000/svg" xmlns:xlink="http://www.w3.org/1999/xlink" x="0px" y="0px"
	 viewBox="0 0 166 150" style="enable-background:new 0 0 166 150;" xml:space="preserve">
<style type="text/css">
	.st0{fill:#56BE92;}
	.st1{font-family:'Gilroy-Bold';}
	.st2{font-size:18.1052px;}
	.st3{font-size:10.9329px;}
	.st4{fill:#2C308B;}
</style>
<text id="XMLID_3407_" transform="matrix(1 0 0 1 20.447 71.0577)"><tspan x="0" y="0" class="st0 st1 st2">Programación</tspan><tspan x="5.9" y="18.8" class="st0 st1 st2">de Factoring</tspan><tspan x="16.1" y="32.8" class="st0 st1 st3">factura a 30 días</tspan></text>
<g id="XMLID_3400_">
	<g id="XMLID_3405_">
		<path id="XMLID_3406_" class="st4" d="M29.7,26.1C44.1,14.6,62.5,8.2,82.1,8.2c20.8,0,40.4,7.2,55.1,20.2l-7,6.2
			C117.4,23.3,100.3,17,82.1,17C63.9,17,46.8,23.3,34,34.6C7.5,58.2,7.5,96.5,34,120l-7,6.2c-30.4-27-30.4-70.8,0-97.8
			C27.9,27.7,28.8,26.9,29.7,26.1"/>
	</g>
	<g id="XMLID_3403_">
		<path id="XMLID_3404_" class="st4" d="M155.8,77.3c0,16.7-7.2,33.5-21.5,46.2c-28.7,25.5-75.5,25.5-104.2,0l1-0.9
			c28.2,25,74,25,102.1,0c28.2-25,28.2-65.6,0-90.6l1-0.9C148.6,43.8,155.8,60.6,155.8,77.3z"/>
	</g>
</g>
</svg>
