<?xml version="1.0" encoding="utf-8"?>
<!-- Generator: Adobe Illustrator 23.0.6, SVG Export Plug-In . SVG Version: 6.00 Build 0)  -->
<svg version="1.1" id="Layer_1" xmlns="http://www.w3.org/2000/svg" xmlns:xlink="http://www.w3.org/1999/xlink" x="0px" y="0px"
	 viewBox="0 0 106 98" style="enable-background:new 0 0 106 98;" xml:space="preserve">
<style type="text/css">
	.st0{fill:#FFFFFF;}
</style>
<g id="XMLID_4173_">
	<path id="XMLID_4367_" class="st0" d="M91.1,2c0.6,0.2,1.2,0.3,1.7,0.6c3,1.3,4.8,3.5,5,6.9c0.2,2.3,0.1,4.6,0.1,6.9
		c0,1.2-0.6,1.7-1.9,1.7c-3.3,0-6.6,0-9.8,0c-0.3,0-0.7,0-1.1,0c0,20.4,0,40.7,0,61.1c0.3,0,0.7,0,1,0c3.2,0,6.4,0,9.6,0
		c1.7,0,2.1,0.5,2.1,2.2c0,1.8,0,3.6,0,5.4c0,4.4-2.3,7.3-6.6,8.4c-0.1,0-0.1,0.1-0.2,0.1c-23.3,0-46.6,0-69.9,0
		c-0.7-0.2-1.3-0.4-2-0.7c-3.4-1.6-4.9-4.3-4.9-8c0-14.7,0-29.3,0-44c0-10.7,0-21.4,0-32.1c0-2.9,1.1-5.3,3.5-7c1-0.7,2.2-1,3.3-1.4
		C44.5,2,67.8,2,91.1,2z M83.5,5.3c-0.4,0-0.7-0.1-1-0.1c-19.9,0-39.9,0-59.8,0c-3.1,0-5.1,2-5.1,5.1c0,25.5,0,51,0,76.5
		c0,3.1,2,5.1,5.1,5.1c19.9,0,39.8,0,59.7,0c0.3,0,0.6,0,1-0.1c-1.1-1.6-1.5-3.3-1.5-5.1c0-24.7,0-49.4,0-74.1
		C81.9,10.2,81.7,7.6,83.5,5.3z M94.7,14.8c0-1.8,0.1-3.5,0-5.2c-0.2-2.5-2.2-4.3-4.6-4.3c-2.4-0.1-4.6,1.5-4.9,3.9
		c-0.2,1.8,0,3.7,0,5.6C88.4,14.8,91.5,14.8,94.7,14.8z M85.1,82.4c0,1.7,0,3.4,0,5c0.1,2.3,1.9,4.3,4.1,4.5
		c2.4,0.3,4.9-1.1,5.3-3.4c0.4-2,0.2-4.1,0.3-6.1C91.5,82.4,88.4,82.4,85.1,82.4z"/>
	<path id="XMLID_4347_" class="st0" d="M53,77.9c0-2.9,0-5.9,0-8.8c0-0.4-0.2-1-0.4-1.3c-3.3-4.3-3.6-10.2-0.8-14.7
		c2.9-4.6,8.3-6.9,13.6-5.7c5.3,1.2,9.3,5.4,10,10.8c0.5,3.5-0.4,6.7-2.5,9.5c-0.4,0.5-0.6,1.1-0.6,1.7c0,5.8,0,11.5,0,17.3
		c0,0.8-0.1,1.5-0.8,1.9c-0.8,0.4-1.4,0.1-2.1-0.3c-2-1.2-4.1-2.4-6.1-3.7c-0.5-0.3-0.8-0.3-1.3,0c-2,1.3-4.1,2.5-6.2,3.7
		c-1.6,1-2.8,0.3-2.8-1.6C53,83.8,53,80.8,53,77.9C53,77.9,53,77.9,53,77.9z M72.2,59.9c0-5.3-4.2-9.6-9.5-9.7
		c-5.3,0-9.7,4.2-9.7,9.6c-0.1,5.3,4.4,9.7,9.6,9.7C67.9,69.5,72.2,65.2,72.2,59.9z M69,84.3c0-4.5,0-8.8,0-13.2
		c-4.3,2.2-8.5,2.2-12.7,0c0,4.4,0,8.8,0,13.3c1.4-0.9,2.8-1.7,4.1-2.5c0.1-0.1,0.3-0.1,0.4-0.2c0.1-0.3,0.3-0.5,0.3-0.8
		c0-1.1,0-2.1,0-3.2c0-1,0.7-1.7,1.6-1.7c0.9,0,1.5,0.7,1.5,1.8c0,1.1,0,2.1,0,3.2c0,0.3,0.2,0.7,0.4,0.8C66,82.5,67.5,83.4,69,84.3
		z"/>
	<path id="XMLID_4344_" class="st0" d="M35.3,64.7c-2.6,0-5.2,0-7.7,0c-2.2,0-3.4-1.3-3.5-3.4c0-0.9,0-1.9,0-2.8
		c0.1-2.1,1.3-3.4,3.4-3.4c5.2,0,10.5,0,15.7,0c2.1,0,3.4,1.4,3.4,3.5c0,0.9,0,1.9,0,2.8c0,2-1.3,3.3-3.4,3.3
		C40.5,64.7,37.9,64.7,35.3,64.7z M43.3,58.3c-5.4,0-10.7,0-16,0c0,1.1,0,2.1,0,3.1c5.3,0,10.6,0,16,0
		C43.3,60.3,43.3,59.3,43.3,58.3z"/>
	<path id="XMLID_2802_" class="st0" d="M43.3,30.9c-5.7,0-11.5,0-17.2,0c-1.3,0-2-0.6-2-1.6c0-1,0.7-1.6,2-1.6c11.5,0,23.1,0,34.6,0
		c1.2,0,1.9,0.6,1.9,1.6c0,1-0.7,1.6-2,1.6C54.8,30.9,49.1,30.9,43.3,30.9C43.3,30.9,43.3,30.9,43.3,30.9z"/>
	<path id="XMLID_2798_" class="st0" d="M57,40.6c5.6,0,11.1,0,16.7,0c1.4,0,2.2,1.1,1.7,2.2c-0.2,0.4-0.8,0.7-1.2,1
		c-0.3,0.1-0.7,0.1-1.1,0.1c-10.7,0-21.4,0-32,0c-0.4,0-0.9,0-1.3-0.1c-0.8-0.2-1.2-0.8-1.2-1.6c0-0.8,0.5-1.3,1.3-1.5
		c0.3-0.1,0.6,0,0.9,0C46.2,40.6,51.6,40.6,57,40.6z"/>
	<path id="XMLID_2797_" class="st0" d="M59.5,21.3c4.6,0,9.2,0,13.7,0c0.3,0,0.6,0,0.9,0c0.8,0.2,1.3,0.7,1.4,1.5
		c0,0.8-0.4,1.4-1.2,1.6c-0.3,0.1-0.7,0.1-1,0.1c-9.2,0-18.4,0-27.6,0c-0.4,0-0.8,0-1.2-0.1c-0.8-0.2-1.2-0.8-1.2-1.6
		c0-0.8,0.5-1.3,1.4-1.5c0.3-0.1,0.6,0,0.9,0C50.2,21.3,54.8,21.3,59.5,21.3z"/>
	<path id="XMLID_2793_" class="st0" d="M37.7,37.3c-3.9,0-7.9,0-11.8,0c-1.2,0-2-0.8-1.8-1.9c0.1-0.7,0.5-1.1,1.2-1.3
		c0.4-0.1,0.7-0.1,1.1-0.1c7.5,0,15,0,22.6,0c1.6,0,2.4,0.5,2.4,1.6c0,1.1-0.7,1.6-2.4,1.6C45.2,37.3,41.5,37.3,37.7,37.3z"/>
	<path id="XMLID_2792_" class="st0" d="M49.7,11.6c3.1,0,6.3,0,9.4,0c1.3,0,2,0.8,1.8,1.9c-0.2,0.8-0.8,1.3-1.7,1.3
		c-1.5,0-3,0-4.5,0c-4.6,0-9.3,0-13.9,0c-0.3,0-0.6,0-0.9,0c-0.9-0.1-1.5-0.8-1.4-1.7c0.1-0.8,0.7-1.4,1.6-1.5c1.4,0,2.8,0,4.2,0
		C46.1,11.6,47.9,11.6,49.7,11.6z"/>
	<path id="XMLID_1726_" class="st0" d="M65.1,37.3c-2.9,0-5.9,0-8.8,0c-0.7,0-1.3-0.3-1.5-0.9c-0.1-0.5-0.1-1.2,0.2-1.6
		c0.2-0.4,0.8-0.6,1.3-0.6c5.9,0,11.7,0,17.6,0c1,0,1.7,0.7,1.7,1.7c0,0.9-0.7,1.5-1.7,1.5C70.9,37.3,68,37.3,65.1,37.3z"/>
	<path id="XMLID_1725_" class="st0" d="M29.7,43.8c-1.2,0-2.5,0-3.7,0c-1.2,0-1.9-0.7-1.9-1.6c0-1,0.7-1.6,1.9-1.6
		c2.5,0,4.9,0,7.4,0c1.2,0,1.9,0.6,1.9,1.6c0,1-0.7,1.6-1.9,1.6C32.2,43.8,30.9,43.8,29.7,43.8z"/>
	<path id="XMLID_1722_" class="st0" d="M70.7,30.9c-1,0-2.1,0-3.1,0c-1,0-1.7-0.7-1.8-1.6c0-0.9,0.7-1.6,1.7-1.6c2.1,0,4.2,0,6.3,0
		c1,0,1.7,0.7,1.7,1.6c0,0.9-0.7,1.6-1.7,1.6C72.8,31,71.7,30.9,70.7,30.9C70.7,30.9,70.7,30.9,70.7,30.9z"/>
	<path id="XMLID_1717_" class="st0" d="M35.4,21.3c1,0,2.1,0,3.1,0c1,0,1.7,0.7,1.7,1.5c0,0.9-0.6,1.6-1.6,1.6
		c-2.1,0.1-4.3,0.1-6.4,0c-1,0-1.6-0.7-1.6-1.6c0-0.9,0.7-1.5,1.7-1.6C33.2,21.3,34.3,21.3,35.4,21.3z"/>
	<path id="XMLID_4202_" class="st0" d="M62.6,66.3c-3.5,0-6.4-2.9-6.4-6.4c0-3.5,2.9-6.4,6.5-6.4c3.5,0,6.4,2.9,6.4,6.5
		C69,63.4,66.1,66.3,62.6,66.3z M62.6,63c1.8,0,3.2-1.4,3.2-3.1c0-1.8-1.4-3.3-3.2-3.3c-1.7,0-3.2,1.4-3.2,3.2
		C59.4,61.6,60.8,63,62.6,63z"/>
</g>
</svg>
