<?xml version="1.0" encoding="utf-8"?>
<!-- Generator: Adobe Illustrator 23.0.6, SVG Export Plug-In . SVG Version: 6.00 Build 0)  -->
<svg version="1.1" id="Layer_1" xmlns="http://www.w3.org/2000/svg" xmlns:xlink="http://www.w3.org/1999/xlink" x="0px" y="0px"
	 viewBox="0 0 116 100" style="enable-background:new 0 0 116 100;" xml:space="preserve">
<style type="text/css">
	.st0{fill:#FFFFFF;}
	.st1{fill:#2B318B;}
	.st2{font-family:'Gilroy-Regular';}
	.st3{font-size:12.0158px;}
</style>
<path id="XMLID_2851_" class="st0" d="M58,2.2c29.5,0,53.4,20.5,53.4,45.8c0,25.3-23.9,45.9-53.4,45.9c-29.5,0-53.4-20.5-53.4-45.9
	C4.6,22.7,28.5,2.2,58,2.2"/>
<text id="XMLID_2834_" transform="matrix(1 0 0 1 26.3984 68.95)"><tspan x="0" y="0" class="st1 st2 st3">Proceso de</tspan><tspan x="-8" y="8.4" class="st1 st2 st3">ordenamiento</tspan></text>
<g id="XMLID_2722_">
	<path id="XMLID_3298_" class="st1" d="M35.7,28.9h4.7c0.3,1,0.7,2,1.2,2.9l-3.3,3.3c-0.2,0.2-0.2,0.4-0.2,0.6
		c0,0.2,0.1,0.4,0.2,0.6l3.6,3.6c0.3,0.3,0.9,0.3,1.2,0l3.3-3.3c0.9,0.5,1.9,0.9,2.9,1.2v4.7c0,0.5,0.4,0.8,0.8,0.8h5.1
		c0.5,0,0.8-0.4,0.8-0.8v-4.7c1-0.3,2-0.7,2.9-1.2l3.3,3.3c0.3,0.3,0.9,0.3,1.2,0l3.6-3.6c0.2-0.2,0.2-0.4,0.2-0.6
		c0-0.2-0.1-0.4-0.2-0.6l-3.3-3.3c0.5-0.9,0.9-1.9,1.2-2.9h4.7c0.5,0,0.8-0.4,0.8-0.8V23c0-0.5-0.4-0.8-0.8-0.8h-4.7
		c-0.3-1-0.7-2-1.2-2.9l3.3-3.3c0.2-0.2,0.2-0.4,0.2-0.6c0-0.2-0.1-0.4-0.2-0.6l-3.6-3.6c-0.3-0.3-0.9-0.3-1.2,0l-3.3,3.3
		C58,13.9,57,13.5,56,13.3V8.5c0-0.5-0.4-0.8-0.8-0.8h-5.1c-0.5,0-0.8,0.4-0.8,0.8v4.7c-1,0.3-2,0.7-2.9,1.2l-3.3-3.3
		c-0.3-0.3-0.9-0.3-1.2,0l-3.6,3.6c-0.2,0.2-0.2,0.4-0.2,0.6c0,0.2,0.1,0.4,0.2,0.6l3.3,3.3c-0.5,0.9-0.9,1.9-1.2,2.9h-4.7
		c-0.5,0-0.8,0.4-0.8,0.8v5.1C34.8,28.5,35.2,28.9,35.7,28.9z M36.5,23.8h4.5c0.4,0,0.7-0.3,0.8-0.7c0.3-1.3,0.8-2.5,1.5-3.6
		c0.2-0.3,0.2-0.8-0.1-1.1l-3.2-3.2l2.4-2.4l3.2,3.2c0.3,0.3,0.7,0.3,1.1,0.1c1.1-0.7,2.3-1.2,3.6-1.5c0.4-0.1,0.7-0.4,0.7-0.8V9.4
		h3.4v4.5c0,0.4,0.3,0.7,0.7,0.8c1.3,0.3,2.5,0.8,3.6,1.5c0.3,0.2,0.8,0.2,1.1-0.1l3.2-3.2l2.4,2.4L62,18.5
		c-0.3,0.3-0.3,0.7-0.1,1.1c0.7,1.1,1.2,2.3,1.5,3.6c0.1,0.4,0.4,0.7,0.8,0.7h4.5v3.4h-4.5c-0.4,0-0.7,0.3-0.8,0.7
		c-0.3,1.3-0.8,2.5-1.5,3.6c-0.2,0.3-0.2,0.8,0.1,1.1l3.2,3.2l-2.4,2.4l-3.2-3.2c-0.3-0.3-0.7-0.3-1.1-0.1c-1.1,0.7-2.3,1.2-3.6,1.5
		c-0.4,0.1-0.7,0.4-0.7,0.8v4.5H51v-4.5c0-0.4-0.3-0.7-0.7-0.8c-1.3-0.3-2.5-0.8-3.6-1.5c-0.3-0.2-0.8-0.2-1.1,0.1l-3.2,3.2
		l-2.4-2.4l3.2-3.2c0.3-0.3,0.3-0.7,0.1-1.1c-0.7-1.1-1.2-2.3-1.5-3.6c-0.1-0.4-0.4-0.7-0.8-0.7h-4.5V23.8z"/>
	<path id="XMLID_3260_" class="st1" d="M52.6,32.3c3.7,0,6.8-3,6.8-6.8c0-3.7-3-6.8-6.8-6.8c-3.7,0-6.8,3-6.8,6.8
		C45.9,29.3,48.9,32.3,52.6,32.3z M52.6,20.4c2.8,0,5.1,2.3,5.1,5.1c0,2.8-2.3,5.1-5.1,5.1c-2.8,0-5.1-2.3-5.1-5.1
		C47.6,22.7,49.8,20.4,52.6,20.4z"/>
	<path id="XMLID_3157_" class="st1" d="M52.6,34.8c5.2,0,9.3-4.2,9.3-9.3c0-5.2-4.2-9.3-9.3-9.3s-9.3,4.2-9.3,9.3
		C43.3,30.7,47.5,34.8,52.6,34.8z M52.6,17.9c4.2,0,7.6,3.4,7.6,7.6s-3.4,7.6-7.6,7.6S45,29.7,45,25.5C45,21.3,48.4,17.9,52.6,17.9z
		"/>
	<path id="XMLID_2969_" class="st1" d="M87.4,45.6v-7.7c0-0.5-0.4-1-1-1h-1.9v-7.7c0-0.5-0.4-1-1-1h-8.7c-0.5,0-1,0.4-1,1V37h-4.8
		c-0.5,0-1,0.4-1,1v7.7H37.2c-2.7,0-4.8,2.2-4.8,4.8v1.9c0,2.7,2.2,4.8,4.8,4.8h50.2c2.7,0,4.8-2.2,4.8-4.8v-1.9
		C92.2,47.8,90.1,45.6,87.4,45.6z M85.5,45.6h-6.8v-6.8h6.8V45.6z M75.8,30.2h6.8V37h-6.8V30.2z M70,38.9h6.8v6.8H70V38.9z
		 M90.3,52.4c0,1.6-1.3,2.9-2.9,2.9H37.2c-1.6,0-2.9-1.3-2.9-2.9v-1.9c0-1.6,1.3-2.9,2.9-2.9h50.2c1.6,0,2.9,1.3,2.9,2.9V52.4z"/>
	<path id="XMLID_2886_" class="st1" d="M62.3,48.5c-1.6,0-2.9,1.3-2.9,2.9c0,1.6,1.3,2.9,2.9,2.9c1.6,0,2.9-1.3,2.9-2.9
		C65.2,49.8,63.9,48.5,62.3,48.5z M62.3,52.4c-0.5,0-1-0.4-1-1c0-0.5,0.4-1,1-1c0.5,0,1,0.4,1,1C63.3,52,62.8,52.4,62.3,52.4z"/>
	<path id="XMLID_2862_" class="st1" d="M52.6,48.5c-1.6,0-2.9,1.3-2.9,2.9c0,1.6,1.3,2.9,2.9,2.9c1.6,0,2.9-1.3,2.9-2.9
		C55.5,49.8,54.2,48.5,52.6,48.5z M52.6,52.4c-0.5,0-1-0.4-1-1c0-0.5,0.4-1,1-1c0.5,0,1,0.4,1,1C53.6,52,53.2,52.4,52.6,52.4z"/>
	<path id="XMLID_171_" class="st1" d="M72,48.5c-1.6,0-2.9,1.3-2.9,2.9c0,1.6,1.3,2.9,2.9,2.9c1.6,0,2.9-1.3,2.9-2.9
		C74.9,49.8,73.6,48.5,72,48.5z M72,52.4c-0.5,0-1-0.4-1-1c0-0.5,0.4-1,1-1c0.5,0,1,0.4,1,1C72.9,52,72.5,52.4,72,52.4z"/>
	<path id="XMLID_168_" class="st1" d="M43,48.5c-1.6,0-2.9,1.3-2.9,2.9c0,1.6,1.3,2.9,2.9,2.9c1.6,0,2.9-1.3,2.9-2.9
		C45.9,49.8,44.6,48.5,43,48.5z M43,52.4c-0.5,0-1-0.4-1-1c0-0.5,0.4-1,1-1c0.5,0,1,0.4,1,1C44,52,43.5,52.4,43,52.4z"/>
	<path id="XMLID_84_" class="st1" d="M81.6,48.5c-1.6,0-2.9,1.3-2.9,2.9c0,1.6,1.3,2.9,2.9,2.9c1.6,0,2.9-1.3,2.9-2.9
		C84.5,49.8,83.2,48.5,81.6,48.5z M81.6,52.4c-0.5,0-1-0.4-1-1c0-0.5,0.4-1,1-1c0.5,0,1,0.4,1,1C82.6,52,82.1,52.4,81.6,52.4z"/>
</g>
</svg>
