<?xml version="1.0" encoding="utf-8"?>
<!-- Generator: Adobe Illustrator 23.0.6, SVG Export Plug-In . SVG Version: 6.00 Build 0)  -->
<svg version="1.1" id="Layer_1" xmlns="http://www.w3.org/2000/svg" xmlns:xlink="http://www.w3.org/1999/xlink" x="0px" y="0px"
	 viewBox="0 0 106 98" style="enable-background:new 0 0 106 98;" xml:space="preserve">
<style type="text/css">
	.st0{fill:#FFFFFF;}
</style>
<g id="XMLID_4169_">
	<g id="XMLID_4170_">
		<path id="XMLID_4214_" class="st0" d="M102.8,33.4L54.4,9.2c-0.6-0.3-1.3-0.3-1.9,0L4.2,33.4C3.4,33.8,3,34.5,3,35.3
			c0,0.8,0.5,1.5,1.2,1.9l16,8v16.1c0,9.9,14.6,17.7,33.3,17.7s33.3-7.8,33.3-17.7V45.2l5.6-2.8v15.3c-2.6,0.9-4.4,3.3-4.4,6.2
			c0,2.6,1.5,4.9,3.7,5.9l-4.5,11.8c-0.2,0.6-0.2,1.4,0.2,1.9c0.4,0.6,1,0.9,1.7,0.9h10.6c0.7,0,1.3-0.3,1.7-0.9
			c0.4-0.6,0.5-1.3,0.2-1.9l-4.5-11.8c2.2-1.1,3.7-3.3,3.7-5.9c0-2.9-1.9-5.3-4.4-6.2V40.3l6.2-3.1c0.7-0.4,1.2-1.1,1.2-1.9
			C104,34.5,103.5,33.8,102.8,33.4z M74.6,70.4c-5.6,2.8-13.1,4.3-21.1,4.3S38,73.2,32.4,70.4c-5.1-2.5-8-5.9-8-9.2v-14l28.2,14.1
			c0.3,0.1,0.6,0.2,0.9,0.2s0.6-0.1,0.9-0.2l28.2-14.1v14l0,0C82.6,64.6,79.7,67.9,74.6,70.4z M92.2,80.3l2.3-6l2.3,6H92.2z
			 M96.8,63.9c0,1.3-1,2.3-2.3,2.3c-1.3,0-2.3-1-2.3-2.3c0-1.3,1-2.3,2.3-2.3c0,0,0,0,0,0c0,0,0,0,0,0
			C95.8,61.6,96.8,62.7,96.8,63.9z M94.1,36.9l-40.4-3.6c-1.2-0.1-2.2,0.7-2.3,1.9c-0.1,1.2,0.7,2.2,1.9,2.3l33.6,3L53.5,57.1
			L9.8,35.3l43.7-21.8l43.7,21.8L94.1,36.9z"/>
	</g>
</g>
</svg>
