<?xml version="1.0" encoding="utf-8"?>
<!-- Generator: Adobe Illustrator 23.0.6, SVG Export Plug-In . SVG Version: 6.00 Build 0)  -->
<svg version="1.1" id="Layer_1" xmlns="http://www.w3.org/2000/svg" xmlns:xlink="http://www.w3.org/1999/xlink" x="0px" y="0px"
	 viewBox="0 0 200 151" style="enable-background:new 0 0 200 151;" xml:space="preserve">
<style type="text/css">
	.st0{fill:#FFFFFF;}
	.st1{fill:#2B318B;}
	.st2{fill:none;stroke:#FFFFFF;stroke-miterlimit:10;}
</style>
<g>
	<path id="XMLID_203_" class="st0" d="M117.8,21.5c38.1,0,69.1,26.5,69.1,59.2c0,32.7-30.9,59.3-69,59.3c-38.1,0-69-26.5-69.1-59.2
		C48.8,48,79.7,21.5,117.8,21.5"/>
	<g>
		<g>
			<path class="st1" d="M86.6,90c0.8,0,1.5,0.3,2.1,0.8c0.6,0.6,0.8,1.2,0.8,2.1s-0.3,1.5-0.8,2.1c-0.6,0.6-1.2,0.8-2.1,0.8l-2.4,0
				l0,3.4l-0.9,0l0-9.3L86.6,90z M86.6,95c0.6,0,1-0.2,1.4-0.6c0.4-0.4,0.6-0.9,0.6-1.5c0-0.6-0.2-1.1-0.6-1.5
				c-0.4-0.4-0.8-0.6-1.4-0.6l-2.4,0l0,4.1L86.6,95z"/>
			<path class="st1" d="M91.7,93.8c0.4-0.8,1.1-1.2,2.1-1.2l0,0.8c-0.6,0-1.1,0.2-1.5,0.5c-0.4,0.4-0.6,0.9-0.6,1.7l0,3.7l-0.9,0
				l0-6.6l0.9,0L91.7,93.8z"/>
			<path class="st1" d="M100.1,98.4c-0.7,0.7-1.5,1-2.5,1c-1,0-1.8-0.3-2.5-1c-0.7-0.7-1-1.5-1-2.5s0.3-1.8,1-2.5
				c0.7-0.7,1.5-1,2.5-1c1,0,1.8,0.3,2.5,1c0.7,0.7,1,1.5,1,2.5S100.8,97.8,100.1,98.4z M95.8,97.8c0.5,0.5,1.1,0.8,1.9,0.8
				c0.7,0,1.3-0.3,1.9-0.8c0.5-0.5,0.8-1.1,0.8-1.9c0-0.7-0.3-1.4-0.8-1.9c-0.5-0.5-1.1-0.8-1.9-0.8s-1.3,0.3-1.9,0.8
				C95.3,94.6,95,95.2,95,96C95,96.7,95.3,97.3,95.8,97.8z"/>
			<path class="st1" d="M107.1,92.7l0.9,0l-2.7,6.6l-1.1,0l-2.7-6.6l0.9,0l2.3,5.7L107.1,92.7z"/>
			<path class="st1" d="M109.9,91.1c-0.1,0.1-0.3,0.2-0.4,0.2c-0.2,0-0.3-0.1-0.4-0.2c-0.1-0.1-0.2-0.3-0.2-0.4s0.1-0.3,0.2-0.4
				s0.3-0.2,0.4-0.2s0.3,0.1,0.4,0.2s0.2,0.3,0.2,0.4C110.1,90.8,110.1,90.9,109.9,91.1z M109.1,99.3l0-6.6l0.9,0l0,6.6L109.1,99.3z
				"/>
			<path class="st1" d="M112.5,94.4c0,0.3,0.1,0.5,0.4,0.7c0.3,0.2,0.6,0.3,1,0.4c0.4,0.1,0.8,0.2,1.1,0.3c0.4,0.1,0.7,0.3,1,0.6
				c0.3,0.3,0.4,0.7,0.4,1.1c0,0.6-0.2,1-0.7,1.4c-0.4,0.4-1,0.5-1.7,0.5c-0.6,0-1.2-0.1-1.6-0.4c-0.4-0.3-0.8-0.6-0.9-1.1l0.7-0.4
				c0.1,0.3,0.3,0.6,0.7,0.8c0.3,0.2,0.7,0.3,1.1,0.3c0.4,0,0.8-0.1,1.1-0.3c0.3-0.2,0.4-0.4,0.4-0.8c0-0.3-0.1-0.5-0.4-0.7
				c-0.3-0.2-0.6-0.3-1-0.4c-0.4-0.1-0.8-0.2-1.1-0.3c-0.4-0.1-0.7-0.3-1-0.6c-0.3-0.3-0.4-0.6-0.4-1.1c0-0.5,0.2-1,0.6-1.3
				c0.4-0.4,1-0.5,1.6-0.5c0.5,0,1,0.1,1.4,0.4c0.4,0.2,0.7,0.6,0.9,1l-0.7,0.4c-0.3-0.6-0.8-0.9-1.6-0.9c-0.4,0-0.7,0.1-1,0.3
				C112.6,93.8,112.5,94,112.5,94.4z"/>
			<path class="st1" d="M118.6,91.1c-0.1,0.1-0.3,0.2-0.4,0.2c-0.2,0-0.3-0.1-0.4-0.2s-0.2-0.3-0.2-0.4c0-0.2,0.1-0.3,0.2-0.4
				c0.1-0.1,0.3-0.2,0.4-0.2c0.2,0,0.3,0.1,0.4,0.2s0.2,0.3,0.2,0.4S118.7,90.9,118.6,91.1z M117.7,99.3l0-6.6l0.9,0l0,6.6
				L117.7,99.3z"/>
			<path class="st1" d="M126,98.4c-0.7,0.7-1.5,1-2.5,1c-1,0-1.8-0.3-2.5-1c-0.7-0.7-1-1.5-1-2.5s0.3-1.8,1-2.5c0.7-0.7,1.5-1,2.5-1
				c1,0,1.8,0.3,2.5,1c0.7,0.7,1,1.5,1,2.5S126.7,97.8,126,98.4z M121.7,97.8c0.5,0.5,1.1,0.8,1.9,0.8c0.7,0,1.3-0.3,1.9-0.8
				c0.5-0.5,0.8-1.1,0.8-1.9c0-0.7-0.3-1.4-0.8-1.9c-0.5-0.5-1.1-0.8-1.9-0.8s-1.3,0.3-1.9,0.8c-0.5,0.5-0.8,1.1-0.8,1.9
				C120.9,96.7,121.2,97.3,121.7,97.8z"/>
			<path class="st1" d="M131.5,92.5c0.8,0,1.4,0.2,1.9,0.7c0.5,0.5,0.7,1.1,0.7,2l0,4.1l-0.9,0l0-4.1c0-0.6-0.2-1-0.5-1.4
				c-0.3-0.3-0.8-0.5-1.3-0.5c-0.6,0-1.2,0.2-1.5,0.6c-0.4,0.4-0.6,1-0.6,1.9l0,3.5l-0.9,0l0-6.6l0.9,0l0,1
				C129.8,92.9,130.6,92.5,131.5,92.5z"/>
			<path class="st1" d="M138.9,92.5c1,0,1.8,0.3,2.4,1c0.6,0.7,0.9,1.5,0.9,2.5c0,0.1,0,0.2,0,0.4l-5.8,0c0.1,0.7,0.4,1.2,0.9,1.6
				c0.5,0.4,1.1,0.6,1.8,0.6c0.5,0,0.9-0.1,1.3-0.3c0.4-0.2,0.6-0.5,0.8-0.8l0.8,0.4c-0.3,0.5-0.7,0.8-1.2,1.1
				c-0.5,0.3-1.1,0.4-1.7,0.4c-1,0-1.9-0.3-2.5-1s-1-1.5-1-2.5c0-1,0.3-1.8,1-2.5C137,92.8,137.9,92.5,138.9,92.5z M138.9,93.3
				c-0.7,0-1.3,0.2-1.7,0.6c-0.5,0.4-0.7,0.9-0.8,1.6l4.9,0c-0.1-0.7-0.4-1.2-0.8-1.6C140,93.5,139.5,93.3,138.9,93.3z"/>
			<path class="st1" d="M144,94.4c0,0.3,0.1,0.5,0.4,0.7c0.3,0.2,0.6,0.3,1,0.4c0.4,0.1,0.8,0.2,1.1,0.3c0.4,0.1,0.7,0.3,1,0.6
				c0.3,0.3,0.4,0.7,0.4,1.1c0,0.6-0.2,1-0.7,1.4c-0.4,0.4-1,0.5-1.7,0.5c-0.6,0-1.2-0.1-1.6-0.4c-0.4-0.3-0.8-0.6-0.9-1.1l0.7-0.4
				c0.1,0.3,0.3,0.6,0.7,0.8c0.3,0.2,0.7,0.3,1.1,0.3c0.4,0,0.8-0.1,1.1-0.3c0.3-0.2,0.4-0.4,0.4-0.8c0-0.3-0.1-0.5-0.4-0.7
				c-0.3-0.2-0.6-0.3-1-0.4c-0.4-0.1-0.8-0.2-1.1-0.3c-0.4-0.1-0.7-0.3-1-0.6c-0.3-0.3-0.4-0.6-0.4-1.1c0-0.5,0.2-1,0.6-1.3
				c0.4-0.4,1-0.5,1.6-0.5c0.5,0,1,0.1,1.4,0.4c0.4,0.2,0.7,0.6,0.9,1l-0.7,0.4c-0.3-0.6-0.8-0.9-1.6-0.9c-0.4,0-0.7,0.1-1,0.3
				C144.1,93.8,144,94,144,94.4z"/>
			<path class="st1" d="M75.5,102.4l0.9,0l0,9.3l-0.9,0l0-1.3c-0.6,1-1.5,1.5-2.7,1.5c-0.9,0-1.7-0.3-2.4-1c-0.7-0.7-1-1.5-1-2.5
				c0-1,0.3-1.8,1-2.5c0.7-0.7,1.5-1,2.4-1c1.2,0,2.1,0.5,2.7,1.5L75.5,102.4z M71,110.2c0.5,0.5,1.1,0.8,1.9,0.8
				c0.7,0,1.3-0.3,1.9-0.8c0.5-0.5,0.8-1.1,0.8-1.9c0-0.7-0.3-1.4-0.8-1.9c-0.5-0.5-1.1-0.8-1.9-0.8c-0.7,0-1.3,0.3-1.9,0.8
				c-0.5,0.5-0.8,1.1-0.8,1.9C70.3,109.1,70.5,109.7,71,110.2z"/>
			<path class="st1" d="M81.3,104.9c1,0,1.8,0.3,2.4,1c0.6,0.7,0.9,1.5,0.9,2.5c0,0.1,0,0.2,0,0.4l-5.8,0c0.1,0.7,0.4,1.2,0.9,1.6
				c0.5,0.4,1.1,0.6,1.8,0.6c0.5,0,0.9-0.1,1.3-0.3c0.4-0.2,0.6-0.5,0.8-0.8l0.8,0.4c-0.3,0.5-0.7,0.8-1.2,1.1
				c-0.5,0.3-1.1,0.4-1.7,0.4c-1,0-1.9-0.3-2.5-1c-0.7-0.7-1-1.5-1-2.5c0-1,0.3-1.8,1-2.5C79.4,105.2,80.3,104.9,81.3,104.9z
				 M81.3,105.8c-0.7,0-1.3,0.2-1.7,0.6s-0.7,0.9-0.8,1.6l4.9,0c-0.1-0.7-0.4-1.2-0.8-1.6C82.4,106,81.9,105.8,81.3,105.8z"/>
			<path class="st1" d="M92.8,104.9c0.9,0,1.7,0.3,2.4,1c0.7,0.7,1,1.5,1,2.5c0,1-0.3,1.8-1,2.5c-0.7,0.7-1.5,1-2.4,1
				c-1.2,0-2.1-0.5-2.7-1.5l0,3.9l-0.9,0l0-9.3l0.9,0l0,1.3C90.7,105.4,91.6,104.9,92.8,104.9z M90.9,110.2c0.5,0.5,1.1,0.8,1.9,0.8
				c0.7,0,1.3-0.3,1.9-0.8c0.5-0.5,0.8-1.1,0.8-1.9c0-0.7-0.3-1.4-0.8-1.9c-0.5-0.5-1.1-0.8-1.9-0.8c-0.7,0-1.3,0.3-1.9,0.8
				c-0.5,0.5-0.8,1.1-0.8,1.9C90.1,109.1,90.4,109.7,90.9,110.2z"/>
			<path class="st1" d="M98.5,106.2c0.4-0.8,1.1-1.2,2.1-1.2l0,0.8c-0.6,0-1.1,0.2-1.5,0.5c-0.4,0.4-0.6,0.9-0.6,1.7l0,3.7l-0.9,0
				l0-6.6l0.9,0L98.5,106.2z"/>
			<path class="st1" d="M107,110.8c-0.7,0.7-1.5,1-2.5,1c-1,0-1.8-0.3-2.5-1c-0.7-0.7-1-1.5-1-2.5s0.3-1.8,1-2.5
				c0.7-0.7,1.5-1,2.5-1c1,0,1.8,0.3,2.5,1c0.7,0.7,1,1.5,1,2.5C108,109.3,107.6,110.2,107,110.8z M102.6,110.2
				c0.5,0.5,1.1,0.8,1.9,0.8c0.7,0,1.3-0.3,1.9-0.8s0.8-1.1,0.8-1.9c0-0.7-0.3-1.4-0.8-1.9c-0.5-0.5-1.1-0.8-1.9-0.8
				c-0.7,0-1.3,0.3-1.9,0.8c-0.5,0.5-0.8,1.1-0.8,1.9C101.9,109.1,102.1,109.7,102.6,110.2z"/>
			<path class="st1" d="M112.5,104.9c0.8,0,1.4,0.2,1.9,0.7c0.5,0.5,0.7,1.1,0.7,2l0,4.1l-0.9,0l0-4.1c0-0.6-0.2-1-0.5-1.4
				c-0.3-0.3-0.8-0.5-1.3-0.5c-0.6,0-1.2,0.2-1.5,0.6c-0.4,0.4-0.6,1-0.6,1.9l0,3.5l-0.9,0l0-6.6l0.9,0l0,1
				C110.8,105.3,111.5,104.9,112.5,104.9z"/>
			<path class="st1" d="M120.3,105.9l-1.9,0l0,4c0,0.4,0.1,0.6,0.2,0.8c0.1,0.2,0.4,0.2,0.6,0.2c0.3,0,0.6,0,1.1,0l0,0.8
				c-0.9,0.1-1.6,0.1-2.1-0.2c-0.5-0.3-0.7-0.8-0.7-1.6l0-4l-1.4,0l0-0.8l1.4,0l0-1.6l0.9-0.3l0,1.9l1.9,0L120.3,105.9z"/>
			<path class="st1" d="M126.9,110.8c-0.7,0.7-1.5,1-2.5,1c-1,0-1.8-0.3-2.5-1c-0.7-0.7-1-1.5-1-2.5c0-1,0.3-1.8,1-2.5
				c0.7-0.7,1.5-1,2.5-1c1,0,1.8,0.3,2.5,1c0.7,0.7,1,1.5,1,2.5C127.9,109.3,127.6,110.2,126.9,110.8z M122.6,110.2
				c0.5,0.5,1.1,0.8,1.9,0.8c0.7,0,1.3-0.3,1.9-0.8c0.5-0.5,0.8-1.1,0.8-1.9c0-0.7-0.3-1.4-0.8-1.9s-1.1-0.8-1.9-0.8
				c-0.7,0-1.3,0.3-1.9,0.8c-0.5,0.5-0.8,1.1-0.8,1.9C121.8,109.1,122.1,109.7,122.6,110.2z"/>
			<path class="st1" d="M136.2,104.9c0.9,0,1.7,0.3,2.4,1c0.7,0.7,1,1.5,1,2.5c0,1-0.3,1.8-1,2.5c-0.7,0.7-1.5,1-2.4,1
				c-1.2,0-2.1-0.5-2.7-1.5l0,3.9l-0.9,0l0-9.3l0.9,0l0,1.3C134.2,105.4,135.1,104.9,136.2,104.9z M134.3,110.2
				c0.5,0.5,1.1,0.8,1.9,0.8c0.7,0,1.3-0.3,1.9-0.8c0.5-0.5,0.8-1.1,0.8-1.9c0-0.7-0.3-1.4-0.8-1.9c-0.5-0.5-1.1-0.8-1.9-0.8
				c-0.7,0-1.3,0.3-1.9,0.8c-0.5,0.5-0.8,1.1-0.8,1.9C133.6,109.1,133.8,109.7,134.3,110.2z"/>
			<path class="st1" d="M146.8,105.1l0.9,0l0,6.6l-0.9,0l0-1.3c-0.6,1-1.5,1.5-2.7,1.5c-0.9,0-1.7-0.3-2.4-1c-0.7-0.7-1-1.5-1-2.5
				c0-1,0.3-1.8,1-2.5s1.5-1,2.4-1c1.2,0,2.1,0.5,2.7,1.5L146.8,105.1z M142.3,110.2c0.5,0.5,1.1,0.8,1.9,0.8c0.7,0,1.3-0.3,1.9-0.8
				c0.5-0.5,0.8-1.1,0.8-1.9c0-0.7-0.3-1.4-0.8-1.9c-0.5-0.5-1.1-0.8-1.9-0.8c-0.7,0-1.3,0.3-1.9,0.8c-0.5,0.5-0.8,1.1-0.8,1.9
				C141.6,109.1,141.8,109.7,142.3,110.2z"/>
			<path class="st1" d="M155.2,105l0.9,0l0,6.3c0,1-0.3,1.7-1,2.2c-0.7,0.5-1.4,0.8-2.3,0.8c-1.6,0-2.6-0.5-3.1-1.6l0.8-0.4
				c0.4,0.8,1.2,1.2,2.4,1.2c0.8,0,1.4-0.2,1.8-0.6c0.4-0.4,0.7-0.9,0.7-1.6l0-1c-0.6,1-1.5,1.5-2.7,1.5c-0.9,0-1.7-0.3-2.4-1
				s-1-1.5-1-2.5c0-1,0.3-1.8,1-2.5c0.7-0.7,1.5-1,2.4-1c1.2,0,2.1,0.5,2.7,1.5L155.2,105z M150.7,110.2c0.5,0.5,1.1,0.8,1.9,0.8
				c0.7,0,1.3-0.3,1.9-0.8c0.5-0.5,0.8-1.1,0.8-1.9c0-0.7-0.3-1.4-0.8-1.9c-0.5-0.5-1.1-0.8-1.9-0.8c-0.7,0-1.3,0.3-1.9,0.8
				c-0.5,0.5-0.8,1.1-0.8,1.9C150,109.1,150.2,109.7,150.7,110.2z"/>
			<path class="st1" d="M163.5,110.8c-0.7,0.7-1.5,1-2.5,1c-1,0-1.8-0.3-2.5-1c-0.7-0.7-1-1.5-1-2.5s0.3-1.8,1-2.5
				c0.7-0.7,1.5-1,2.5-1c1,0,1.8,0.3,2.5,1c0.7,0.7,1,1.5,1,2.5S164.2,110.2,163.5,110.8z M159.2,110.2c0.5,0.5,1.1,0.8,1.9,0.8
				s1.3-0.3,1.9-0.8s0.8-1.1,0.8-1.9c0-0.7-0.3-1.4-0.8-1.9c-0.5-0.5-1.1-0.8-1.9-0.8c-0.7,0-1.3,0.3-1.9,0.8s-0.8,1.1-0.8,1.9
				C158.4,109.1,158.7,109.7,159.2,110.2z"/>
			<path class="st1" d="M80.1,117.3c1,0,1.8,0.3,2.4,1c0.6,0.7,0.9,1.5,0.9,2.5c0,0.1,0,0.2,0,0.4l-5.8,0c0.1,0.7,0.4,1.2,0.9,1.6
				c0.5,0.4,1.1,0.6,1.8,0.6c0.5,0,0.9-0.1,1.3-0.3c0.4-0.2,0.6-0.5,0.8-0.8l0.8,0.4c-0.3,0.5-0.7,0.8-1.2,1.1
				c-0.5,0.3-1.1,0.4-1.7,0.4c-1,0-1.9-0.3-2.5-1c-0.7-0.7-1-1.5-1-2.5c0-1,0.3-1.8,1-2.5C78.3,117.6,79.1,117.3,80.1,117.3z
				 M80.1,118.2c-0.7,0-1.3,0.2-1.7,0.6s-0.7,0.9-0.8,1.6l4.9,0c-0.1-0.7-0.4-1.2-0.8-1.6C81.3,118.4,80.7,118.2,80.1,118.2z"/>
			<path class="st1" d="M89,115.9c-0.1,0.1-0.3,0.2-0.4,0.2c-0.2,0-0.3-0.1-0.4-0.2c-0.1-0.1-0.2-0.3-0.2-0.4c0-0.2,0.1-0.3,0.2-0.4
				c0.1-0.1,0.3-0.2,0.4-0.2c0.2,0,0.3,0.1,0.4,0.2c0.1,0.1,0.2,0.3,0.2,0.4C89.2,115.6,89.1,115.8,89,115.9z M88.1,124.1l0-6.6
				l0.9,0l0,6.6L88.1,124.1z"/>
			<path class="st1" d="M93.9,117.3c0.8,0,1.4,0.2,1.9,0.7s0.7,1.1,0.7,2l0,4.1l-0.9,0l0-4.1c0-0.6-0.2-1-0.5-1.4
				c-0.3-0.3-0.8-0.5-1.3-0.5c-0.6,0-1.2,0.2-1.5,0.6c-0.4,0.4-0.6,1-0.6,1.9l0,3.5l-0.9,0l0-6.6l0.9,0l0,1
				C92.2,117.7,93,117.3,93.9,117.3z"/>
			<path class="st1" d="M101.3,124.2c-1,0-1.8-0.3-2.5-1c-0.7-0.7-1-1.5-1-2.5s0.3-1.8,1-2.5c0.7-0.7,1.5-1,2.5-1
				c0.7,0,1.2,0.2,1.8,0.5c0.5,0.3,0.9,0.7,1.1,1.3l-0.7,0.4c-0.2-0.4-0.5-0.7-0.9-0.9c-0.4-0.2-0.8-0.3-1.3-0.3
				c-0.7,0-1.3,0.3-1.9,0.8c-0.5,0.5-0.8,1.1-0.8,1.9c0,0.7,0.3,1.4,0.8,1.9c0.5,0.5,1.1,0.8,1.9,0.8c0.5,0,0.9-0.1,1.3-0.4
				c0.4-0.2,0.7-0.5,0.9-0.9l0.7,0.4c-0.3,0.5-0.7,0.9-1.2,1.3C102.5,124.1,102,124.2,101.3,124.2z"/>
			<path class="st1" d="M111,123.2c-0.7,0.7-1.5,1-2.5,1c-1,0-1.8-0.3-2.5-1c-0.7-0.7-1-1.5-1-2.5c0-1,0.3-1.8,1-2.5
				c0.7-0.7,1.5-1,2.5-1c1,0,1.8,0.3,2.5,1c0.7,0.7,1,1.5,1,2.5C112,121.8,111.7,122.6,111,123.2z M106.7,122.6
				c0.5,0.5,1.1,0.8,1.9,0.8c0.7,0,1.3-0.3,1.9-0.8c0.5-0.5,0.8-1.1,0.8-1.9c0-0.7-0.3-1.4-0.8-1.9s-1.1-0.8-1.9-0.8
				c-0.7,0-1.3,0.3-1.9,0.8c-0.5,0.5-0.8,1.1-0.8,1.9C105.9,121.5,106.2,122.1,106.7,122.6z"/>
			<path class="st1" d="M117,117.3c0.9,0,1.7,0.3,2.4,1c0.7,0.7,1,1.5,1,2.5c0,1-0.3,1.8-1,2.5c-0.7,0.7-1.5,1-2.4,1
				c-1.2,0-2.1-0.5-2.7-1.5l0,1.3l-0.9,0l0-9.3l0.9,0l0,3.9C115,117.8,115.8,117.3,117,117.3z M115.1,122.6c0.5,0.5,1.1,0.8,1.9,0.8
				c0.7,0,1.3-0.3,1.9-0.8c0.5-0.5,0.8-1.1,0.8-1.9c0-0.7-0.3-1.4-0.8-1.9c-0.5-0.5-1.1-0.8-1.9-0.8c-0.7,0-1.3,0.3-1.9,0.8
				c-0.5,0.5-0.8,1.1-0.8,1.9C114.4,121.5,114.6,122.1,115.1,122.6z"/>
			<path class="st1" d="M122.8,118.6c0.4-0.8,1.1-1.2,2.1-1.2l0,0.8c-0.6,0-1.1,0.2-1.5,0.5c-0.4,0.4-0.6,0.9-0.6,1.7l0,3.7l-0.9,0
				l0-6.6l0.9,0L122.8,118.6z"/>
			<path class="st1" d="M131.3,117.5l0.9,0l0,6.6l-0.9,0l0-1.3c-0.6,1-1.5,1.5-2.7,1.5c-0.9,0-1.7-0.3-2.4-1c-0.7-0.7-1-1.5-1-2.5
				c0-1,0.3-1.8,1-2.5c0.7-0.7,1.5-1,2.4-1c1.2,0,2.1,0.5,2.7,1.5L131.3,117.5z M126.9,122.6c0.5,0.5,1.1,0.8,1.9,0.8
				s1.3-0.3,1.9-0.8s0.8-1.1,0.8-1.9c0-0.7-0.3-1.4-0.8-1.9c-0.5-0.5-1.1-0.8-1.9-0.8c-0.7,0-1.3,0.3-1.9,0.8
				c-0.5,0.5-0.8,1.1-0.8,1.9C126.1,121.5,126.4,122.1,126.9,122.6z"/>
			<path class="st1" d="M137.6,117.3c0.9,0,1.7,0.3,2.4,1c0.7,0.7,1,1.5,1,2.5c0,1-0.3,1.8-1,2.5c-0.7,0.7-1.5,1-2.4,1
				c-1.2,0-2.1-0.5-2.7-1.5l0,1.3l-0.9,0l0-9.3l0.9,0l0,3.9C135.5,117.8,136.4,117.3,137.6,117.3z M135.7,122.6
				c0.5,0.5,1.1,0.8,1.9,0.8c0.7,0,1.3-0.3,1.9-0.8s0.8-1.1,0.8-1.9c0-0.7-0.3-1.4-0.8-1.9c-0.5-0.5-1.1-0.8-1.9-0.8
				c-0.7,0-1.3,0.3-1.9,0.8s-0.8,1.1-0.8,1.9C134.9,121.5,135.2,122.1,135.7,122.6z"/>
			<path class="st1" d="M142.5,124.1l0-9.7l0.9,0l0,9.7L142.5,124.1z"/>
			<path class="st1" d="M148.2,117.3c1,0,1.8,0.3,2.4,1c0.6,0.7,0.9,1.5,0.9,2.5c0,0.1,0,0.2,0,0.4l-5.8,0c0.1,0.7,0.4,1.2,0.9,1.6
				c0.5,0.4,1.1,0.6,1.8,0.6c0.5,0,0.9-0.1,1.3-0.3c0.4-0.2,0.6-0.5,0.8-0.8l0.8,0.4c-0.3,0.5-0.7,0.8-1.2,1.1s-1.1,0.4-1.7,0.4
				c-1,0-1.9-0.3-2.5-1c-0.7-0.7-1-1.5-1-2.5c0-1,0.3-1.8,1-2.5C146.4,117.6,147.2,117.3,148.2,117.3z M148.3,118.1
				c-0.7,0-1.3,0.2-1.7,0.6c-0.5,0.4-0.7,0.9-0.8,1.6l4.9,0c-0.1-0.7-0.4-1.2-0.8-1.6C149.4,118.3,148.8,118.1,148.3,118.1z"/>
			<path class="st1" d="M153.3,119.2c0,0.3,0.1,0.5,0.4,0.7s0.6,0.3,1,0.4c0.4,0.1,0.8,0.2,1.1,0.3c0.4,0.1,0.7,0.3,1,0.6
				c0.3,0.3,0.4,0.7,0.4,1.1c0,0.6-0.2,1-0.7,1.4c-0.4,0.4-1,0.5-1.7,0.5c-0.6,0-1.2-0.1-1.6-0.4c-0.4-0.3-0.8-0.6-0.9-1.1l0.7-0.4
				c0.1,0.3,0.3,0.6,0.7,0.8c0.3,0.2,0.7,0.3,1.1,0.3c0.4,0,0.8-0.1,1.1-0.3c0.3-0.2,0.4-0.4,0.4-0.8c0-0.3-0.1-0.5-0.4-0.7
				c-0.3-0.2-0.6-0.3-1-0.4s-0.8-0.2-1.1-0.3c-0.4-0.1-0.7-0.3-1-0.6c-0.3-0.3-0.4-0.6-0.4-1.1c0-0.5,0.2-1,0.6-1.3
				c0.4-0.4,1-0.5,1.6-0.5c0.5,0,1,0.1,1.4,0.4c0.4,0.2,0.7,0.6,0.9,1l-0.7,0.4c-0.3-0.6-0.8-0.9-1.6-0.9c-0.4,0-0.7,0.1-1,0.3
				C153.5,118.6,153.3,118.8,153.3,119.2z"/>
		</g>
	</g>
	<g id="XMLID_366_">
		<g id="XMLID_371_">
			<polygon id="Arrow_22_" class="st0" points="28.9,34.8 26.7,22.4 23.4,28.7 16.8,31.3 			"/>
			<polygon id="Arrow_21_" class="st0" points="6,8.3 8.1,20.7 11.4,14.4 18.1,11.8 			"/>
		</g>
		<line id="XMLID_368_" class="st2" x1="23.1" y1="28.7" x2="11.1" y2="13.9"/>
	</g>
	<g id="XMLID_3026_">
		<g id="XMLID_3523_">
			<g id="XMLID_3529_">
				<path id="XMLID_3533_" class="st1" d="M146.1,62.4c0-7.8-3.2-17.9-12.1-21.5l0-3.9l2.6-2.1c0.2-0.2,0.4-0.5,0.4-0.8l0-5.6
					c0-0.6-0.5-1-1-1l-3,0c-0.3,0-0.5,0.1-0.7,0.3l-1.3,1.3l-1.3-1.3c-0.2-0.2-0.4-0.3-0.7-0.3l-4,0c-0.3,0-0.5,0.1-0.7,0.3
					l-1.3,1.3l-1.3-1.3c-0.2-0.2-0.4-0.3-0.7-0.3l-3,0c-0.6,0-1,0.5-1,1l0,5.6c0,0.3,0.1,0.6,0.4,0.8l2.6,2.1l0,3.9
					c-8.9,3.6-12.1,13.8-12.1,21.5c0,1.8,0.3,3.6,0.8,5.4c-0.4,0-0.9,0-1.3,0l-2.6,0c0-0.6-0.5-1-1-1l-8.1,0c-0.6,0-1,0.5-1,1l-7,0
					l0,2l7,0l0,10.1l-7,0l0,2l7,0c0,0.6,0.5,1,1,1l8.1,0c0.6,0,1-0.5,1-1l0-0.4l7.5,3.1c4.1,1.7,8.7,1.7,12.8,0.1l15.6-5.9
					c0.9-0.4,1.7-1.1,2.1-2c0.6-1.3,0.3-2.9-0.7-4C144.8,70.1,146.3,66.3,146.1,62.4z M102.8,80.9l-6,0l0-12.1l6,0L102.8,80.9z
					 M118.9,33.6l0-4.1l1.6,0l1.7,1.7c0.4,0.4,1,0.4,1.4,0l1.7-1.7l3.2,0l1.7,1.7c0.4,0.4,1,0.4,1.4,0l1.7-1.7l1.6,0l0,4.1l-2.4,1.9
					l-11.4,0L118.9,33.6z M132,37.6l0,3l-10.1,0l0-3L132,37.6z M140.9,76c-0.2,0.4-0.5,0.7-0.9,0.9l-15.6,5.9
					c-3.7,1.4-7.7,1.4-11.3-0.1l-8.3-3.4l0-9.5l2.6,0c3.3,0,6.6,0.8,9.6,2.3c1,0.5,2.1,0.7,3.2,0.7l7.8,0c0.8,0,1.5,0.7,1.5,1.5
					c0,0.7-0.5,1.3-1.2,1.5c-0.1,0-0.3,0-0.4,0l-12,0l0,2l12,0c0,0,0,0,0.1,0c0,0,0,0,0.1,0c0.8,0,1.6-0.2,2.3-0.5l8.4-3.6
					c0.4-0.2,0.9-0.2,1.3,0c0.4,0.2,0.7,0.5,0.9,0.9C141.1,75.1,141.1,75.6,140.9,76z M140.3,71.7c-0.8-0.2-1.6-0.1-2.3,0.2
					l-6.5,2.8c0-0.1,0-0.2,0-0.4c0-1.9-1.6-3.5-3.5-3.5l-7.8,0c-0.8,0-1.6-0.2-2.3-0.5c-2.2-1.1-4.5-1.8-6.9-2.2
					c-0.8-1.8-1.1-3.7-1.1-5.6c0-7.2,3-16.8,11.3-19.9l11.7,0c8.3,3.1,11.3,12.6,11.3,19.9C144.3,65.9,142.9,69.3,140.3,71.7z"/>
			</g>
		</g>
		<g id="XMLID_3487_">
			<g id="XMLID_3489_">
				<rect id="XMLID_2673_" x="98.8" y="76.8" class="st1" width="2" height="2"/>
			</g>
		</g>
		<g id="XMLID_3081_">
			<g id="XMLID_3104_">
				<path id="XMLID_2672_" class="st1" d="M129.1,56.3l-3.6-1.2c-0.4-0.1-0.6-0.6-0.5-0.9c0.1-0.3,0.4-0.5,0.7-0.5l2.5,0
					c0.4,0,0.7,0.3,0.7,0.7l0,0.7l2,0l0-0.7c0-1.5-1.2-2.8-2.8-2.8l-0.3,0l0-2l-2,0l0,2l-0.3,0c-1.5,0-2.8,1.2-2.8,2.8
					c0,1.2,0.8,2.2,1.9,2.6l3.6,1.2c0.4,0.1,0.6,0.6,0.5,0.9c-0.1,0.3-0.4,0.5-0.7,0.5l-2.5,0c-0.4,0-0.7-0.3-0.7-0.7l0-0.7l-2,0
					l0,0.7c0,1.5,1.2,2.8,2.8,2.8l0.3,0l0,2l2,0l0-2l0.3,0c1.5,0,2.8-1.2,2.8-2.8C131,57.8,130.3,56.7,129.1,56.3z"/>
			</g>
		</g>
		<g id="XMLID_3027_">
			<g id="XMLID_3028_">
				<path id="XMLID_3067_" class="st1" d="M127,45.6c-6.1,0-11.1,5-11.1,11.1c0,6.1,5,11.1,11.1,11.1c6.1,0,11.1-5,11.1-11.1
					C138.1,50.6,133.1,45.6,127,45.6z M127,65.7c-5,0-9.1-4.1-9.1-9.1c0-5,4.1-9.1,9.1-9.1c5,0,9.1,4.1,9.1,9.1
					C136.1,61.7,132,65.7,127,65.7z"/>
			</g>
		</g>
	</g>
</g>
</svg>
