<?xml version="1.0" encoding="utf-8"?>
<!-- Generator: Adobe Illustrator 23.0.6, SVG Export Plug-In . SVG Version: 6.00 Build 0)  -->
<svg version="1.1" id="Layer_1" xmlns="http://www.w3.org/2000/svg" xmlns:xlink="http://www.w3.org/1999/xlink" x="0px" y="0px"
	 viewBox="0 0 116 100" style="enable-background:new 0 0 116 100;" xml:space="preserve">
<style type="text/css">
	.st0{fill:#FFFFFF;}
</style>
<g id="XMLID_3097_">
	<g id="XMLID_5803_">
		<path id="XMLID_5804_" class="st0" d="M90.9,62.5H77.9V51.2h12.9V62.5z M81.2,59.3h6.5v-4.9h-6.5V59.3z"/>
	</g>
	<g id="XMLID_5801_">
		<rect id="XMLID_5802_" x="87.6" y="77" class="st0" width="8.1" height="3.2"/>
	</g>
	<g id="XMLID_5786_">
		<path id="XMLID_5789_" class="st0" d="M102.2,86.7H66.6V51.2h35.6V86.7z M69.9,83.5H99V54.4H69.9V83.5z"/>
	</g>
	<g id="XMLID_5746_">
		<path id="XMLID_5783_" class="st0" d="M71.5,23.7h-3.2c0-6.2-5.1-11.3-11.3-11.3V9.1C64.9,9.1,71.5,15.7,71.5,23.7z"/>
	</g>
	<g id="XMLID_3162_">
		<path id="XMLID_5745_" class="st0" d="M45.6,23.7h-3.2c0-8,6.5-14.6,14.6-14.6v3.2C50.7,12.4,45.6,17.4,45.6,23.7z"/>
	</g>
	<g id="XMLID_3121_">
		<rect id="XMLID_3123_" x="42.4" y="23.7" class="st0" width="3.2" height="4.9"/>
	</g>
	<g id="XMLID_3119_">
		<path id="XMLID_3120_" class="st0" d="M56.9,43.1c-8,0-14.6-6.5-14.6-14.6h3.2c0,6.2,5.1,11.3,11.3,11.3V43.1z"/>
	</g>
	<g id="XMLID_3117_">
		<path id="XMLID_3118_" class="st0" d="M56.9,43.1v-3.2c5.7,0,10.5-4.3,11.2-9.9l3.2,0.4C70.5,37.6,64.2,43.1,56.9,43.1z"/>
	</g>
	<g id="XMLID_3115_">
		<rect id="XMLID_3116_" x="37.5" y="70.6" class="st0" width="3.2" height="16.2"/>
	</g>
	<g id="XMLID_3112_">
		<rect id="XMLID_3114_" x="44" y="23.7" class="st0" width="35.6" height="3.2"/>
	</g>
	<g id="XMLID_3106_">
		<path id="XMLID_3110_" class="st0" d="M27.8,86.7h-3.2v-24c0-6.7,4.7-12.6,11.2-14.2l0,0l0.3-0.1c0,0,0.1,0,0.1,0l0,0
			c8.9-1.9,18.1-2.5,27.3-1.9l-0.2,3.2c-8.8-0.6-17.6,0-26.2,1.8l-0.1,0.1l-0.3,0c-5.2,1.2-8.8,5.7-8.8,11V86.7z"/>
	</g>
</g>
</svg>
