<?xml version="1.0" encoding="utf-8"?>
<!-- Generator: Adobe Illustrator 23.0.6, SVG Export Plug-In . SVG Version: 6.00 Build 0)  -->
<svg version="1.1" id="Layer_1" xmlns="http://www.w3.org/2000/svg" xmlns:xlink="http://www.w3.org/1999/xlink" x="0px" y="0px"
	 viewBox="0 0 116 100" style="enable-background:new 0 0 116 100;" xml:space="preserve">
<style type="text/css">
	.st0{fill:#FFFFFF;}
	.st1{fill:#2B318B;}
	.st2{font-family:'Gilroy-Regular';}
	.st3{font-size:12.0158px;}
</style>
<path id="XMLID_2865_" class="st0" d="M56.6,4.2c29.5,0,53.4,20.5,53.4,45.8c0,25.3-23.9,45.9-53.4,45.9
	c-29.5,0-53.4-20.5-53.4-45.9C3.2,24.7,27.1,4.2,56.6,4.2"/>
<text id="XMLID_2845_" transform="matrix(1 0 0 1 21.7068 80.074)" class="st1 st2 st3">Proyecciones</text>
<g id="XMLID_2953_">
	<g id="XMLID_4171_">
		<g id="XMLID_4172_">
			<path id="XMLID_4201_" class="st1" d="M79.2,14.6H40.7c-2.3,0-4.2,1.9-4.2,4.2v13l-4.8,4.8c-0.2,0.2-0.2,0.4-0.2,0.6v29.2h1.7
				V37.5l3.3-3.3v2.2c0,0.5,0.4,0.8,0.8,0.8h9.9c-0.4,1.4-1.7,2.5-3.2,2.5h-3.3c-0.5,0-0.8,0.4-0.8,0.8c0,2.8-2.2,5-5,5v1.7
				c0.6,0,1.1-0.1,1.7-0.2v11.9c0,2.3,1.9,4.2,4.2,4.2h2.5v3.3h1.7V63h13.4v1.7c0,0.2,0.1,0.4,0.2,0.6l1.7,1.7l1.2-1.2L60,64.3v-5.2
				l1.7-1.7v3.8h1.7v-23c0-0.7,0.6-1.3,1.3-1.3c0.7,0,1.3,0.6,1.3,1.3v11.7v7.1h1.7v-7.1c0-0.7,0.6-1.3,1.3-1.3
				c0.7,0,1.3,0.6,1.3,1.3v7.1h1.7v-7.1c0-0.7,0.6-1.3,1.3-1.3c0.7,0,1.3,0.6,1.3,1.3v7.1H75h0.8l0-7.1c0-0.7,0.6-1.3,1.3-1.3
				c0.7,0,1.3,0.6,1.3,1.3v16.3H80v-3.4c1.9-0.4,3.3-2.1,3.3-4.1V18.7C83.3,16.4,81.5,14.6,79.2,14.6z M81.7,58.8
				c0,1.1-0.7,2-1.7,2.4V50.1c0-1.6-1.3-2.9-2.9-2.9c-0.8,0-1.6,0.3-2.1,0.9c-0.5-0.5-1.3-0.9-2.1-0.9c-0.8,0-1.6,0.3-2.1,0.9
				c-0.5-0.5-1.3-0.9-2.1-0.9c-0.4,0-0.9,0.1-1.3,0.3v-9.1c0-1.6-1.3-2.9-2.9-2.9c-1.6,0-2.9,1.3-2.9,2.9v16.8l-3.1,3.1
				c-0.2,0.2-0.2,0.4-0.2,0.6v2.5H40.7c-1.4,0-2.5-1.1-2.5-2.5V46.3c1.8-1,3-2.8,3.3-5h2.6c2.8,0,5-2.2,5-5c0-0.5-0.4-0.8-0.8-0.8
				h-10v-3.3V18.7c0-1.4,1.1-2.5,2.5-2.5h38.4c1.4,0,2.5,1.1,2.5,2.5V58.8L81.7,58.8z"/>
		</g>
	</g>
	<g id="XMLID_4107_">
		<g id="XMLID_4152_">
			<path id="XMLID_4155_" class="st1" d="M54.9,17.9H42.4c-0.5,0-0.8,0.4-0.8,0.8v4.2c0,0.5,0.4,0.8,0.8,0.8h12.5
				c0.5,0,0.8-0.4,0.8-0.8v-4.2C55.8,18.3,55.4,17.9,54.9,17.9z M54.1,22.1H43.2v-2.5h10.9V22.1z"/>
		</g>
	</g>
	<g id="XMLID_4018_">
		<g id="XMLID_4019_">
			<path id="XMLID_4020_" class="st1" d="M77.5,17.9H65c-0.5,0-0.8,0.4-0.8,0.8v4.2c0,0.5,0.4,0.8,0.8,0.8h12.5
				c0.5,0,0.8-0.4,0.8-0.8v-4.2C78.3,18.3,78,17.9,77.5,17.9z M76.7,22.1H65.8v-2.5h10.9V22.1z"/>
		</g>
	</g>
	<g id="XMLID_4013_">
		<g id="XMLID_4014_">
			<path id="XMLID_4015_" class="st1" d="M54.9,43H42.4c-0.5,0-0.8,0.4-0.8,0.8V48c0,0.5,0.4,0.8,0.8,0.8h12.5
				c0.5,0,0.8-0.4,0.8-0.8v-4.2C55.8,43.3,55.4,43,54.9,43z M54.1,47.1H43.2v-2.5h10.9V47.1z"/>
		</g>
	</g>
	<g id="XMLID_4010_">
		<g id="XMLID_4011_">
			<rect id="XMLID_3135_" x="59.1" y="17.9" class="st1" width="1.7" height="15.9"/>
		</g>
	</g>
	<g id="XMLID_3998_">
		<g id="XMLID_4001_">
			<rect id="XMLID_3134_" x="41.6" y="25.4" class="st1" width="9.2" height="1.7"/>
		</g>
	</g>
	<g id="XMLID_3946_">
		<g id="XMLID_3947_">
			<rect id="XMLID_3133_" x="53.3" y="25.4" class="st1" width="2.5" height="1.7"/>
		</g>
	</g>
	<g id="XMLID_3943_">
		<g id="XMLID_3944_">
			<rect id="XMLID_3132_" x="41.6" y="28.8" class="st1" width="9.2" height="1.7"/>
		</g>
	</g>
	<g id="XMLID_3928_">
		<g id="XMLID_3929_">
			<rect id="XMLID_3131_" x="53.3" y="28.8" class="st1" width="2.5" height="1.7"/>
		</g>
	</g>
	<g id="XMLID_3920_">
		<g id="XMLID_3926_">
			<rect id="XMLID_3130_" x="41.6" y="32.1" class="st1" width="9.2" height="1.7"/>
		</g>
	</g>
	<g id="XMLID_3841_">
		<g id="XMLID_3918_">
			<rect id="XMLID_3129_" x="53.3" y="32.1" class="st1" width="2.5" height="1.7"/>
		</g>
	</g>
	<g id="XMLID_3775_">
		<g id="XMLID_3776_">
			<rect id="XMLID_3128_" x="53.3" y="35.4" class="st1" width="2.5" height="1.7"/>
		</g>
	</g>
	<g id="XMLID_3682_">
		<g id="XMLID_3728_">
			<rect id="XMLID_3126_" x="53.3" y="38.8" class="st1" width="2.5" height="1.7"/>
		</g>
	</g>
	<g id="XMLID_3674_">
		<g id="XMLID_3676_">
			<rect id="XMLID_3125_" x="41.6" y="50.5" class="st1" width="9.2" height="1.7"/>
		</g>
	</g>
	<g id="XMLID_3560_">
		<g id="XMLID_3563_">
			<rect id="XMLID_3103_" x="53.3" y="50.5" class="st1" width="2.5" height="1.7"/>
		</g>
	</g>
	<g id="XMLID_3535_">
		<g id="XMLID_3537_">
			<rect id="XMLID_3082_" x="41.6" y="53.8" class="st1" width="9.2" height="1.7"/>
		</g>
	</g>
	<g id="XMLID_3518_">
		<g id="XMLID_3532_">
			<rect id="XMLID_3079_" x="53.3" y="53.8" class="st1" width="2.5" height="1.7"/>
		</g>
	</g>
	<g id="XMLID_3514_">
		<g id="XMLID_3516_">
			<rect id="XMLID_3078_" x="41.6" y="57.2" class="st1" width="9.2" height="1.7"/>
		</g>
	</g>
	<g id="XMLID_3306_">
		<g id="XMLID_3334_">
			<rect id="XMLID_2971_" x="53.3" y="57.2" class="st1" width="2.5" height="1.7"/>
		</g>
	</g>
	<g id="XMLID_3302_">
		<g id="XMLID_3303_">
			<rect id="XMLID_2970_" x="64.1" y="25.4" class="st1" width="9.2" height="1.7"/>
		</g>
	</g>
	<g id="XMLID_3299_">
		<g id="XMLID_3300_">
			<rect id="XMLID_2968_" x="75.8" y="25.4" class="st1" width="2.5" height="1.7"/>
		</g>
	</g>
	<g id="XMLID_3296_">
		<g id="XMLID_3297_">
			<rect id="XMLID_2967_" x="64.1" y="28.8" class="st1" width="9.2" height="1.7"/>
		</g>
	</g>
	<g id="XMLID_3288_">
		<g id="XMLID_3289_">
			<rect id="XMLID_2964_" x="75.8" y="28.8" class="st1" width="2.5" height="1.7"/>
		</g>
	</g>
	<g id="XMLID_3261_">
		<g id="XMLID_3274_">
			<rect id="XMLID_2963_" x="64.1" y="32.1" class="st1" width="9.2" height="1.7"/>
		</g>
	</g>
	<g id="XMLID_3175_">
		<g id="XMLID_3258_">
			<rect id="XMLID_2962_" x="75.8" y="32.1" class="st1" width="2.5" height="1.7"/>
		</g>
	</g>
	<g id="XMLID_3161_">
		<g id="XMLID_3167_">
			<rect id="XMLID_2961_" x="69.1" y="35.4" class="st1" width="4.2" height="1.7"/>
		</g>
	</g>
	<g id="XMLID_3158_">
		<g id="XMLID_3159_">
			<rect id="XMLID_2960_" x="75.8" y="35.4" class="st1" width="2.5" height="1.7"/>
		</g>
	</g>
	<g id="XMLID_3155_">
		<g id="XMLID_3156_">
			<rect id="XMLID_2959_" x="69.1" y="38.8" class="st1" width="4.2" height="1.7"/>
		</g>
	</g>
	<g id="XMLID_3152_">
		<g id="XMLID_3153_">
			<rect id="XMLID_2958_" x="75.8" y="38.8" class="st1" width="2.5" height="1.7"/>
		</g>
	</g>
	<g id="XMLID_3149_">
		<g id="XMLID_3150_">
			<rect id="XMLID_2955_" x="69.1" y="42.1" class="st1" width="4.2" height="1.7"/>
		</g>
	</g>
	<g id="XMLID_3146_">
		<g id="XMLID_3147_">
			<rect id="XMLID_2954_" x="75.8" y="42.1" class="st1" width="2.5" height="1.7"/>
		</g>
	</g>
</g>
</svg>
