<?xml version="1.0" encoding="utf-8"?>
<!-- Generator: Adobe Illustrator 23.0.6, SVG Export Plug-In . SVG Version: 6.00 Build 0)  -->
<svg version="1.1" id="Layer_1" xmlns="http://www.w3.org/2000/svg" xmlns:xlink="http://www.w3.org/1999/xlink" x="0px" y="0px"
	 viewBox="0 0 128 98" style="enable-background:new 0 0 128 98;" xml:space="preserve">
<style type="text/css">
	.st0{fill:#FFFFFF;}
	.st1{fill:#2B318B;}
	.st2{font-family:'Gilroy-Regular';}
	.st3{font-size:12.0158px;}
</style>
<path id="XMLID_346_" class="st0" d="M65.6,3.2c29.5,0,53.4,20.5,53.4,45.8c0,25.3-23.9,45.9-53.4,45.9c-29.5,0-53.4-20.5-53.4-45.9
	C12.2,23.7,36.1,3.2,65.6,3.2"/>
<text id="XMLID_348_" transform="matrix(1 0 0 1 36.7263 72.073)"><tspan x="0" y="0" class="st1 st2 st3">Recaudo y</tspan><tspan x="3.2" y="10.4" class="st1 st2 st3">cobranza</tspan></text>
<g id="XMLID_1414_">
	<g>
		<g id="XMLID_311_">
			<g id="XMLID_312_">
				<path id="XMLID_313_" class="st1" d="M79.7,35.7c0-9.4-7.7-17.1-17.1-17.1c-3,0-5.8,0.8-8.4,2.2h-2.1v-2.2h-3.3v7
					c-2.2,2.9-3.3,6.4-3.3,10.1c0,9.4,7.7,17.1,17.1,17.1c2.1,0,4.1-0.4,6.1-1.1c1.1,0.7,2.4,1.1,3.8,1.1c1.7,0,3.4-0.6,4.7-1.7
					l-0.7-0.8c-1.1,0.9-2.5,1.5-4,1.5c-3.3,0-6.1-2.7-6.1-6.1c0-3.3,2.7-6.1,6.1-6.1c3.3,0,6.1,2.7,6.1,6.1c0,1.4-0.5,2.7-1.3,3.8
					l0.9,0.7c1-1.3,1.6-2.9,1.6-4.5c0-1.4-0.4-2.7-1.1-3.8C79.3,39.8,79.7,37.8,79.7,35.7z M54.3,24.1h1.1v1.1v6.6h-1.1V24.1z
					 M52.1,21.9h1.1V23v8.8h-1.1V21.9z M49.9,19.7H51v1.1v11h-1.1V19.7z M62,51.7c-8.4-0.3-15.1-7-15.4-15.4H62V51.7z M62,35.1H46.6
					c0.1-2.7,0.8-5.2,2.2-7.5v5.3H51h1.1h1.1h1.1h1.1h1.1h1.1h1.1h2.2v-5.5h-2.2v-2.2h-2.2V23h-2.2v-1c2.3-1.4,5-2.2,7.7-2.3V35.1z
					 M56.5,31.8v-5.5h1.1v1.1v4.4H56.5z M58.7,31.8v-3.3h1.1v3.3H58.7z M78.6,35.1h-4.7l4.1-4.1C78.3,32.4,78.5,33.7,78.6,35.1z
					 M75.8,26.7l-6.2,6.2l0.8,0.8l6-6c0.4,0.7,0.8,1.5,1.1,2.3l-5.2,5.2h-3.4l0.7-0.7l-0.8-0.8l-1.5,1.5h-3.4l10.3-10.3
					C74.8,25.4,75.3,26,75.8,26.7z M63.1,19.7c1.4,0,2.8,0.3,4.1,0.7l-4.1,4.1V19.7z M63.1,31l6.7-6.7l-0.8-0.8l-5.9,5.9V26l5.2-5.2
					c0.8,0.3,1.6,0.7,2.3,1.1l-0.9,0.9l0.8,0.8l1.1-1.1c0.7,0.5,1.3,1,1.9,1.5L63.1,34.4V31z M72.5,38.4c-4,0-7.2,3.2-7.2,7.2
					c0,2.1,0.9,3.9,2.3,5.2c-1.5,0.5-3,0.8-4.5,0.8V36.2h15.4c-0.1,1.5-0.3,3.1-0.8,4.5C76.4,39.3,74.6,38.4,72.5,38.4z"/>
			</g>
		</g>
		<g id="XMLID_308_">
			<g id="XMLID_309_">
				
					<rect id="XMLID_310_" x="51.3" y="41.7" transform="matrix(0.7071 -0.7071 0.7071 0.7071 -13.5152 51.97)" class="st1" width="9.4" height="1.1"/>
			</g>
		</g>
		<g id="XMLID_303_">
			<g id="XMLID_304_">
				<path id="XMLID_305_" class="st1" d="M58.2,42.9c-0.9,0-1.7,0.7-1.7,1.7c0,0.9,0.7,1.7,1.7,1.7c0.9,0,1.7-0.7,1.7-1.7
					C59.8,43.6,59.1,42.9,58.2,42.9z M58.2,45.1c-0.3,0-0.6-0.2-0.6-0.6s0.2-0.6,0.6-0.6s0.6,0.2,0.6,0.6S58.5,45.1,58.2,45.1z"/>
			</g>
		</g>
		<g id="XMLID_298_">
			<g id="XMLID_299_">
				<path id="XMLID_300_" class="st1" d="M53.8,38.4c-0.9,0-1.7,0.7-1.7,1.7c0,0.9,0.7,1.7,1.7,1.7s1.7-0.7,1.7-1.7
					C55.4,39.2,54.7,38.4,53.8,38.4z M53.8,40.6c-0.3,0-0.6-0.2-0.6-0.6c0-0.3,0.2-0.6,0.6-0.6s0.6,0.2,0.6,0.6
					C54.3,40.4,54.1,40.6,53.8,40.6z"/>
			</g>
		</g>
		<g id="XMLID_295_">
			<g id="XMLID_296_">
				<path id="XMLID_297_" class="st1" d="M72.5,45.1c-0.6,0-1.1-0.5-1.1-1.1s0.5-1.1,1.1-1.1s1.1,0.5,1.1,1.1h1.1
					c0-1-0.7-1.9-1.7-2.1v-1.2H72v1.2c-0.9,0.2-1.7,1.1-1.7,2.1c0,1.2,1,2.2,2.2,2.2c0.6,0,1.1,0.5,1.1,1.1s-0.5,1.1-1.1,1.1
					s-1.1-0.5-1.1-1.1h-1.1c0,1,0.7,1.9,1.7,2.1v1.2h1.1v-1.2c0.9-0.2,1.7-1.1,1.7-2.1C74.7,46,73.7,45.1,72.5,45.1z"/>
			</g>
		</g>
		<g id="XMLID_292_">
			<g id="XMLID_293_">
				<rect id="XMLID_294_" x="76.4" y="45.1" class="st1" width="1.1" height="1.1"/>
			</g>
		</g>
		<g id="XMLID_289_">
			<g id="XMLID_290_">
				<rect id="XMLID_291_" x="67.5" y="45.1" class="st1" width="1.1" height="1.1"/>
			</g>
		</g>
	</g>
</g>
</svg>
