<?xml version="1.0" encoding="utf-8"?>
<!-- Generator: Adobe Illustrator 23.0.6, SVG Export Plug-In . SVG Version: 6.00 Build 0)  -->
<svg version="1.1" id="Layer_1" xmlns="http://www.w3.org/2000/svg" xmlns:xlink="http://www.w3.org/1999/xlink" x="0px" y="0px"
	 viewBox="0 0 128 98" style="enable-background:new 0 0 128 98;" xml:space="preserve">
<style type="text/css">
	.st0{fill:#FFFFFF;}
	.st1{fill:#2B318B;}
	.st2{font-family:'Gilroy-Regular';}
	.st3{font-size:12.0158px;}
</style>
<g>
	<path id="XMLID_1006_" class="st0" d="M65.6,3.2c29.5,0,53.4,20.5,53.4,45.8c0,25.3-23.9,45.9-53.4,45.9
		c-29.5,0-53.4-20.5-53.4-45.9C12.2,23.7,36.1,3.2,65.6,3.2"/>
	<text id="XMLID_269_" transform="matrix(1 0 0 1 36.7041 64.3749)"><tspan x="0" y="0" class="st1 st2 st3">Resolución </tspan><tspan x="-1.4" y="12.4" class="st1 st2 st3">de disputas</tspan></text>
	<g id="XMLID_1876_">
		<path id="XMLID_1879_" class="st1" d="M85.1,30.2h-1.5l-2.3,1.2c-0.3-0.1-0.5-0.3-0.8-0.3l-2.9-0.7V30c1.3-0.9,2-2.3,2-3.9V25
			c0-2.6-2.1-4.8-4.6-4.9c-0.1,0-0.3,0-0.4,0l0.7-1.7l-3.6-3.6l-2.1,1.4c-0.8-0.5-1.7-0.8-2.5-1.1l-0.5-2.5h-5.2L61,15
			c-0.9,0.2-1.7,0.6-2.5,1.1l-2.1-1.4l-3.6,3.6l0.7,1.7c0,0-0.1,0-0.1,0c-1.3,0-2.5,0.4-3.5,1.3c-0.9,0.9-1.4,2.1-1.4,3.4v1.4
			c0,1.6,0.8,3,2,3.9v0.3l-1.9,0.5l-3.4-2H43v14.1l6.7,2.2H51l0.2-0.6l2,1.2c0,1.1,0.9,2,2,2.1c0,1.1,0.9,2,2,2c0,1.1,0.9,2,2,2
			c0,1.1,1,2,2.1,2c0.4,0,0.8-0.1,1.2-0.4l0.6,0.5c0.4,0.3,0.9,0.5,1.4,0.5h0.1c1.1,0,2.1-0.9,2.1-2c1.1,0,2-0.9,2-2
			c1.1,0,2-0.9,2-2c1.1,0,2-0.9,2-2.1c0-0.1,0-0.1,0-0.2l12.2-6.1V30.2z M78.3,25v1.2c0,1.2-0.7,2.3-1.7,2.9l-0.3,0.2l0,2.2l3.4,0.8
			l-7.5,3.9v-1.8c0-0.9-0.4-1.8-1-2.4l2.3-0.6v-2.2l-0.3-0.2c-1-0.6-1.7-1.7-1.7-2.9v-1.4c0-0.9,0.4-1.8,1-2.4c0.7-0.6,1.5-1,2.5-1
			C76.9,21.4,78.3,23,78.3,25z M65.1,35.7l-3.1-1c-1.4-0.4-2.9-0.5-4.4-0.2l-0.4,0.1v-0.2c0-0.9,0.6-1.8,1.5-2l3.9-1v-2.2l-0.3-0.2
			c-1-0.6-1.7-1.7-1.7-2.9v-1.4c0-0.9,0.4-1.8,1-2.4c0.7-0.6,1.6-1,2.5-1c1.8,0.1,3.3,1.7,3.3,3.6v1.2c0,1.2-0.7,2.3-1.7,2.9
			l-0.3,0.2l0,2.2l3.9,1c0.9,0.2,1.5,1,1.5,2v2.5L70.7,37h-0.4l-4.2-1.2C65.8,35.7,65.4,35.7,65.1,35.7z M57.4,22.7
			c1.3-2.5,3.8-4.1,6.6-4.1c2.8,0,5.3,1.6,6.6,4c-0.3,0.6-0.5,1.4-0.5,2.1v1.4c0,1.6,0.8,3,2,3.9v0.3l-2.7,0.7l-2.7-0.7V30
			c1.3-0.9,2-2.3,2-3.9V25c0-2.6-2.1-4.8-4.6-4.9c-1.3,0-2.5,0.4-3.5,1.3c-0.9,0.9-1.4,2.1-1.4,3.4v1.4c0,1.6,0.8,3,2,3.9v0.3
			l-2.7,0.7l-2.7-0.7V30c1.3-0.9,2-2.3,2-3.9V25C58,24.2,57.8,23.4,57.4,22.7z M54.3,18.6l2.2-2.2l1.9,1.2l0.4-0.2
			c0.9-0.6,1.9-1,2.9-1.2l0.4-0.1l0.5-2.2h3l0.5,2.2l0.4,0.1c1,0.2,2,0.7,2.9,1.2l0.4,0.2l1.9-1.2l2.2,2.2l-0.8,1.8
			c-0.5,0.2-1,0.5-1.4,1c0,0-0.1,0.1-0.1,0.1c-1.6-2.5-4.4-4.1-7.5-4.1c-3.1,0-5.9,1.6-7.5,4.2c-0.4-0.4-0.9-0.8-1.5-1.1L54.3,18.6z
			 M51.8,31.4v-2.2l-0.3-0.2c-1-0.6-1.7-1.7-1.7-2.9v-1.4c0-0.9,0.4-1.8,1-2.4c0.7-0.6,1.6-1,2.5-1c1.8,0.1,3.3,1.7,3.3,3.6v1.2
			c0,1.2-0.7,2.3-1.7,2.9l-0.3,0.2l0,2.2l2.3,0.6c-0.6,0.6-1,1.5-1,2.4v0.5l-2.1,0.5l0.1-0.2l0-1.3l-3.6-2.1L51.8,31.4z M44.4,30.2
			h0.5l4.9,2.9l-2.5,9.9l-2.9-1V30.2z M49.9,43.8l-1.3-0.4l2.4-9.6l1.6,0.9v0.2L49.9,43.8L49.9,43.8z M54.6,45.8
			c0-0.2,0.1-0.4,0.2-0.5L56,44c0.1-0.1,0.3-0.2,0.5-0.2c0.4,0,0.8,0.3,0.8,0.8c0,0.2-0.1,0.4-0.2,0.5l-1.2,1.2
			c-0.1,0.1-0.3,0.2-0.5,0.2C54.9,46.5,54.6,46.2,54.6,45.8z M56.6,47.8c0-0.2,0.1-0.4,0.2-0.5l1.2-1.2c0.1-0.1,0.3-0.2,0.5-0.2
			c0.4,0,0.8,0.3,0.8,0.8c0,0.2-0.1,0.4-0.2,0.5l-1.2,1.2c-0.1,0.1-0.3,0.2-0.5,0.2C56.9,48.6,56.6,48.2,56.6,47.8z M58.6,49.9
			c0-0.2,0.1-0.4,0.2-0.5l1.2-1.2c0.1-0.1,0.3-0.2,0.5-0.2c0.4,0,0.8,0.3,0.8,0.8c0,0.2-0.1,0.4-0.2,0.5l-1.2,1.2
			c-0.1,0.1-0.3,0.2-0.5,0.2C59,50.6,58.6,50.3,58.6,49.9z M61.4,52.7c-0.4,0-0.8-0.3-0.8-0.8c0-0.2,0.1-0.4,0.2-0.5l1.2-1.2
			c0.1-0.1,0.3-0.2,0.5-0.2c0.4,0,0.8,0.3,0.8,0.8c0,0.2-0.1,0.4-0.2,0.5L62,52.4C61.8,52.6,61.6,52.7,61.4,52.7z M64.7,53.3h-0.1
			c-0.2,0-0.3-0.1-0.5-0.2l-0.5-0.4l0.5-0.5c0.2-0.2,0.3-0.4,0.4-0.6l0.6,0.5c0.2,0.1,0.3,0.3,0.3,0.5C65.4,53,65.1,53.3,64.7,53.3z
			 M70.8,47.2h-0.1c-0.2,0-0.3-0.1-0.5-0.2L66.5,44l-0.9,1l3.6,3c0.2,0.1,0.3,0.3,0.3,0.5c0,0.4-0.3,0.7-0.7,0.7h-0.1
			c-0.2,0-0.3-0.1-0.5-0.2L64.5,46l-0.9,1l3.6,3c0.2,0.1,0.3,0.3,0.3,0.5c0,0.4-0.3,0.7-0.7,0.7c-0.3,0-0.5-0.1-0.7-0.3l-1.5-1.3
			c-0.3-0.7-1-1.2-1.8-1.2c0-1.1-0.9-2-2-2c0-1.1-0.9-2-2-2c0-1.1-1-2-2.1-2c-0.6,0-1.1,0.2-1.5,0.6l-1.2,1.2
			c-0.1,0.1-0.1,0.2-0.2,0.2l-2.1-1.3l1.8-6.4l4.6-1c1.2-0.3,2.5-0.2,3.6,0.2l1,0.3L59.2,38c-0.8,0.4-1.3,1.2-1.3,2v0.1
			c0,1.3,1,2.3,2.3,2.3c0.4,0,0.8-0.1,1.2-0.3l2.5-1.5c0.5-0.3,1.2-0.2,1.6,0.2l5.7,5.2c0.2,0.1,0.2,0.3,0.2,0.5
			C71.5,46.9,71.2,47.2,70.8,47.2z M83.8,39.3L72.3,45c0,0-0.1-0.1-0.1-0.1l-5.7-5.2c-0.5-0.5-1.2-0.7-1.8-0.7c-0.5,0-1,0.1-1.4,0.4
			L60.7,41c-0.1,0.1-0.3,0.1-0.5,0.1c-0.5,0-0.9-0.4-0.9-0.9V40c0-0.4,0.2-0.7,0.5-0.8l3.8-1.9c0.6-0.3,1.4-0.4,2.1-0.2l4.3,1.2l1,0
			l12.7-6.7V39.3z"/>
	</g>
</g>
</svg>
