<?xml version="1.0" encoding="utf-8"?>
<!-- Generator: Adobe Illustrator 23.0.6, SVG Export Plug-In . SVG Version: 6.00 Build 0)  -->
<svg version="1.1" id="Layer_1" xmlns="http://www.w3.org/2000/svg" xmlns:xlink="http://www.w3.org/1999/xlink" x="0px" y="0px"
	 viewBox="0 0 106 98" style="enable-background:new 0 0 106 98;" xml:space="preserve">
<style type="text/css">
	.st0{fill:#FFFFFF;}
</style>
<g id="XMLID_4222_" transform="translate(0 -1)">
	<g id="XMLID_4223_">
		<g id="XMLID_4224_">
			<path id="XMLID_4234_" class="st0" d="M73.1,13C61,8,47,12.2,39.7,23.1s-5.9,25.5,3.4,34.7c5.2,5.2,12.2,8.1,19.5,8.1
				c13.1,0,24.4-9.3,27-22.2C92.1,30.9,85.2,18,73.1,13z M85.5,47.8C81,58.7,69.4,64.9,57.9,62.6S38,50.2,38,38.4
				c0-6.5,2.6-12.8,7.2-17.4l0,0c8.3-8.3,21.4-9.6,31.2-3.1C86.2,24.4,90,36.9,85.5,47.8z"/>
			<path id="XMLID_4225_" class="st0" d="M86.2,14.8C73.8,2.3,53.9,1.7,40.6,13.3s-15.2,31.4-4.5,45.4l-2.6,2.6
				c-1-0.3-2.1,0-2.8,0.7L12.4,80.4c-0.7,0.7-1,1.8-0.7,2.8l-1.3,1.3C9.5,85.3,9,86.5,9,87.6s0.5,2.3,1.3,3.1l1-1l-1,1
				c0.8,0.8,1.9,1.3,3.1,1.3s2.3-0.5,3.1-1.3l1.3-1.3c1,0.3,2.1,0,2.8-0.7L39,70.2c0.7-0.7,1-1.8,0.7-2.8l2.6-2.6
				c13.9,10.7,33.8,8.7,45.4-4.5S98.7,27.2,86.2,14.8z M14.4,88.6c-0.6,0.5-1.5,0.5-2,0l0,0v0c-0.3-0.3-0.4-0.6-0.4-1
				c0-0.4,0.2-0.8,0.4-1l1-1l2.1,2.1L14.4,88.6z M18.5,86.6l-2.1-2.1l-2.1-2.1l0,0l14.4-14.4l4.1,4.1L18.5,86.6z M34.9,70.2
				l-4.1-4.1l2.1-2.1l0,0l2.1,2.1l2.1,2.1L34.9,70.2z M38,65l-1-1l-1-1l2.1-2.1c0.3,0.4,0.6,0.7,1,1.1c0.3,0.3,0.7,0.6,1.1,1L38,65z
				 M74.3,66.5c-11.4,4.7-24.5,2.1-33.2-6.6c-11.9-11.9-11.9-31.2,0-43.1c8.7-8.7,21.8-11.3,33.2-6.6C85.7,15,93.1,26.1,93.1,38.4
				S85.7,61.8,74.3,66.5z"/>
		</g>
	</g>
</g>
</svg>
