<?xml version="1.0" encoding="utf-8"?>
<!-- Generator: Adobe Illustrator 23.0.6, SVG Export Plug-In . SVG Version: 6.00 Build 0)  -->
<svg version="1.1" id="Layer_1" xmlns="http://www.w3.org/2000/svg" xmlns:xlink="http://www.w3.org/1999/xlink" x="0px" y="0px"
	 viewBox="0 0 100 100" style="enable-background:new 0 0 100 100;" xml:space="preserve">
<style type="text/css">
	.st0{fill:#FFFFFF;}
</style>
<g id="XMLID_577_">
	<g id="XMLID_198_" transform="translate(0 -1)">
		<g id="XMLID_205_">
			<g id="XMLID_212_">
				<path id="XMLID_654_" class="st0" d="M66.1,21.6c-10.6-4.4-22.7-0.7-29.1,8.8S32,52.6,40,60.7c4.5,4.5,10.6,7,17,7
					c11.4,0,21.2-8.1,23.5-19.3S76.7,26,66.1,21.6z M76.9,51.9c-3.9,9.5-14,14.9-24,12.9c-10.1-2-17.3-10.8-17.3-21.1
					c0-5.7,2.2-11.2,6.3-15.2l0,0c7.2-7.3,18.6-8.4,27.1-2.7C77.5,31.5,80.8,42.5,76.9,51.9z"/>
				<path id="XMLID_213_" class="st0" d="M77.5,23.2c-10.8-10.8-28.2-11.4-39.7-1.3S24.7,49.2,34,61.4l-2.2,2.2
					c-0.9-0.2-1.8,0-2.4,0.6L13.3,80.3c-0.6,0.6-0.9,1.6-0.6,2.4l-1.1,1.1c-0.7,0.7-1.1,1.7-1.1,2.7s0.4,2,1.1,2.7l0.9-0.9l-0.9,0.9
					c0.7,0.7,1.7,1.1,2.7,1.1s2-0.4,2.7-1.1l1.1-1.1c0.9,0.2,1.8,0,2.4-0.6l16.1-16.1c0.6-0.6,0.9-1.6,0.6-2.4l2.2-2.2
					c12.1,9.3,29.4,7.6,39.5-3.9S88.4,34,77.5,23.2z M15,87.5c-0.5,0.5-1.3,0.5-1.8,0l0,0v0c-0.2-0.2-0.4-0.6-0.4-0.9
					c0-0.3,0.1-0.7,0.4-0.9l0.9-0.9l1.8,1.8L15,87.5z M18.6,85.7l-1.8-1.8L15,82.1l0,0l12.5-12.5l3.6,3.6L18.6,85.7z M32.9,71.4
					l-3.6-3.6l1.8-1.8l0,0l1.8,1.8l1.8,1.8L32.9,71.4z M35.6,66.9L34.7,66l-0.9-0.9l1.8-1.8c0.3,0.3,0.5,0.6,0.8,0.9
					c0.3,0.3,0.6,0.6,0.9,0.8L35.6,66.9z M67.1,68.2c-9.9,4.1-21.3,1.8-28.9-5.7c-10.3-10.4-10.3-27.1,0-37.5
					c7.6-7.6,19-9.8,28.9-5.7C77,23.3,83.5,33,83.5,43.7S77,64.1,67.1,68.2z"/>
			</g>
		</g>
	</g>
	<g id="XMLID_768_">
		<path id="XMLID_823_" class="st0" d="M44.1,48.6c-1.1,0-1.9-0.2-2.7-0.7c-0.7-0.5-1.2-1.1-1.5-1.9l1.8-1.1
			c0.4,1.1,1.2,1.6,2.5,1.6c0.6,0,1-0.1,1.3-0.3s0.4-0.5,0.4-0.8c0-0.4-0.2-0.7-0.5-0.9c-0.3-0.2-0.9-0.4-1.8-0.7
			c-0.5-0.1-0.9-0.3-1.2-0.4c-0.3-0.1-0.7-0.3-1-0.6c-0.3-0.2-0.6-0.5-0.8-0.9c-0.2-0.4-0.3-0.8-0.3-1.3c0-1,0.3-1.7,1-2.3
			c0.7-0.6,1.5-0.9,2.5-0.9c0.9,0,1.6,0.2,2.3,0.6c0.7,0.4,1.2,1,1.5,1.8l-1.8,1c-0.4-0.9-1.1-1.4-2-1.4c-0.4,0-0.8,0.1-1,0.3
			c-0.2,0.2-0.4,0.5-0.4,0.8c0,0.3,0.1,0.6,0.4,0.8c0.3,0.2,0.8,0.4,1.6,0.7c0.3,0.1,0.6,0.2,0.7,0.2c0.2,0.1,0.4,0.1,0.7,0.3
			c0.3,0.1,0.5,0.2,0.7,0.3c0.2,0.1,0.3,0.2,0.5,0.4c0.2,0.2,0.4,0.3,0.5,0.5c0.1,0.2,0.2,0.4,0.3,0.7c0.1,0.3,0.1,0.5,0.1,0.8
			c0,1-0.4,1.8-1.1,2.3C46.2,48.3,45.2,48.6,44.1,48.6z"/>
		<path id="XMLID_1206_" class="st0" d="M57.6,48.4h-2.4l-3.8-5v5h-2.1V37.7h2.1v4.7l3.7-4.7h2.4l-3.9,5.2L57.6,48.4z"/>
		<path id="XMLID_1322_" class="st0" d="M62.1,48.6c-1.2,0-2.2-0.3-2.9-1S58,46,58,44.9v-7.2h2.1v7c0,0.6,0.2,1,0.5,1.3
			c0.3,0.3,0.8,0.5,1.5,0.5c0.7,0,1.2-0.2,1.5-0.5c0.3-0.3,0.5-0.8,0.5-1.3v-7h2.1v7.2c0,1.1-0.4,2-1.1,2.7S63.3,48.6,62.1,48.6z"/>
		<path id="XMLID_1511_" class="st0" d="M69.7,42.9c0,0.2,0.1,0.4,0.4,0.5c0.3,0.1,0.6,0.2,1,0.3c0.4,0.1,0.8,0.2,1.2,0.4
			c0.4,0.1,0.7,0.4,1,0.7c0.3,0.3,0.4,0.8,0.4,1.3c0,0.8-0.3,1.4-0.9,1.8c-0.6,0.4-1.3,0.6-2.2,0.6c-1.6,0-2.6-0.6-3.2-1.8l1.7-1
			c0.2,0.7,0.7,1,1.5,1c0.7,0,1.1-0.2,1.1-0.7c0-0.2-0.1-0.4-0.4-0.5c-0.3-0.1-0.6-0.2-1-0.3c-0.4-0.1-0.8-0.2-1.2-0.4
			c-0.4-0.2-0.7-0.4-1-0.7c-0.3-0.3-0.4-0.7-0.4-1.2c0-0.8,0.3-1.3,0.8-1.8c0.6-0.4,1.2-0.6,2.1-0.6c0.6,0,1.2,0.1,1.7,0.4
			c0.5,0.3,0.9,0.7,1.2,1.2l-1.7,0.9c-0.2-0.5-0.6-0.8-1.2-0.8c-0.3,0-0.5,0.1-0.6,0.2S69.7,42.8,69.7,42.9z"/>
	</g>
</g>
</svg>
