<?xml version="1.0" encoding="utf-8"?>
<!-- Generator: Adobe Illustrator 23.0.6, SVG Export Plug-In . SVG Version: 6.00 Build 0)  -->
<svg version="1.1" id="Layer_1" xmlns="http://www.w3.org/2000/svg" xmlns:xlink="http://www.w3.org/1999/xlink" x="0px" y="0px"
	 viewBox="0 0 106 98" style="enable-background:new 0 0 106 98;" xml:space="preserve">
<style type="text/css">
	.st0{fill:#FFFFFF;}
</style>
<path id="XMLID_4332_" class="st0" d="M76.1,41.1h5.6c12.3,0,22.3-8,22.3-17.7c0-1-1-1.8-2.3-1.8H85.6c0.5-2.7,0.8-5.5,0.8-8.3
	c0-1-1-1.8-2.3-1.8s-2.3,0.8-2.3,1.8c0,9.3-3,18-8.4,24.6c-5.2,6.3-12.1,9.8-19.3,9.8S40,44.1,34.8,37.8c-5.1-6.1-8-14.1-8.4-22.7
	h41.2c1.3,0,2.3-0.8,2.3-1.8s-1-1.8-2.3-1.8H24.1c-1.3,0-2.3,0.8-2.3,1.8c0,2.8,0.3,5.6,0.8,8.3H6.3C5,21.5,4,22.3,4,23.4
	c0,7.5,6,14.2,14.8,16.7c0.3,0.1,0.5,0.1,0.8,0.1c0.9,0,1.8-0.5,2.2-1.2c0.4-1-0.2-2-1.4-2.3c-6.3-1.8-10.7-6.2-11.6-11.4h14.6
	c1.5,5.4,4.1,10.4,7.5,14.6c4.3,5.1,9.6,8.7,15.4,10.3v20.5h-2.4c-5.3,0-9.8,3-10.8,7h-5.6c-1.3,0-2.3,0.8-2.3,1.8v7
	c0,1,1,1.8,2.3,1.8h53.3c1.3,0,2.3-0.8,2.3-1.8v-7c0-1-1-1.8-2.3-1.8h-5.6c-1-4-5.5-7-10.8-7h-2.4V50.1
	C67.2,48.6,72.1,45.5,76.1,41.1z M99.2,25.2c-1.1,6.9-8.6,12.2-17.5,12.2H79c2.6-3.6,4.5-7.8,5.7-12.2L99.2,25.2z M78.4,84.7H29.7
	v-3.4h5.4H73h5.4L78.4,84.7L78.4,84.7z M70.4,77.6H37.8c0.9-2,3.3-3.4,6.1-3.4h4.7h10.9h4.7C67.1,74.3,69.4,75.7,70.4,77.6z
	 M57.2,70.6h-6.3V51c1,0.1,2.1,0.2,3.2,0.2c1.1,0,2.1-0.1,3.2-0.2L57.2,70.6L57.2,70.6z"/>
</svg>
