<?xml version="1.0" encoding="utf-8"?>
<!-- Generator: Adobe Illustrator 23.0.6, SVG Export Plug-In . SVG Version: 6.00 Build 0)  -->
<svg version="1.1" id="Layer_1" xmlns="http://www.w3.org/2000/svg" xmlns:xlink="http://www.w3.org/1999/xlink" x="0px" y="0px"
	 viewBox="0 0 106 98" style="enable-background:new 0 0 106 98;" xml:space="preserve">
<style type="text/css">
	.st0{fill:#FFFFFF;}
</style>
<g id="XMLID_4237_">
	<g id="XMLID_4327_">
		<g id="XMLID_4328_">
			<path id="XMLID_4329_" class="st0" d="M47.7,69.7c-3.9,0-7,3.1-7,7s3.1,7,7,7s7-3.1,7-7C54.7,72.8,51.6,69.7,47.7,69.7z
				 M47.7,79.8c-1.7,0-3.1-1.4-3.1-3.1c0-1.7,1.4-3.1,3.1-3.1s3.1,1.4,3.1,3.1C50.8,78.4,49.4,79.8,47.7,79.8z"/>
		</g>
	</g>
	<g id="XMLID_4322_">
		<g id="XMLID_4323_">
			<path id="XMLID_4324_" class="st0" d="M72.3,69.7c-3.9,0-7,3.1-7,7s3.1,7,7,7s7-3.1,7-7C79.3,72.8,76.2,69.7,72.3,69.7z
				 M72.3,79.8c-1.7,0-3.1-1.4-3.1-3.1c0-1.7,1.4-3.1,3.1-3.1c1.7,0,3.1,1.4,3.1,3.1C75.4,78.4,74,79.8,72.3,79.8z"/>
		</g>
	</g>
	<g id="XMLID_4319_">
		<g id="XMLID_4320_">
			<path id="XMLID_4321_" class="st0" d="M74,32.8H46c-1.1,0-2,0.9-2,2s0.9,2,2,2h28c1.1,0,2-0.9,2-2C76,33.7,75.1,32.8,74,32.8z"/>
		</g>
	</g>
	<g id="XMLID_4316_">
		<g id="XMLID_4317_">
			<path id="XMLID_4318_" class="st0" d="M72.5,43h-25c-1.1,0-2,0.9-2,2c0,1.1,0.9,2,2,2h25c1.1,0,2-0.9,2-2
				C74.5,43.8,73.6,43,72.5,43z"/>
		</g>
	</g>
	<g id="XMLID_4238_">
		<g id="XMLID_4239_">
			<path id="XMLID_4313_" class="st0" d="M93.1,24.1c-0.7-0.9-1.9-1.4-3-1.4H29.2l-1.2-6c-0.3-1.2-1.1-2.3-2.3-2.8l-8.6-3.7
				c-1-0.4-2.1,0-2.6,1c-0.4,1,0,2.1,1,2.6l8.6,3.7l9.5,45.9c0.4,1.8,2,3.1,3.8,3.1h46.9c1.1,0,2-0.9,2-2c0-1.1-0.9-2-2-2H37.4
				L36.2,57h48.4c1.8,0,3.5-1.3,3.8-3.1l5.5-26.6C94.2,26.2,93.9,25,93.1,24.1z M84.6,53.1H35.4L30,26.6l60.1,0L84.6,53.1z"/>
		</g>
	</g>
</g>
</svg>
