<?xml version="1.0" encoding="utf-8"?>
<!-- Generator: Adobe Illustrator 23.0.6, SVG Export Plug-In . SVG Version: 6.00 Build 0)  -->
<svg version="1.1" id="Layer_1" xmlns="http://www.w3.org/2000/svg" xmlns:xlink="http://www.w3.org/1999/xlink" x="0px" y="0px"
	 viewBox="0 0 128 98" style="enable-background:new 0 0 128 98;" xml:space="preserve">
<style type="text/css">
	.st0{fill:#FFFFFF;}
	.st1{fill:#2B318B;}
	.st2{font-family:'Gilroy-Regular';}
	.st3{font-size:12.0158px;}
</style>
<g>
	<path id="XMLID_349_" class="st0" d="M65.6,3.2c29.5,0,53.4,20.5,53.4,45.8c0,25.3-23.9,45.9-53.4,45.9
		c-29.5,0-53.4-20.5-53.4-45.9C12.2,23.7,36.1,3.2,65.6,3.2"/>
	<text id="XMLID_295_" transform="matrix(1 0 0 1 45.9998 76.1488)" class="st1 st2 st3">Ventas</text>
	<g id="XMLID_79_">
		<g>
			<g id="XMLID_210_">
				<g id="XMLID_211_">
					<path id="XMLID_212_" class="st1" d="M69.4,43c-0.9,0-1.6-0.6-1.6-1.4c0-0.7,0.7-1.4,1.6-1.4c0.9,0,1.6,0.6,1.6,1.4
						c0,0.4,0.3,0.7,0.7,0.7c0.4,0,0.7-0.3,0.7-0.7c0-1.3-1-2.4-2.3-2.7v-0.4c0-0.4-0.3-0.7-0.7-0.7c-0.4,0-0.7,0.3-0.7,0.7V39
						c-1.3,0.3-2.3,1.4-2.3,2.7c0,1.5,1.3,2.8,3,2.8c0.9,0,1.6,0.6,1.6,1.4s-0.7,1.4-1.6,1.4c-0.9,0-1.6-0.6-1.6-1.4
						c0-0.4-0.3-0.7-0.7-0.7c-0.4,0-0.7,0.3-0.7,0.7c0,1.3,1,2.4,2.3,2.7v0.3c0,0.4,0.3,0.7,0.7,0.7c0.4,0,0.7-0.3,0.7-0.7v-0.3
						c1.3-0.3,2.3-1.4,2.3-2.7C72.4,44.3,71.1,43,69.4,43z"/>
				</g>
			</g>
			<g id="XMLID_207_">
				<g id="XMLID_208_">
					<path id="XMLID_209_" class="st1" d="M77.2,38.8c-0.9-1.4-2.2-2.6-3.8-3.4c-0.4-0.2-0.8,0-1,0.3c-0.2,0.4,0,0.8,0.3,1
						c2.7,1.3,4.4,4.1,4.4,7.1c0,1.3-0.3,2.6-0.9,3.7c-0.2,0.3-0.1,0.8,0.3,1c0.1,0.1,0.2,0.1,0.3,0.1c0.3,0,0.5-0.1,0.6-0.4
						c0.7-1.3,1.1-2.8,1.1-4.3C78.7,42,78.2,40.3,77.2,38.8z"/>
				</g>
			</g>
			<g id="XMLID_204_">
				<g id="XMLID_205_">
					<path id="XMLID_206_" class="st1" d="M70.6,34.5L70.6,34.5c-0.4,0-0.8,0.3-0.8,0.7s0.3,0.7,0.7,0.7l0,0c0,0,0,0,0,0
						c0.4,0,0.7-0.3,0.7-0.7C71.3,34.9,70.9,34.5,70.6,34.5z"/>
				</g>
			</g>
			<g id="XMLID_201_">
				<g id="XMLID_202_">
					<path id="XMLID_203_" class="st1" d="M66,50.9c-2.7-1.3-4.4-4.1-4.4-7.1c0-1.3,0.3-2.6,0.9-3.7c0.2-0.3,0.1-0.8-0.3-1
						c-0.3-0.2-0.8-0.1-1,0.3c-0.7,1.3-1.1,2.8-1.1,4.3c0,1.8,0.5,3.5,1.5,5c0.9,1.4,2.2,2.6,3.8,3.4c0.1,0,0.2,0.1,0.3,0.1
						c0.3,0,0.5-0.1,0.6-0.4C66.6,51.5,66.4,51,66,50.9z"/>
				</g>
			</g>
			<g id="XMLID_198_">
				<g id="XMLID_199_">
					<path id="XMLID_200_" class="st1" d="M68.4,51.6L68.4,51.6c-0.4,0-0.8,0.3-0.8,0.7c0,0.4,0.3,0.7,0.7,0.7l0,0
						c0.4,0,0.7-0.3,0.7-0.7C69.1,52,68.8,51.6,68.4,51.6z"/>
				</g>
			</g>
			<g id="XMLID_187_">
				<g id="XMLID_188_">
					<path id="XMLID_189_" class="st1" d="M72.7,32.1c-0.1-0.2-0.2-0.4-0.3-0.6h1.9c1.8,0,3.3-1.5,3.3-3.3S76,25,74.2,25h-5.7
						c0.4-0.5,0.6-1.2,0.6-1.9c0-1.8-1.5-3.3-3.3-3.3H48.4c-1.8,0-3.3,1.5-3.3,3.3s1.5,3.3,3.3,3.3h5.7c-0.4,0.5-0.6,1.2-0.6,1.9
						c0,0.7,0.2,1.3,0.6,1.9h-1.9c-1.8,0-3.3,1.5-3.3,3.3c0,1,0.5,2,1.2,2.6c-0.8,0.6-1.2,1.5-1.2,2.6s0.5,2,1.2,2.6
						c-0.8,0.6-1.2,1.5-1.2,2.6c0,1,0.5,2,1.2,2.6c-0.8,0.6-1.2,1.5-1.2,2.6c0,1.8,1.5,3.3,3.3,3.3h8.4c2.2,2.4,5.4,3.8,8.8,3.8
						c6.7,0,12.1-5.4,12.1-12.1C81.5,38.2,77.8,33.6,72.7,32.1z M74.2,26.4c1,0,1.9,0.8,1.9,1.9c0,1-0.8,1.9-1.9,1.9h-4.6H56.8
						c-1,0-1.9-0.8-1.9-1.9c0-1,0.8-1.9,1.9-1.9H74.2z M48.4,25c-1,0-1.9-0.8-1.9-1.9c0-1,0.8-1.9,1.9-1.9h17.4c1,0,1.9,0.8,1.9,1.9
						c0,1-0.8,1.9-1.9,1.9H48.4z M52.2,31.6h17.4c0.3,0,0.6,0.1,0.8,0.2c-0.3,0-0.7,0-1,0c-3.3,0-6.4,1.4-8.6,3.6h-8.7
						c-1,0-1.9-0.8-1.9-1.9S51.2,31.6,52.2,31.6z M52.2,36.7h7.4c-0.8,1.1-1.4,2.4-1.8,3.7h-5.6c-1,0-1.9-0.8-1.9-1.9
						C50.4,37.5,51.2,36.7,52.2,36.7z M52.2,41.8h5.3c-0.1,0.6-0.2,1.3-0.2,2c0,0.6,0,1.2,0.1,1.7h-5.2c-1,0-1.9-0.8-1.9-1.9
						C50.4,42.6,51.2,41.8,52.2,41.8z M52.2,50.6c-1,0-1.9-0.8-1.9-1.9s0.8-1.9,1.9-1.9h5.5c0.4,1.3,0.9,2.6,1.7,3.7H52.2z
						 M69.4,54.5c-5.9,0-10.7-4.8-10.7-10.7s4.8-10.7,10.7-10.7s10.7,4.8,10.7,10.7S75.3,54.5,69.4,54.5z"/>
				</g>
			</g>
		</g>
	</g>
</g>
</svg>
